<svg xmlns="http://www.w3.org/2000/svg" viewBox="-49 141 512 512" style="enable-background:new -49 141 512 512" xml:space="preserve"><path d="M131.3 274.9c.1-49.3 37.1-90.7 86.2-96.2-3.5-.4-7.1-.6-10.6-.6-53.4.1-96.8 43.4-96.8 96.8l.1 32.6 1 1c2.5 2.5 6.4 3.2 9.6 1.7 1.7-.8 3.1-2.2 3.9-3.9 1.5-3.2 3.8-6.1 6.6-8.3v-23.1zm28.2 153.9a96.324 96.324 0 0 1-24.8-63.7v-.1c0-3.6-2.6-6.7-6.2-7.3-7.8-1.4-13.4-8.1-13.4-16 0-1.3.2-2.6.5-3.9 1.1-4.4 4.9-7.6 9.4-7.9 2.9-.3 5.4-2.2 6.4-5 11 3.6 23-1.5 28.1-12 1-2.1 2.6-3.4 3.3-3.4h.4c13.9-.8 37.7-2.1 63.1-14.3-2.8-2.3-5.6-4.7-8.2-7.2-30.1 18.9-59.9 20.5-76.1 21.4h-.4c-.7 0-2.3 1.3-3.3 3.4-5.1 10.4-17.1 15.5-28.1 12-.9 2.8-3.4 4.7-6.4 5-4.5.3-8.3 3.5-9.4 7.9-.3 1.3-.5 2.6-.5 3.9 0 7.9 5.6 14.6 13.4 16 3.6.6 6.2 3.7 6.2 7.3v.1c.2 23.6 9 46.2 24.8 63.7 16.2 17.9 37.4 27.8 59.7 27.8h19.7c-21.8-.4-42.4-10.2-58.2-27.7zm-5.9 32.2c0-.4-.1-.8-.2-1.2-3.1-1.7-6.1-3.6-8.9-5.6-1.4.3-2.7 1.1-3.7 2.1l-8.2 8.7 1 18.6c1 0 2 .1 3 .1 3.7.1 7.5.3 11.3.3l6.8-2.3-1.1-20.7zm-35.9-34.3c-5.9-8.7-10.5-18.2-13.8-28.2l-22.1 83.1c3.2.5 7.3 1.2 12.1 1.7l12.1-12.7 11.7-43.9zM105 521.4l25.6-8.7-5.5-5.3-41.3 14c-17.2 5.8-28.8 22-28.8 40.1v54.1h21.3v-54.1c-.1-18.1 11.5-34.2 28.7-40.1zm67.7-17.3 26.8 26.6-36.3-36.2-22.3 7.6 9.8 9.5z" style="fill:#d4e1f4"/><path d="M47.5 630.5h318.9c4.1 0 7.4-3.3 7.4-7.4v-61.5c0-24.5-15.6-46.4-38.9-54.2l-56.3-19.1 9-11.1 20.7 18.7c1.6 1.4 3.8 2.1 5.9 1.9l24.4-3c4.1-.5 7-4.2 6.5-8.3 0-.2-.1-.4-.1-.6l-24.3-118c11.2-7.2 16.7-20.7 13.5-33.6-1.9-8.2-7.8-14.8-15.7-17.7l.1-40.9c.2-61.7-49.6-111.9-111.3-112.1-61.7-.4-111.9 49.4-112.1 111.1v.2l.1 35.7v.2l.1 5.8c-7.8 2.9-13.7 9.5-15.6 17.6-3.5 14.1 3.4 28.8 16.4 35.3L65.4 485.4c-1.1 4 1.3 8 5.3 9.1h.1c8.3 1.9 16.7 3.2 25.2 4 2.3.2 4.6-.6 6.2-2.3l16.2-17.1.6 12.1c0 .8.2 1.6.5 2.4L79 507.3c-23.3 7.9-38.9 29.7-38.9 54.2V623c0 4.2 3.3 7.5 7.4 7.5zm115.7-136 36.3 36.2V559L141 502.1l22.2-7.6zm34.7-23H216c8.6 0 17.1-1.2 25.3-3.6V483L207 517.2l-34.4-34.3v-15.1c8.2 2.4 16.8 3.7 25.3 3.7zm16.4 59.4 36.5-36.4 22.3 7.5-58.7 57.1v-28.2zM359 561.6v54.1H214.3V580l74.6-72.5 41.3 14c17.2 5.8 28.8 21.9 28.8 40.1zm-43.2-79.1-23.9-21.6c-3-2.8-7.8-2.5-10.5.5-.1.1-.2.2-.2.3l-17.5 21.4-7.3-2.5V462c11.6-5.7 21.9-13.6 30.5-23.3 11.3-12.5 19.6-27.4 24.3-43.6l17.7 85.8-13.1 1.6zm-72.7-214.9c8.1 16 22 29.6 39.4 39-19.4-4.7-37.3-14.1-52.1-27.5 4.4-3.5 8.7-7.4 12.7-11.5zm-36.2-89.5c53.5 0 96.8 43.3 96.8 96.8v.6l-.1 24.2c-23.5-8.1-42.1-24.4-49.8-44.3 5.7-7.2 10.8-14.9 15.2-22.9 2-3.6.8-8.1-2.8-10.1-3.6-2-8.1-.8-10.1 2.8-36.7 65-89.7 68-115.1 69.4h-.4c-6.5.4-12.5 4.9-15.9 11.8-.8 1.7-2.2 3.1-3.9 3.9-3.2 1.5-7.1.9-9.6-1.7l-1-1-.1-32.6c0-53.5 43.4-96.9 96.8-96.9zM94.3 337.7c1.1-4.4 4.9-7.6 9.4-7.9 2.9-.3 5.4-2.2 6.4-5 11 3.6 23-1.5 28.1-12 1-2.1 2.6-3.4 3.3-3.4h.4c16.2-.9 46.1-2.6 76.1-21.4 23.3 22.1 53.8 35.1 85.9 36.7.9 2.9 3.4 4.9 6.4 5.2 4.5.3 8.3 3.5 9.4 7.9 2.1 8.7-3.2 17.5-11.9 19.6-.3.1-.7.2-1 .2-3.6.6-6.2 3.7-6.2 7.3v.1c-.2 23.6-9 46.2-24.8 63.7-16.2 17.9-37.4 27.8-59.7 27.8H198c-22.3 0-43.5-9.9-59.7-27.8a96.324 96.324 0 0 1-24.8-63.7v-.1c0-3.6-2.6-6.7-6.2-7.3-7.8-1.4-13.4-8.1-13.4-16-.1-1.3.1-2.6.4-3.9zm42.2 146c-1 0-2-.1-3-.1l-1.2-22.5c-.2-4.1-3.7-7.3-7.8-7-1.9.1-3.7.9-5 2.3l-25.6 27c-4.9-.6-9-1.2-12.1-1.7l22.1-83.1c4.8 14.9 12.8 28.6 23.3 40.3 8.6 9.6 19 17.5 30.6 23.3v18.6l-9.8 3.3c-3.9-.2-7.8-.3-11.5-.4zM55 561.6c0-18.2 11.6-34.3 28.8-40.1l41.3-14 74.4 72.3v35.9H55v-54.1z" style="fill:#7f00ff"/></svg>