<svg version="1.1" id="Слой_1" xmlns="http://www.w3.org/2000/svg" x="0" y="0" viewBox="0 0 820 500" style="enable-background:new 0 0 820 500" xml:space="preserve"><style>.st1{fill:#8e2cff}.st2{fill:#fff}.st3{fill:#7f00ff}.st6{fill:#ffca55}.st10{fill:#ffd255}.st11{fill:#b7ceff}.st12{fill:#eea886}.st13{fill:#e8e8e8}.st14{fill:#303669}.st16{fill:#a77860}.st19{fill:#faa146}.st22{fill:#b57433}.st23{fill:#525252}.st25{fill:#464240}.st26{fill:#eb4747}.st31{fill:#fab46c}.st32{fill:#fccca2}.st33{fill:#d4c3bd}.st34{fill:#de9673}.st35{fill:#2f4563}.st36{fill:#e6d3cc}.st37{fill:#ded1c5}.st41{fill:#eea987}</style><linearGradient id="SVGID_1_" gradientUnits="userSpaceOnUse" x1="422.31" y1="388.6" x2="420.244" y2="339.012"><stop offset="0" style="stop-color:#ffebe3"/><stop offset="1" style="stop-color:#eddad4"/></linearGradient><path d="M90.8 346.4h638.7s50.3-2.5 24.3 23.5c-26 26-126.1 19.8-188.1 57s-52.1-17.6-133.5-20.7c-81.4-3.1-330.1-8.3-332.3-31-2.3-22.7-36.2-28.3-9.1-28.8z" style="fill:url(#SVGID_1_)"/><path class="st1" d="M214.2 178.4c5.3-2.5 10.6 14.4 10.6 14.4 9.1 12 21.7-4 20.5 13.9-2.2 31.3 36 9.8 18.4 42.5s15.6 18.5 4.6 44.8c-10.9 26.3 3.2 57.7-13.2 44.8 0 0-14.5-31.8-29.5-41.6s9-21.5 4.3-34.9c-6.8-19.4-23.2-18.6-11.4-39.5 11.9-20.8-22.4-35.8-4.3-44.4z"/><path class="st2" d="M260.3 326.9c-7.1-5-15.5-40-16-60.8-.3-10.7-3.4-15.1-6.2-19-2.7-3.8-5-7-3.6-14.4 2.6-14.2-4.2-20.3-4.2-20.4l.8-.9c.3.3 7.3 6.6 4.6 21.5-1.3 6.9.8 9.9 3.4 13.5 2.7 3.9 6.1 8.7 6.4 19.7.5 22.4 9.1 55.4 15.5 59.9l-.7.9z"/><path class="st3" d="M263 329.5c-.9 0-1.9-.1-3-.3-2.8-.6-4.6-2-5.4-4.3-1.9-5.5 2.5-14.4 6.2-18.8.1-.1 6.1-7.5 5.5-17.7-.1-1.7-.3-3.3-.4-4.7-.5-4.1-.8-7 1-9 1.5-1.7 4.5-2.5 9.9-2.5 9.5 0 13.3-4 16.3-7.1 1.3-1.3 2.5-2.6 4-3.4 4.7-2.6 9.7-3 11.9-.9 1 1 1.9 2.9.2 6.5-1.6 3.3-3.6 5.3-5.2 7-2.2 2.2-3.6 3.7-2.9 6.7l.6 2.1c1.5 5 3.1 10.7-5.4 14.5-1.8.8-3.5 1.5-4.9 2-6 2.3-9.6 3.8-13.7 12.4-.8 1.7-1.5 3.2-2.2 4.8-3.4 7.2-5.9 12.7-12.5 12.7zm34.5-66.8c-1.3.7-2.4 1.9-3.7 3.2-3.2 3.3-7.1 7.5-17.1 7.5-5 0-7.8.7-9 2.1-1.4 1.6-1.1 4.3-.7 8 .2 1.4.3 3 .5 4.8.7 10.7-5.5 18.3-5.7 18.6-3.6 4.3-7.6 12.8-5.9 17.6.7 1.9 2.2 3.1 4.5 3.5 8.1 1.6 10.3-3.4 14-11.8.7-1.5 1.4-3.1 2.2-4.8 4.3-9 8.3-10.6 14.3-13 1.5-.6 3.1-1.2 4.9-2 7.6-3.4 6.3-8.1 4.8-13.1l-.6-2.1c-.9-3.6.9-5.4 3.2-7.8 1.7-1.7 3.5-3.6 5-6.7.8-1.6 1.4-3.8.1-5.1-2.1-1.7-6.6-1.2-10.8 1.1z"/><path class="st3" d="m260.1 336.3-1.2-.1c.1-1.1 1.5-27.2 12-34.9 11.5-8.4 15.1-17.4 16.9-23.4 2-7.1 12.4-9 12.8-9.1l.2 1.2c-.1 0-10.1 1.9-11.9 8.3-1.8 6.2-5.5 15.5-17.3 24.1-10 7.3-11.5 33.6-11.5 33.9z"/><path class="st3" d="M284.1 204.7c-7.5-2.6-5.9 11.8-9.1 22.4-3.1 10.6-35 4.6-21.6 31.2 13.4 26.6-16.9 8.9-7.9 32.1 9.1 23.2.8 48 10.6 41.7 9.8-6.3 5.5-35.6 15.8-39 10.2-3.5 11.9-7.5 1.8-17-10.1-9.4 26.5-18.8 17.5-37.9-9.1-18.9 1.5-30.5-7.1-33.5z"/><path class="st2" d="M260.7 331.1c-.9-4-8.9-39-1.5-43.2 6.6-3.7 6.4-18.2 5.4-31.9-.9-12.1 14.7-17.8 15.3-18l.4 1.1c-.2.1-15.4 5.6-14.5 16.8 1.1 14.1 1.2 29-6 33-5.7 3.2-.5 31.3 2 41.9l-1.1.3z"/><linearGradient id="SVGID_2_" gradientUnits="userSpaceOnUse" x1="232.579" y1="338.868" x2="277.627" y2="338.868"><stop offset="0" style="stop-color:#ff9340"/><stop offset="1" style="stop-color:#ffce45"/></linearGradient><path style="fill:url(#SVGID_2_)" d="M277.6 318.7 267 359h-23.8l-10.6-40.3z"/><linearGradient id="SVGID_3_" gradientUnits="userSpaceOnUse" x1="232.579" y1="338.868" x2="277.627" y2="338.868"><stop offset="0" style="stop-color:#c97332"/><stop offset="1" style="stop-color:#ffce45"/></linearGradient><path d="M277.6 318.7s-23.4 4.4-23.4 40.4h-11l-10.6-40.4h45z" style="fill:url(#SVGID_3_)"/><path class="st6" d="m416.1 193.4-50.5.2.2 36.6v7.7l7.7-7.7 42.8-.2z"/><circle class="st2" cx="391" cy="213.3" r="3.9"/><circle class="st2" cx="403.6" cy="213.2" r="3.9"/><circle class="st2" cx="378.6" cy="213.3" r="3.9"/><path class="st3" d="m401.1 93.4 50.5.2-.2 36.6v7.7l-7.7-7.7-42.8-.2z"/><circle class="st2" cx="426.3" cy="113.3" r="3.9"/><circle class="st2" cx="413.6" cy="113.2" r="3.9"/><circle class="st2" cx="438.6" cy="113.3" r="3.9"/><path class="st6" d="m639.2 83.4-71.7.3.2 52 .1 11 10.9-11 60.8-.3z"/><circle class="st2" cx="603.5" cy="111.6" r="5.5"/><circle class="st2" cx="621.5" cy="111.6" r="5.5"/><circle class="st2" cx="585.9" cy="111.7" r="5.5"/><path class="st1" d="m755.1 121.8-63.1.2.2 45.8.1 9.6 9.6-9.6 53.4-.3z"/><circle class="st2" cx="723.7" cy="146.6" r="4.8"/><circle class="st2" cx="739.5" cy="146.6" r="4.8"/><circle class="st2" cx="708.2" cy="146.7" r="4.8"/><path class="st1" d="m59 121.6 75.7.3-.2 54.9-.1 11.6-11.5-11.6-64.2-.3z"/><circle class="st2" cx="96.7" cy="151.4" r="5.8"/><circle class="st2" cx="77.7" cy="151.3" r="5.8"/><circle class="st2" cx="115.3" cy="151.5" r="5.8"/><path class="st6" d="M330.3 197.2c1.5-4.2-.6-8.8-4.8-10.3s-8.8.6-10.3 4.8c0 0-.2.3-.3 1.1-.1.3-.1.5-.1.8-.3 2.5-.3 7.6 1.9 17.4 8.1-6 11.4-10 12.8-12 .2-.2.3-.5.4-.7.4-.7.4-1.1.4-1.1zm-9.3 1.9c-2.6-1-3.9-3.8-3-6.4 1-2.6 3.8-3.9 6.4-3 2.6 1 3.9 3.8 3 6.4-.9 2.6-3.8 4-6.4 3zM675.6 85.3l-9.1-4c-.7-.3-1.1-1.2-.8-1.9.3-.7 1.2-1.1 1.9-.8l6.4 2.8 4.6-10.3c.3-.7 1.2-1.1 1.9-.7.7.3 1.1 1.2.7 1.9l-5.6 13z"/><path class="st6" d="M685.9 94c-8.4 5.9-20 3.9-25.9-4.5-5.9-8.4-3.9-20 4.5-25.9 8.4-5.9 20-3.9 25.9 4.5 6 8.4 3.9 20-4.5 25.9zm-19.8-28.2c-7.2 5.1-8.9 15-3.9 22.2 5 7.2 15 8.9 22.2 3.9 7.2-5.1 8.9-15 3.9-22.2-5.1-7.2-15-9-22.2-3.9z"/><path transform="rotate(11.536 289.499 158.66)" style="fill:#ffc655" d="M277.2 150.2h24.7v16.9h-24.7z"/><path style="fill:#ffbc55" d="m275.8 164.5 14-6.8 10.2 11.7z"/><path style="fill:#ffa655" d="m303.3 152.8-14.2 7.9-10-12.8z"/><path class="st6" d="M637.7 159.7c-6.3-.1-8.5 5.6-8.5 5.6s-5.3-3.1-10.2.9c-4.9 4-2.4 8-2.4 8 3.5 8.4 20.2 12.7 20.2 12.7s10.3-13.8 7.8-22.5c0 .1-.5-4.6-6.9-4.7z"/><path class="st10" d="M206.7 156.7c-1.2.4-2.4.4-3.5 0-1.2-.4-2.2-1.3-2.6-2.4-1.1-2.1-2.7-4.1-3.9-5.5-3.6-1-6.4-3.8-7.5-7.3-1.9-5.9 1.3-12.2 7.2-14.1 5.9-1.9 12.2 1.3 14.1 7.2 1 3.2.6 6.7-1.2 9.5.1 2.4.4 4.5 1 6.3.9 2.3-.5 5-3.2 6.1-.2.1-.3.1-.4.2zm-10-28.4c-5.4 1.7-8.4 7.6-6.6 13 1.1 3.3 3.7 5.8 7 6.8h.1l.1.1c1.3 1.4 3 3.5 4.1 5.8.3.9 1.1 1.5 2.1 1.9 1 .3 2.2.3 3.2-.1 2.2-.9 3.4-3.1 2.7-4.9-.6-1.9-.9-4.1-1-6.7v-.1l.1-.1c1.7-2.6 2.2-5.8 1.2-8.8-1.8-5.7-7.6-8.7-13-6.9z"/><path class="st10" d="m203.3 153.9-6-10.7 3.2 1 .8-2.3 1.8 1 1.5-2.7 3.3 11.9-.9.2-2.7-9.6-.8 1.5-1.7-1-.8 2.1-1.8-.6 4.9 8.8z"/><path transform="rotate(-21.871 207.238 156.997)" class="st10" d="M203.3 155.4h8v3.2h-8z"/><path transform="rotate(-21.871 206.38 154.863)" class="st10" d="M201.1 152.3h10.5v5.2h-10.5z"/><path class="st3" d="M750.7 260.8c0 63.3-1.8 75.7-17.7 89.9-6.2 5.6-17.7 17.1-50.7 22.9-9.9 1.7-21.8 2.9-36 3.3-5.8.1-11.2-.1-16-.6-4.1-.4-7.9-1.1-11.3-2-36.3-9.1-39-40.2-23.2-66.4 4.2-6.9 9-13.3 14.1-19.3 7.8-9.2 16.1-17.3 23.7-24.9 7-7 13.3-13.6 17.8-20 1.9-2.7 3.6-5.4 4.8-8.2.3-.6.6-1.3.9-1.9 1-2.1 2-4 3-5.9 1.9-3.6 3.9-6.8 5.7-9.7 1.5-2.3 2.9-4.4 4.3-6.3 4.6-6.4 8.1-10 8.1-10s.4-.2 1.2-.5c.4-.2.9-.4 1.6-.6.2-.1.5-.2.8-.3l.9-.3.9-.3c.4-.1.7-.2 1.1-.4.2-.1.5-.1.7-.2.1 0 .3-.1.4-.1h.2c4.7-1.4 11.2-3 18.2-3.2 20.6-.9 46.5 9.4 46.5 65z"/><path class="st11" d="M666.2 356.2s.5 4.2 1.2 6.1c.7 1.9 4.4 6.2 2.9 10.3-1.7 4.5-9.2.2-12.3-1.2-3.1-1.4-2.4-3.9-2.7-6.9-.3-3.1-1.8-3.1-1.3-5.3.5-2.1 3.9-6.3 3.9-6.3l8.3 3.3z"/><path class="st12" d="M659.3 350.8s-1.9 2.7-1.9 2.8c.1.1 8.2 5 8.8 3.4.5-1.3.6-3.1.6-3.1l-7.5-3.1z"/><path class="st11" d="M631.7 359.2s-2.5 2.2-4.7 5.5c-2.2 3.4-8.2 3.5-8.4 8.1-.3 4.6 8.1 4.7 12.4 3.2 4.4-1.5 5-6 7.7-7.1 2.6-1.1 4-2 3.8-4.2-.2-2.2-1.7-5.7-1.7-5.7s-1.6.5-2.6.6c-1 .2-4.2.2-6.5-.4z"/><path class="st13" d="M661.6 235.2s-1.7 10-3 16.5c-.5 2.7-1 4.8-1.3 5.4-.4.8-3.5 4.2-7.4 8.2-6.8 6.9-15.7 15.7-15.7 15.7l-3.5-6.6s7.9-9.3 13.3-15.5c2.5-2.9 4.4-5.1 4.8-5.4 1.1-1 2.4-10.9 4.3-19.1 1.8-8.2 5.5-12.7 5.5-12.7l3 13.5z"/><path class="st12" d="M649.9 265.3c-6.8 6.9-15.7 15.7-15.7 15.7l-3.5-6.6s7.9-9.3 13.3-15.5c1.7.8 4.7 2.8 5.9 6.4zm-17.8 90.8-.4 3.1s4.3 1.5 9.1-.1l.1-2.7-8.8-.3z"/><path class="st13" d="M693.6 279.7c.3.9-45.9 0-45.9 0s12.8-9.3 13.6-11.8c.8-2.5-3.3-17.4-3.8-22.2-.4-3.9-1.5-21.2 1.1-23.9 2.7-2.8 12.3-5.7 12.3-5.7l14 .5s2.3.5 4 1.3c1.7.8 11.1 4.1 12.7 8.9 1.5 4.7-9.4 19.9-9.4 19.9s0 .7-.1 1.8c0 1.5-.1 3.8-.2 6.2-.1 3.2-.1 6.7-.1 9.3-.1 6 1.5 14.8 1.8 15.7z"/><path class="st14" d="M693.6 279.7s6.3 9.2 6.4 15.5c.1 6.3-11.1 27.4-12.8 30.4-5.1 9.1-19.1 28.6-19.1 28.6s-2.4-.1-9.9-3c0 0 9.3-25.8 10.5-28.5 5-11.4 7.8-19.4 6.1-21.4-1.7-2-6.3-3.9-7.6-5.1-1.3-1.2-24.5 4.4-26.9 5-6.3 1.6-3.4 12.6-2 17.5 2.3 8.2 4.4 37.8 4.4 37.8s-4.5 1.9-12 .3c0 0-14.7-53.5-15.2-58.8-.5-5.3-.7-14.1 35.6-20.8l42.5 2.5z"/><path class="st12" d="M674.7 185.7s-12.2-2.7-9.4 12.6c2.8 15.3 5.7 16.5 13.1 13.4 7.3-3.2 6.7-13 7.1-17.8.3-4.9-6.9-8-10.8-8.2z"/><path class="st12" d="M671.5 220.1s5.4 5.7 13.9.5c0 0-1.9-12.4-.9-18.4 1-6-11.1 9.3-11.1 9.3.2.1.3.7.3 1.5 0 .7 0 1.6-.1 2.5-.3 2-.9 4.1-2.1 4.6z"/><path d="M684.8 201.7s-.3-4.8-2.1-5c-1.8-.2-2 1.8-2 1.8l-1.8.3s.6-4.2-1.2-5c-1.8-.7-11.4 2.3-12.8 1.1-1.4-1.2-.7-9.8 1.8-11 2.6-1.2 9.6-3.8 14.8-.3 0 0 4-.5 4.6 2.8.6 3.3-.2 12.9-1.3 15.3z" style="fill:#3a3f47"/><path class="st16" d="M673.5 215.5c8.8-2.7 9.5-8 9.5-8.1-2.9 5-9.3 5.6-9.3 5.6 0 .7-.1 1.6-.2 2.5z"/><path class="st12" d="M689 218s-6.4 12.8-16.8 12c-10.4-.8-1.8-13.7-1.3-13.8.5-.2 10.6-2.7 18.1 1.8z"/><path class="st13" d="M642.4 279s31.9 3.9 51.2.7l-36.9-4.6s-.2.9-14.3 3.9z"/><path class="st12" d="m666.2 273.6-2.4 1.2s.5 3.8 1.8 4.9l2.7-.7c.1.1-.5-4.1-2.1-5.4z"/><path class="st13" d="M703.1 265.9c-.5.5-6.7 3.1-13.8 5.8-9.7 3.7-20.6 7.2-20.6 7.2l-2.5-5.3s11.4-6.2 19.1-10.6c3.6-2.1 6.5-3.7 6.9-4.1 1.2-1.2 1.6-3.1.7-6.4-.9-3.3-3-18.5-3.3-20.3-.2-1.8.6-6.5 5-6.7 4.4-.2 6.7 1 6.7 1s1.1.5 1.9 11.2c.9 10.9 1 26.9-.1 28.2z"/><path d="M692 248.5c0 1.5-.1 3.8-.2 6.2-4.3-10.6-1.8-19.1-1.8-19.2-.4 2.9 2 12.9 2 13zm-33.4 3.2c-.5 2.7-1 4.8-1.3 5.4-1.5-7.1-.1-16.3-.1-16.3.1 4.4 1.4 10.9 1.4 10.9z" style="fill:#b0b0b0"/><path class="st12" d="M689.3 271.7c-9.7 3.7-20.9 7.4-20.9 7.4l-2.1-5.4s11.4-6.2 19.1-10.6c0 0 2.8 1.3 3.9 8.6z"/><path style="fill:#444c94" d="m665.6 279.4-45.3-.7 22.8 11.6z"/><path class="st14" d="m643.1 290.3 22.5-8.7v-2.2l-24.2 8.7z"/><path class="st12" d="M664.4 274.9s-2.8-.4-4.8-.9c-1.5-.4-5.3.1-6.2 1.1-1 1-4 7.7-4.6 8.1-.6.4.3 1.4 1.3.9 0 0 .9 3 3.2 1.9 2.3-1.1 3.9-3.5 5.1-4 1.2-.4 8.2-2.6 8.2-2.6s-.4-5.2-2.2-4.5z"/><path class="st12" d="M654.1 274.7s-1.8.9-2.3 1.3c-.5.4-2.4 1.8-2.9 2.2-.5.3.7 1.3 4.1-.2s1.1-3.3 1.1-3.3z"/><path class="st14" d="m643.1 290.3-13.4-36.8-43.5.7 12.9 33.9z"/><ellipse transform="rotate(-26.565 612.486 271.463)" class="st1" cx="612.5" cy="271.5" rx="3.7" ry="5.4"/><path class="st12" d="M680.7 196.4c.2-1.4 2.8-1.8 3 .2.2 2-1.2 5.6-2.2 5.2-.9-.3-1-3.5-.8-5.4z"/><path class="st19" d="M412.9 343c-.3 2.2-13.2 11.2-15.8 13-2 1.5-3.8 2.1-6.9 3.3-7 1.8-51.1 15-51.1 15-.1-.4-.2-.8-.4-1.3-1.6.7-3.3 1.1-4.4 1.4-1.6.5-14.7.9-17.3 1.4-2.7.5-8 1.3-10.2-.7-2.2-2.1 1.3-6.5 4.3-7.6 3-1.1 13.8-1.4 15.8-1.6 1.9-.2 4.5-.9 5.7-.5.4.1 2.1-.4 4.3-1.1-.1-.8-.1-1.3-.1-1.3l11.6-3.3-2.1-20.5s5-19 25.1-4.5c0 0 4.5 1.3 6 1.7h.5c3.1-.2 16.3-4.2 21-4.2 5.1 0 6.8-.3 8.6.6 1.9.8 5.7 8 5.4 10.2z"/><path class="st19" d="M392.3 375.1c-2.2 2.1-7.5 1.2-10.2.7-2.7-.5-15.7-.9-17.3-1.4-1.6-.5-4.7-1.2-6.9-2.7-.2-.1-.6-.3-1.2-.5l-3.3 2.3-45.3-14.4c-2.7-.7-4.9-1.9-6.3-3.1-2.4-2.1-15.5-10.9-15.8-13-.3-2.2 3.5-9.3 5.3-10.3 1.8-.9 3.5-.6 8.6-.6s20 4.6 21.5 4.2c.7-.2 2.1-.9 3.5-1.7l3.2-1.8c22-9.8 24.5 6.3 24.5 6.3l-1.3 19.9s1.8.9 4.2 2l10.9 3.1-1.4 1c.6.2 1.1.3 1.2.2 1.2-.4 3.8.3 5.7.5 1.9.2 12.8.5 15.8 1.6 3.3 1.2 6.8 5.6 4.6 7.7z"/><path d="M325.2 334.6c1.5.1 11.8 6 14.2 7.5-3.7-1.9-17.7-5.8-17.7-5.8.7-.2 2.1-.9 3.5-1.7zm52.8 1.7s-17.7 4.3-20.9 6.1c.1-.1 9.3-7.1 14.1-8 0 0 4.7 1.5 6.3 1.9h.5z" style="fill:#5478b3"/><path class="st12" d="M392.3 375.1c-2.2 2.1-7.5 1.2-10.2.7-2.7-.5-15.7-.9-17.3-1.4-.5-.1-1.1-.3-1.7-.5-1.6-.5-3.6-1.1-5.2-2.2-.2-.1-.6-.3-1.2-.5l8.2-5.9.2-.2c.6.2 1.1.3 1.2.2 1.2-.4 3.8.3 5.7.5 1.9.2 12.8.5 15.8 1.6 3.2 1.2 6.7 5.6 4.5 7.7z"/><path class="st2" d="M392.3 375.1c-2.2 2.1-7.5 1.2-10.2.7-2.7-.5-15.7-.9-17.3-1.4-.5-.1-1.1-.3-1.7-.5s3.6-3.5 1.9-8.6l.2-.2c.6.2 1.1.3 1.2.2 1.2-.4 3.8.3 5.7.5 1.9.2 12.8.5 15.8 1.6 3.1 1.2 6.6 5.6 4.4 7.7z"/><path d="M329.7 339.2v.1c-.2.1-.2.1 0-.1z" style="fill:#e55353"/><path class="st3" d="M389 315.2c-.2-.3-9.5-15-12-21.7-2.5-6.7-8.6-9.8-11.5-10.7-1-.3-2.8-.9-4.8-1.6-3.5-1.1-7.3-2.3-7.3-2.3h-12s-4.1 1.4-8.5 2.9c-4.1 1.4-8.3 3-9.8 3.7-3 1.5-8.1 12.2-9.1 13.5-1 1.2-8.9 15.8-10 21.5-.9 4.4 25 17.1 25.7 18.8.8-.9 4.6-4.5 4.6-4.5s-1.2-.8-2.9-1.9c6.9.3 23.9-.3 26.3-.2h1.6c.8.5 5.6 4.8 5.6 4.8s12-5 17.5-10.5c7.7-8 7.4-10.1 6.6-11.8zm-68.1 9.7c-2.6-3.1-6.1-4.9-5.2-6.3.9-1.4 8.4-14.4 8.4-14.4s3.9 8.5 5 13c1.1 4.4 1 6.5.5 7.9-.4 1.2-.7 2.1-1.1 5.8-3-2.1-6.4-4.6-7.6-6zm52.9-1.5c-1 1.1-5 3.7-8.6 5.8-.3-2.5-.7-6.4-.7-7.8-.1-2.1.8-8.2 1.9-10.5 1.1-2.3 1.8-8.7 1.8-8.7s9.1 12.3 10.5 13.6c1.5 1.3-1.5 3.8-4.9 7.6z"/><path class="st12" d="M348.8 245.9s9.4 1.5 7.9 16.1c-1.4 14.6-9.7 13.4-10.2 13.4-.6 0-8.3.3-8.9-17.6 0 .1-.2-13.2 11.2-11.9z"/><path class="st12" d="M356.9 257.9s1-1.1 1.4 0c.4 1.1-1.4 6-1.5 6.3 0 0-.2.4-.4.2s.5-6.5.5-6.5zm-19-.2s-1-1.1-1.4 0c-.4 1.1 1.3 6.1 1.3 6.3 0 0 .2.4.4.2.3-.2-.3-6.5-.3-6.5z"/><path class="st3" d="m356.9 260.2-1.3 1.8s0-3.9-.2-4.5c-.2-.6-.5-2.5-.7-2.9-.2-.4-8-2.6-15 .6 0 0 .3 2.8-.4 3.1-.7.3-.3 4.6-.3 4.6l-1.1-1.2s-1.7-11.3-1.3-12.4c.4-1.2 1.7-8.2 16-4 0 0 4.4-.9 5.3 2.1.9 2.8-1 12.8-1 12.8z"/><path class="st22" d="M335.1 353.8s-14.3-8.6-20.6-9.9c-5.9-1.3-8.1-3.5-8.1-3.5s9.4 0 15.7 4.4c4.2 3 13 9 13 9zm12.7 5.9s24.9-13.1 35.1-15.9c5.8-1.6 8.1-3.5 8.1-3.5s-15.4 1.5-24.8 7.1c-4.5 2.8-18.4 12.3-18.4 12.3z"/><path class="st12" d="M338.7 372.9c-1.6.7-3.3 1.1-4.4 1.4-1.6.5-14.7.9-17.3 1.4-2.7.5-8 1.3-10.2-.7-2.2-2.1 1.3-6.5 4.3-7.6 3-1.1 13.8-1.4 15.8-1.6 1.9-.2 4.5-.9 5.7-.5.4.1 2.1-.4 4.3-1.1.1 1.3 1.8 8.7 1.8 8.7z"/><path class="st19" d="m347.8 371.7 24.5-7.2-4.8-1.5c-.1 0-19.6 7.1-19.7 8.7z"/><path class="st22" d="m347.8 371.7 11.5-3.5-8 4.6z"/><path class="st23" d="M339.9 342.4s-.2-.1-.5-.3c.2.1.4.2.5.3z"/><path class="st2" d="M334.3 374.4c-1.6.5-14.7.9-17.3 1.4-2.7.5-8 1.3-10.2-.7-2.2-2.1 1.3-6.5 4.3-7.6 3-1.1 13.8-1.4 15.8-1.6 1.9-.2 4.5-.9 5.7-.5 0-.1-3.2 5 1.7 9z"/><path class="st23" d="m326.2 340.3-3.8-21.5 48.8-1.1-3.1 21.1s-15.6 5.7-20.9 9c0 .1-13.4-5.4-21-7.5z"/><ellipse cx="347.3" cy="331.8" rx="2.7" ry="3.2" style="fill:#6e6e6e"/><path class="st12" d="M353.5 278.9c0-.1 0-.1 0 0-.6-1.3-.3-7.7-.3-7.7s-11.9-3-11.6-.7c.3 2.3-1 8.7-1 8.7l-6.1 2.1s6.5 17.5 14 15.2c7.5-2.3 10.3-15.9 10.3-15.9l-5.3-1.7z"/><path class="st16" d="M341.9 273.1s1.9 2.4 5.2 2.4c2.2 0 3.7-.5 5.9-2.7 0 0-.9 4-5.9 4.3 0 .1-3.6.6-5.2-4z"/><path class="st25" d="M547 141.1s6.9-.7 9.4 6 4.8 8.9 5.1 12.4c1.2 14.2 7.8 11 6 19.2-1.9 8.2-3.2 9.4-3.2 9.4l-15.9-3.1-16.1.1s6.3-3.1 4.9-9.8c-1.4-6.7-4.9-17.6-2.9-25.1 2.1-7.6 8.6-8.5 12.7-9.1z"/><path class="st3" d="M542.7 360.7s-5 6.8-4.3 7.9c.7 1.1 6.1 1.3 9.4 0 3.3-1.3 3.4-9.4 4.9-12.9.6-1.5-.7-5.8-2.6-6.1-1.9-.3-4.1.7-4.1.7s2 5-3.3 10.4z"/><path class="st12" d="M546 350.3s-.4 3.2-1 5.5-4 7.5-3.9 8.1c.2.6 4.4 1.2 6.1-.4 1.7-1.6 3.1-6.3 3.2-9.2.2-2.8-.4-4.7-.4-4.7s-2.3-1-4 .7z"/><path class="st26" d="M552.7 355.7v7.3h-.9v-5.6z"/><path class="st3" d="M555.7 360.7s-5 6.8-4.3 7.9c.7 1.1 6.1 1.3 9.4 0 3.3-1.3 3.4-9.4 4.9-12.9.6-1.5-.7-5.8-2.6-6.1-1.9-.3-4.1.7-4.1.7s2 5-3.3 10.4z"/><path class="st12" d="M559 350.3s-.4 3.2-1 5.5-4 7.5-3.9 8.1c.2.6 4.4 1.2 6.1-.4 1.7-1.6 3.1-6.3 3.2-9.2.2-2.8-.4-4.7-.4-4.7s-2.3-1-4 .7z"/><path class="st26" d="M565.7 355.7v7.3h-.9v-5.6z"/><path class="st12" d="M533.5 237.1s-3.8 20.7-4.8 25.9c-1 5.2-3.9 30.3-4.2 34.6-.3 4.3 9.3 24.8 9.9 26.2 10 23.7 11.2 29.1 11.2 29.1s3.3 2.1 4.8-.4c.5-.8-6.2-27.9-7.3-35.5-1-7-3.7-17.9-2.9-20.3.7-2.5 7.2-36.4 8.4-37.8 1.2-1.4 3.1.8 3.8 4 .7 3.2 2.2 30.4 3.2 33.9.9 3.5.2 15.2.7 21 .5 5.9 2.6 33.4 2.6 33.4s4.1.7 4.5.1c.4-.7 4-30.6 4.1-37.6.1-7 .2-16.7.4-19.7 1.9-29.1 5.4-32.9-.8-53.8-15.2-51.3-33.6-3.1-33.6-3.1z"/><path class="st19" d="M533.5 237.1s-3.8 20.7-4.8 25.9c-1 5.2-3.9 30.3-4.2 34.6-.3 4.3 8.9 24.8 9.2 26.3.2 1.5 7.8 23.4 7.8 23.4s7.7-.1 9.8-2.1c.4-.4-7.1-20.6-8.2-28.1-1-7-3.7-17.9-2.9-20.3.7-2.5 7.2-36.4 8.4-37.8 1.2-1.4 3.1.8 3.8 4 .7 3.2 2.2 30.4 3.2 33.9.9 3.5.2 15.2.7 21 .5 5.9-.6 26.9-.6 26.9s10.1.5 10.5-.1c.4-.7 1.2-23.8 1.3-30.8.1-7 .2-16.7.4-19.7 1.9-29.1 5.4-32.9-.8-53.8-15.2-51.5-33.6-3.3-33.6-3.3z"/><path class="st3" d="M568.6 244c.6-.2-4.1-15.8-5.1-20.5-.8-4.2-3.7-8-.9-15.2 1.6-4.1 1.5-8.9 1.5-8.9s4.3 9.5 4.7 11.9c.4 2.4-14.8-2-15-1.7-.4.6-.8 4.8-.8 6.2 0 1.2 22.1 6.4 24.7 1.8.7-1.3-4.1-26.4-7.2-29.8-5.1-5.5-18.4-10.2-18.4-10.2s-3.7-2-10.1.1c-6.4 2-15.5 8.3-17 9.9-1.6 1.6-7.8 26.1-8.3 29.3-.5 3-.3 9.3 6.5 8.5l18.4-4.2-1.1-5.6-13.8 1.1c-2.8.5-1.5-2-1.1-3.4.4-1.3 3.8-13.8 3.8-13.8-.2 3.5 2.4 14.8 3.8 18.7 1.4 3.9-1.6 25-1.8 27.3-.2.1 10.9 9.2 37.2-1.5z"/><path class="st12" d="M555.1 178.9s-4.5 9.4-8.3 12.1c0 0-6.8-10.2-6.5-12.6 0 0 7.6-3.4 14.8.5zm.2 31.6s-2.1-.8-2.7-1.6c-.6-.8-2.4-1.2-3.8-.8-1.4.4-.6 6.3-.6 6.3l7.3.9-.2-4.8zm-13.2 4.5s.7-3.8.5-4.5c-.2-.7 1.2-1.4 1.4.3.2 1.7.3 2.9.3 2.9l-2.2 1.3z"/><path d="m545.1 217.6 5.3-.2c.7 0 1.2-.6 1.2-1.3l.1-11.6c0-.7-.6-1.3-1.3-1.3l-6.3.2c-.7 0-1.3.7-1.2 1.4l.9 11.6c0 .8.6 1.3 1.3 1.2z" style="fill:#51578c"/><path class="st12" d="M542 215.3s-.1-1.1 2-2.1c2.8-1.3 6.5-2.7 7.1-2.3.9.5.4 1.2-1.3 1.8-1.8.6-2.3.8-2.3.8s3.4-.3 4.2.1c.8.4.8 1.4.3 1.5-.6.2-1.9.2-1.9.2s1.5.1 1.6.6c.1.4.2 1.1-1.2 1.3 0 0 .9 1-.5 1.7s-3.9 1.3-5.2 1.5c-2.6.4-8.6.1-8.6.1l2.5-4.2s1.4.1 2.3-.2c1.1-.4 1-.8 1-.8z"/><path class="st3" d="m540.4 215.6 1.2 5.7-11.8 2.6-.4-7.4zm13.4-5.9s-1 2.1-.8 6.2c0 0 7.3 2.7 12.9 3.3V212l-12.1-2.3z"/><path d="m541.6 221.3-8.2 4.6c.1-1 .1-1.9.1-2.7l8.1-1.9zm21.6.6c-6.6-2.6-9.2-5-10-5.7l-.2-.2 9.4 2.7c.2 1 .5 2.1.8 3.2z" style="fill:#6e05e8"/><path class="st12" d="M548 145s9.2 1.3 7.8 14.9c-1.3 13.5-9.4 12.5-10 12.5-.5 0-8.1.3-8.8-16.2 0-.1-.3-12.3 11-11.2z"/><path class="st12" d="M552 169.9s-.6 7 .8 9.2c1.4 2.1-1.2 5-6.3 4-5.2-1-4.9-3.9-4.9-3.9s1.5-4.3 1-7.8c-.4-3.5 9.4-1.5 9.4-1.5z"/><path class="st25" d="M546.9 149.9s4.3 4.5 6.3 6.8 2.2 6.7 2.2 6.7 3.4-4.1 2-8.9c-1.4-4.8-4.7-14-13.1-11.2-8.4 2.9-8.7 15.4-7.7 21.6-.1.1 3.7-13.7 10.3-15z"/><path class="st16" d="M543.3 171.7s3.9 1.8 7.7-.9c0 0-1.1 2.2-3.9 2.5-2.7.3-3.8-1.6-3.8-1.6z"/><path class="st25" d="M542 174.2s-12.6 11.2-9.3 18.2c2.8 6 12.7 2.3 11.1-4-1.7-6.2-1.8-14.2-1.8-14.2z"/><circle cx="544.6" cy="205.7" r=".8" style="fill:#48484d"/><path d="m204.1 361.7-9.2-61.3 1.8-.3 9.2 61.3zm-11.2 0-9.2-61.3 1.8-.3 9.2 61.3zm-55.4 0-1.8-.3 9.2-61.3 1.8.3z" style="fill:#5c5049"/><path class="st31" d="m197.8 301 7.2-75.9s-12.6-1.6-20.2-1.2L173.3 301h24.5z"/><path class="st31" d="M173.3 297.2h24.5v3.9h-24.5zm-16 .8-3.8-72.3s31.9-3.5 51.5-.5L157.3 298z"/><path class="st32" d="M182.8 202.2s4.9-14.5-4.5-18.9c-9.4-4.5-17.4 2-18.9 5.5s-1.1 9.9.2 14.3 1.1 11.2-1.7 13.5c-2.8 2.3-6.3 6-6.1 13.7.1 4.7 18.7-12.1 18.7-12.1l12.3-16z"/><path class="st33" d="M170.3 357.8s-.3 10.2 1.2 10.8c1.5.6 7-2.9 9.4-6.5 2.4-3.5-3.1-11.7-4-16.2-.4-1.9-4.7-5.3-6.8-4.3-2.1 1-3.6 3.5-3.6 3.5s5.3 3.7 3.8 12.7z"/><path class="st34" d="M166.5 345.1s1.8 3.5 2.7 6.2c.9 2.7 1.1 10.2 1.7 10.7.6.5 5.2-1.8 5.8-4.6.6-2.8-1.3-8.4-3-11.3-1.8-2.9-3.6-4.4-3.6-4.4s-3.1.6-3.6 3.4z"/><path class="st33" d="m176.9 346 5 7.2-1 .7-3.8-5.6z"/><path class="st34" d="M159 265.7s2.4 4.1 0 7.1-18.8 11.2-18.7 15.9c.1 4.7 3.1 12.2 4.2 14 1.1 1.9 5 9.7 7.1 14.3 2.1 4.6 14 26.5 16.3 31.4 2.3 4.9.9-19.7.9-19.7l-11.9-35 27.9-27.1s-3.4-7.5-25.8-.9z"/><path class="st35" d="M169.6 219.4s-7.7 1.7-10.8 3.5c-3.1 1.8-9.9 10-9.9 13.6 0 3.5 29.8 6.9 29.8 6.9l5.6 20.6s15.1-3.7 16.9-6.7c1.8-3-5.9-24.7-7-29.3-1.1-4.6-6.7-7.7-13-8.5-6.3-1-11.6-.1-11.6-.1z"/><path class="st12" d="M187.9 266.4s-.5 3.5.9 5 8 10.2 4.5 18.8c-3.2 7.9-9.4 7.7-9.4 7.7h-9.6s2.8 14.2 1.9 23.5c-.9 9.3-5.2 30.6-5.2 31.7-.1 1.1-4.1 4.4-5.2 2.7 0 0-.1-12.8-.7-17.7-.6-4.8-3.3-24.2-4.1-27.1-.8-2.9-5.6-11.6-5.6-12.5 0-.9-4.6-14.9 5.5-18.5 9.9-3.5 13.5-13.5 27-13.6z"/><path class="st36" d="M160.8 365.7s-6.7 7.8-5.9 9.2c.7 1.4 7.3 2.1 11.4.9 4.1-1.2 5-11 7.1-15.1.9-1.7-.3-7-2.5-7.6-2.2-.6-5 .4-5 .4s1.8 6.2-5.1 12.2z"/><path class="st12" d="M165.9 353.5s-.8 3.8-1.8 6.5-5.6 8.6-5.4 9.4c.1.8 5.2 1.9 7.4.1 2.2-1.8 4.3-7.3 4.8-10.7.5-3.4 0-5.7 0-5.7s-2.9-1.5-5 .4z"/><path class="st36" d="m173.4 360.7-.7 8.8-1.1-.1.5-6.8z"/><path class="st35" d="M193.3 290.2c-3 8-9.4 7.7-9.4 7.7h-9.6s-4-6.4-13.9-7.5c-2.2-.2-4.7-.2-7.4.2h-.1c-13.1 1.9-10.6 6.7-10.5 6.9-1.1-2.7-2.2-6.9-2-9.2 1.3-10.4 16.2-12.5 18.7-15.5 2.4-3 0-7.1 0-7.1 22.4-6.6 25.8.9 25.8.9 1-.1 3.5-1.6 4.6-1.6 0 0 1.1 2.5 1.9 4.7.6 2 5.2 11.9 1.9 20.5z"/><path class="st37" d="m184 233.2 3.3 30.8h-43.7l-3.3-30.8z"/><path class="st37" d="M183.5 261.2h7.3v2.8h-7.3z"/><path style="fill:#bc8551" d="M113.6 264h120.3v4.2H113.6z"/><path class="st12" d="M174.4 185.8s9.8 2.9 8.4 16.5c-1.4 13.6-7.8 12.9-8.4 13-.6.1-8.2.6-10.6-15.9-2.4-16.5 10.6-13.6 10.6-13.6z"/><path class="st12" d="M179.1 212.7s-.5 4.5.3 7.3c.9 2.8-11.4 2.9-11.4.6 0-2.6 1.3-4.8.1-9.3-1.2-4.5 11 1.4 11 1.4z"/><path class="st32" d="M171.9 191.8s5.3 8.5 10.9 10.4c0 0 3.1-14.2-9.6-17.2-12.6-3-10.6 14.3-9.7 18.9 0 .1 2.7-6.7 8.4-12.1z"/><path class="st16" d="M169.6 213.3s3.9 4 8.8.4c0 0-.4 2.6-4 2.9-3.5.3-4.8-3.3-4.8-3.3z"/><path d="M164.8 190.5s2.8-5.4 7.5-5.7c4.7-.2 7.5 3.9 7.5 3.9s-1.8-4.6-7.5-4.6-7.5 6.4-7.5 6.4z" style="fill:#23344a"/><path class="st12" d="M180.7 219.4s-.2 9.4-7.6 9.7c-7.5.3-5.9-9-5.9-9s5.4-2.3 13.5-.7z"/><path d="M230.7 268.2h3.1v96.4h-3.1zm-117.1 0h3.1v96.4h-3.1z" style="fill:#807066"/><path class="st12" d="M478.3 183s9.6 2.8 9 15.8c-.6 13-9-15.8-9-15.8z"/><path class="st12" d="M477.4 183s.7 1-.2 7.5c-.9 6.5.8 9.2 1 11.9.2 2.7 3.4 20.1 3.5 20.9.1.8.5 10 1.7 12.5s10.3 16.4 10.4 17.1c.1.7 4.4-2.4 4.4-2.4s-8.1-16.9-8.7-18.6c-.7-2.1-2.7-7.2-2.8-9.9-.3-6.6.3-21.8.1-25.1-.3-6.4-5.2-12.9-9.4-13.9z"/><path class="st41" d="M489.6 238.5s1.4 3.1 2.3 3.3c.8.2 1.8 1.2 2.6 1.6.7.3 3 .5 3.6 1.1.2.2 1.2 2.3 1.8 2.8.6.4 1.8 1.2 1.4 1.7-.4.5-1.7.1-1.7.1s.5.4.3.9c-.4 1-1.1 1.1-1.1 1.1s.2.8-.1 1.1c-.6.8-1.3.9-1.3.9s-.1.6-.6 1c-.7.6-1.5.3-1.5.3s-.7.9-1.3.8c-.6-.2-1-.6-1.4-.9-.4-.3-3.6-3.8-4.7-7.2-1.1-3.3-3.1-6.1-3.1-6.1l4.8-2.5z"/><path transform="rotate(50.957 489.86 237.986)" style="fill:#214361" d="M476.4 215.5h27v45h-27z"/><path d="M499.4 248.6s-2.7-3-4.1-3c-1.4.1-.4 1.2-.4 1.2s-.9-1.1-1.9-.5c-1 .6.2 1.9.2 1.9s-.9-.7-1.6.3c-.7 1 .5 1.8.5 1.8s-1.8-.3-1.4 1.2c.6 2.5 3.3 3.7 3.3 3.7s.7.2 1.4-.8c0 0 1.7.6 2.1-1.3 0 0 2-.5 1.3-2 0 0 2.1-.8.6-2.5z" style="fill:#db9c7c"/><path class="st19" d="M469.6 145s-13.8-1.2-13.5 13.4c.4 14.6 2.7 16.7 0 27s13.5-5.8 13.5-5.8V145z"/><path class="st41" d="M454.5 234.9s-5.1 6.5-6.9 10.8c-1.8 4.3-4.8 13.7-4.4 21 .4 7.3 2.8 21 2.1 24.1-.7 3.1-1.4 9.5-2.1 11.7-.8 2.2-3.7 8.6-4 15.2-.3 6.6 4.2 35.6 4 38.3-.2 2.7 5.1 1.1 5.1 1.1s1.8-26.2 2.8-30.7c1-4.5 2.2-19.8 3.1-20.9.9-1.1 3.4-12.5 3-14.3-.4-1.8 9.8-28.8 10.4-34.2s15.6-22.1 15.6-22.1-13.2-5-28.7 0z"/><path class="st41" d="M478.8 234.9s.3 2.7.6 3.7 7.2 26.5 7.9 36.3c.7 9.8 2.5 18.1 2.8 20.2.3 2.1-.3 9.1-.9 10.9-.6 1.8 3 44.3 3.3 45.3.3 1-2.4 1.3-4.3 1-1.9-.3-11.5-31.2-10.9-36.4.6-5.2 1.2-16.3-.5-20.8s-17-37.1-17.1-39.1c-.1-2-6.6-36.4 19.1-21.1zm-30.7 119s.5 3.4 1 4.4c.5.9 2 5.7 2.7 6.6.7.9 2.2 7.6 0 8.4-2.2.8-7.2 2.2-8.9-.5-1.7-2.7-1.9-5.4-1.7-7.4.3-2.1 2.3-11.5 2.3-12.5 0-.9 4.6 1 4.6 1z"/><path class="st2" d="M451 363s.2 5.2-3.7 5.2c-3.9 0-5.7-4.8-5.7-4.8s-1.3 2.3 0 7.3 6.9 3.9 8.2 3.8c1.2-.1 7.2-1.7 1.2-11.5zm41-13.8s2.8 5 4.4 6c2.1 1.3 6.1 5.3 7.5 5.5 1.4.2 6.4 1.1 5.5 3.9-.8 2.3-12.8 2-14.1.8-1.4-1.2-5.4-5.3-7-5.3-1.6.1-1 6-1 6h-1.8s-.6-5.8-.7-6.8c-.2-2.9 1.9-5.1 2-6.8.1-1.7.2-2.9.2-2.9l5-.4z"/><path class="st41" d="M503.5 360.5s-4 1.4-7-.4c-3-1.7-8.9-4.4-10.9-4.4 0 0 1.1-3.4 1.1-3.8 0-.4.1-2.2.1-2.2l5.1-.8s3.3 4.9 4.8 6c1.5 1.1 5.3 4 6.8 5.6z"/><path class="st19" d="M483.2 234.5s1.4 5.9 1.9 7.6c.5 1.7 3.9 28.5 4.7 45.2 0 0-20.2 7.6-47.9 6.4 0 0-.7-30.7 1.9-39.4 2.5-8.7 7.2-16.8 10.6-19.3 3.2-2.3 28.8-.5 28.8-.5z"/><path class="st13" d="M486.7 199.5c-.2 3.5-1.7 5.8-2 7.1-.3 1.3 0 4.2-.4 7.1-.4 2.9-1.5 16.9-1.1 20.8.4 4-27.3 2.2-29.4 1 0 0 4.7-8.3 4.8-11.8 0-1.2.8-4.9-1.2-7.6-1-1.4-2.9-6-4.8-9.3 0 0 .4-.7 0 0-.7-1.3-1.5-2.6-2.1-3.5-.7-1.2-1.1-2.7-1.1-2.7s-1.2-15.3 2.1-17c3.4-1.7 5.2-2 8.5-2.2 3.3-.2 5.5-.8 5.5-.8l7.7.8s2.7 1.3 4.7 1.4c1.9.1 4.3 4.4 5.5 7.4 1 2.6 3.5 5.8 3.3 9.3z"/><path class="st12" d="M455.8 182s-6.1.5-8.4 6.1c-2.3 5.6-2.1 11.3-2.6 13.4-.5 2.1-1.2 14.1-1.8 15.9-.5 1.8-2.3 10-2.7 16.7-.4 6.7.6 20.7.6 20.7l3.4-1.6s3-20.8 4.3-25.2c1.1-3.8 1.1-10.2 1.7-12.5.6-2.3 4.5-16.2 5.1-17.6 1-2.3 5.6-16 .4-15.9zm12.4-35.6c3.4-.6 11.3.3 13.5 9.3 0 0 0 2.5-.4 4.5s2 7.5 1.6 7.8c-.4.3-2.3.9-2.3.9s-1.3 6.5-3.5 6.7c-2.2.2-10.7-.6-15.5-7.9-4.7-7.2-7.2-19 6.6-21.3z"/><path class="st12" d="M473.9 173.2s-.2.9-.3 2.2c-.1.7-.2 1.5-.2 2.3-.1 2.3-.1 5 .7 6.7 0 0-4.3 2.6-8.9-3.8 0 0 .5-7.9-2.2-12.2-2.6-4.2 10.9 4.8 10.9 4.8z"/><path class="st19" d="M481.7 155.7s-5.2 4.5-10.6 5.9c-5.5 1.4-8.4 7.5-8.4 7.5s-9.7-9.7-3.8-19c5.8-9.3 22.8-5.1 22.8 5.6z"/><path class="st16" d="M473.6 175.4c-.1.7-.2 1.5-.2 2.3-4.8-2.3-7.5-5.5-7.5-5.5 2.8 2 7.7 3.2 7.7 3.2z"/><path class="st19" d="M470.1 161.9s-5.6 15-4.9 18.7c0 0-3-.5-8.2 1.1-.1 0 2.5-26.8 13.1-19.8z"/><path class="st12" d="M463.3 181.1s1.8 11.3 8.7 10c6.8-1.3 1.6-9.5 1.6-9.5s-3-2.6-10.3-.5zm-19 71.4s.5 1.8 1.4 3.6c.4.9 1 6.8 1 7.6 0 .6-.4.3-.7-.1-.1-.2-.7-2.3-1.1-3.3-.4-.9-.7-1.2-.8-.9-.1.3-.1 4.1.3 5.7.5 1.6.4 5.4-.5 4.9s-3.4-7.1-3.4-9.7c0-2.6.4-5.7.4-5.7l3.4-2.1z"/></svg>