<svg version="1.1" id="Layer_1" xmlns="http://www.w3.org/2000/svg" x="0" y="0" viewBox="544 -304 1700 1400" style="enable-background:new 544 -304 1700 1400" xml:space="preserve"><style>.st1{fill:#f9a469}.st2{fill:#455a66}.st3{fill:#fff}.st4{fill:#913920}.st6{fill:#37474f}.st7{fill:#f1f2f2}.st8{fill:#fbb47f}.st9{fill:#f48242}.st11{fill:#594a42}.st13{fill:#27313f}.st14{fill:#344258}.st15{fill:#9d8483}.st17{fill:#bdabaa}</style><path d="M1872.6 511.4h-220.5V795H1933V571.8c0-33.3-27-60.4-60.4-60.4z" style="fill:#7f00ff"/><circle class="st1" cx="1363.6" cy="770.8" r="58.4"/><path class="st2" d="M1657.8 459.4c-17.9 0-32.5 14.6-32.5 32.5V730h-42.8c9.7 7.8 15.9 19.7 15.9 33 0 12.8-5.6 24.2-14.6 32h74c17.9 0 32.5-14.6 32.5-32.5V491.9c0-17.9-14.6-32.5-32.5-32.5z"/><path class="st1" d="M1575.6 767.7c0-20.8-16.9-37.7-37.7-37.7H1403v65h160.9c7.2-6.9 11.7-16.5 11.7-27.3z"/><path class="st3" d="M1598.3 763.1c0-13.4-6.2-25.3-15.9-33-7.3-5.8-16.5-9.3-26.5-9.3s-19.3 3.5-26.5 9.3h8.5c20.8 0 37.7 16.9 37.7 37.7 0 10.7-4.5 20.4-11.7 27.3-4.7 4.5-10.7 7.8-17.2 9.4 3 .7 6.1 1 9.3 1 10.6 0 20.4-3.9 27.8-10.4 8.8-7.9 14.5-19.3 14.5-32z"/><circle class="st4" cx="1853.3" cy="186.1" r="53.3"/><path class="st4" d="M1826 190.8h-79.1v112.6c43.7 0 79.1-35.4 79.1-79.1v-33.5z"/><circle class="st4" cx="1592.4" cy="91.1" r="64.9"/><circle cx="1590.7" cy="108.4" r="43.6" style="fill:#7c2c19"/><path class="st6" d="M1695.9 794.6h-123.2v-323c0-34 27.6-61.6 61.6-61.6h61.6v384.6z"/><path class="st7" d="m1672 419.6-5.5-19.3c-1.8-6.2 2.9-12.4 9.3-12.4h7.6v31.7H1672z"/><path class="st8" d="M1680.9 372.1c-1.4 0-2.8 0-4.1-.1v38h70.1v-59.6c-18.5 13.7-41.3 21.7-66 21.7z"/><path class="st9" d="M1676.8 234.5V372c1.4.1 2.7.1 4.1.1 24.7 0 47.6-8.1 66-21.8V234.5h-70.1z"/><path class="st7" d="m1676.8 410-9.3 18.7-6.5 13.2-1.8 3.6c-18.3 35.3-52.2 64.6-84.5 79.8-23.2 10.9-37.6 28.2-37.6 52.4 0 30.3 26.6 54.5 56.9 55.7h2.2v161.2h210.6V452.4l-60-42.4h-70z"/><path class="st7" d="M1777 424.4h-77.5v-9.3c0-13.9 10.2-25.8 24-27.8l33-4.9c10.8-1.6 20.5 6.8 20.5 17.7v24.3z"/><path class="st6" d="M1835 794.6h-123.2v-323c0-34 27.6-61.6 61.6-61.6s61.6 27.6 61.6 61.6v323z"/><path class="st8" d="M1680.9 347.1c-61.3 0-111-49.7-111-111v-70c0-61.3 49.7-111 111-111s111 49.7 111 111v70c0 61.3-49.7 111-111 111z"/><path class="st4" d="M1652.2 31v49.2h53.4v60.2c0 33.3 27 60.2 60.2 60.2h60.2v-65.7c0-57.4-46.5-103.9-103.9-103.9h-69.9z"/><circle class="st4" cx="1676.8" cy="82.4" r="73.6"/><path style="fill:#2a373d" d="m1824.4 491.9-65 12.2-15.7 216.6-34 9.3h2.1v64.6H1835V668.4z"/><path class="st4" d="M1604.6 165.1c-12.7-4.7-26.4-4.2-38.7 1.4-3.5 1.6-5 5.7-3.4 9.2.8 1.7 2.2 3 3.9 3.6 1.7.6 3.6.6 5.3-.2 8.9-4.1 18.9-4.5 28.1-1 3.6 1.3 7.6-.5 8.9-4.1s-.5-7.5-4.1-8.9z"/><path class="st11" d="M1585.2 197.2h-9.9c-1.3 0-2.3 1-2.3 2.3s1 2.3 2.3 2.3h2.3c-.6 1.1-.9 2.4-.9 3.8 0 4.7 3.8 8.5 8.5 8.5s8.5-3.8 8.5-8.5c0-4.6-3.8-8.4-8.5-8.4z"/><path class="st4" d="M1691.6 165.1c-12.7-4.7-26.4-4.2-38.7 1.4-3.5 1.6-5 5.7-3.4 9.2.8 1.7 2.2 3 3.9 3.6 1.7.6 3.6.6 5.3-.2 8.9-4.1 18.9-4.5 28.1-1 3.6 1.3 7.6-.5 8.9-4.1 1.3-3.6-.5-7.5-4.1-8.9z"/><path class="st11" d="M1672.2 197.2h-9.9c-1.3 0-2.3 1-2.3 2.3s1 2.3 2.3 2.3h2.3c-.6 1.1-.9 2.4-.9 3.8 0 4.7 3.8 8.5 8.5 8.5s8.5-3.8 8.5-8.5c0-4.6-3.8-8.4-8.5-8.4z"/><path class="st9" d="M1606.7 260.4c2.5 5.1 7.7 8.6 13.8 8.6 6.1 0 11.3-3.5 13.8-8.6h-27.6z"/><path class="st3" d="M1660 328.4c23.7 0 43-19.3 43-43h-86c0 23.8 19.3 43 43 43z"/><path class="st8" d="M1791.2 200.6h-28.4v59.3h28.4c16.4 0 29.6-13.3 29.6-29.6.1-16.4-13.2-29.7-29.6-29.7z"/><path d="M1779.9 242.9v-25.3h11.4c7 0 12.6 5.7 12.6 12.6 0 7-5.7 12.6-12.6 12.6h-11.4v.1z" style="fill:#d8633a"/><circle class="st3" cx="1794.6" cy="264.9" r="9.3"/><path class="st3" d="M1442.7 744.8c-27.5 0-49.9 22.3-49.9 49.9v2h99.8v-2c-.1-27.5-22.4-49.9-49.9-49.9z"/><circle class="st8" cx="1497.8" cy="770.8" r="58.4"/><path class="st2" d="M1791.9 459.4c-17.9 0-32.5 14.6-32.5 32.5V730h-42.8c9.7 7.8 15.9 19.7 15.9 33 0 12.8-5.6 24.2-14.6 32h74c17.9 0 32.5-14.6 32.5-32.5V491.9c0-17.9-14.6-32.5-32.5-32.5z"/><path class="st8" d="M1709.7 767.7c0-20.8-16.9-37.7-37.7-37.7h-134.9v65H1698c7.2-6.9 11.7-16.5 11.7-27.3z"/><path class="st3" d="M1732.4 763.1c0-13.4-6.2-25.3-15.9-33-7.3-5.8-16.5-9.3-26.5-9.3s-19.3 3.5-26.5 9.3h8.5c20.8 0 37.7 16.9 37.7 37.7 0 10.7-4.5 20.4-11.7 27.3-4.7 4.5-10.7 7.8-17.2 9.4 3 .7 6.1 1 9.3 1 10.6 0 20.4-3.9 27.8-10.4 8.9-7.9 14.5-19.3 14.5-32z"/><path class="st13" d="M1750.9 794.7h403.2v69h-403.2z"/><path class="st14" d="M633.9 794.7h1121.8v69H633.9z"/><path class="st13" d="M1936.4 1008.3h-505.6V863.7H2081c0 79.8-64.8 144.6-144.6 144.6z"/><path class="st14" d="M1576.3 1008.3H851.6c-79.9 0-144.6-64.8-144.6-144.6h1013.9c0 79.8-64.8 144.6-144.6 144.6z"/><path class="st15" d="M917.2 775.4h287v19.2h-287z"/><path class="st15" d="M1067.9 528.4h-85.3c-17 0-30.9 13.8-30.9 30.9v235.3h147V559.3c0-17-13.8-30.9-30.8-30.9z"/><path class="st3" d="M1305.5 688.1H1047c-21.1 0-38.2-17.1-38.2-38.2V252.4c0-21.1 17.1-38.2 38.2-38.2h258.6c21.1 0 38.2 17.1 38.2 38.2V650c0 21-17.2 38.1-38.3 38.1z"/><path d="M1262 688.1H788.5c-21.1 0-38.2-17.1-38.2-38.2V252.4c0-21.1 17.1-38.2 38.2-38.2H1262c21.1 0 38.2 17.1 38.2 38.2V650c0 21-17.1 38.1-38.2 38.1z" style="fill:#ededed"/><path class="st17" d="M1041.4 528.4h-85.3c-17 0-30.9 13.8-30.9 30.9v235.3h147V559.3c.1-17-13.8-30.9-30.8-30.9z"/><path style="fill:#ae9493" d="M855.2 775.4h287v19.2h-287z"/><path class="st17" d="M1223.6 623.4h-66.7a6.7 6.7 0 0 1 0-13.4h66.7c3.7 0 6.7 3 6.7 6.7-.1 3.7-3 6.7-6.7 6.7zm0 23.4h-66.7a6.7 6.7 0 0 1 0-13.4h66.7c3.7 0 6.7 3 6.7 6.7-.1 3.7-3 6.7-6.7 6.7z"/><circle class="st3" cx="998.8" cy="372.1" r="55.7"/></svg>