<svg xmlns="http://www.w3.org/2000/svg" viewBox="0 0 512 512" style="enable-background:new 0 0 512 512" xml:space="preserve"><circle style="fill:#ffe17d" cx="255.999" cy="256" r="248.499"/><path style="fill:#ffd164" d="M292.073 468.427c-137.242 0-248.499-111.257-248.499-248.499 0-59.433 20.891-113.97 55.695-156.732C43.284 108.761 7.501 178.192 7.501 256.001 7.501 393.242 118.757 504.5 256 504.5c77.81 0 147.241-35.784 192.805-91.768-42.761 34.803-97.3 55.695-156.732 55.695z"/><path style="fill:#9c6846" d="M256 303.861c-47.878 0-93.579-5.559-135.508-15.608-5.431-1.302-10.112 4.372-8.436 10.285C131.393 366.801 188.467 416.323 256 416.323s124.608-49.521 143.944-117.784c1.675-5.913-3.005-11.587-8.436-10.285-41.929 10.048-87.631 15.607-135.508 15.607z"/><path style="fill:#7d5046" d="M391.508 288.253c-41.929 10.049-87.63 15.608-135.508 15.608s-93.579-5.559-135.507-15.608c-5.431-1.301-10.112 4.372-8.436 10.285 5.061 17.869 12.763 34.405 22.507 49.153 39.838 7.568 80.367 11.731 121.454 11.731 41.075 0 81.589-4.16 121.414-11.722 9.747-14.75 17.451-31.289 22.513-49.161 1.674-5.915-3.006-11.588-8.437-10.286zm-219.677-55.896c-11.068 0-20.04-8.972-20.04-20.04v-32.469c0-11.068 8.972-20.04 20.04-20.04s20.04 8.972 20.04 20.04v32.469c0 11.068-8.972 20.04-20.04 20.04z"/><path style="fill:#9c6846" d="M191.871 179.848c0-12.379-11.222-22.135-24.048-19.651v33.352c0 13.012 11.068 23.337 24.044 22.372h.004v-36.073z"/><path style="fill:#fff" d="M363.794 315.629c4.333-7.425 7.958-15.381 10.999-23.663-37.26 7.689-77.202 11.894-118.793 11.894-41.617 0-81.582-4.209-118.86-11.907 3.056 8.322 6.741 16.292 11.102 23.748 5.043 8.62 13.58 14.133 22.868 15.263 27.809 3.383 56.152 5.197 84.89 5.197 28.732 0 57.068-1.813 84.87-5.195 9.319-1.132 17.873-6.683 22.924-15.337z"/><path style="fill:#7d5046" d="M340.168 232.357c-11.068 0-20.04-8.972-20.04-20.04v-32.469c0-11.068 8.972-20.04 20.04-20.04s20.04 8.972 20.04 20.04v32.469c.001 11.068-8.972 20.04-20.04 20.04z"/><path style="fill:#9c6846" d="M360.209 179.848c0-12.379-11.222-22.135-24.048-19.651v33.352c0 13.012 11.068 23.337 24.044 22.372h.004v-36.073z"/><path d="M171.821 167.297a7.5 7.5 0 0 0 0-15c-15.187 0-27.542 12.355-27.542 27.542v32.068c0 15.187 12.355 27.543 27.542 27.543s27.542-12.356 27.542-27.543v-28.06a7.5 7.5 0 0 0-15 0v28.06c0 6.916-5.626 12.543-12.542 12.543s-12.542-5.627-12.542-12.543v-32.068c-.001-6.916 5.626-12.542 12.542-12.542zm168.357 0a7.5 7.5 0 0 0 0-15c-15.187 0-27.543 12.355-27.543 27.542v32.068c0 15.187 12.356 27.543 27.543 27.543s27.542-12.356 27.542-27.543v-28.06a7.5 7.5 0 0 0-15 0v28.06c0 6.916-5.626 12.543-12.542 12.543-6.916 0-12.543-5.627-12.543-12.543v-32.068c0-6.916 5.627-12.542 12.543-12.542z"/><path d="M15.108 248.714c1.833-61.604 26.857-119.542 70.459-163.145C129.17 41.966 187.109 16.943 248.712 15.11c61.332-1.824 120.401 19.43 166.327 59.852a7.5 7.5 0 1 0 9.91-11.26C376.16 20.759 313.413-1.826 248.267.117c-65.44 1.947-126.988 28.528-173.305 74.846C28.644 121.279 2.063 182.827.115 248.268-1.824 313.414 20.757 376.162 63.7 424.951a7.478 7.478 0 0 0 5.633 2.545 7.5 7.5 0 0 0 5.627-12.455c-40.422-45.925-61.677-104.995-59.852-166.327zM448.3 87.052a7.5 7.5 0 1 0-11.26 9.91c40.421 45.925 61.677 104.994 59.852 166.326-1.833 61.604-26.856 119.542-70.459 163.145s-101.541 68.625-163.145 70.459c-61.334 1.824-120.401-19.43-166.327-59.852a7.5 7.5 0 0 0-9.91 11.26C133.905 489.539 193.63 512 255.992 512c2.577 0 5.158-.038 7.742-.115 65.441-1.948 126.988-28.528 173.305-74.846 46.318-46.317 72.899-107.865 74.847-173.305 1.937-65.146-20.644-127.894-63.586-176.682z"/><path d="M108.556 285.048c-3.888 4.049-5.329 10.003-3.762 15.54 10.025 35.392 29.502 65.898 56.324 88.22 27.537 22.918 60.337 35.033 94.853 35.033s67.317-12.114 94.853-35.033c26.822-22.323 46.298-52.83 56.324-88.22 1.568-5.535.127-11.489-3.761-15.539-3.594-3.744-8.694-5.27-13.641-4.085-42.645 10.221-87.653 15.403-133.775 15.403s-91.13-5.183-133.775-15.403c-4.948-1.187-10.047.34-13.64 4.084zm284.15 10.631c.068.179.114.453.01.821-9.065 32.003-27.351 60.691-51.487 80.78-24.809 20.647-54.291 31.562-85.258 31.562s-60.45-10.914-85.258-31.562c-24.136-20.089-42.421-48.777-51.487-80.78-.104-.367-.058-.642.01-.821 3.532.843 7.085 1.639 10.647 2.415 3.273 8.231 7.306 16.119 12.003 23.447 6.132 9.567 16.733 16.05 28.357 17.34 28.625 3.179 57.467 4.791 85.727 4.791 28.253 0 57.09-1.611 85.708-4.788 11.648-1.293 22.272-7.804 28.417-17.415 4.668-7.3 8.672-15.158 11.934-23.369a559.25 559.25 0 0 0 10.677-2.421zm-28.674 6.025a121.18 121.18 0 0 1-6.573 11.684c-3.729 5.832-10.246 9.79-17.435 10.588-28.071 3.116-56.351 4.696-84.053 4.696-27.709 0-55.995-1.581-84.072-4.699-7.171-.796-13.67-4.731-17.384-10.526a121.286 121.286 0 0 1-6.62-11.746c34.943 6.41 71.168 9.666 108.075 9.666 36.904 0 73.123-3.255 108.062-9.663z"/></svg>