<svg xmlns="http://www.w3.org/2000/svg" viewBox="0 0 512 512" style="enable-background:new 0 0 512 512" xml:space="preserve"><circle style="fill:#ffe17d" cx="255.999" cy="256" r="248.499"/><path style="fill:#ffd164" d="M292.073 468.427c-137.242 0-248.499-111.257-248.499-248.499 0-59.433 20.891-113.97 55.695-156.732C43.284 108.761 7.501 178.191 7.501 256.001 7.501 393.242 118.757 504.5 256 504.5c77.81 0 147.241-35.784 192.805-91.768-42.761 34.804-97.3 55.695-156.732 55.695z"/><path style="fill:#9c6846" d="M256.115 349.114c-21.241 0-41.517-1.737-60.118-4.877-2.409-.407-4.486 1.366-3.743 3.214 8.579 21.332 33.9 36.808 63.861 36.808s55.282-15.475 63.861-36.808c.743-1.848-1.333-3.621-3.743-3.214-18.601 3.14-38.877 4.877-60.118 4.877z"/><path d="M15.108 248.714c1.833-61.604 26.857-119.542 70.459-163.145C129.17 41.966 187.109 16.943 248.712 15.11c61.333-1.826 120.401 19.43 166.327 59.852a7.5 7.5 0 1 0 9.91-11.26C376.16 20.759 313.414-1.821 248.267.116c-65.44 1.947-126.988 28.528-173.305 74.846C28.644 121.28 2.063 182.827.115 248.268-1.824 313.413 20.757 376.161 63.7 424.951a7.478 7.478 0 0 0 5.633 2.545 7.5 7.5 0 0 0 5.627-12.455c-40.422-45.926-61.677-104.996-59.852-166.327zM448.3 87.052a7.5 7.5 0 1 0-11.26 9.91c40.421 45.925 61.677 104.994 59.852 166.326-1.833 61.604-26.856 119.542-70.459 163.145s-101.541 68.626-163.145 70.459c-61.338 1.822-120.401-19.43-166.327-59.852a7.5 7.5 0 0 0-9.91 11.26C133.905 489.539 193.63 512 255.992 512c2.577 0 5.158-.038 7.742-.115 65.441-1.948 126.988-28.529 173.305-74.846 46.318-46.317 72.899-107.865 74.847-173.305 1.937-65.146-20.644-127.894-63.586-176.682z"/><path d="M256.144 391.744c32.378 0 60.842-16.683 70.827-41.514 1.308-3.252.764-6.839-1.455-9.594-2.442-3.033-6.462-4.494-10.496-3.814-18.762 3.167-38.57 4.773-58.876 4.773-20.306 0-40.115-1.606-58.876-4.773-4.031-.681-8.053.78-10.496 3.813-2.219 2.756-2.763 6.343-1.455 9.595 9.985 24.831 38.449 41.514 70.827 41.514zm0-35.148c17.887 0 35.422-1.2 52.259-3.572-10.301 14.308-30.389 23.721-52.259 23.721-21.871 0-41.958-9.411-52.258-23.721 16.836 2.372 34.37 3.572 52.258 3.572zm-88.303-93.124c14.474 0 28.293-6.865 37.914-18.835a7.499 7.499 0 0 0-1.147-10.544 7.498 7.498 0 0 0-10.544 1.147c-6.759 8.41-16.317 13.232-26.223 13.232-9.905 0-19.462-4.823-26.222-13.233a7.498 7.498 0 0 0-10.544-1.146 7.499 7.499 0 0 0-1.147 10.544c9.621 11.97 23.44 18.835 37.913 18.835zm214.317-18.835a7.499 7.499 0 0 0-1.147-10.544 7.499 7.499 0 0 0-10.544 1.146c-6.76 8.41-16.318 13.233-26.223 13.233-9.905 0-19.462-4.823-26.222-13.233a7.498 7.498 0 0 0-10.544-1.146 7.499 7.499 0 0 0-1.147 10.544c9.622 11.97 23.44 18.835 37.914 18.835 14.472 0 28.292-6.865 37.913-18.835zm-175.065-70.99a7.5 7.5 0 0 0-9.339-5.028l-80.17 24.051a7.5 7.5 0 0 0-5.028 9.339 7.504 7.504 0 0 0 7.181 5.347c.713 0 1.439-.103 2.158-.318l80.17-24.051a7.502 7.502 0 0 0 5.028-9.34zm185.228 33.708a7.5 7.5 0 0 0 2.153-14.686l-80.171-24.051a7.5 7.5 0 0 0-4.311 14.367l80.171 24.051a7.483 7.483 0 0 0 2.158.319z"/></svg>