<svg xmlns="http://www.w3.org/2000/svg" viewBox="0 0 512 512" style="enable-background:new 0 0 512 512" xml:space="preserve"><path style="fill:#ffe17d" d="M480.452 231.952C480.452 355.913 353.398 504.5 256 504.5S31.548 355.913 31.548 231.952 132.039 7.5 256 7.5s224.452 100.49 224.452 224.452z"/><path style="fill:#ffd164" d="M304.097 488.468c-97.398 0-224.452-156.604-224.452-280.565 0-78.304 40.123-147.207 100.906-187.367C93.713 51.531 31.548 134.466 31.548 231.952 31.548 355.912 158.602 504.5 256 504.5c19.859 0 40.95-6.261 61.947-17.147-4.665.665-9.299 1.115-13.85 1.115z"/><path style="fill:#9c6846" d="M256 440.371c-26.563 0-48.097-21.534-48.097-48.097v-40.081c0-26.563 21.534-48.097 48.097-48.097 26.563 0 48.097 21.534 48.097 48.097v40.081c0 26.563-21.534 48.097-48.097 48.097z"/><path style="fill:#ffd164" d="M84.592 322.346c-15.222 3.044-24.582 18.399-20.28 33.314 8.245 28.582 19.776 76.046 22.67 125.997.741 12.788 11.169 22.843 23.978 22.843h53.291c15.083 0 26.455-13.673 23.646-28.492-7.337-38.714-27.598-107.784-81.852-148.686-6.127-4.62-13.928-6.481-21.453-4.976zm342.816 0c15.222 3.044 24.582 18.399 20.28 33.314-8.245 28.582-19.776 76.046-22.67 125.997-.741 12.788-11.169 22.843-23.978 22.843h-53.291c-15.083 0-26.455-13.673-23.646-28.492 7.337-38.714 27.598-107.784 81.852-148.686 6.127-4.62 13.928-6.481 21.453-4.976z"/><path style="fill:#c4deff" d="M256 167.823c89.102 0 168.442 41.585 219.836 106.349 2.952-14.218 4.615-28.374 4.615-42.22C480.452 107.99 379.961 7.5 256 7.5S31.548 107.99 31.548 231.952c0 13.845 1.664 28.002 4.615 42.22C87.558 209.407 166.898 167.823 256 167.823z"/><path style="fill:#a5cdff" d="M79.645 207.903c0-78.304 40.123-147.207 100.906-187.367C93.713 51.531 31.548 134.466 31.548 231.952c0 13.845 1.664 28.001 4.615 42.219v.001c13.17-16.596 28.198-31.64 44.732-44.882-.788-7.208-1.25-14.355-1.25-21.387z"/><path style="fill:#fff" d="M325.062 154.046c27.538-8.351 56.632 7.203 64.983 34.742l9.305 30.685c8.351 27.538-7.203 56.632-34.742 64.983-27.538 8.351-56.632-7.203-64.983-34.742l-9.305-30.685c-8.35-27.538 7.204-56.632 34.742-64.983zm-138.124 0c-27.538-8.351-56.632 7.203-64.983 34.742l-9.305 30.685c-8.351 27.538 7.203 56.632 34.742 64.983 27.538 8.351 56.632-7.203 64.983-34.742l9.305-30.685c8.35-27.538-7.204-56.632-34.742-64.983z"/><path style="fill:#ffc350" d="M140.317 480.452c-11.988 0-21.747-8.385-22.441-19.047-2.709-41.649-13.501-81.224-21.217-105.056-3.435-10.61 2.483-21.43 13.129-25.972-1.259-1.01-2.445-2.077-3.742-3.055-6.128-4.619-13.929-6.48-21.454-4.975-15.222 3.045-24.582 18.399-20.28 33.314 8.244 28.582 19.776 76.047 22.67 125.997.741 12.787 11.168 22.843 23.977 22.843h53.291c13.554 0 24.015-11.056 23.978-24.048h-47.911v-.001zm251.983 0c-15.084 0-26.455-12.601-23.646-26.258 6.735-32.749 24.44-89.015 69.248-127.193-3.022-2.221-6.548-3.865-10.494-4.654-7.525-1.505-15.326.356-21.454 4.975-54.254 40.903-74.515 109.972-81.852 148.686-2.809 14.819 8.563 28.492 23.646 28.492h53.291c12.809 0 23.237-10.056 23.977-22.843.023-.405.07-.8.095-1.205H392.3z"/><path style="fill:#7d5046" d="M256 304.097c-26.563 0-48.097 21.534-48.097 48.097v32.065c0-26.563 21.534-48.097 48.097-48.097s48.097 21.534 48.097 48.097v-32.065c0-26.564-21.534-48.097-48.097-48.097z"/><path d="M487.952 231.952c0-46.393-13.652-91.169-39.481-129.488a7.5 7.5 0 0 0-12.438 8.384c24.153 35.833 36.919 77.71 36.919 121.104 0 30.161-7.889 63.337-22.918 96.822a34.136 34.136 0 0 0-21.154-13.782c-9.558-1.91-19.559.4-27.439 6.341-56.498 42.594-77.321 114.316-84.705 153.277a31.696 31.696 0 0 0-.548 5.266C294.826 491.23 274.589 497 256 497c-18.598 0-38.83-5.762-60.186-17.116a31.683 31.683 0 0 0-.548-5.273c-7.384-38.961-28.207-110.684-84.705-153.278-7.88-5.941-17.883-8.252-27.439-6.341-9.315 1.863-17.483 7.579-22.41 15.681-4.919 8.091-6.233 17.956-3.605 27.066 8.668 30.05 19.588 76.017 22.389 124.353C80.467 498.862 94.288 512 110.96 512h53.291c9.445 0 18.313-4.166 24.329-11.429a31.665 31.665 0 0 0 3.719-5.62C214.58 506.256 235.977 512 256 512c20.015 0 41.417-5.744 63.701-17.05a31.574 31.574 0 0 0 3.719 5.62c6.016 7.263 14.884 11.429 24.329 11.429h53.291c16.672 0 30.493-13.138 31.465-29.91 2.801-48.335 13.721-94.302 22.389-124.352a33.838 33.838 0 0 0 1.242-7.036c20.814-40.656 31.816-81.694 31.816-118.749zm-310.924 259.05A16.535 16.535 0 0 1 164.251 497H110.96c-8.734 0-15.978-6.93-16.491-15.777-2.881-49.721-14.071-96.856-22.951-127.642-1.49-5.165-.776-10.534 2.01-15.116 2.793-4.594 7.245-7.707 12.534-8.764 5.364-1.074 11.002.242 15.468 3.61 52.472 39.558 72.017 107.259 78.998 144.094a16.447 16.447 0 0 1-3.5 13.597zm263.454-137.421c-8.88 30.786-20.07 77.921-22.951 127.642-.513 8.847-7.757 15.777-16.491 15.777h-53.291c-4.963 0-9.62-2.186-12.777-5.998a16.447 16.447 0 0 1-3.5-13.599c6.981-36.834 26.526-104.535 78.998-144.093 3.447-2.599 7.591-3.975 11.769-3.975 1.235 0 2.475.12 3.699.365 5.29 1.058 9.741 4.17 12.534 8.764 2.786 4.583 3.5 9.952 2.01 15.117zM39.048 231.952c0-57.95 22.567-112.431 63.543-153.408C143.569 37.567 198.05 15 256 15c30.797 0 60.551 6.318 88.433 18.78 26.941 12.041 50.802 29.182 70.92 50.946a7.499 7.499 0 0 0 10.598.417 7.499 7.499 0 0 0 .417-10.598c-21.503-23.263-47.011-41.585-75.814-54.459C320.733 6.758 288.92 0 256 0 194.043 0 135.795 24.127 91.985 67.937S24.048 169.995 24.048 231.952c0 25.663 5.184 52.985 15.406 81.207a7.503 7.503 0 0 0 7.052 4.948 7.5 7.5 0 0 0 7.052-10.056c-9.628-26.58-14.51-52.184-14.51-76.099z"/><path d="M129.132 190.962c7.139-23.536 32.094-36.875 55.632-29.737a44.698 44.698 0 0 1 11.1 5.101 7.5 7.5 0 1 0 8.076-12.64 59.631 59.631 0 0 0-14.823-6.815c-31.45-9.541-64.8 8.288-74.339 39.738l-9.307 30.685c-4.621 15.235-3.033 31.358 4.473 45.399 7.505 14.041 20.03 24.319 35.266 28.94a59.802 59.802 0 0 0 17.376 2.594c9.67 0 19.253-2.38 28.023-7.068 14.041-7.505 24.318-20.03 28.939-35.265l9.307-30.685c3.837-12.653 3.415-25.869-1.223-38.219a7.5 7.5 0 0 0-14.043 5.273c3.468 9.235 3.783 19.123.911 28.592l-9.307 30.685c-3.458 11.401-11.149 20.773-21.656 26.39s-22.572 6.807-33.975 3.348c-11.401-3.458-20.774-11.149-26.391-21.657s-6.806-22.573-3.347-33.975l9.308-30.684zm220.282 103.265c5.812 0 11.658-.86 17.376-2.594 15.236-4.621 27.76-14.899 35.266-28.94 7.506-14.041 9.094-30.164 4.473-45.399l-9.307-30.685a59.482 59.482 0 0 0-9.003-18.012 7.5 7.5 0 0 0-12.086 8.884 44.48 44.48 0 0 1 6.734 13.481l9.307 30.685c3.458 11.401 2.27 23.467-3.347 33.975-5.617 10.508-14.989 18.199-26.391 21.657-23.539 7.14-48.492-6.202-55.631-29.738l-9.307-30.685c-7.139-23.536 6.202-48.492 29.738-55.631 8.555-2.595 17.57-2.579 26.071.048a7.5 7.5 0 0 0 4.428-14.332c-11.372-3.513-23.423-3.536-34.852-.071-31.452 9.54-49.278 42.888-39.739 74.339l9.307 30.685c4.621 15.235 14.898 27.76 28.939 35.265 8.771 4.688 18.352 7.068 28.024 7.068zM256 447.871c30.656 0 55.597-24.94 55.597-55.597v-40.081c0-30.656-24.94-55.597-55.597-55.597s-55.597 24.94-55.597 55.597v40.081c0 30.657 24.941 55.597 55.597 55.597zm-40.597-95.678c0-22.385 18.211-40.597 40.597-40.597s40.597 18.211 40.597 40.597v40.081c0 22.385-18.211 40.597-40.597 40.597s-40.597-18.211-40.597-40.597v-40.081z"/></svg>