<svg version="1.1" id="Calque_1" xmlns="http://www.w3.org/2000/svg" x="0" y="0" viewBox="-41 164.9 512 512" style="enable-background:new -41 164.9 512 512" xml:space="preserve"><style>.st1{fill:#6752ce}.st5{fill:#a63914}.st6{fill:#7a2d1a}</style><path d="M471 420.9c0 141.4-114.6 256-256 256s-256-114.6-256-256 114.6-256 256-256 256 114.6 256 256z" style="fill:#7657e5"/><path class="st1" d="M471 420.9c0 26.1-3.9 51.2-11.1 74.9-32 104.8-129.5 181.1-244.9 181.1-104.6 0-194.5-62.7-234.2-152.6-14-31.6-21.8-66.6-21.8-103.4 0-46.2 12.3-89.6 33.7-127 44.1 77.1 127.2 129 222.3 129s178.2-51.9 222.3-129c21.5 37.4 33.7 80.8 33.7 127z"/><path class="st1" d="M-10.3 542.6c7.2 13.2 15.4 25.7 24.7 37.4 46.9 59 119.3 96.9 200.5 96.9S368.6 639 415.5 580c9.3-11.7 17.6-24.2 24.7-37.4H-10.3z"/><path d="M399.5 410.9c0 100.7-80.7 182.6-181 184.5H215c-101.9 0-184.5-82.6-184.5-184.5S113.1 226.4 215 226.4h.7c12.7 0 25.1 1.4 37.1 3.9-4.8 12.8-7.4 26.7-7.4 41.1 0 65.2 52.9 118.1 118.1 118.1 11.9 0 23.3-1.8 34.1-5 1.3 8.5 1.9 17.4 1.9 26.4z" style="fill:#ffa87a"/><path d="M399.5 410.9c0 100.7-84.2 182.7-184.5 184.5-66.3-35.2-108-105-108-185.3 0-79.2 43.2-148.1 108-183.7 12.7 0 25.8 1.4 37.8 3.9-4.8 12.8-7.4 26.7-7.4 41.1 0 65.2 52.9 118.1 118.1 118.1 11.9 0 23.3-1.8 34.1-5 1.3 8.5 1.9 17.4 1.9 26.4z" style="fill:#ea824e"/><path d="M399.5 410.9c0 101.9-82.6 184.5-184.5 184.5v-369c13 0 25.6 1.3 37.8 3.9-4.8 12.8-7.4 26.7-7.4 41.1 0 65.2 52.9 118.1 118.1 118.1 11.9 0 23.3-1.8 34.1-5 1.3 8.5 1.9 17.4 1.9 26.4z" style="fill:#c55835"/><path class="st5" d="M121 367.9c0 12.7-10.3 23-23 23s-23-10.3-23-23 10.3-23 23-23 23 10.2 23 23z"/><path class="st6" d="M121 367.9c0 12.7-10.3 23-23 23v-46c12.7 0 23 10.2 23 23z"/><path class="st5" d="M186 486.9c0 18.8-15.2 34-34 34s-34-15.2-34-34 15.2-34 34-34 34 15.2 34 34z"/><path class="st6" d="M186 486.9c0 18.8-15.2 34-34 34v-68c18.8 0 34 15.2 34 34z"/><path class="st5" d="M365 479.9c0 18.8-15.2 34-34 34s-34-15.2-34-34 15.2-34 34-34 34 15.2 34 34z"/><path class="st6" d="M365 479.9c0 18.8-15.2 34-34 34v-68c18.8 0 34 15.2 34 34z"/><path class="st5" d="M249 338.9c0 18.8-15.2 34-34 34s-34-15.2-34-34 15.2-34 34-34 34 15.2 34 34z"/><path class="st6" d="M249 338.9c0 18.8-15.2 34-34 34v-68c18.8 0 34 15.2 34 34z"/><path class="st5" d="M276 420.9c0 8.8-7.2 16-16 16s-16-7.2-16-16 7.2-16 16-16 16 7.1 16 16z"/><path class="st6" d="M276 420.9c0 8.8-7.2 16-16 16v-32c8.8 0 16 7.1 16 16z"/><path class="st5" d="M174 272.9c0 8.8-7.2 16-16 16s-16-7.2-16-16 7.2-16 16-16 16 7.1 16 16z"/><path class="st6" d="M174 272.9c0 8.8-7.2 16-16 16v-32c8.8 0 16 7.1 16 16z"/><path class="st5" d="M264 530.9c0 8.8-7.2 16-16 16s-16-7.2-16-16 7.2-16 16-16 16 7.1 16 16z"/><path class="st6" d="M264 530.9c0 8.8-7.2 16-16 16v-32c8.8 0 16 7.1 16 16z"/></svg>