<svg version="1.1" id="Calque_1" xmlns="http://www.w3.org/2000/svg" x="0" y="0" viewBox="-41 164.9 512 512" style="enable-background:new -41 164.9 512 512" xml:space="preserve"><style>.st2{fill:#323b5a}.st3{fill:#ffe955}.st5{fill:#dd1265}.st6{fill:#ff3445}.st7{fill:#fff}.st8{fill:#eb7722}.st9{fill:#ff9f00}.st10{fill:#e3835a}.st11{fill:#ffa87a}</style><g id="surface1"><path d="M471 420.9c0 141.4-114.6 256-256 256s-256-114.6-256-256 114.6-256 256-256 256 114.6 256 256z" style="fill:#7657e5"/><path d="M-41 420.9c0 26.1 3.9 51.2 11.1 74.9C2.1 600.6 99.7 676.9 215 676.9c104.6 0 194.5-62.7 234.2-152.6 14-31.6 21.8-66.6 21.8-103.4 0-46.2-12.3-89.6-33.7-127-44.1 77.1-127.2 129-222.3 129S36.8 371-7.3 293.9c-21.5 37.4-33.7 80.8-33.7 127z" style="fill:#6752ce"/><path class="st2" d="M440.3 542.6c-7.2 13.2-15.4 25.7-24.7 37.4-46.9 59-119.3 96.9-200.5 96.9S61.4 639 14.5 580c-9.3-11.7-17.6-24.2-24.7-37.4h450.5z"/><path class="st3" d="M68.6 609.7v21.2c33.3 23.2 72.3 38.8 114.5 44 1.5.2 3 .4 4.4.5 7.2.8 14.5 1.3 21.9 1.4 1.8 0 3.7.1 5.5.1s3.7 0 5.5-.1c7.4-.2 14.7-.6 21.9-1.4 1.5-.1 3-.3 4.4-.5 42.2-5.2 81.3-20.8 114.5-44v-21.2c0-55.9-34.8-105.9-87.2-125.3l-6.2-2.3-3.3-1.2-14.1-5.2-5.3-1.9h-60.6l-5.3 1.9-14.1 5.2-3.3 1.2-6.2 2.3c-52.2 19.5-87 69.4-87 125.3z"/><path d="M215 473.7v203.2c1.8 0 3.7 0 5.5-.1 7.4-.2 14.7-.6 21.9-1.4 1.5-.1 3-.3 4.4-.5 42.2-5.2 81.3-20.8 114.5-44v-21.2c0-55.9-34.8-105.9-87.2-125.3l-6.2-2.3-3.3-1.2-14.1-5.2-5.3-1.9H215z" style="fill:#ffd112"/><path class="st5" d="M312 622.9c-2-2-2-5.2 0-7.1 2-2 5.1-2 7.1 0s5.1 2 7.1 0 5.1-2 7.1 0 2 5.1 0 7.1-2 5.1 0 7.1 2 5.1 0 7.1-5.1 2-7.1 0-5.1-2-7.1 0-5.1 2-7.1 0-2-5.1 0-7.1 2-5.2 0-7.1z"/><path class="st6" d="M317.7 616.4c0-2.8 2.3-5 5-5 2.8 0 5 2.3 5 5 0 2.8 2.2 5 5 5s5 2.3 5 5-2.3 5-5 5c-2.8 0-5 2.2-5 5s-2.3 5-5 5-5-2.3-5-5c0-2.8-2.2-5-5-5s-5-2.3-5-5 2.3-5 5-5 5-2.3 5-5z"/><path class="st7" d="M328.7 626.4c0 3.3-2.7 6-6 6s-6-2.7-6-6 2.7-6 6-6 6 2.7 6 6z"/><path class="st3" d="M326.1 626.4c0 1.9-1.5 3.4-3.4 3.4s-3.4-1.5-3.4-3.4 1.5-3.4 3.4-3.4 3.4 1.6 3.4 3.4z"/><path class="st5" d="M254.3 648.4c2-2 2-5.2 0-7.1-2-2-5.2-2-7.1 0-2 2-5.1 2-7.1 0s-5.1-2-7.1 0-2 5.1 0 7.1 2 5.1 0 7.1-2 5.1 0 7.1 5.1 2 7.1 0 5.1-2 7.1 0 5.1 2 7.1 0 2-5.1 0-7.1-2-5.2 0-7.1z"/><path class="st6" d="M248.6 641.9c0-2.8-2.3-5-5-5s-5 2.3-5 5c0 2.8-2.2 5-5 5s-5 2.3-5 5 2.3 5 5 5c2.8 0 5 2.2 5 5s2.3 5 5 5c2.8 0 5-2.3 5-5 0-2.8 2.2-5 5-5s5-2.3 5-5-2.3-5-5-5-5-2.3-5-5z"/><path class="st7" d="M249.6 651.9c0 3.3-2.7 6-6 6s-6-2.7-6-6 2.7-6 6-6 6 2.7 6 6z"/><path class="st3" d="M247 651.9c0 1.9-1.5 3.4-3.4 3.4s-3.4-1.5-3.4-3.4 1.5-3.4 3.4-3.4 3.4 1.5 3.4 3.4z"/><path class="st5" d="M324.6 546.3c2-2 2-5.1 0-7.1s-5.1-2-7.1 0-5.1 2-7.1 0-5.1-2-7.1 0-2 5.1 0 7.1 2 5.1 0 7.1-2 5.1 0 7.1 5.1 2 7.1 0 5.1-2 7.1 0 5.1 2 7.1 0 2-5.2 0-7.1c-2-1.9-2-5.1 0-7.1z"/><path class="st6" d="M319 539.9c0-2.8-2.3-5-5-5-2.8 0-5 2.3-5 5 0 2.8-2.2 5-5 5s-5 2.3-5 5 2.3 5 5 5c2.8 0 5 2.2 5 5s2.3 5 5 5 5-2.3 5-5c0-2.8 2.2-5 5-5s5-2.3 5-5-2.3-5-5-5c-2.8 0-5-2.3-5-5z"/><path class="st7" d="M319.9 549.9c0 3.3-2.7 6-6 6s-6-2.7-6-6 2.7-6 6-6c3.4 0 6 2.7 6 6z"/><path class="st3" d="M317.3 549.9c0 1.9-1.5 3.4-3.4 3.4s-3.4-1.5-3.4-3.4 1.5-3.4 3.4-3.4 3.4 1.5 3.4 3.4z"/><path class="st5" d="M279.4 602.8c2-2 2-5.2 0-7.1-2-2-5.1-2-7.1 0s-5.1 2-7.1 0-5.1-2-7.1 0-2 5.1 0 7.1 2 5.1 0 7.1-2 5.1 0 7.1 5.1 2 7.1 0 5.1-2 7.1 0 5.1 2 7.1 0 2-5.1 0-7.1-2-5.2 0-7.1z"/><path class="st6" d="M273.7 596.3c0-2.8-2.3-5-5-5s-5 2.3-5 5c0 2.8-2.2 5-5 5s-5 2.3-5 5 2.3 5 5 5c2.8 0 5 2.2 5 5s2.3 5 5 5 5-2.3 5-5c0-2.8 2.2-5 5-5s5-2.3 5-5-2.3-5-5-5-5-2.3-5-5z"/><path class="st7" d="M274.7 606.3c0 3.3-2.7 6-6 6s-6-2.7-6-6 2.7-6 6-6 6 2.7 6 6z"/><path class="st3" d="M272.1 606.3c0 1.9-1.5 3.4-3.4 3.4s-3.4-1.5-3.4-3.4 1.5-3.4 3.4-3.4 3.4 1.6 3.4 3.4z"/><path class="st5" d="M254.3 552.4c2-2 2-5.1 0-7.1s-5.2-2-7.1 0c-2 2-5.1 2-7.1 0s-5.1-2-7.1 0-2 5.1 0 7.1 2 5.1 0 7.1-2 5.1 0 7.1 5.1 2 7.1 0 5.1-2 7.1 0 5.1 2 7.1 0 2-5.1 0-7.1-2-5.2 0-7.1z"/><path class="st6" d="M248.6 545.9c0-2.8-2.3-5-5-5s-5 2.3-5 5c0 2.8-2.2 5-5 5s-5 2.3-5 5 2.3 5 5 5c2.8 0 5 2.2 5 5s2.3 5 5 5c2.8 0 5-2.3 5-5 0-2.8 2.2-5 5-5s5-2.3 5-5-2.3-5-5-5-5-2.3-5-5z"/><path class="st7" d="M249.6 555.9c0 3.3-2.7 6-6 6s-6-2.7-6-6 2.7-6 6-6 6 2.7 6 6z"/><path class="st3" d="M247 555.9c0 1.9-1.5 3.4-3.4 3.4s-3.4-1.5-3.4-3.4 1.5-3.4 3.4-3.4 3.4 1.5 3.4 3.4z"/><path class="st5" d="M116.7 622.9c2-2 2-5.2 0-7.1-2-2-5.1-2-7.1 0s-5.1 2-7.1 0-5.2-2-7.1 0c-2 2-2 5.1 0 7.1s2 5.1 0 7.1-2 5.1 0 7.1 5.1 2 7.1 0 5.1-2 7.1 0 5.1 2 7.1 0 2-5.1 0-7.1-2-5.2 0-7.1z"/><path class="st6" d="M111 616.4c0-2.8-2.3-5-5-5s-5 2.3-5 5c0 2.8-2.2 5-5 5s-5 2.3-5 5 2.3 5 5 5c2.8 0 5 2.2 5 5s2.3 5 5 5 5-2.3 5-5c0-2.8 2.2-5 5-5s5-2.3 5-5-2.3-5-5-5-5-2.3-5-5z"/><path class="st7" d="M112 626.4c0 3.3-2.7 6-6 6s-6-2.7-6-6 2.7-6 6-6 6 2.7 6 6z"/><path class="st3" d="M109.4 626.4c0 1.9-1.5 3.4-3.4 3.4s-3.4-1.5-3.4-3.4 1.5-3.4 3.4-3.4 3.4 1.6 3.4 3.4z"/><path class="st5" d="M174.4 648.4c-2-2-2-5.2 0-7.1 2-2 5.1-2 7.1 0s5.1 2 7.1 0 5.1-2 7.1 0 2 5.1 0 7.1-2 5.1 0 7.1 2 5.1 0 7.1-5.1 2-7.1 0-5.1-2-7.1 0-5.1 2-7.1 0-2-5.1 0-7.1 2-5.2 0-7.1z"/><path class="st6" d="M180.1 641.9c0-2.8 2.3-5 5-5s5 2.3 5 5c0 2.8 2.2 5 5 5s5 2.3 5 5-2.3 5-5 5c-2.8 0-5 2.2-5 5s-2.3 5-5 5-5-2.3-5-5c0-2.8-2.2-5-5-5s-5-2.3-5-5 2.3-5 5-5 5-2.3 5-5z"/><path class="st7" d="M191.1 651.9c0 3.3-2.7 6-6 6s-6-2.7-6-6 2.7-6 6-6 6 2.7 6 6z"/><path class="st3" d="M188.5 651.9c0 1.9-1.5 3.4-3.4 3.4s-3.4-1.5-3.4-3.4 1.5-3.4 3.4-3.4 3.4 1.5 3.4 3.4z"/><path class="st5" d="M104.1 546.3c-2-2-2-5.1 0-7.1s5.1-2 7.1 0 5.1 2 7.1 0 5.1-2 7.1 0 2 5.1 0 7.1-2 5.1 0 7.1 2 5.1 0 7.1-5.2 2-7.1 0c-2-2-5.1-2-7.1 0s-5.1 2-7.1 0-2-5.2 0-7.1c2-1.9 2-5.1 0-7.1z"/><path class="st6" d="M109.7 539.9c0-2.8 2.3-5 5-5s5 2.3 5 5c0 2.8 2.2 5 5 5s5 2.3 5 5-2.3 5-5 5c-2.8 0-5 2.2-5 5s-2.3 5-5 5-5-2.3-5-5c0-2.8-2.2-5-5-5s-5-2.3-5-5 2.3-5 5-5c2.8 0 5-2.3 5-5z"/><path class="st7" d="M120.8 549.9c0 3.3-2.7 6-6 6s-6-2.7-6-6 2.7-6 6-6 6 2.7 6 6z"/><path class="st3" d="M118.1 549.9c0 1.9-1.5 3.4-3.4 3.4s-3.4-1.5-3.4-3.4 1.5-3.4 3.4-3.4 3.4 1.5 3.4 3.4z"/><path class="st5" d="M149.4 602.8c-2-2-2-5.2 0-7.1 2-2 5.1-2 7.1 0s5.1 2 7.1 0 5.2-2 7.1 0c2 2 2 5.1 0 7.1s-2 5.1 0 7.1 2 5.1 0 7.1-5.1 2-7.1 0c-1.9-2-5.1-2-7.1 0s-5.1 2-7.1 0-2-5.1 0-7.1c1.9-2 1.9-5.2 0-7.1z"/><path class="st6" d="M155 596.3c0-2.8 2.3-5 5-5s5 2.3 5 5c0 2.8 2.2 5 5 5s5 2.3 5 5-2.3 5-5 5c-2.8 0-5 2.2-5 5s-2.3 5-5 5-5-2.3-5-5c0-2.8-2.2-5-5-5s-5-2.3-5-5 2.3-5 5-5 5-2.3 5-5z"/><path class="st7" d="M166 606.3c0 3.3-2.7 6-6 6s-6-2.7-6-6 2.7-6 6-6 6 2.7 6 6z"/><path class="st3" d="M163.4 606.3c0 1.9-1.5 3.4-3.4 3.4s-3.4-1.5-3.4-3.4 1.5-3.4 3.4-3.4 3.4 1.6 3.4 3.4z"/><path class="st5" d="M174.4 552.4c-2-2-2-5.1 0-7.1s5.1-2 7.1 0 5.1 2 7.1 0 5.1-2 7.1 0 2 5.1 0 7.1-2 5.1 0 7.1 2 5.1 0 7.1-5.1 2-7.1 0-5.1-2-7.1 0-5.1 2-7.1 0-2-5.1 0-7.1 2-5.2 0-7.1z"/><path class="st6" d="M180.1 545.9c0-2.8 2.3-5 5-5s5 2.3 5 5c0 2.8 2.2 5 5 5s5 2.3 5 5-2.3 5-5 5c-2.8 0-5 2.2-5 5s-2.3 5-5 5-5-2.3-5-5c0-2.8-2.2-5-5-5s-5-2.3-5-5 2.3-5 5-5 5-2.3 5-5z"/><path class="st7" d="M191.1 555.9c0 3.3-2.7 6-6 6s-6-2.7-6-6 2.7-6 6-6 6 2.7 6 6z"/><path class="st3" d="M188.5 555.9c0 1.9-1.5 3.4-3.4 3.4s-3.4-1.5-3.4-3.4 1.5-3.4 3.4-3.4 3.4 1.5 3.4 3.4z"/><path class="st8" d="M220.5 473.7v203.1c-1.8 0-3.7.1-5.5.1s-3.7 0-5.5-.1V473.7h11z"/><path class="st7" d="M215 524.9v34.3-34.3z"/><path class="st8" d="M248.4 453.2H215v106l9.9-30.5c.9-2.7 2.3-5.3 4-7.5 1.8-2.2 3.9-4.1 6.4-5.6 5.9-2.7 12.8-.9 16.7 4.2l8.3 10.8 6.5-26.9c3.5-14.3-.2-29.3-9.8-40.4l-8.6-10.1z"/><path class="st9" d="M181.6 453.2H215v106l-9.9-30.5c-.9-2.7-2.3-5.3-4-7.5-1.8-2.2-3.9-4.1-6.4-5.6-5.9-2.7-12.8-.9-16.7 4.2l-8.3 10.8-6.5-26.9c-3.4-14.3.2-29.3 9.8-40.4l8.6-10.1z"/><path class="st10" d="M317.7 346.8c12.6 0 22.9 10.2 22.9 22.9 0 23-18.6 41.6-41.6 41.6v-64.6l18.7.1zm-205.4 0c-12.6 0-22.9 10.2-22.9 22.9 0 23 18.6 41.6 41.6 41.6v-64.6l-18.7.1zm68 82.4v49.3c0 19.1 15.5 34.6 34.6 34.6s34.6-15.5 34.6-34.6v-49.3h-69.2z"/><path class="st11" d="M180.3 429.2v49.3c0 19.1 15.5 34.6 34.6 34.6v-83.9h-34.6z"/><path class="st11" d="M125.6 351.1v33.7c0 49.3 40 89.4 89.4 89.4 49.3 0 89.4-40 89.4-89.4v-33.7c0-5.1-.4-10.1-1.3-14.9-5.8-34.8-31.8-62.8-65.5-71.6-7.2-1.9-14.8-2.9-22.6-2.9-7.8 0-15.4 1-22.6 2.9-33.7 8.8-59.7 36.8-65.5 71.6-.9 4.9-1.3 9.9-1.3 14.9z"/><path d="M125.6 351.1v33.7c0 49.3 40 89.4 89.4 89.4V261.8c-7.8 0-15.4 1-22.6 2.9-33.7 8.8-59.7 36.8-65.5 71.6-.9 4.8-1.3 9.8-1.3 14.8z" style="fill:#ffc0a4"/><path class="st2" d="M254 373.6c0 6.1-4.9 11-11 11s-11-4.9-11-11 4.9-11 11-11 11 5 11 11zm-56 0c0 6.1-4.9 11-11 11s-11-4.9-11-11 4.9-11 11-11c6 0 11 5 11 11zm-9.3 44.8c-7.8 0-11.9 9.3-6.6 15 3.4 3.5 7.3 6.5 11.6 8.8 6.3 3.4 13.6 5.3 21.3 5.3s14.9-1.9 21.3-5.3c4.3-2.3 8.3-5.3 11.6-8.8 5.3-5.6 1.2-15-6.6-15h-52.6zm-82.3-75.5c0 5.2 3.9 9.6 9.1 10.2 4.5.5 9.1.8 13.7.8 33.9 0 64.4-14.5 85.7-37.6 21.3 23.2 51.8 37.6 85.7 37.6 4.6 0 9.1-.3 13.5-.8 2.6-.3 5-1.6 6.6-3.5 1.7-1.9 2.7-4.3 2.7-7 0-40.4-21.8-78.2-57.7-96.9-7.3-3.8-15-6.8-23-8.9-8.9-2.3-18.2-3.5-27.8-3.5-9.6 0-19 1.2-27.8 3.6-4.6 1.2-9.1 2.7-13.5 4.5-20.5 8.3-37.3 22.6-49 40.4-11.6 17.7-18.2 39-18.2 61.1z"/><path d="M106.4 342.9c0 5.2 3.9 9.6 9.1 10.2 4.5.5 9.1.8 13.7.8 33.9 0 64.4-14.5 85.7-37.6v-82.9c-9.6 0-19 1.2-27.8 3.6-4.6 1.2-9.1 2.7-13.5 4.5-20.5 8.3-37.3 22.6-49 40.4-11.6 17.6-18.2 38.9-18.2 61z" style="fill:#535e89"/><path class="st10" d="M215 403.8c3.7 0 6.6-3 6.6-6.6v-33.3c0-3.7-3-6.6-6.6-6.6s-6.6 3-6.6 6.6v33.3c0 3.6 2.9 6.6 6.6 6.6z"/><path d="M193.7 442.2c6.3 3.4 13.6 5.3 21.3 5.3s14.9-1.9 21.3-5.3c-5.3-5.7-12.9-9.3-21.3-9.3s-16 3.6-21.3 9.3z" style="fill:#e32644"/><path class="st8" d="M106.6 318.7h216.1l-7.5-46-7.5-46H121.6l-7.5 46-7.5 46z"/><path class="st9" d="M106.6 318.7H215v-92.1h-93.4l-7.5 46-7.5 46.1z"/><path class="st5" d="M106.6 318.7h216.1l-7.5-46H114.1l-7.5 46z"/><path class="st6" d="M106.6 318.7H215v-46H114.1l-7.5 46z"/><path class="st8" d="M73.6 308.6h282.8v20.2H73.6v-20.2z"/><path class="st9" d="M73.6 308.6H215v20.2H73.6v-20.2z"/></g></svg>