<svg version="1.1" id="Calque_1" xmlns="http://www.w3.org/2000/svg" x="0" y="0" viewBox="-41 164.9 512 512" style="enable-background:new -41 164.9 512 512" xml:space="preserve"><style>.st3{fill:#323b5a}.st5{fill:#ffd112}.st6{fill:#ff9f00}.st7{fill:#fff}.st8{fill:#d0f6ff}.st9{fill:#8fc9f7}.st11{fill:#ff3445}.st12{fill:#dd1265}.st14{fill:#0f9be8}.st15{fill:#0066e8}</style><g id="surface1"><path d="M471 420.9c0 78.5-35.3 148.7-91 195.7-44.6 37.6-102.2 60.3-165 60.3S94.5 654.2 50 616.6c-55.6-47-91-117.2-91-195.7 0-141.4 114.6-256 256-256s256 114.6 256 256z" style="fill:#7657e5"/><path d="M471 420.9c0 26.1-3.9 51.2-11.1 74.9-32 104.8-129.5 181.1-244.9 181.1-104.6 0-194.5-62.7-234.2-152.6-14-31.6-21.8-66.6-21.8-103.4 0-46.2 12.3-89.6 33.7-127 44.1 77.1 127.2 129 222.3 129s178.2-51.9 222.3-129c21.5 37.4 33.7 80.8 33.7 127z" style="fill:#6853d3"/><path d="M440.3 542.6c-7.2 13.2-15.4 25.7-24.7 37.4-.1.2-.3.4-.5.6-46.9 58.7-119.1 96.3-200.1 96.3S61.8 639.3 14.9 580.6c-.2-.2-.3-.4-.5-.6-9.3-11.7-17.6-24.2-24.7-37.4h450.6z" style="fill:#5946b7"/><path class="st3" d="M380 616.6c-44.6 37.6-102.2 60.3-165 60.3S94.5 654.2 50 616.6h330z"/><path d="M356.3 410.9v223.5c-21.4 14.2-45 25.2-70.3 32.5-22.6 6.5-46.4 10-71.1 10-23.3 0-45.9-3.1-67.4-9-1.2-.3-2.4-.7-3.7-1-21.2-6.1-41.3-14.9-59.8-26-3.5-2.1-7-4.3-10.4-6.6V431.6c0-11.5 9.3-20.8 20.8-20.8h261.9z" style="fill:#ffe955"/><path class="st5" d="M356.3 410.9v223.5c-21.4 14.2-45 25.2-70.3 32.5-22.6 6.5-46.4 10-71.1 10-23.3 0-45.9-3.1-67.4-9v-257h208.8z"/><path class="st6" d="M356.3 410.9v223.5c-21.4 14.2-45 25.2-70.3 32.5-22.6 6.5-46.4 10-71.1 10v-266h141.4z"/><path class="st7" d="M286.1 666.9c-22.6 6.5-46.4 10-71.1 10-23.3 0-45.9-3.1-67.4-9-1.2-.3-2.4-.7-3.7-1h142.2z"/><path class="st8" d="M286.1 666.9c-22.6 6.5-46.4 10-71.1 10-23.3 0-45.9-3.1-67.4-9v-1h138.5z"/><path class="st9" d="M286.1 666.9c-22.6 6.5-46.4 10-71.1 10v-10h71.1z"/><path d="M356.3 363.2v258.1c0 .3 0 .5-.1.7v.3c0 .2 0 .4-.1.5 0 .2-.1.4-.1.6 0 .2-.1.4-.1.6 0 .2-.1.4-.1.5 0 .1-.1.3-.1.4-.1.3-.2.7-.3 1-.1.4-.2.7-.4 1.1-.1.3-.2.5-.3.7-.2.5-.4.9-.6 1.4l-.3.6c-.1.1-.1.3-.2.4-.2.3-.4.7-.6 1-.1.1-.2.3-.3.5-.1.2-.2.3-.3.5-.2.3-.4.6-.7.9-.2.3-.4.5-.6.7l-.1.1c-.1.1-.2.3-.4.4l-.4.4-.8.8c-.3.3-.6.5-.8.7-.3.2-.5.4-.8.6-.2.2-.5.4-.7.5-.1 0-.1.1-.2.1-.3.2-.5.3-.8.5-.6.4-1.2.7-1.8 1-.3.2-.7.3-1 .5-.4.1-.7.3-1.1.4-.2.1-.4.1-.6.2-.2.1-.3.1-.5.1-.3.1-.6.2-1 .3-.1 0-.3.1-.4.1-.2 0-.4.1-.6.1-.2 0-.4.1-.6.1-.3 0-.5.1-.7.1h-.3c-.2 0-.3 0-.5.1-.2 0-.5 0-.7.1H84.1c-3.5-2.1-7-4.3-10.4-6.6v-292h261.9c11.4.1 20.7 9.4 20.7 20.9z" style="fill:#ff7195"/><path class="st11" d="M356.3 363.2v257c0 11.5-9.3 20.8-20.8 20.8h-188V342.4h188c11.5 0 20.8 9.3 20.8 20.8z"/><path class="st12" d="M356.3 363.2v257c0 11.5-9.3 20.8-20.8 20.8H215V342.4h120.6c11.4 0 20.7 9.3 20.7 20.8z"/><path class="st7" d="M356.3 619.2v2.1c0 .3 0 .5-.1.7v.3c0 .2 0 .4-.1.5 0 .2-.1.4-.1.6 0 .2-.1.4-.1.6 0 .2-.1.4-.1.5 0 .1-.1.3-.1.4-.1.3-.2.7-.3 1-.1.4-.2.7-.4 1.1-.1.3-.2.5-.3.7-.2.5-.4.9-.6 1.4l-.3.6c-.1.1-.1.3-.2.4-.2.3-.4.7-.6 1-.1.1-.2.3-.3.5-.1.2-.2.3-.3.5-.2.3-.4.6-.7.9-.2.3-.4.5-.6.7l-.1.1c-.1.1-.2.3-.4.4l-.4.4-.8.8c-.3.3-.6.5-.8.7-.3.2-.5.4-.8.6-.2.2-.5.4-.7.5-.1 0-.1.1-.2.1-.3.2-.5.3-.8.5-.6.4-1.2.7-1.8 1-.3.2-.7.3-1 .5-.4.1-.7.3-1.1.4-.2.1-.4.1-.6.2-.2.1-.3.1-.5.1-.3.1-.6.2-1 .3-.1 0-.3.1-.4.1-.2 0-.4.1-.6.1-.2 0-.4.1-.6.1-.3 0-.5.1-.7.1h-.3c-.2 0-.3 0-.5.1-.2 0-.5 0-.7.1H84.1c-3.5-2.1-7-4.3-10.4-6.6v-36h261.9c11.4.1 20.7 9.4 20.7 20.9z"/><path class="st8" d="M356.3 619.2v1c0 11.5-9.3 20.8-20.8 20.8h-188v-42.5h188c11.5-.1 20.8 9.2 20.8 20.7z"/><path d="M356.3 295.8v278.9H94.4c-11.5 0-20.8-9.3-20.8-20.8v-257c0-11.5 9.3-20.8 20.8-20.8h242.3c10.9.1 19.6 8.9 19.6 19.7z" style="fill:#65b2ff"/><path class="st14" d="M356.3 295.8v278.9H147.6V276.2h189.1c10.9 0 19.6 8.8 19.6 19.6z"/><path class="st15" d="M356.3 295.8v278.9H215V276.2h121.7c10.9 0 19.6 8.8 19.6 19.6z"/><path class="st7" d="M356.3 532.2v42.5H94.4c-11.5 0-20.8-9.3-20.8-20.8v-1c0-11.5 9.3-20.8 20.8-20.8h261.9z"/><path class="st8" d="M147.6 532.2h208.8v42.5H147.6v-42.5z"/><path class="st9" d="M215 532.2h141.3v42.5H215v-42.5z"/><path d="M296.1 331.8v59.8c0 6.7-5.4 12.2-12.2 12.2H146.1c-6.7 0-12.2-5.5-12.2-12.2v-59.8c0-6.7 5.4-12.2 12.2-12.2h137.8c6.7 0 12.2 5.5 12.2 12.2z" style="fill:#474f6f"/><path class="st3" d="M296.1 331.8v59.8c0 6.7-5.4 12.2-12.2 12.2H215v-84.2h68.9c6.7 0 12.2 5.5 12.2 12.2z"/><path class="st7" d="M280.6 344.9v33.6c0 5-4 9-9 9H158.4c-5 0-9-4-9-9v-33.6c0-5 4-9 9-9h113.2c4.9 0 9 4 9 9z"/><path class="st8" d="M280.6 344.9v33.6c0 5-4 9-9 9H215V336h56.6c4.9-.1 9 3.9 9 8.9z"/><path class="st9" d="M356.3 619.2v1c0 11.5-9.3 20.8-20.8 20.8H215v-42.5h120.6c11.4-.1 20.7 9.2 20.7 20.7z"/><path class="st14" d="M83.7 552.9v1c0 5.9 4.8 10.8 10.8 10.8h261.9v10h-262c-11.5 0-20.8-9.3-20.8-20.8v-1c0-11.5 9.3-20.8 20.8-20.8h261.9v10H94.4c-5.9.1-10.7 4.9-10.7 10.8z"/><path class="st15" d="M147.6 532.2h208.8v10H147.6v-10zm0 32.5h208.8v10H147.6v-10z"/><path d="M215 532.2h141.3v10H215v-10zm0 32.5h141.3v10H215v-10z" style="fill:#065fc1"/><path class="st5" d="M286.1 666.9c-22.6 6.5-46.4 10-71.1 10-23.3 0-45.9-3.1-67.4-9-1.2-.3-2.4-.7-3.7-1h142.2z"/><path class="st6" d="M286.1 666.9c-22.6 6.5-46.4 10-71.1 10-23.3 0-45.9-3.1-67.4-9v-1h138.5z"/><path d="M286.1 666.9c-22.6 6.5-46.4 10-71.1 10v-10h71.1z" style="fill:#c55835"/><path class="st11" d="M356.3 619.2v2.1c0 .3 0 .5-.1.7v.3c0 .2 0 .4-.1.5 0 .2-.1.4-.1.6 0 .2-.1.4-.1.6 0 .2-.1.4-.1.5 0 .1-.1.3-.1.4-.1.3-.2.7-.3 1-.1.4-.2.7-.4 1.1-.1.3-.2.5-.3.7-.2.5-.4.9-.6 1.4l-.3.6c-.1.1-.1.3-.2.4-.2.3-.4.7-.6 1-.1.1-.2.3-.3.5-.1.2-.2.3-.3.5-.2.3-.4.6-.7.9-.2.3-.4.5-.6.7l-.1.1c-.1.1-.2.3-.4.4l-.4.4-.8.8c-.3.3-.6.5-.8.7-.3.2-.5.4-.8.6-.2.2-.5.4-.7.5-.1 0-.1.1-.2.1-.1.1-.2.2-.3.2-.1.1-.3.2-.4.3-.6.4-1.2.7-1.8 1-.3.2-.7.3-1 .5-.4.1-.7.3-1.1.4-.2.1-.4.1-.6.2-.2.1-.3.1-.5.1-.3.1-.6.2-1 .3-.1 0-.3.1-.4.1-.2 0-.4.1-.6.1-.2 0-.4.1-.6.1-.3 0-.5.1-.7.1h-.3c-.2 0-.3 0-.5.1-.2 0-.5 0-.7.1H84.1c-3.5-2.1-7-4.3-10.4-6.6v-3.4h261.9c5.9 0 10.8-4.8 10.8-10.8v-1c0-5.9-4.8-10.8-10.8-10.8H73.7v-10h261.9c11.4.1 20.7 9.4 20.7 20.9z"/><path class="st12" d="M356.3 619.2v2.1c0 .3 0 .5-.1.7 0 .3 0 .6-.1.9 0 .2-.1.4-.1.6 0 .2-.1.4-.1.6 0 .2-.1.4-.1.5 0 .1-.1.3-.1.4-.1.3-.2.7-.3 1-.1.4-.2.7-.4 1.1-.3.7-.5 1.4-.9 2.1-.2.3-.3.7-.5 1-.2.3-.4.7-.6 1l-.6.9c-.2.3-.4.6-.7.9-.2.3-.5.6-.7.9-.2.3-.5.6-.8.8l-.8.8c-.3.3-.6.5-.8.7-.3.2-.5.4-.8.6-.2.2-.5.4-.7.5-.1 0-.1.1-.2.1-.3.2-.5.3-.8.5-.6.4-1.2.7-1.8 1l-2.1.9c-.4.1-.7.3-1.1.3-.3.1-.6.2-1 .3-.1 0-.3.1-.4.1-.2 0-.4.1-.6.1-.2 0-.4.1-.6.1-.3 0-.5.1-.7.1h-.3c-.2 0-.3 0-.5.1-.2 0-.5 0-.7.1H147.2v-10h188c5.9 0 10.8-4.8 10.8-10.8v-1c0-5.9-4.8-10.8-10.8-10.8h-188v-10h188c11.8 0 21.1 9.3 21.1 20.8z"/><path d="M356.3 619.2v1c0 6.4-2.9 12.2-7.6 16-.6.5-1.3 1-2 1.5-.7.4-1.4.9-2.2 1.2-2.7 1.3-5.8 2.1-9 2.1H215v-10h120.6c5.9 0 10.8-4.8 10.8-10.8v-1c0-5.9-4.8-10.8-10.8-10.8H215v-10h120.6c11.4 0 20.7 9.3 20.7 20.8z" style="fill:#ba0d5c"/></g></svg>