<svg version="1.1" id="a8897f4c-2937-4134-8b3a-fee1040aeff6" xmlns="http://www.w3.org/2000/svg" x="0" y="0" viewBox="0 0 1066.1 824.2" style="enable-background:new 0 0 1066.1 824.2" xml:space="preserve"><style>.st1{fill:#2f2e41}.st2{fill:#ffb8b8}.st3{opacity:.2;enable-background:new}.st4{fill:#3f3d56}.st5{fill:#41d6c3}.st6{fill:#a0616a}.st7{fill:#d0cde1}</style><path style="fill:#f2f2f2" d="m962.6 394.7-15.9 71.4-12.9 58-10.3 46.2-12.9 57.9-42.1 189.3-521.6-241-38.3-17.7-48.6-22.5-38.3-17.7-46.1-21.3 26.1-38.1 21.8-31.6 27.5-40 21.7-31.6L517.4 0l259.1 229.8 46.2 40.9 36.8 32.7 46.2 40.9z"/><path class="st1" d="M204.4 604.8c-34.9-19.4-56.6-46-64.5-78.9-5.9-24.4-4.2-51.9 5-81.7 6.9-22 17.1-42.7 30.4-61.5 70.6-100 77-165.1 69.9-202.2-7.8-40.6-33-57.5-33.3-57.7l1.1-1.7c.3.2 26.2 17.4 34.1 58.9 4.6 23.9 2.4 51.1-6.4 81-11 37.1-32.5 78.5-63.8 122.8a217.94 217.94 0 0 0-30.2 60.9c-15.2 48.9-17.3 116 58.6 158.3l-.9 1.8z"/><path class="st1" d="M221.1 604.8c34.9-19.4 56.6-46 64.5-78.9 5.9-24.4 4.2-51.9-5-81.7-6.9-22-17.1-42.7-30.4-61.5-70.6-100-77-165.1-69.9-202.2 7.8-40.6 33-57.5 33.3-57.7l-1.1-1.7c-.3.2-26.2 17.4-34.1 58.9-4.6 23.9-2.4 51.1 6.4 81 11 37.1 32.5 78.5 63.8 122.8 13.2 18.6 23.4 39.2 30.2 60.9 15.2 48.9 17.3 116-58.6 158.3l.9 1.8zm760.3-84c-34.9-19.4-56.6-46-64.5-78.9-5.9-24.4-4.2-51.9 5-81.7 6.9-22 17.1-42.7 30.4-61.5 70.6-100 77-165.1 69.9-202.2-7.8-40.6-33-57.5-33.3-57.7l1.1-1.7c.3.2 26.2 17.4 34.1 58.9 4.6 23.9 2.4 51.1-6.4 81-11 37.1-32.5 78.5-63.8 122.8a217.94 217.94 0 0 0-30.2 60.9c-15.2 48.9-17.3 116 58.6 158.3l-.9 1.8z"/><path class="st1" d="M998.1 520.8c34.9-19.4 56.6-46 64.5-78.9 5.9-24.4 4.2-51.9-5-81.7-6.9-22-17.1-42.7-30.4-61.5-70.6-100-77-165.1-69.9-202.2 7.8-40.6 33-57.5 33.3-57.7l-1.1-1.7c-.3.2-26.2 17.4-34.1 58.9-4.6 23.9-2.4 51.1 6.4 81 11 37.1 32.5 78.5 63.8 122.8 13.2 18.6 23.4 39.2 30.2 60.9 15.2 48.9 17.3 116-58.6 158.3l.9 1.8zM467.8 299.9c-26.2-44.3-78.1-46.3-78.1-46.3s-50.5-6.5-82.9 61c-30.2 62.9-71.9 123.6-6.7 138.3l11.8-36.6 7.3 39.4c9.3.7 18.6.8 27.9.5 69.8-2.3 136.3.7 134.2-24.4-2.9-33.4 11.7-89.2-13.5-131.9z"/><path class="st2" d="M360.2 392.6c9 20 14.7 43.8 18.1 70.2l72.5-4.5c-16.7-23.6-22.2-50.7-15.9-81.6l-74.7 15.9z"/><path class="st3" d="M360.2 392.6c9 20 14.7 43.8 18.1 70.2l72.5-4.5c-16.7-23.6-22.2-50.7-15.9-81.6l-74.7 15.9z"/><path class="st2" d="M23.9 772.9S-13.6 793 5.4 810.2s44.2-22.7 44.2-22.7l-25.7-14.6z"/><path class="st1" d="m482.6 714.3-.6 27.5-1.2 59.3-.4 17.2h-240l9.8-54.1v-.1l8.7-48.4 3.9-21.7v-.1l197.1-27.1z"/><path class="st4" d="m482.6 714.3-.6 27.5c-69.7-1.8-177.8-18.6-223.1-26.1l3.9-21.7 197.1-27.2 22.7 47.5z"/><circle class="st2" cx="395.4" cy="355.2" r="56.6"/><path class="st5" d="M504.1 744.9s6.8 61.2-34 56.6l-6.8-61.2-36.2-36.2-102-2.3-74.8 70.2s-2.3-72.5 6.8-79.3 29.5-22.7 29.5-22.7v-11.3l-61.2-124.6s36.2-74.8 65.7-77l38.5-2.3s13.6-6.8 13.6-9.1-2.3-20.4 9.1-15.9c0 0 1-23.2 13-16.2 0 0 37.6 29.5 75.7 1.3 0 0 17.8-3.3 15.5 5.8s0 15.9 4.5 15.9 24.9 6.8 24.9 11.3c0 1 1.5 10.4 3.8 24.5 8.4 51.5 27.9 165.8 27.9 165.8s20.5 29.7-13.5 106.7z"/><path class="st5" d="m241.3 522.9-15.9 11.3L80.4 720l-77 61.2s43-6.8 34 29.5l265.1-151.8-61.2-136z"/><path class="st4" d="M489.8 472.6c-3 17.7-101.2 14-114.8 14s-24.9-2.3-38.5-11.3-6.8-20.4-6.8-20.4 11.6-8.8 11.6-11.1-2.3-20.4 9.1-15.9c0 0 1-23.2 13-16.2 0 0 39.6 31.5 77.8 3.3 0 0 17.8-3.3 15.5 5.8s0 15.9 4.5 15.9 24.9 6.8 24.9 11.3c-.1 1.1 1.4 10.5 3.7 24.6z"/><path class="st2" d="M478.1 388.1s-18.1-38.5-36.2-20.4 20.4 45.3 20.4 45.3l15.8-24.9z"/><path class="st5" d="M478.1 379s-28 35.4-36.6 38.1c0 0 25.3 100.1 57 127.3l18.1 92.9s77-31.7 58.9-83.8c-.2-.5-.4-1-.5-1.6-15.1-43.4-36-84.6-62.1-122.4L478.1 379z"/><path class="st3" d="m463.1 483.9 55.7 153.4-20.4-92.9z"/><path class="st1" d="M456.2 295.7 405 268.8l-70.7 11-14.7 64.7 36.5-1.4 10.1-23.8v23.4l16.9-.7 9.7-37.8 6.1 40.3 59.8-1.3z"/><path class="st6" d="M940.1 644.3 969.2 748s-6 91.8 22 73.9c28.6-18.4 18-95.8 18-95.8l-16.8-93-52.3 11.2z"/><path class="st7" d="m955.7 353.5 24 24v114.4s14.1 21.2 11.3 26.8-5.6 5.6-2.8 9.9 5.6 7.1 2.8 9.9-2.8 9.9 0 12.7 8.5 7.1 4.2 11.3-9.9 1.4-4.2 16.9 15.5 19.8 12.7 25.4-2.8 19.8-2.8 19.8l-60.7 8.5-12.7-159.5 28.2-120.1z"/><path class="st4" d="m1003.7 623.2-70.6 2.8 2.8 29.6 62.1-11.3z"/><path class="st6" d="m809.5 206-8.4 84.7 86.1 12.7 6.3-48.7 6.4-48.7z"/><path style="opacity:.1;enable-background:new" d="m809.5 205.5-8.4 84.7 86.1 12.7 6.3-48.7 6.4-48.7z"/><path class="st6" d="m622.5 609 48 103.1s8.5 48 21.2 49.4 25.4-49.4 25.4-49.4l-16.9-26.8-19.8-76.3h-57.9z"/><path class="st1" d="M951.1 819.3H679.7c2.2-34 3.5-55 3.5-55l3.6-5.7 17.5-27.5 12.5-19.6 4.4-6.8 1.6-2.5 17.1-3.1 176.3-32.2c2.9 13.1 7 25.8 12.3 38.1 1.2 2.7 2.5 5.5 3.9 8.2 4.4 8.7 9.8 16.8 16.3 22.9 1.5 1.4 2.5 5 3.2 10.7 1.6 13.8 1.1 39.4-.8 72.5z"/><circle class="st6" cx="856.8" cy="165.8" r="67.8"/><path class="st7" d="m705.8 304.1-9.9-5.6s-43.8 29.6-57.9 96c-14.1 66.4-24 83.3-24 83.3s-14.1 2.8-4.2 12.7 9.9 8.5 1.4 14.1-14.1-5.6-8.5 5.6c5.6 11.3 12.7 8.5 7.1 15.5s-15.5 7.1-9.9 12.7-5.6 18.4 1.4 24 9.9 7.1 9.9 16.9c0 5.8.9 11.5 2.8 16.9h73.4s-14.1-26.8-9.9-32.5c4.2-5.6 5.6-11.3 2.8-14.1-2.8-2.8-11.3 2.8-2.8-4.2 8.5-7.1 11.3-2.8 8.5-11.3s-8.5-4.2-2.8-8.5c5.6-4.2 9.9-2.8 7.1-7.1s-8.5-4.2-2.8-7.1c5.6-2.8 9.9 0 8.5-7.1s-2.8-4.2 0-7.1c2.8-2.8 32.5-98.8 32.5-101.6s-22.7-91.5-22.7-91.5z"/><path class="st4" d="m691.7 590.7-89 5.6 22.6 21.2 62.1 1.4zm25.4 105.9-18.4 33.9s55.1 7.1 74.8 14.1 70.6 16.9 70.6 16.9l12.7-49.4-139.7-15.5zM878 712.1l15.5 46.6 62.2-12.7-7.1-43.8z"/><path class="st7" d="M903.4 256.1s-4.2-2.8-14.1 2.8-42.4 8.5-57.9-8.5c-15.5-16.9-26.8-31.1-31.1-28.2s-7.1 35.3-7.1 35.3l-14.1 11.3-83.3 29.6L703 489l12.7 43.8s-9.9 33.9 2.8 53.6c12.7 19.8-7.1 26.8-7.1 26.8s-4.2 5.6-1.4 19.8c2.8 14.1-2.8 66.4-2.8 66.4s120 53.6 245.6 7.1l-14.1-53.6-7.1-120s7.1-19.8 5.6-28.2c-1.4-8.5 42.4-127.1 42.4-127.1s-7.1-59.3-43.8-72c-36.7-12.7-42.4-25.4-42.4-25.4s17.1-18.4 10-24.1z"/><path class="st1" d="M788.6 174.4s-7-10.6-4.3-21.9c1.6-6.5 2.3-13.1 1.9-19.8 0 0 5.7-18.4 11.4-28.7s3-14.6 20.8-17.9c17.9-3.2 10.6-26.5 57.6-1.4 3.2 4.5 8.9 6.7 14.3 5.4 9.7-1.9 13.3 11.6 13.3 11.6s6.5-3.8 8.9 1.6 19.8-3.2 19.8 33.3-19.7 69.4-19.7 69.4 1.4-61.5-30.8-67.7-66.9-24.4-75.2-1.1-18 37.2-18 37.2z"/><ellipse class="st6" cx="913.3" cy="180.6" rx="6.4" ry="8.5"/></svg>