<svg version="1.1" id="Capa_1" xmlns="http://www.w3.org/2000/svg" x="0" y="0" viewBox="-41 164.9 512 512" style="enable-background:new -41 164.9 512 512" xml:space="preserve"><style>.st2{fill:#fff}.st3{fill:#d0b8ff}.st4{fill:#00efd1}.st5{fill:#00ad95}.st6{fill:#00ceb4}.st7{fill:#008878}</style><circle cx="215" cy="420.9" r="256" style="fill:#7657e5"/><path d="M471 420.9c0-11.9-.8-23.6-2.4-35.1l-139-139-28.1 28.1 2.4 2.4-13.5 13.5c-3.1 3.1-7.5 4.9-11.9 4.8l-13.8-.2c-17.1-.2-33.9 6.6-46 18.7L50.2 482.8c-14.5 14.5-14.5 38.1 0 52.5l140.4 140.4c8 .8 16.1 1.2 24.4 1.2 141.4 0 256-114.6 256-256z" style="fill:#5d46d1"/><path class="st2" d="m340.7 371.5-.2-13.8c-.1-4.4 1.7-8.8 4.8-11.9l23.9-23.9-55-55-23.9 23.9c-3.1 3.1-7.5 4.9-11.9 4.8l-13.8-.2c-17.1-.2-33.9 6.6-46 18.7L50.2 482.8c-14.5 14.5-14.5 38.1 0 52.5l50.7 50.7c14.5 14.5 38.1 14.5 52.5 0L322 417.5c12.1-12.1 18.9-28.9 18.7-46z"/><path class="st3" d="M322 417.5 153.5 586c-14.5 14.5-38.1 14.5-52.5 0l-25.3-25.3L342 294.4l27.5 27.5-23.9 23.9c-3.1 3.1-4.9 7.5-4.8 11.9l.2 13.8c-.1 17.1-6.9 33.9-19 46z"/><path transform="rotate(45.001 224.692 411.555)" class="st4" d="M151.7 359.1h146V464h-146z"/><path transform="rotate(-45.001 250.497 437.362)" class="st5" d="M198 400.9h104.9v73H198z"/><path transform="rotate(45.001 345.46 290.77)" class="st4" d="M303.1 270.9h84.7v39.8h-84.7z"/><path transform="rotate(-45.001 360.422 305.747)" class="st5" d="M340.5 284.6h39.8v42.3h-39.8z"/><path transform="rotate(45.001 328.04 273.354)" class="st6" d="M322.6 253.5h10.8v39.8h-10.8z"/><path transform="rotate(45.001 345.46 290.77)" class="st6" d="M340.1 270.9h10.8v39.8h-10.8z"/><path transform="rotate(-45.001 347.362 292.687)" class="st7" d="M327.5 290h39.8v5.4h-39.8z"/><path transform="rotate(45.001 362.887 308.191)" class="st7" d="M357.5 288.3h10.8v39.8h-10.8z"/><path class="st2" d="M238.8 430.1c8.8-11.8 10.1-42.7 10.1-42.7s-30.9 1.3-42.7 10.1c-13.3 9.9-17.1 25.9-5.2 37.8 11.9 11.9 27.9 8.1 37.8-5.2z"/><path class="st3" d="m201 435.3 47.8-47.8s-1.3 30.9-10.1 42.7c-9.8 13.2-25.8 17-37.7 5.1z"/></svg>