<svg version="1.1" id="Capa_1" xmlns="http://www.w3.org/2000/svg" x="0" y="0" viewBox="-41 164.9 512 512" style="enable-background:new -41 164.9 512 512" xml:space="preserve"><style>.st3{fill:#a5e17d}.st5{fill:#836cf4}.st6{fill:#7657e5}.st7{fill:#796ae2}.st8{fill:#6e59d3}</style><path d="M465.8 426c0 137.6-111.4 250.8-250.8 250.8C75.9 676.8-35.8 564-35.8 426c0-138.5 112.3-250.8 250.8-250.8 138.8 0 250.8 112.6 250.8 250.8z" style="fill:#60b5f4"/><path d="M464.3 454c-2.1 18.8-6.3 37.1-12.3 54.5-3.6 10.3-7.8 20.3-12.6 29.9-22.1 44-56.8 80.8-99.5 105.3-26.9 15.5-56.9 26.1-89 30.6-50.8 7.2-101.6-.7-149.2-24.5-24.9-12.6-46.8-29-65.4-47.9-33.6-34.1-57.4-77.8-67.2-126.5-.2-.9-.4-1.9-.5-2.8 0-.1-.1-.3-.1-.4 20.7-35.1 48.4-65.6 81.3-89.5 48.4-35.1 108-55.8 172.4-55.8 74.5 0 142.5 27.7 194.4 73.4 17.9 15.9 34 33.9 47.7 53.7z" style="fill:#3a9bf5"/><path d="M101 525.8c0 52.4 16.2 101 43.8 141.1-15-4.4-29.5-10.1-43.2-17.1-24.4-12.4-46.4-28.6-65.4-47.9C1.9 567-22.3 522.1-31.6 472.2c20.7-35.1 48.4-65.6 81.3-89.5 42.5-30.8 93.7-50.5 149.1-54.9-59.4 45.6-97.8 117.3-97.8 198z" style="fill:#1e8ce6"/><path class="st3" d="M230.3 676.4c-37 2.3-73.7-3.7-107.3-17-11.6-4.7-16.2-7.1-24.6-11.3-52.9-27.5-94.9-73.4-117.9-132.9-5.9-15.4-10.7-34-12.1-43 20.7-35.1 48.4-65.6 81.3-89.5 47.6-13.7 83.3-18.4 110-17.5 52.6 1.6 69.7 24.6 72.3 41.8 8 53-120.1 130.7-125 133.8-1.8 1.2-3.6 2.1-5.4 2.8-19.3 8.3-32.9-6.7-52.7 4.8-29 16.1-15.3 46.4 1.2 33.8 15.1-11.7 26-5.3 30.3 5.5 4.3 10.8 12.3 66.8 33.4 34.9 2.5-2.7 4.7-9.5 12.6-9.5 27.4.1 74 35.4 75.9 42.5 4.4 12 24.3 14 28 20.8z"/><path d="M144.8 666.9c-7.5-2.2-14.8-4.7-21.9-7.5-11.2-4.4-17.1-7.5-24.6-11.3-52-27.1-94.4-72.6-117.8-132.9-5.9-15.4-10.7-34.1-12.1-43 20.7-35.1 48.4-65.6 81.3-89.5 47.6-13.7 83.3-18.4 110-17.5-36.6 43.4-58.7 99.4-58.7 160.6 0 6 .2 11.9.6 17.8-19.3 8.3-32.9-6.7-52.7 4.8-29 16.1-15.3 46.4 1.2 33.8 15.1-11.7 26-5.3 30.3 5.5 4.3 10.8 12.3 66.8 33.4 34.9 1.2-1.4 2.4-3.8 4.3-5.8 10.8 27.2 25.9 49.3 26.7 50.1z" style="fill:#82cd64"/><path class="st3" d="M464.3 454c-2.1 18.8-6.3 37.1-12.3 54.5-22.7 42.6-22.4-50-74.5-3-28.3 25.5-57.7-22.9-23.6-19.5 31.2 3.1 62.6-85.6 62.7-85.7 17.9 15.9 34 33.9 47.7 53.7z"/><path class="st3" d="M439.3 538.4c-22.1 44-56.8 80.8-99.5 105.3-1-.4-2.2-.9-3.5-1.6-16.3-8.6-28-19.2-32.3-42.7-2.6-14-2.1-22.5 2.1-37 19.5-67.5 111.2-31.7 133.2-24z"/><path class="st5" d="M306.5 205.3c-.6-.1-127.8-17.1-147.5-19.8-29.5-6.4-46.6 5.7-57.6 8.7-3.8 1.4-2.5 8.6 1.8 9.5 12.4 2.7 112.9 24.4 125.3 27.1 12.3 2.7 25.1 1.7 36.9-2.7l42-15.7c3.5-1.3 2.9-6.6-.9-7.1z"/><path class="st6" d="M176.5 187.9 122.7 208l-19.7-4.3c-4.2-.9-5.6-8.1-1.8-9.5l16.2-6.1c23.2-8.6 38.6-2.2 59.1-.2z"/><path class="st7" d="m307.3 212.5-42 15.7c-11.8 4.4-24.6 5.3-36.9 2.7-11.3-2.5-114.2-24.7-125.3-27.1-3.2-.7-4.8-5.1-3.6-7.7.6.3-8.2-1.7 126.1 27.4 12.3 2.7 25.1 1.7 36.9-2.7l41.9-15.7 2.1.3c3.8.4 4.4 5.7.8 7.1z"/><path class="st6" d="m407.4 210.8-227.1 85S50.9 324.6 39.6 325.3c-1.1.1-1.7.1-1.7.1-6.9.1-12.2-4.3-14.2-9.7l-10.8-28.9 307-114.9c29.6-11.1 44.5-7.2 58.4-1.6 7.6 3.1 25.3 4.8 30.8 7.3 14.7 6.8 13.3 27.6-1.7 33.2z"/><path class="st5" d="M63.4 268c-52.5 64.2 13.2-16.2-39.5 48.3-57.2-92.1-50.9-81.9-52.4-84.4-3.1-5-.9-11.5 4.6-13.6l11.3-4.2c3-1.1 6.4-.6 9 1.4l67 52.5z"/><path class="st8" d="M419.4 192.2c.7 7.9-4.3 15.7-12 18.6l-227.1 85S50.9 324.6 39.6 325.3c-8 .5-13.3-3.4-15.6-8.9 123.3-26.1 279-76.8 395.4-124.2z"/><path class="st8" d="M279.7 247.6c-1.1 1.2 12.8-14.6-114.1 130.3-22.5 30.1-50.1 31.8-57.4 35.2-4.4 1.6-10.1-9.3-7.1-13.3 17.7-23.8 69.4-93.1 87.3-117 8.7-11.7 23.9-18 37.6-23.1l47.5-23.2c4.2-1.4 9.1 7.8 6.2 11.1z"/><path class="st5" d="M277.7 243.8c-.5.5-98.6 112.2-113.8 129.5-21 28.1-45 30.5-56.9 36.3-4.4 1.6-8.7-5.6-5.7-9.7 29.9-40 69.9-93.7 88.8-119 8.7-11.7 20.6-20.6 34.3-25.7L273 237c4.1-1.7 7.6 3.4 4.7 6.8z"/><path class="st6" d="m183.9 350.5-20 22.8c-21 28.1-45 30.5-56.9 36.3-4.4 1.6-8.7-5.6-5.7-9.7l19.1-25.6 63.5-23.8z"/><path class="st8" d="M58.5 274s-3.6 17.1-11 25.5c-7.4 8.4-24.1 16.2-24.1 16.2-2.2-3.5-50.8-81.8-52-83.7-3.1-5-.9-11.5 4.6-13.6l10.6-4L58.5 274z"/><path class="st5" d="M361.3 170.1C271.6 206.5 58.5 274 58.5 274l4.9-6 256.5-96c12.7-4.8 27.1-8 40.7-6.8 2.7.2 3.2 3.9.7 4.9zm48.4 39.7c-1.5.8 1.7-.5-51.9 19.6 17.6-13.7 29.7-33.6 34-55.7 16.9 3.1 19 3.3 24.8 10.5 5.2 7.8 3.7 19.2-6.9 25.6z"/><path class="st7" d="M418.9 198.1c-1.4 5.5-5.6 10.5-11.4 12.7l-49.6 18.6c7.5-5.9 13.9-12.8 19.2-20.5.2-.1 31.1-11.7 31.4-11.8 5.4-2 8.7-7.5 8.2-13.1.4.7 3.9 8 2.2 14.1z"/><path class="st8" d="m134.4 203.7-11.6 4.3-19.7-4.3c-3.1-.7-4.6-4.7-3.8-7.2 0-.1.1-.4.2-.6.6.4-1.6-.1 34.9 7.8z"/></svg>