<svg version="1.1" id="Layer_1" xmlns="http://www.w3.org/2000/svg" x="0" y="0" viewBox="-149 272.9 297 297" style="enable-background:new -149 272.9 297 297" xml:space="preserve"><style>.st2{fill:#32373b}.st4{fill:#292d30}</style><circle cx="-.5" cy="421.4" r="148.5" style="fill:#7f00ff"/><path d="M98.5 388.4c0 54.7-44.3 99-99 99s-99-44.3-99-99h198z" style="fill:#c63c22"/><path class="st2" d="M-35.8 407.4c0-2.5 2-8 4.5-8s4.5 5.5 4.5 8-2 4.5-4.5 4.5-4.5-2-4.5-4.5z"/><path d="M98.5 388.4h-99v99c54.7 0 99-44.3 99-99z" style="fill:#b72f1d"/><path class="st2" d="M-66.5 407.4c0-2.5 2-8 4.5-8s4.5 5.5 4.5 8-2 4.5-4.5 4.5-4.5-2-4.5-4.5z"/><path class="st4" d="M25.8 407.4c0-2.5 2-8 4.5-8s4.5 5.5 4.5 8-2 4.5-4.5 4.5-4.5-2-4.5-4.5zm30.7 0c0-2.5 2-8 4.5-8s4.5 5.5 4.5 8-2 4.5-4.5 4.5-4.5-2-4.5-4.5z"/><path class="st2" d="M-52.3 434.6c0-2.5 2-8 4.5-8s4.5 5.5 4.5 8-2 4.5-4.5 4.5-4.5-2-4.5-4.5zm30.8 0c0-2.5 2-8 4.5-8s4.5 5.5 4.5 8-2 4.5-4.5 4.5-4.5-2-4.5-4.5z"/><path class="st4" d="M9.3 434.6c0-2.5 2-8 4.5-8s4.5 5.5 4.5 8-2 4.5-4.5 4.5-4.5-2-4.5-4.5zm30.7 0c0-2.5 2-8 4.5-8s4.5 5.5 4.5 8-2 4.5-4.5 4.5-4.5-2-4.5-4.5z"/><path class="st2" d="M-5 407.4c0-2.5 2-8 4.5-8s4.5 5.5 4.5 8-2 4.5-4.5 4.5-4.5-2-4.5-4.5z"/><path d="M-116 388.4c0 63.8 51.7 115.5 115.5 115.5S115 452.2 115 388.4H90.3c0 50.1-40.6 90.8-90.8 90.8s-90.8-40.6-90.8-90.8H-116z" style="fill:#86c867"/><path d="M115 388.4H90.3c0 50.1-40.6 90.8-90.8 90.8V504c63.8-.1 115.5-51.8 115.5-115.6z" style="fill:#78b259"/><path class="st4" d="M4 407.4c0-2.5-2-8-4.5-8v12.5c2.5 0 4.5-2 4.5-4.5z"/></svg>