<svg version="1.1" id="Layer_1" xmlns="http://www.w3.org/2000/svg" x="0" y="0" viewBox="-41 164.9 512 512" style="enable-background:new -41 164.9 512 512" xml:space="preserve"><style>.st1{fill:#e0e0e0}.st2{fill:#fff}.st3{fill:#f28c40}.st4{fill:#f2730a}.st5{fill:#f2d7b3}.st6{fill:#efaf84}</style><circle id="bg_2_" cx="215" cy="420.9" r="256" style="fill:#7f00ff"/><path class="st1" d="M246.9 378c-1.7.6-59.1 7.4-63.1 6-4-1.4-85.3-10.2-86.1-10.2-.9 0-39.8 4.3-39.8 4.3s-.1-.3-.1-.8c0 .8-.1 1.5-.1 2.3 0 41.5 50.2 75.1 112.2 75.1s112.2-33.6 112.2-75.1c0-5.5-.9-10.9-2.6-16.1-13.7 6-31.5 14.1-32.6 14.5z"/><path class="st1" d="M143 437.5h26.9v17H143z"/><ellipse class="st2" cx="144.4" cy="407.1" rx="81.7" ry="47.5"/><path class="st3" d="M293.9 345H282v6.4H106c-5.2 0-11.5 1.8-15.5 4.5-7.7 5.3-20.6 14.1-29.7 20.3H50.1v27.6c.2 1.6 2.8 2.6 7.6 2.6H238c5.2 0 11.5-1.8 15.5-4.5 10-6.9 28.7-19.7 36.4-25 2.7-1.8 4-3.4 4-4.6V345z"/><path class="st4" d="M286.3 342.2H106c-5.2 0-11.5 1.8-15.5 4.5-10 6.9-28.7 19.7-36.4 25-6.5 4.5-4.9 7.4 3.6 7.4H238c5.2 0 11.5-1.8 15.5-4.5 10-6.9 28.7-19.7 36.4-25 6.5-4.4 4.8-7.4-3.6-7.4z"/><path class="st5" d="m78.3 379.1 53.9-36.9h-14.9l-53.9 36.9h14.9zm51.1 0 53.9-36.9h-14.9l-53.9 36.9h14.9zm51.1 0 53.9-36.9h-14.9l-53.9 36.9h14.9zm51 0 53.9-36.9h-14.9l-53.9 36.9h14.9z"/><path class="st6" d="M63.4 379.2h15.1v27.4H63.4zm51.2 0h15.1v27.4h-15.1zm51.2 0h15.1v27.4h-15.1zm51.2 0h15.1v27.4H217z"/><path class="st1" d="M353.2 450.5c-1.7.6-59.1 7.4-63.1 6-4-1.4-85.3-10.2-86.1-10.2s-39.8 4.3-39.8 4.3-.1-.3-.1-.8c0 .8-.1 1.5-.1 2.3 0 41.5 50.2 75.1 112.2 75.1s112.2-33.6 112.2-75.1c0-5.5-.9-10.9-2.6-16.1-13.8 6-31.6 14.1-32.6 14.5z"/><path class="st1" d="M249.2 510h26.9v17h-26.9z"/><path class="st2" d="M168.9 479.6c0-26.2 36.6-47.5 81.7-47.5s81.7 21.3 81.7 47.5-36.6 47.5-81.7 47.5-81.7-21.3-81.7-47.5z"/><path class="st3" d="M400.1 417.5h-11.9v6.4h-176c-5.2 0-11.5 1.8-15.5 4.5-7.7 5.3-20.6 14.1-29.7 20.3h-10.8v27.6c.2 1.6 2.8 2.6 7.6 2.6h180.3c5.2 0 11.5-1.8 15.5-4.5 10-6.9 28.7-19.7 36.4-25 2.7-1.8 4-3.4 4-4.6l.1-27.3z"/><path class="st4" d="M392.5 414.7H212.2c-5.2 0-11.5 1.8-15.5 4.5-10 6.9-28.7 19.7-36.4 25-6.5 4.5-4.9 7.4 3.6 7.4h180.3c5.2 0 11.5-1.8 15.5-4.5 10-6.9 28.7-19.7 36.4-25 6.5-4.4 4.9-7.4-3.6-7.4z"/><path class="st5" d="m184.6 451.6 53.9-36.9h-14.9l-53.9 36.9h14.9zm51 0 53.9-36.9h-14.9l-53.9 36.9h14.9zm51.1 0 53.9-36.9h-14.9l-53.9 36.9h14.9zm51.1 0 53.9-36.9h-14.9l-53.9 36.9h14.9z"/><path class="st6" d="M169.7 451.7h15.1v27.4h-15.1zm51.2 0H236v27.4h-15.1zm51.1 0h15.1v27.4H272zm51.2 0h15.1v27.4h-15.1z"/><path d="M144.7 495c0 11.4-25.8 20.6-57.7 20.6-31.9 0-57.7-9.2-57.7-20.6 0-11.4 25.8-47.1 57.7-47.1 31.8 0 57.7 35.7 57.7 47.1z"/><path d="M29.2 419.8h115.5v75.1H29.2z"/><path d="M144.7 419.8c0 11.4-25.8 20.6-57.7 20.6-31.9 0-57.7-9.2-57.7-20.6 0-11.4 25.8-20.6 57.7-20.6 31.8 0 57.7 9.2 57.7 20.6z"/><path class="st2" d="M142.4 419.8c0 11-24.8 19.8-55.5 19.8-30.6 0-55.5-8.9-55.5-19.8 0-11 24.8-19.8 55.5-19.8s55.5 8.9 55.5 19.8z"/><path style="fill:#bd3e25" d="M84.2 423.6H58.1l6.9-12.4h26.1z"/><path style="fill:#4b680c" d="M106.9 429.5H83.1l6.3-11.4h23.7z"/><path style="fill:#dbb538" d="M80.2 431.9H64.3l4.2-7.6h15.8z"/></svg>