<svg version="1.1" id="Layer_1" xmlns="http://www.w3.org/2000/svg" xmlns:xlink="http://www.w3.org/1999/xlink" x="0" y="0" viewBox="-80 -450 450 450" style="enable-background:new -80 -450 450 450" xml:space="preserve"><style>.st1{fill:#7194bf}.st2{fill:#b44aff}.st3{fill:#fce542}.st4{fill:#ff277f}.st5{opacity:.1}.st6{fill:#fff}</style><image style="overflow:visible;opacity:.12" width="396" height="302" xlink:href="395F4526.png" transform="translate(-51 -370)"/><path d="M286.8-123.2H3.2c-4.1 0-7.4-3.3-7.4-7.4v-190c0-4.1 3.3-7.4 7.4-7.4h283.7c4.1 0 7.4 3.3 7.4 7.4v190c0 4.1-3.4 7.4-7.5 7.4z" style="fill:#37155e"/><path class="st1" d="M42.3-307.3h39.2v4.4H42.3zm0 9.7h25v4.4h-25zm39 0h100.5v4.4H81.3z"/><path class="st2" d="M191.6-297.6h52.6v4.4h-52.6z"/><path class="st3" d="M52.1-287.8h63.5v4.4H52.1z"/><path class="st1" d="M135-287.8h94.6v4.4H135z"/><path class="st2" d="M42.3-278.1h89.3v4.4H42.3z"/><path class="st4" d="M139.8-278.1h63.5v4.4h-63.5z"/><path class="st1" d="M52.1-268.3h63.5v4.4H52.1zm-9.8 9.7H135v4.4H42.3zm0 9.8h63.5v4.4H42.3z"/><path class="st2" d="M61.8-239.1h105.9v4.4H61.8z"/><path class="st1" d="M178.8-239.1H213v4.4h-34.2zm48.7 0h34.2v4.4h-34.2zm-155.9 9.8h43.2v4.4H71.6z"/><path class="st2" d="M71.6-219.6h57.6v4.4H71.6z"/><path class="st1" d="M149.6-219.6h63.5v4.4h-63.5z"/><path class="st2" d="M227.5-219.6h26.4v4.4h-26.4z"/><path class="st1" d="M42.3-209.8h39v4.4h-39zm0 9.7h63.5v4.4H42.3zm29.3 9.8h115.1v4.4H71.6z"/><path class="st4" d="M198.3-190.3h71.3v4.4h-71.3z"/><path class="st1" d="M71.6-180.6h39.1v4.4H71.6z"/><path class="st3" d="M120.3-180.6h39.1v4.4h-39.1z"/><path class="st1" d="M169.1-180.6h39.1v4.4h-39.1zm-126.8 9.8h63.5v4.4H42.3z"/><path class="st3" d="M61.8-161.1h63.5v4.4H61.8zm75.5 0h63.5v4.4h-63.5z"/><path class="st1" d="M136-141.6h35.6v4.4H136zm-74.2-9.8H156v4.4H61.8zM13.4-307.3h4.4v4.4h-4.4zm0 9.7h4.4v4.4h-4.4zm0 9.8h4.4v4.4h-4.4zm0 9.7h4.4v4.4h-4.4zm0 9.8h4.4v4.4h-4.4zm0 9.7h4.4v4.4h-4.4zm0 9.8h4.4v4.4h-4.4zm0 9.7h4.4v4.4h-4.4zm0 9.8h4.4v4.4h-4.4zm0 9.7h4.4v4.4h-4.4zm0 9.8h4.4v4.4h-4.4zm0 9.7h4.4v4.4h-4.4zm0 9.8h4.4v4.4h-4.4zm0 9.7h4.4v4.4h-4.4zm0 9.8h4.4v4.4h-4.4zm0 9.7h4.4v4.4h-4.4zm0 9.7h4.4v4.4h-4.4zm0 9.8h4.4v4.4h-4.4zm48.4 0h47.1v4.4H61.8z"/><g class="st5"><image style="overflow:visible;opacity:.12" width="396" height="302" xlink:href="395F452A.png" transform="translate(-51 -369)"/><path class="st6" d="m95-122.6 72.7-204.8h-27.6L67.3-122.6zm-91.8 0h13l72.7-204.8H3.2c-4.1 0-7.4 3.3-7.4 7.4v190c-.1 4.1 3.3 7.4 7.4 7.4zm245.9 0h37.7c4.1 0 7.4-3.3 7.4-7.4v-119.7l-45.1 127.1z"/></g><g class="st5"><path class="st6" d="M153.8-123.2h50.6L277.1-328h-50.6z"/></g><image style="overflow:visible;opacity:.12" width="154" height="155" xlink:href="395F452D.png" transform="translate(44 -402)"/><circle class="st6" cx="119.1" cy="-331.8" r="28.9"/><image style="overflow:visible;opacity:.12" width="162" height="163" xlink:href="395F452E.png" transform="translate(175 -200)"/><circle class="st6" cx="254" cy="-125.4" r="32.9"/><image style="overflow:visible;opacity:.12" width="163" height="163" xlink:href="395F452C.png" transform="translate(-18 -214)"/><circle class="st6" cx="61.8" cy="-139.4" r="32.9"/><path id="Path" style="fill:#00d1b2" d="m108.5-326 2-13.4 7.6-7.7 9.6 9.6-5.7 5.7 7.6 7.7-11.5 7.7z"/><path d="M273.1-124.5c-1.4 0-2.6.3-3.7.9-.4-.8-.8-1.4-.8-1.9-.1-.6-.2-.9-.1-1.6.1-.7.5-1.6.5-1.7 0-.1-.1-.4-.9-.4s-1.5.2-1.6.4c-.1.2-.2.7-.3 1.2-.1.8-1.6 3.4-2.5 4.8-.3-.5-.5-1-.6-1.4-.1-.6-.2-.9-.1-1.6.1-.7.5-1.6.5-1.7 0-.1-.1-.4-.9-.4s-1.5.2-1.6.4c-.1.2-.2.7-.3 1.2-.2.5-2.1 4.9-2.7 6-.3.6-.5 1.1-.7 1.4-.2.3 0 0 0 .1-.1.3-.2.4-.2.4-.1.2-.2.4-.3.4 0 0-.1-.5 0-1.3.3-1.5 1-3.9 1-4 0 0 .1-.5-.5-.7-.6-.2-.8.1-.8.1l-.1.1s.6-2.7-1.2-2.7c-1.2 0-2.8 1.3-3.6 2.4-.5.3-1.6.9-2.7 1.5-.4.2-.9.5-1.3.7l-.1-.1c-2.3-2.4-6.5-4.1-6.3-7.4.1-1.2.5-4.3 8-8.1 6.2-3.1 11.2-2.3 12.1-.4 1.2 2.7-2.6 7.7-9.1 8.4-2.5.3-3.8-.7-4.1-1-.3-.4-.4-.4-.5-.3-.2.1-.1.4 0 .6.2.5 1 1.4 2.3 1.8 1.2.4 4.1.6 7.6-.8 3.9-1.5 7-5.7 6.1-9.2-.9-3.6-6.9-4.8-12.4-2.8-3.3 1.2-7 3-9.6 5.5-3.1 2.9-3.6 5.4-3.4 6.5.7 3.7 5.9 6.2 7.9 8-.1.1-.2.1-.3.2-1 .5-5 2.6-6 4.7-1.1 2.5.2 4.2 1 4.5 2.6.7 5.4-.6 6.8-2.8 1.4-2.2 1.3-5 .6-6.3v-.1l.8-.5c.5-.3 1-.6 1.5-.8-.3.7-.4 1.5-.5 2.7-.1 1.4.5 3.2 1.2 3.9.3.3.7.3 1 .3.9 0 1.3-.7 1.7-1.6.5-1.1 1-2.3 1-2.3s-.6 3.3 1 3.3c.6 0 1.2-.8 1.4-1.2l.1-.1c0-.1.1-.1.1-.2.2-.4.8-1.4 1.6-2.9 1-2 2-4.5 2-4.5s.1.6.4 1.6c.2.6.6 1.3.9 1.9-.2.3-.4.5-.4.5-.2.3-.4.5-.6.8-.8 1-1.8 2.1-1.9 2.4-.2.4-.1.6.2.9.2.2.6.2 1 .2.7-.1 1.2-.2 1.5-.3.4-.1.9-.4 1.3-.7.8-.6 1.3-1.4 1.2-2.5 0-.6-.2-1.2-.5-1.8.1-.1.1-.2.2-.3 1.3-1.8 2.2-3.8 2.2-3.8s.1.6.4 1.6c.2.5.4 1.1.7 1.6-1.2 1-1.9 2.1-2.2 2.8-.5 1.4-.1 1.9.6 2.1.3.1.8-.1 1.1-.2.4-.1.9-.4 1.4-.7.8-.6 1.6-1.4 1.5-2.5 0-.5-.2-1-.3-1.5 1-.4 2.3-.6 3.9-.4 3.5.4 4.2 2.6 4.1 3.5-.1.9-.9 1.4-1.1 1.6-.3.2-.3.2-.3.3 0 .2.1.2.4.1.3-.1 1.9-.8 1.9-2.5.1-2-1.9-4.4-5.6-4.3zm-27.3 9.1c-1.2 1.3-2.8 1.8-3.5 1.4-.8-.4-.5-2.3 1-3.7.9-.8 2-1.6 2.8-2.1.2-.1.4-.3.7-.4.1 0 .1-.1.1-.1.1 0 .1-.1.2-.1.5 2 0 3.7-1.3 5zm8.6-5.8c-.4 1-1.3 3.5-1.8 3.4-.4-.1-.7-2.1-.1-4 .3-1 1-2.1 1.4-2.5.6-.7 1.3-.9 1.5-.7.2.5-.8 3.2-1 3.8zm7 3.4c-.2.1-.3.2-.4.1-.1 0 .1-.2.1-.2s.9-.9 1.2-1.4c.2-.3.4-.5.7-.9v.1c0 1.2-1.1 2-1.6 2.3zm5.4-1.2c-.1-.1-.1-.4.3-1.3.2-.4.5-1 1.2-1.6.1.2.1.5.1.7.1 1.4-1 1.9-1.6 2.2z" style="fill:#cf649a"/><path d="m48.5-124-3-33.3h32.6l-3 33.3-13.4 3.7" style="fill:#e44d26"/><path d="M61.8-123.1v-31.4h13.3l-2.6 28.4" style="fill:#f16529"/><path d="M51.6-150.5h10.2v4.1H56l.4 4.2h5.4v4.1h-9.1m.1 2h4.1l.3 3.3 4.6 1.2v4.3l-8.4-2.3" style="fill:#ebebeb"/><path class="st6" d="M72-150.5H61.8v4.1h9.9m-.4 4.2h-9.5v4.1h5l-.5 5.3-4.6 1.2v4.3l8.4-2.3"/></svg>