<svg version="1.1" id="Layer_1" xmlns="http://www.w3.org/2000/svg" xmlns:xlink="http://www.w3.org/1999/xlink" x="0" y="0" viewBox="0 0 450 450" style="enable-background:new 0 0 450 450" xml:space="preserve"><style>.st0{fill:#e0ebfc}.st4{fill:none;stroke:#3d70b2;stroke-width:1.5;stroke-miterlimit:10}.st6{fill:#fff}.st7{opacity:.75;fill:#e0ebfc}.st9{fill:#277ef1}.st11{fill:#b8fff1}.st12{fill:#fff;stroke:#41d6c3;stroke-width:1.5;stroke-miterlimit:10}.st14{fill:#41d6c3}.st15{fill:#ff796d}.st16{fill:#ffbea1}.st21{fill:#19202d}.st22{fill:none;stroke:#1e6dc4;stroke-miterlimit:10}.st23{fill:#68d7ec}.st24{fill:none;stroke:#40b2c1;stroke-miterlimit:10}.st28{fill:#78869b}.st31{fill:none;stroke:#ef977f;stroke-width:.75;stroke-miterlimit:10}.st32{fill:#a1ceff}.st33,.st34{fill:none;stroke:#70b3ef;stroke-miterlimit:10}.st34{stroke:#3d70b2;stroke-width:2}</style><path class="st0" d="M269 302.2h-79s3.3 50.3-12.4 50.3h103.7c-15.6 0-12.3-50.3-12.3-50.3z"/><path d="m189.2 332.5 79.6-16.1c-.1-8 .3-14.1.3-14.1h-79c0-.1 1 16.2-.9 30.2z" style="fill:#b3cef4"/><path class="st0" d="M369.5 317.4h-280c-10.2 0-18.4-8.2-18.4-18.4V127.9c0-10.2 8.2-18.4 18.4-18.4h280c10.2 0 18.4 8.2 18.4 18.4V299c.1 10.1-8.2 18.4-18.4 18.4z"/><path d="M364.3 310H94.8c-8.1 0-14.8-6.6-14.8-14.8V131.6c0-8.1 6.6-14.8 14.8-14.8h269.5c8.1 0 14.8 6.6 14.8 14.8v163.7c0 8.1-6.6 14.7-14.8 14.7z" style="fill:#fff;stroke:#b3cef4;stroke-width:2;stroke-miterlimit:10"/><path style="fill:none;stroke:#b3cef4;stroke-width:2;stroke-miterlimit:10" d="M80 141.2h299.1"/><path class="st0" d="M343.1 133.6h-206c-2.8 0-5.1-2.3-5.1-5.1s2.3-5.1 5.1-5.1h206c2.8 0 5.1 2.3 5.1 5.1.1 2.8-2.2 5.1-5.1 5.1z"/><path class="st4" d="M94.7 128.8c0 1.5-1.2 2.7-2.7 2.7-1.5 0-2.7-1.2-2.7-2.7 0-1.5 1.2-2.7 2.7-2.7 1.5-.1 2.7 1.2 2.7 2.7zm12.7 0c0 1.5-1.2 2.7-2.7 2.7-1.5 0-2.7-1.2-2.7-2.7 0-1.5 1.2-2.7 2.7-2.7 1.5-.1 2.7 1.2 2.7 2.7zm12.7 0c0 1.5-1.2 2.7-2.7 2.7-1.5 0-2.7-1.2-2.7-2.7 0-1.5 1.2-2.7 2.7-2.7 1.5-.1 2.7 1.2 2.7 2.7zM313 211.2H146.1c-6.3 0-11.5-5.1-11.5-11.5 0-6.3 5.1-11.5 11.5-11.5H313c6.3 0 11.5 5.1 11.5 11.5s-5.2 11.5-11.5 11.5z"/><path d="M312.6 189.1h-18.8v21.4h18.8c6.2 0 11.2-4.8 11.2-10.7-.1-5.9-5.1-10.7-11.2-10.7z" style="fill:#83beff"/><path class="st6" d="m316.3 205.3-3.8-3.8c.8-1 1.2-2.3 1.2-3.6 0-3.3-2.7-6-6-6s-6 2.7-6 6 2.7 6 6 6c1 0 1.9-.2 2.7-.7l3.9 3.9c.3.2.6.4.9.4s.7-.1.9-.4c.2-.2.4-.6.4-.9.2-.3.1-.7-.2-.9zm-4.2-7.4c0 2.4-1.9 4.3-4.3 4.3s-4.3-1.9-4.3-4.3 1.9-4.3 4.3-4.3c2.3.1 4.3 2 4.3 4.3z"/><path class="st7" d="M194.1 204.7h-47.8c-2.7 0-4.9-2.2-4.9-4.9s2.2-4.9 4.9-4.9h47.8c2.7 0 4.9 2.2 4.9 4.9.1 2.7-2.2 4.9-4.9 4.9z"/><path class="st0" d="M163.6 351.1h131.9v7.3H163.6z"/><path class="st7" d="M207.1 236.5h-32.3c-3 0-5.5-2.5-5.5-5.5s2.5-5.5 5.5-5.5h32.3c3 0 5.5 2.5 5.5 5.5s-2.4 5.5-5.5 5.5z"/><path class="st4" d="M175.2 232.4h31.5"/><path class="st7" d="M284.3 236.5h-57.4c-3 0-5.5-2.5-5.5-5.5s2.5-5.5 5.5-5.5h57.4c3 0 5.5 2.5 5.5 5.5s-2.5 5.5-5.5 5.5z"/><path class="st4" d="M233.4 232.4h44.4"/><path d="M320.5 150.4h12.1m5.8 0h12.1" style="fill:none;stroke:#277ef1;stroke-width:1.5;stroke-miterlimit:10"/><path class="st7" d="M354.9 147.2h1.6v1.6h-1.6zm2.3 0h1.6v1.6h-1.6zm2.2 0h1.6v1.6h-1.6zm-4.5 2.4h1.6v1.6h-1.6zm2.3 0h1.6v1.6h-1.6zm2.2 0h1.6v1.6h-1.6zm-4.5 2.5h1.6v1.6h-1.6zm2.3 0h1.6v1.6h-1.6zm2.2 0h1.6v1.6h-1.6z"/><circle class="st7" cx="367.8" cy="150.4" r="4.1"/><path class="st0" d="M154 159.9H71.1v31.2H154c1.8 0 3.3-1.5 3.3-3.4v-24.5c0-1.8-1.5-3.3-3.3-3.3z"/><circle class="st9" cx="370.8" cy="123.4" r="1.1"/><circle class="st9" cx="370.8" cy="128.5" r="1.1"/><circle class="st9" cx="370.8" cy="133.6" r="1.1"/><path d="M277.8 351.5h-67.5m-7.6 0h-22" style="fill:none;stroke:#b3cef4;stroke-width:1.5;stroke-miterlimit:10"/><path class="st11" d="M361.8 297.9H224.1c-3.9 0-7.1-3.2-7.1-7.1v-33.2c0-3.9 3.2-7.1 7.1-7.1h137.8c3.9 0 7.1 3.2 7.1 7.1v33.2c0 3.9-3.2 7.1-7.2 7.1z"/><path class="st12" d="M355.5 293.7H217.7c-3.9 0-7.1-3.2-7.1-7.1v-33.2c0-3.9 3.2-7.1 7.1-7.1h137.8c3.9 0 7.1 3.2 7.1 7.1v33.2c0 3.9-3.2 7.1-7.1 7.1z"/><path class="st11" d="M352.5 267.9h-89c-1.5 0-2.7-1.2-2.7-2.7 0-1.5 1.2-2.7 2.7-2.7h89c1.5 0 2.7 1.2 2.7 2.7.1 1.5-1.2 2.7-2.7 2.7zm0 9.5h-89c-1.5 0-2.7-1.2-2.7-2.7 0-1.5 1.2-2.7 2.7-2.7h89c1.5 0 2.7 1.2 2.7 2.7.1 1.5-1.2 2.7-2.7 2.7zm0-19h-89c-1.5 0-2.7-1.2-2.7-2.7 0-1.5 1.2-2.7 2.7-2.7h89c1.5 0 2.7 1.2 2.7 2.7.1 1.4-1.2 2.7-2.7 2.7zM283.2 287h-19.7c-1.5 0-2.7-1.2-2.7-2.7 0-1.5 1.2-2.7 2.7-2.7h19.7c1.5 0 2.7 1.2 2.7 2.7.1 1.4-1.2 2.7-2.7 2.7zm-38.2 0h-23.3c-3 0-5.4-2.4-5.4-5.4v-23.3c0-3 2.4-5.4 5.4-5.4H245c3 0 5.4 2.4 5.4 5.4v23.3c0 3-2.4 5.4-5.4 5.4z"/><path class="st6" d="m229.5 259.7-9.4 18.1h18.8zm10.1 6-2.3 4.3 4.1 7.8h4.5zm5-3.4c0 1.1-.9 2-2 2s-2-.9-2-2 .9-2 2-2 2 .9 2 2z"/><path class="st11" d="M354.7 156.6h-97.3c-3.8 0-6.9-3.1-6.9-6.9v-31.8c0-3.8 3.1-6.9 6.9-6.9h97.3c3.8 0 6.9 3.1 6.9 6.9v31.8c0 3.8-3.1 6.9-6.9 6.9z"/><path class="st12" d="M347.2 151.8h-97.3c-3.8 0-6.9-3.1-6.9-6.9v-31.8c0-3.8 3.1-6.9 6.9-6.9h97.3c3.8 0 6.9 3.1 6.9 6.9v31.8c-.1 3.8-3.1 6.9-6.9 6.9z"/><path class="st11" d="M343.6 127h-50.5c-1.5 0-2.6-1.2-2.6-2.6 0-1.5 1.2-2.6 2.6-2.6h50.5c1.5 0 2.6 1.2 2.6 2.6.1 1.5-1.1 2.6-2.6 2.6zm0 9.2h-50.5c-1.5 0-2.6-1.2-2.6-2.6 0-1.5 1.2-2.6 2.6-2.6h50.5c1.5 0 2.6 1.2 2.6 2.6.1 1.4-1.1 2.6-2.6 2.6zm0-18.3h-50.5c-1.5 0-2.6-1.2-2.6-2.6 0-1.5 1.2-2.6 2.6-2.6h50.5c1.5 0 2.6 1.2 2.6 2.6.1 1.4-1.1 2.6-2.6 2.6zm-31.5 27.5h-18.9c-1.5 0-2.6-1.2-2.6-2.6 0-1.5 1.2-2.6 2.6-2.6h18.9c1.5 0 2.6 1.2 2.6 2.6 0 1.4-1.2 2.6-2.6 2.6zM281.7 128c-.1-1.2-.3-2.4-.6-3.6-.4-1.2-.9-2.3-1.5-3.3l-3 1.4c-.6-.9-1.3-1.8-2.1-2.5l2-2.7c-1.8-1.6-4-2.8-6.4-3.4L269 117c-1.1-.2-2.1-.4-3.3-.3l-.5-3.3c-1.2.1-2.4.3-3.6.6-1.2.4-2.3.9-3.3 1.5l1.4 3c-.9.6-1.8 1.3-2.5 2.1l-2.7-2c-1.6 1.8-2.8 4-3.4 6.4l3.1 1.1c-.2 1.1-.4 2.1-.3 3.3l-3.3.5c.1 1.2.3 2.4.6 3.6.4 1.2.9 2.3 1.5 3.3l3-1.4c.6.9 1.3 1.8 2.1 2.5l-2 2.7c1.8 1.6 4 2.8 6.4 3.4l1.1-3.1c1.1.2 2.1.4 3.3.3l.5 3.3c1.2-.1 2.4-.3 3.6-.6 1.2-.4 2.3-.9 3.3-1.5l-1.4-3c.9-.6 1.8-1.3 2.5-2.1l2.7 2c1.6-1.8 2.8-4 3.4-6.4l-3.1-1.1c.2-1.1.4-2.1.3-3.3l3.3-.5zm-13.4 8.2c-4 1.2-8.2-1-9.4-5-1.2-4 1-8.2 5-9.4 4-1.2 8.2 1 9.4 5 1.2 4-1 8.2-5 9.4z"/><path d="M150.9 183.9H55.7c-2.6 0-4.7-2.1-4.7-4.7v-21.6c0-2.6 2.1-4.7 4.7-4.7h95.2c2.6 0 4.7 2.1 4.7 4.7v21.6c0 2.6-2.1 4.7-4.7 4.7z" style="fill:#fff;stroke:#b3cef4;stroke-width:1.5;stroke-miterlimit:10"/><path class="st0" d="M149 167.1H85.6c-1 0-1.8-.8-1.8-1.8s.8-1.8 1.8-1.8H149c1 0 1.8.8 1.8 1.8s-.8 1.8-1.8 1.8zm0 6.2H85.6c-1 0-1.8-.8-1.8-1.8s.8-1.8 1.8-1.8H149c1 0 1.8.8 1.8 1.8s-.8 1.8-1.8 1.8zm0-12.5H85.6c-1 0-1.8-.8-1.8-1.8s.8-1.8 1.8-1.8H149c1 0 1.8.8 1.8 1.8s-.8 1.8-1.8 1.8zm-21.4 18.7h-42c-1 0-1.8-.8-1.8-1.8s.8-1.8 1.8-1.8h41.9c1 0 1.8.8 1.8 1.8s-.8 1.8-1.7 1.8z"/><path class="st14" d="M75 178.3H61.3c-1.7 0-3.1-1.4-3.1-3.1v-13.6c0-1.7 1.4-3.1 3.1-3.1H75c1.7 0 3.1 1.4 3.1 3.1v13.6c0 1.7-1.4 3.1-3.1 3.1z"/><path class="st6" d="M64.8 163.4v9.9c0 .8.9 1.3 1.6.8l6.8-4.9c.6-.4.6-1.2 0-1.6l-6.8-4.9c-.6-.6-1.6-.1-1.6.7z"/><g id="XMLID_614_"><path class="st14" d="M62.7 325.6c-3-14.2-5.4-28.8-3.4-43.3 1.8-13.6 7.1-26.9 15.5-38.6.8-1.1 1.5-2.1 2.3-3.1 3.2-4.1 6.9-8.1 11-11.6 3-2.6 8.1 0 6.7 3.3-12.6 29-17.4 60.4-13.9 91" id="XMLID_682_"/><path class="st14" d="M69 312.6c-.1-13.3 5.6-26.5 15-36 6.8-6.9 15.4-12 24.7-15 3.2-1 5.7 2.6 3.5 5-6.1 6.5-11.8 13.2-16.8 20.5-7 10.1-12.7 21.3-15.5 33.3" id="XMLID_681_"/><path class="st14" d="M55.8 326.1c-4.7-34.7-13.7-59.2-30.3-86-1.7-2.8 1.2-6.1 4.1-4.6 6.6 3.4 12.4 8.7 17.1 14.8 6.8 8.8 19.4 24.8 23.3 62.9" id="XMLID_680_"/><path class="st14" d="M40.3 316.9c0-8-7.3-31.5-27.3-42.1-3-1.6-1.7-6.3 1.7-6.2 11.1.6 20.3 5.6 27.5 12.6 10.3 9.9 16.7 26 18.4 40.7" id="XMLID_679_"/><path class="st6" d="M110.8 264.5c-21.1 11-35.1 32.6-36.1 56.4 0 .2.3.2.3 0 1.5-23.7 15-44.9 35.9-56.2.1 0 0-.3-.1-.2z" id="XMLID_676_"/><path class="st6" d="M87 236.4C71.9 258 64 284.7 67.1 311c0 .1.2.1.2 0-2.4-26.5 4.9-52.6 19.8-74.5.2-.1 0-.2-.1-.1z" id="XMLID_640_"/><path class="st6" d="M34.1 242.7c17 18.5 23.9 43 28.1 67.2 0 .1.2.1.2-.1-3.7-24.1-11.2-49.1-28.2-67.3-.1 0-.2.1-.1.2z" id="XMLID_639_"/><path class="st6" d="M17.6 272.9c19.6 7.8 31.8 27.1 35.1 47.4 0 .1.2.1.2 0-2.3-20.4-16-40-35.3-47.5v.1z" id="XMLID_637_"/><path id="XMLID_615_" class="st15" d="M30.4 309.7v8c0 31.7 15.4 40.7 15.4 40.7h34s15.4-9 15.4-40.7v-8H30.4z"/></g><path class="st16" d="M383 231.9s-9 10.7-4.9 13.1c4.1 2.4 8.2 2 9.6.6 1.6-1.5 5.9-5.1 5.1-7.8-1.2-3.8-6-7.6-9.8-5.9z"/><path class="st16" d="m383.3 245.4-.4 7.5 9.2-2-2.9-9"/><path class="st15" d="M389.9 244.8c-.9-.1-1.8-.5-2.5-1-.3-.2-.6-.7-.3-.9.2-.1.4 0 .6 0 .6 0 1.1-.5 1.5-.9.5-.5.9-1.1 1.1-1.8.2-.7-.1-1.5-.7-1.8-.6-.2-1.3.1-1.8.6-.1.1-.3.3-.4.3-.3 0-.5-.3-.5-.6s.2-.6.3-.9c.3-.8.4-1.6.2-2.4-.1-.4-.3-.9.1-1.2.2-.2.5-.1.8 0 1 .3 2 .7 2.9 1.2 1.7 1 2.9 3.3 2.5 5.2-.5 1.9-2.2 3.2-3.8 4.2" style="opacity:.55"/><path class="st15" d="M393.5 241c-.3-1.6-1.2-3.1-2.6-4-1.9-1.2-3.8-2.2-5.8-3.2-.9-.4-1.9-.9-2.3-1.8-.2-.5-.3-1.1-.3-1.7 0-.9 0-1.9.3-2.8s1-1.7 1.9-2c1.3-.4 2.7.3 3.7 1.2 2.6 2.1 4.4 5.2 5 8.4.9-.3 2 .1 2.5.9.4 1 .7 4.2-2.4 5"/><path d="m361.6 265.7-22.3-6.2s-4.5-7.5-5.5-7.3c-1 .2 1.7 3.7.3 4-.8.1-3.3 0-3.8-.3-.5-.4-1.8-3.7-2.1-3.6-.6.1-.1 4.6.9 5.6.7.7 3.7 2.9 6.2 4.1 2.5 1.2 26.5 18.2 31.2 17.4" style="fill:#ef9d7d"/><path class="st6" d="m352.6 263-2.9-.6-1 9 8 3"/><path d="M398.5 257s-2.6-8.2-11-6.8c-8.4 1.3-23.8 14.7-23.8 14.7l-11.6-2L351 278s9.4 5.3 15.3 5.3c12.1 0 28.8-21.9 28.8-21.9" style="fill:#24b3c6"/><path d="M381.7 275.5c8.2-6.1 10.1-11.6 13.3-11.6" style="fill:none;stroke:#1b5889;stroke-miterlimit:10"/><path class="st21" d="M406.1 320.4s8.9-1.6 12-2.1c5.9-1 12.1-1 9.7-3.4-3.1-3.1-17.8-9.9-17.8-9.9l-7.5 6 3.6 9.4z"/><path class="st16" d="m362.2 348.1 3.5 14.6c-4.5 6.6-5.6-.3-5.6-.3l-8.4-15.7"/><path class="st21" d="m366.5 365.4-.8-2.7c-3.8 2.3-5.6-.3-5.6-.3l-7.4 2.2c-2.2.7-2.5 3.1-1 3.1h13c1.2.1 2.1-1.1 1.8-2.3z"/><path class="st16" d="M414.1 351.3H429c5 3.9-1.5 5.2-1.5 5.2l-14.7 3.9"/><path class="st21" d="m431.8 351.3-2.8-.1c1.5 3.4-1.5 5.2-1.5 5.2s1.3 4.8 1.3 5.3-1.4 1.7-.8 2.5c.6.8 3.7.4 4.1-.7 1.1-2.9 1.9-10.6 1.9-10.6 0-1.1-1-1.4-2.2-1.6z"/><path class="st9" d="M386.7 301.6s-23.2 46.1-15.9 56.7c4.2 6 11.4 6.8 21.2 6.8h26.2l3.7-13.9-32.7-1.6s23.7-22 24.9-31.5c1.6-12.2-4.3-22.8-4.3-22.8"/><path class="st9" d="M376 301.2s-1.5 2.6-3.1 2.6h-24.2c-9.4 0-16.3 5.4-13.1 20 3.2 14.6 10.2 34.1 10.2 34.1h19.4l-7.1-30.1h26.2c10.7 0 16.8-8.6 11.7-24"/><path class="st22" d="M404.4 312s.9 6.5-2.4 13.8c-3 6.5-12.4 17.8-16.4 23.6-.7 1 0 2.4 1.2 2.5l34.5 1.7m-58.5 4.3-8.5-31.7c-.2-.8.4-1.6 1.2-1.6h21.1m-1.2 3.2 6.5-15.8"/><path class="st15" d="M380.2 264s-2.8 26.5-4.7 38c4.5 8.1 37.1 7.4 38.5 6 1.4-1.4-5.3-34.9-10.8-42.9-5.5-8.1-23-10.5-23-1.1z"/><path class="st23" d="M390.2 250.3s14.3-.8 20.6 23.4c6.5 24.6 16.9 41.2 16.9 41.2s-3.9-1.4-10.8-.6c-11.4 1.2-25.5 7.2-25.5 7.2s-5.3-11.4-9-25c-6.9-25.7-2.3-41.2-2.3-41.2l10.1-5z"/><path class="st24" d="M385.3 301.5s2.8-16.6 2-17.3c-.8-.7-4.5-.5-4.5-1.1s5.4-1.6 4.5-2.5c-1-.9-5.9-21.8-3.1-25.2"/><defs><circle id="SVGID_1_" transform="rotate(-63.281 313.531 200.101)" cx="313.5" cy="200.1" r="27.1"/></defs><clipPath id="SVGID_2_"><use xlink:href="#SVGID_1_" style="overflow:visible"/></clipPath><g style="clip-path:url(#SVGID_2_)"><linearGradient id="SVGID_3_" gradientUnits="userSpaceOnUse" x1="310.119" y1="230.433" x2="310.119" y2="163.439"><stop offset="0" style="stop-color:#fff;stop-opacity:.2"/><stop offset=".674" style="stop-color:#fff;stop-opacity:.6265"/><stop offset=".79" style="stop-color:#fff;stop-opacity:.7"/></linearGradient><path d="M320.8 163.4s-38 66.5-38.2 67h16.8l38.2-67h-16.8z" style="fill:url(#SVGID_3_)"/><linearGradient id="SVGID_4_" gradientUnits="userSpaceOnUse" x1="329.972" y1="230.433" x2="329.972" y2="163.439"><stop offset="0" style="stop-color:#fff;stop-opacity:.2"/><stop offset=".674" style="stop-color:#fff;stop-opacity:.6265"/><stop offset=".79" style="stop-color:#fff;stop-opacity:.7"/></linearGradient><path d="M346.4 163.4s-38 66.5-38.2 67h5.3l38.2-67h-5.3z" style="fill:url(#SVGID_4_)"/></g><path transform="rotate(-18.149 326.443 239.59)" class="st15" d="M323.5 227.6h5.9v24h-5.9z"/><path class="st28" d="M304.2 171.7c-15.7 5.1-24.2 22-19.1 37.7 5.1 15.7 22 24.2 37.7 19.1 15.7-5.1 24.2-22 19.1-37.7-5.1-15.7-22-24.3-37.7-19.1zm17.3 52.8c-13.5 4.4-27.9-2.9-32.4-16.4-4.4-13.5 2.9-27.9 16.4-32.4 13.5-4.4 27.9 2.9 32.4 16.4 4.4 13.5-2.9 28-16.4 32.4zm16 48.6c-2.3.8-4.8-.5-5.5-2.8l-10.2-31.2 8.3-2.7 10.2 31.2c.7 2.3-.6 4.7-2.8 5.5z"/><path d="M390.7 272.3c2.7 2.2 3.9 5.6 4.9 8.9 3.7 11.6 6.8 23.3 13.1 34.6" style="fill:none;stroke:#9ce8f2;stroke-width:.5;stroke-miterlimit:10"/><path class="st16" d="m359 271-20.9-9s-4.5-7.5-5.5-7.3c-1 .2 1.7 3.7.3 4-.8.1-3.3 0-3.8-.3-.5-.4-1.8-3.7-2.1-3.6-.6.1-.1 4.6.9 5.6.7.7 3.7 2.9 6.2 4.1 2.5 1.2 25.1 21.1 29.7 20.3"/><path class="st6" d="m355.9 269-6.4-2.5-3.5 9.3 8.7 6.1"/><path class="st23" d="M396 252.9s-2.6-3.9-11-2.3c-4.8.9-23.8 20.2-23.8 20.2l-9.4-3.4-5.1 16.2s11.5 7.3 17.4 7.3c12.1 0 28.8-21.9 28.8-21.9"/><path class="st24" d="M379.7 283c8.2-6.1 10.1-11.6 13.3-11.6"/><path style="fill:#40b2c1" d="m391.1 303.8 9.2.9v1.4H392z"/><path class="st16" d="M381.6 234.9s-4.9 2.1-4.9 3c0 .8 2.6 1.8 2.6 1.8"/><path class="st21" d="M383.3 235.9c-.1-.1-.3-.2-.4-.2-.4.1-.6.8-.6 1.2.1.2.3.5.6.4.1 0 .2-.1.2-.2.2-.2.3-.5.3-.8.1-.2 0-.3-.1-.4zm-.5-2c.5.3 1.1.7 1.5 1.1.2.2.4.5.6.8.1.2.2.4.4.6.1.1.3 0 .3-.1.2-.6-.6-1.3-1-1.7-.5-.5-1.1-.8-1.8-.9 0 0-.1.2 0 .2z"/><path class="st31" d="M377.3 241.5c.9.4 2.4.8 3.9.3"/><path class="st0" d="M364.2 206.3c0-6.1 5-11.1 11.1-11.1h35.4c6.1 0 11.1 5 11.1 11.1s-5 11.1-11.1 11.1h-35.4c-1.1 0-2.1-.2-3.1-.4l-4.2 2.9 1.2-4.2c-3-2-5-5.5-5-9.4z"/><path class="st6" d="M394.8 207.4c0 1 .8 1.8 1.8 1.8s1.8-.8 1.8-1.8-.8-1.8-1.8-1.8-1.8.8-1.8 1.8zm-7.7 0c0 1 .8 1.8 1.8 1.8s1.8-.8 1.8-1.8-.8-1.8-1.8-1.8-1.8.8-1.8 1.8zm15.5 0c0 1 .8 1.8 1.8 1.8s1.8-.8 1.8-1.8-.8-1.8-1.8-1.8-1.8.8-1.8 1.8zm7.7 0c0 1 .8 1.8 1.8 1.8s1.8-.8 1.8-1.8-.8-1.8-1.8-1.8-1.8.8-1.8 1.8zm-31 0c0 1 .8 1.8 1.8 1.8s1.8-.8 1.8-1.8-.8-1.8-1.8-1.8-1.8.8-1.8 1.8zm-7.7 0c0 1 .8 1.8 1.8 1.8s1.8-.8 1.8-1.8-.8-1.8-1.8-1.8-1.8.8-1.8 1.8z"/><path class="st16" d="M140.9 234.9h10s4-2.5 5.8-2.7c2.5-.2 7.1 0 6.9.9-.3.9-7.2 2.2-7 3 .2.8 3.8.4 3.8 1.1 0 1.5-9.6 1.5-9.6 1.5l-14.3 1.8"/><path class="st32" d="M96.5 197.1s14.8 3.4 20.3 12.5c5.6 9.5 12.9 21.7 12.9 21.7l20.4 3.6v4.6s-18.6 4.8-24.2 4.8c-10.2 0-22.9-26.5-22.9-26.5"/><path class="st33" d="M148.1 240v-5.4"/><path class="st21" d="M116.7 361.2s-1.5 1.6-1.5 4.2c0 1.9.4 3.1.4 3.1h.8l.2-1.5s2.2.2 4.5 1.5c1.1.6 6.5.2 7.3-.3.9-.6.6-1.4.2-1.8-.3-.3-6.3-2.5-6.3-2.5"/><path class="st16" d="M106.7 300.2c-7.5 23 10.1 61 10.1 61l3.5 1.3s2.6-39.9 2.6-58.9c0-16 2.5-41.9-14-49.6"/><path class="st16" d="M119.8 361.2s2.1 2.3 5.2 3.8c1 .5-.3 1.3-1.3 1.4-3.3.3-7.6-4.2-7.6-4.2l1.1-2.1"/><path class="st21" d="M75 365.7c-2.4 2.4-5.8 8.1-3.6 8.5 2.2.4 8.1-5.1 8.1-5.1v.5h.9s.7-3.1-.6-4.4"/><path class="st16" d="M72.4 284.7s.7 20 .3 23.6c-.4 3.6 2.2 56.6 2.2 57.3-.1 1-2.9 5-1.5 5 1.3 0 6.4-4.6 6.2-5.5.3-.8 9-30.2 10.9-41.7 2.2-13.4-.5-22-.5-22l7.4-43.2"/><path class="st9" d="M109.1 248.9s10.7 3.9 13.4 20.9c2.1 13.4 1.3 34.4 1.3 34.4s-4.2 4.8-20.1 7.5c-21.4 3.7-30.9-1.5-30.9-1.5s-3.9-26.7-1.1-43.8C74.5 249 88.4 243 88.4 243"/><path class="st22" d="M75.4 311.4s-7.8-50.4 7.9-63"/><path class="st32" d="M110.8 209.6s-.1 2.5.7 3.9c1.6 2.8 3.7 5 3.7 11.2 0 3.9-3.4 7.6-3.4 8.8 0 1.2-2.6 14.8-2.6 14.8H95.9c-11.1 0-14.8-4-14.8-4l-8.4-30.6L91.3 198l6.1-.7 13.4 12.3z"/><path class="st33" d="M103.7 210.9h5.4m1.7-1.3s-.1 2.5.7 3.9c1.6 2.8 3.7 6.2 3.7 11.2 0 3.9-3.4 7.6-3.4 8.8 0 1.2-2.8 15.3-2.8 15.3"/><path class="st28" d="m116.3 225.9-5.1 22.8h32.5l5.2-23.1c.1-.5-.2-.9-.6-.9h-30.6c-.7 0-1.2.5-1.4 1.2z"/><path class="st28" d="M120.2 248.7H94.9l.1-1.3c.1-.8.8-1.5 1.6-1.5h23.7l-.1 2.8z"/><path class="st21" d="M132.7 236.7c-.3 1.5-1.7 2.7-2.9 2.7-1.3 0-2.1-1.2-1.7-2.7.3-1.5 1.7-2.7 3-2.7s2 1.2 1.6 2.7z"/><path class="st16" d="M85.9 251.8h26.2s4.4.5 7.9.4c3.5-.1 5.6-2.8 5.6-3.4 0-.5-2 0-4.9 0-1.8 0-3 .3-3.2-.1-.3-.9 3-1.5 2.4-2.1-.3-.3-1.7-.2-2.7 0-2.5.5-5.1 2.1-5.1 2.1l-21.8-5.1"/><path class="st32" d="M93.3 197.1s-20.7 2-24.5 17.2c-4.2 16.8 6.5 35.9 12 37.4 2.3.6 28.3.7 28.3.7l1.2-4.5-22-4.9-2.3-29.2"/><path class="st33" d="m108 247.4-.7 5m3-4.5L88.4 243 86 213.8"/><path class="st21" d="M90.7 177.5c-2.2.6-4.1 1.9-5.5 3.7-1.5 1.9-2.3 4.2-3.5 6.4-.6 1.1-1.4 2.1-2.1 3.1-.6.8-1.8 1.6-1.5 2.6.3 1.1 1.9 1.6 2.9 1.7 1.2.2 2.5 0 3.7.2 1.1.2 2 .6 3.1 1 2.2.8 4.6 1.4 7 1.2 1.5-.2 2.7-.9 4.1-1.2 1.4-.3 3.1 0 4.6-.1.6 0 1.2 0 1.6-.4.4-.4.5-.9.5-1.4.2-2.1-.3-4.2-1.4-6-1-1.7-2.5-3-3.5-4.7-1.2-1.9-1.9-3.9-3.8-5.3-1.7-1.4-4.3-1.4-6.2-.8z"/><path class="st16" d="m98.4 193.1-.6 5.3s-.4 1.9-2.3 2c-4.1.3-4.2-2.5-4.2-2.5l3.2-6.7"/><path class="st16" d="M94.8 192.7s6.1 2.8 9.1-.4c1.7-1.8-2.7-10.9-4.6-12.2-1.9-1.3-5.6.1-6.4 2.2-.7 2.2-2.8 7.9 1.9 10.4"/><path class="st21" d="M102.1 185.4c0 .3-.2.5-.5.5s-.5-.2-.5-.5.2-.5.5-.5.5.2.5.5zm-5.1 1.8c0 .3.2.5.5.5s.5-.2.5-.5-.2-.5-.5-.5c-.3.1-.5.3-.5.5zm1.2-1.9c-1-.5-2.7.1-2.7 1.4 0 .1.2.2.2.1.3-.4.5-.7.9-1 .5-.3 1-.3 1.5-.2.1 0 .2-.2.1-.3zm4.1-1.6c-.4-.5-1.1-.5-1.7-.3-.5.2-1 .8-.8 1.4 0 .1.1.1.2 0 .2-.3.4-.7.7-.9.5-.3 1-.2 1.5 0 .1.1.2-.1.1-.2z"/><path class="st31" d="M100 186s1.8 1.9 1.6 2.3c-.3.7-1.4.7-1.4.7"/><path class="st6" d="m100.3 190.6 2.4-.8s.4 1.4-.3 1.7c-1.5.5-2.1-.9-2.1-.9z"/><path class="st31" d="M98.3 193.8s-1.6.1-3.6-1.1"/><path class="st21" d="M92.7 190.2c2.6-1.9 3.6-5.5 4.1-8.7 1.8.4 3.5 1 5.3 1.5.2-.9 0-4.1-4-5.4-2-.6-4.2.3-5.6 1.9-2 2.3-2.8 5.7-2 8.7"/><path class="st16" d="M93.4 190c-1.4-1.4-2.4-.6-2.7 0-.2.6 0 1.2.3 1.8.4.7 1 1.3 1.8 1.4.8.1 1.7-.5 1.6-1.3"/><path class="st6" d="M92.4 195.9s1.2 3.8 3.2 4.6c-1.1.8-2.8 3.2-2.8 3.2-2.5-2.5-2.6-6.3-2.6-6.3l2.2-1.5zm5.6 1.2s-.9 2.7-2.4 3.3c.9.8 2.5 2.9 2.5 2.9s1.1-1 .8-3.8c0-.7-.9-2.4-.9-2.4z"/><path class="st0" d="M65.5 185.5c0-6.1-5-11.1-11.1-11.1H35.1c-6.1 0-11.1 5-11.1 11.1s5 11.1 11.1 11.1h19.3c1.1 0 2.1-.2 3.1-.4l4.2 2.9-1.2-4.2c3-2.1 5-5.5 5-9.4z"/><path class="st6" d="M34.9 186.6c0 1-.8 1.8-1.8 1.8s-1.8-.8-1.8-1.8.8-1.8 1.8-1.8 1.8.8 1.8 1.8zm7.8 0c0 1-.8 1.8-1.8 1.8s-1.8-.8-1.8-1.8.8-1.8 1.8-1.8 1.8.8 1.8 1.8zm7.7 0c0 1-.8 1.8-1.8 1.8s-1.8-.8-1.8-1.8.8-1.8 1.8-1.8 1.8.8 1.8 1.8zm7.8 0c0 1-.8 1.8-1.8 1.8s-1.8-.8-1.8-1.8.8-1.8 1.8-1.8 1.8.8 1.8 1.8z"/><path class="st0" d="M59.2 234c0 2-1.6 3.6-3.6 3.6S52 236 52 234s1.6-3.6 3.6-3.6c1.9-.1 3.6 1.5 3.6 3.6z"/><path class="st11" d="M441.2 164.2c0 2.6-2.1 4.8-4.8 4.8-2.6 0-4.8-2.1-4.8-4.8 0-2.6 2.1-4.8 4.8-4.8 2.7.1 4.8 2.2 4.8 4.8z"/><path class="st0" d="M195.7 79.4c0 2-1.6 3.6-3.6 3.6s-3.6-1.6-3.6-3.6 1.6-3.6 3.6-3.6 3.6 1.6 3.6 3.6z"/><circle class="st34" cx="52.6" cy="231.7" r="2.3"/><path class="st34" d="M172.9 89c0 1.3-1 2.3-2.3 2.3-1.3 0-2.3-1-2.3-2.3 0-1.3 1-2.3 2.3-2.3 1.3 0 2.3 1 2.3 2.3z"/><circle class="st34" cx="39.2" cy="151.3" r="2.3"/><path class="st34" d="M405.6 176.7c0 1.3-1 2.3-2.3 2.3-1.3 0-2.3-1-2.3-2.3 0-1.3 1-2.3 2.3-2.3 1.3 0 2.3 1 2.3 2.3z"/><circle class="st34" cx="417.4" cy="255.6" r="2.3"/><circle class="st0" cx="42.7" cy="116.9" r="13.7"/><path class="st6" d="m49.7 122.3-3.8-3.8c.8-1 1.2-2.3 1.2-3.5 0-3.3-2.7-5.9-5.9-5.9-3.3 0-5.9 2.7-5.9 5.9 0 3.3 2.7 5.9 5.9 5.9.9 0 1.9-.2 2.7-.7l3.9 3.9c.2.2.6.4.9.4.4 0 .7-.1.9-.4.2-.2.4-.6.4-.9.1-.3 0-.6-.3-.9zm-4.2-7.3c0 2.3-1.9 4.2-4.2 4.2-2.3 0-4.2-1.9-4.2-4.2 0-2.3 1.9-4.2 4.2-4.2 2.2 0 4.2 1.9 4.2 4.2z"/><path class="st34" d="m337.9 88.2-1.4 5.7c-.1.5.5.9 1 .8L343 93c.4-.1.6-.6.2-.9l-4-4c-.4-.5-1.1-.3-1.3.1zM144.3 333l-5.7 1.4c-.5.1-.6.8-.2 1.2l4 4c.3.3.8.2.9-.2l1.7-5.4c.3-.5-.2-1.1-.7-1zM8.9 220.5l2.5 5.3c.2.4.9.4 1.3-.1l3.1-4.7c.3-.4.1-.8-.4-.9l-5.6-.6c-.7 0-1.1.6-.9 1zm426.4 13 5-3c.4-.3.3-1-.2-1.3l-5-2.7c-.4-.2-.8 0-.8.5v5.7c0 .6.6 1 1 .8z"/><circle class="st11" cx="165.6" cy="263" r="15.5"/><path class="st6" d="M168.1 268.8h-10.3c-1 0-1.9-.8-1.9-1.9v-7.2c0-1 .8-1.9 1.9-1.9h10.3c1 0 1.9.8 1.9 1.9v7.2c-.1 1.1-.9 1.9-1.9 1.9zm7.4-1-4.1-1.9v-5l4.1-1.9c.3-.1.6.1.6.4v8.1c0 .2-.3.4-.6.3z"/><circle transform="rotate(-76.843 420.795 140.823)" class="st11" cx="420.8" cy="140.8" r="15.5"/><path style="fill:none;stroke:#fff;stroke-width:3.5;stroke-linecap:round;stroke-linejoin:round;stroke-miterlimit:10" d="m412.2 140.1 6.4 7.1 10.8-12.5"/></svg>