<svg version="1.1" id="Layer_1" xmlns="http://www.w3.org/2000/svg" xmlns:xlink="http://www.w3.org/1999/xlink" x="0" y="0" viewBox="0 0 450 450" style="enable-background:new 0 0 450 450" xml:space="preserve"><style>.st0{fill:#84efdf}.st1{fill:#d2fff8}.st2{fill:#41d6c3}.st3{fill:#2bb29e}.st4{fill:#58dbc2}.st5{fill:#fff;stroke:#b3cef4;stroke-miterlimit:10}.st7{fill:#e0ebfc}.st8{clip-path:url(#SVGID_2_)}.st10{fill:#fff}.st12{clip-path:url(#SVGID_4_)}.st13{fill:#6387a5}.st14,.st15{fill:#ffd5c7}.st15{clip-path:url(#SVGID_2_)}.st16,.st17{fill:#01053f}.st17,.st18{clip-path:url(#SVGID_2_)}.st18{fill:#ffd5c7;stroke:#ef927f;stroke-miterlimit:10}.st19{fill:#00275c}.st20,.st21{clip-path:url(#SVGID_2_);fill:#fff}.st21{fill:none;stroke:#01053f;stroke-miterlimit:10}.st23{fill:#b3cef4}.st24{fill:none;stroke:#b3cef4;stroke-miterlimit:10}.st26{clip-path:url(#SVGID_6_)}.st27{fill:#9ae5d7}.st28{fill:#b8fff1}.st30{fill:#300606}.st31{fill:#ffc5ae}.st32{fill:none;stroke:#ef927f;stroke-miterlimit:10}.st37{fill:#f9af95}.st38{fill:none;stroke:#300606;stroke-linecap:round;stroke-linejoin:round;stroke-miterlimit:10}.st41{clip-path:url(#SVGID_8_)}.st42{fill:#cde0fc}.st44{opacity:.55}.st46{fill:#e8f3f9}.st47{fill:#e28576}.st48,.st55{fill:none;stroke:#c46762;stroke-miterlimit:10}.st55{stroke:#300606}.st56{fill:#591906}</style><path class="st0" d="M395.1 215.7c-1.3-1.7-1-4.2.1-6.1 1-1.9 2.6-3.4 3.8-5.2 1.8-2.7 2.5-6 3.2-9.1.7-3.2 1.4-6.4 3-9.2 1.7-2.8 4.6-5.1 7.8-5.1 4.4 0 8 4.3 8.4 8.7.4 4.4-1.7 8.7-4.3 12.3-4.8 6.6-9.5 13.1-22 13.7"/><path class="st1" d="M378 271.4c.8-15 1.9-29.5 9.4-42.8 4.2-7.5 9.7-14.1 14.9-20.8 5-6.4 9.5-13.1 10.9-21.3.1-.4-.5-.5-.6-.2-1.8 9-7.5 16.4-13.1 23.4-5.2 6.5-10.3 13.1-14.1 20.6-6.5 12.9-7.5 26.9-7.9 41.1 0 .3.5.2.5 0z"/><path class="st0" d="M372.7 220.7c-8.3-2.5-9.2-13.3-9.9-20-1.1-10.7-2.4-21.5-1.5-32.3 1.1-14.5 8.1-29.5 23.3-34.5 4.4-1.5 9.2-2.5 13.8-1.8 4.6.7 9.2 3.6 10.4 7.7.3 1 .4 2.1 0 3-.5 1.1-1.7 1.8-2.7 2.6-10.5 6.9-17.6 18.1-19 29.9-1 8.4.7 16.9-.2 25.3-1 8.4-5.6 17.4-14.2 20.1"/><path class="st2" d="M387.6 205.2c4.9-.4 8.9-4.5 10.9-9.1 4.7-10.5 3.8-22.5 10.5-32.2 3.5-5.1 8.2-9.1 11.9-14 5.3-6.9 7.9-16.6 3.8-24.6-6.1-12.1-19-6.6-26.8.4-10.9 9.8-19.8 24-22.3 37.9-1.6 9.2-4.2 32 12 41.6"/><path class="st3" d="M375.6 238c-14.6-2.2-12.2-15.4-15-20.5-4.9-9-3.7-20.1-8-29.3-3-6.5-7.8-11-14.7-11.6 3.4-1.7 28.8.1 33.6 4.2 5.4 4.6 7.8 9.4 9.6 16.1 2 7.6 9.2 36.1-5.5 41.1"/><path class="st4" d="M344.3 176.5c33.7 4.1 31.4 50.5 30.6 75.1-.3 10-1 20-.8 30 0 .4.7.4.7 0 .7-19.1 2.1-38.5.9-57.6-.9-13.6-3.2-29-13-39.3-4.9-5.1-11.3-8-18.3-8.6-.4 0-.4.4-.1.4z"/><path class="st1" d="M416.3 128.9c-6.3.2-11.3 6.6-14.5 11.3-5 7.4-7.4 16.3-9.4 24.9-4.7 20.1-5.7 41.1-6.8 61.6-.7 12.5-1 25-1 37.5 0 .5.7.5.8 0 .4-20.4 1.1-40.8 2.8-61.1.8-9.9 1.7-19.8 3.5-29.5 1.6-9.1 3.7-18.8 7.7-27.2 1.8-3.8 4.2-7.4 6.9-10.5 2.6-2.9 6-6.1 10.1-6.3.3-.2.3-.7-.1-.7z"/><path class="st3" d="M417.1 226.8c4.8-.3 13 .8 17.4 2.5 1.9 1.4 5.3 4.4 7 9 1.8 4.6.9 10.3-2.7 13.6-2.8 2.5-6.7 3.3-10.4 3-1.8-.1-3.6-.5-5.2-1.4-4-2.4-4.9-7.8-7.1-11.9-3.1-5.6-9.3-9.4-15.5-9.3"/><path class="st4" d="M432.1 245.7c-.1-5.3-.8-10.7-4.4-14.9-3.9-4.5-10.6-7.6-16.6-6.3-.2 0-.1.3 0 .3 6.2.5 12 1.8 16.2 6.8 3.4 4 4 9.1 4.2 14.1.1.4.6.4.6 0z"/><path class="st0" d="M434.5 229.3c-8.8-1.6-18.1 2-24.3 8.5-2.9 3.1-5.8 7-9.9 7.4-4.3.4-9.8.8-9.9-8.3-.1-6.9 4-8.6 7.7-11 3.6-2.4 8.1-3.3 12.4-3.6 4.9-.4 17.2 0 24 7"/><path class="st1" d="M424.3 223.2c-10 0-19.6 4.7-25.8 12.5-2.8 3.5-4.2 7.2-5.1 11.5-1.5 6.6-2.1 13.8-1.7 20.6 0 .4.6.4.6 0 .8-10.5-.1-22.5 6.7-31.3 6-7.8 15.5-12.5 25.3-12.8.3-.1.3-.5 0-.5z"/><path class="st0" d="M348.4 193.6c-11.7 2.6-18.7-10.4-26.4-18.3-8.6-8.8-19.1-9.2-28.5-15.7-2.6-1.8-5.1-5.3-4-8.6 1-2.9 4.1-3.8 6.7-4.2 8.6-1.1 17.3-1.1 25.7 1.2 11.6 3.2 24.7 6.7 30.5 19.5 2.5 5.6 4.6 23.1-4 26.1"/><path class="st1" d="M294.9 150.7c17.4 1.6 32.2 10.8 42.3 24.9 11.2 15.5 15.8 34.6 19 53.1 2.2 12.7 3.1 25.5 4.5 38.3 0 .4.6.4.6 0-.3-11.6-1.7-23.3-3.5-34.8-1.8-11.3-4.2-22.7-7.9-33.6-5.3-15.4-14.4-30.2-28.2-39.3-8-5.3-17.2-8.3-26.7-8.9-.3 0-.3.3-.1.3z"/><path class="st5" d="M407.5 262.8h-63.9s-1.9 75 16.4 96.7h31.1c18.4-21.7 16.4-96.7 16.4-96.7z"/><path d="M266.7 158.1h14c5.1 0 9.2 4.1 9.2 9.2v24.8m-168.4 56.2h21.8c3 0 5.5 2.4 5.5 5.5v22.7c0 3 2.4 5.5 5.5 5.5h228.6c3.6 0 6.4 2.9 6.4 6.4v15.9c0 3.6-2.9 6.4-6.4 6.4h-61m-241.5-149v-26.8c0-7.3 5.9-13.2 13.2-13.2h272.6c3 0 5.4 2.4 5.4 5.4v22.6c0 3-2.4 5.4-5.4 5.4h-32" style="fill:none;stroke-dasharray:5,3.5;stroke:#b3cef4;stroke-miterlimit:10"/><path class="st5" d="M152.8 335.5c0 1.1-.9 2-2 2s-2-.9-2-2 .9-2 2-2 2 .9 2 2zm-88.1-202c0 1.1-.9 2-2 2s-2-.9-2-2 .9-2 2-2 2 .9 2 2zM291.2 102c0 1.1-.9 2-2 2s-2-.9-2-2 .9-2 2-2 2 .9 2 2zM394 271.4c0 1.1-.9 2-2 2s-2-.9-2-2 .9-2 2-2 2 .9 2 2zM11.6 246.7c0 1.1-.9 2-2 2s-2-.9-2-2 .9-2 2-2 2 .9 2 2zm419.2-36.9c0 1.1-.9 2-2 2s-2-.9-2-2 .9-2 2-2 2 .9 2 2z"/><circle transform="rotate(-80.781 75.336 113.232)" class="st7" cx="75.3" cy="113.2" r="5.5"/><path class="st7" d="M376.2 108.6c0 2.5-2.1 4.6-4.6 4.6-2.5 0-4.6-2.1-4.6-4.6 0-2.5 2.1-4.6 4.6-4.6 2.6 0 4.6 2.1 4.6 4.6z"/><circle class="st7" cx="426.7" cy="274.2" r="4.6"/><circle class="st7" cx="180.6" cy="343.4" r="4.6"/><path class="st7" d="M38.1 304.4h91.2c5.8 0 10.4-4.7 10.4-10.4V153.8c0-5.8-4.7-10.4-10.4-10.4H38.1c-5.8 0-10.4 4.7-10.4 10.4V294c0 5.8 4.6 10.4 10.4 10.4z"/><path class="st2" d="M33.2 150.6h100.9v146.7H33.2z"/><defs><path id="SVGID_1_" d="M33.2 150.6h100.9v146.7H33.2z"/></defs><clipPath id="SVGID_2_"><use xlink:href="#SVGID_1_" style="overflow:visible"/></clipPath><g class="st8"><path d="M39.5 191.7c-.2 0-.4-.1-.5-.2-.3-.3-.3-.7 0-1l5.6-5.6c.3-.3.7-.3 1 0 .3.3.3.7 0 1l-5.6 5.6c-.1.1-.3.2-.5.2zM65.7 180h-.2l-7.5-2.6c-.4-.1-.6-.5-.4-.9.1-.4.5-.6.9-.4l7.5 2.6c.4.1.6.5.4.9-.2.2-.4.4-.7.4zm-6.6-19.9c-.3 0-.5-.1-.6-.4-.2-.3 0-.8.3-.9l4.5-2.1c.3-.2.8 0 .9.3.2.3 0 .8-.3.9l-4.5 2.1c-.1.1-.2.1-.3.1zm72.8 35.6c-.3 0-.5-.1-.6-.4-.2-.3 0-.8.3-.9l4.5-2.1c.3-.2.8 0 .9.3.2.3 0 .8-.3.9l-4.5 2.1c-.1.1-.2.1-.3.1zm-75.2 31.5c-.1 0-.3 0-.4-.1l-4.7-3.4c-.3-.2-.4-.7-.1-1 .2-.3.7-.4 1-.1l4.7 3.4c.3.2.4.7.1 1-.1.1-.4.2-.6.2zm67.5-17.6c-.1 0-.2 0-.3-.1l-6.9-4c-.3-.2-.4-.6-.2-.9.2-.3.6-.4.9-.2l6.9 4c.3.2.4.6.2.9-.1.2-.4.3-.6.3zm-14.7 44.9c-.2 0-.4-.1-.6-.3-.2-.3-.2-.7.1-1l6.4-4.8c.3-.2.7-.2 1 .1.2.3.2.7-.1 1l-6.4 4.8c-.1.1-.2.2-.4.2zm-69.2-9.2c-.2 0-.4-.1-.5-.2-.3-.3-.2-.7.1-1l4.1-3.6c.3-.3.7-.2 1 .1.3.3.2.7-.1 1l-4.1 3.6c-.2 0-.3.1-.5.1zm1.7-39.6.7 2.4 1.8-1.8zm81.8-33.2-1.1 2.3 2.6-.1zM94.1 162l1.7 1.8.8-2.4zm-49.3 4.4-1.7 1.9 2.5.6zm36.6 7.3 1.2 2.2 1.4-2.1z" style="fill:#9afcee"/><path class="st10" d="m42.3 221.3-2.4.7 1.8 1.8zm84.8 4.9-1.8 1.8 2.4.8zm-15.7-66.1.8 2.5 1.8-1.9zm-52.9 36.5c0 .5-.4.8-.8.8-.5 0-.8-.4-.8-.8 0-.5.4-.8.8-.8s.8.3.8.8zm13.9-32.5c0 .5-.4.8-.8.8-.5 0-.8-.4-.8-.8 0-.5.4-.8.8-.8.4-.1.8.3.8.8zm33.7 13.9c0 .5-.4.8-.8.8-.5 0-.8-.4-.8-.8 0-.5.4-.8.8-.8s.8.3.8.8zm21.3 70.4c0 .5-.4.8-.8.8-.5 0-.8-.4-.8-.8 0-.5.4-.8.8-.8.4-.1.8.3.8.8z"/></g><path style="clip-path:url(#SVGID_2_);fill:#7798b7" d="M68.2 245.5 22 260.4V315h122.1v-54.6l-40.4-12.3"/><g class="st8"><defs><path id="SVGID_3_" d="M68.2 245.5 22 260.4V315h122.1v-54.6l-40.4-12.3"/></defs><clipPath id="SVGID_4_"><use xlink:href="#SVGID_3_" style="overflow:visible"/></clipPath><g class="st12"><path class="st13" d="M26.9 274.7c33.3 1.4 66.8 1.2 100.1.6 9.5-.2 19-.2 28.4-.8.8 0 .8-1.2 0-1.2-16.6.1-33.2.9-49.8 1.1-16.8.2-33.5.2-50.3.1-9.5-.1-18.9-.1-28.4-.2-.3 0-.3.4 0 .4z"/></g><g class="st12"><path class="st13" d="M151.8 270.5c-21.1-.9-42.3-.9-63.4-.9H57c-10.6 0-21.4-.3-31.9.4-.7 0-.7 1.1 0 1.1 10.6.5 21.3-.1 31.9-.1 10.5 0 21-.1 31.4-.1 21.1 0 42.3.4 63.4.1.3-.1.2-.5 0-.5z"/></g><g class="st12"><path class="st13" d="M151.9 284.5c-21.1-.9-42.3-.9-63.4-.9H57.1c-10.6 0-21.4-.3-31.9.4-.7 0-.7 1.1 0 1.1 10.6.5 21.3-.1 31.9-.1 10.5 0 21-.1 31.4-.1 21.1 0 42.3.4 63.4.1.3-.1.3-.5 0-.5z"/></g><g class="st12"><path class="st13" d="M22.5 266c33.7-.8 67.5 1.3 101.2.4 4.8-.1 9.5-.3 14.3-.6 4.5-.3 9.4-.2 13.8-1.4.3-.1.2-.4-.1-.4-4.2-.3-8.6.4-12.8.6l-12.3.6c-8.4.3-16.8.4-25.1.4-16.8 0-33.6-.5-50.4-.6-9.6 0-19.1.1-28.6.6-.2 0-.3.4 0 .4z"/></g><g class="st12"><path class="st13" d="M21 290.8c33.7-.8 67.5 1.3 101.2.4 4.8-.1 9.5-.3 14.3-.6 4.5-.3 9.4-.2 13.8-1.4.3-.1.2-.4-.1-.4-4.2-.3-8.6.4-12.8.6l-12.3.6c-8.4.3-16.8.4-25.1.4-16.8 0-33.6-.5-50.4-.6-9.6 0-19.1.1-28.6.6-.3 0-.3.4 0 .4z"/></g><g class="st12"><path class="st13" d="M21.8 280.5c33.7-.8 67.5 1.3 101.2.4 4.8-.1 9.5-.3 14.3-.6 4.5-.3 9.4-.2 13.8-1.4.3-.1.2-.4-.1-.4-4.2-.3-8.6.4-12.8.6l-12.3.6c-8.4.3-16.8.4-25.1.4-16.8 0-33.6-.5-50.4-.6-9.6 0-19.1.1-28.6.6-.2 0-.2.4 0 .4z"/></g><g class="st12"><path class="st13" d="M20.5 260.8c10.2.7 20.6.2 30.8.2 9.9 0 19.9-.1 29.8-.1 9.9-.1 19.9-.1 29.8-.2 5 0 9.9-.1 14.9-.1 5.3 0 10.7.2 15.9-.3.7-.1.7-1 0-1-5.2-.5-10.6-.1-15.9-.1-5 0-9.9.1-14.9.1-9.9.1-19.9.1-29.8.2-9.9.1-19.9.1-29.8.2-10.2.1-20.6-.2-30.8.5-.5 0-.5.6 0 .6z"/></g><g class="st12"><path class="st13" d="M138.6 255.3c-19.5-2.6-39.4-1.2-59-.8-9.9.2-19.8.4-29.8.7-9.9.2-19.9 0-29.8.9-.7.1-.7 1 0 1 9.9.4 19.9-.3 29.8-.6 9.9-.2 19.8-.5 29.8-.8 19.6-.5 39.5-2.1 59 .1.4.2.4-.4 0-.5z"/></g><g class="st12"><path class="st13" d="M138 296.5c-19.5-2.6-39.4-1.2-59-.8-9.9.2-19.8.4-29.8.7-9.9.2-19.9 0-29.8.9-.7.1-.7 1 0 1 9.9.4 19.9-.3 29.8-.6 9.9-.2 19.8-.5 29.8-.8 19.6-.5 39.5-2.1 59 .1.4.1.4-.5 0-.5z"/></g><g class="st12"><path class="st13" d="M130.3 251.5c-17-.9-34.1-1.2-51.2-1.3-8.4-.1-16.7-.1-25.1-.1-7.5.1-15.6.1-22.7 2.8-.5.2-.3 1 .2.9 15.9-3.4 32.4-2.5 48.6-2.4 16.7.1 33.5.6 50.2.8.4 0 .4-.7 0-.7z"/></g></g><g class="st8"><path class="st14" d="M106.4 211.8c-.5-1 .3-2.3 1.4-2.6 1.1-.3 2.3.2 3 1 .7.8 1.1 2 1.3 3.1.3 1.8.1 3.8-.9 5.3s-2.9 2.5-4.7 2.1"/></g><path class="st15" d="M101.3 192.8s13.6 35.7 9.5 39.8c-4.1 4.1-24.7 7.3-27.2 4.8s-7.7-9.1-9.5-12.6c-2.7-5.1-6.5-17.4-3.1-23 3.3-5.6 25.3-14 30.3-9z"/><g class="st8"><path class="st16" d="M89.9 206.8c-3.6-.8-7.5.1-10.5 2.4l.6 1.4c3.3-1.3 6.7-1.9 10.2-1.9-.1-.6-.2-1.3-.3-1.9z"/></g><g class="st8"><path class="st16" d="M104.7 202.9c-2.3-.4-4.7.5-6 3l.9 1.2c1.9-2.3 4.9-2.6 4.9-2.6l.2-1.6z"/></g><path class="st17" d="M93.2 213.3c0 .7-.5 1.2-1.1 1.2-.6 0-1.1-.5-1.1-1.2s.5-1.2 1.1-1.2c.7 0 1.1.6 1.1 1.2z"/><ellipse class="st17" cx="103.6" cy="209.4" rx="1.1" ry="1.2"/><path class="st18" d="m108.9 216.8-1.7-7"/><path class="st15" d="m103.2 233.5-1.1 19.6s-7.2 7.3-11.4 7.3c-8.1 0-19.2-13.8-19.2-13.8l5.6-21.3"/><g class="st8"><path class="st19" d="M95.3 220.9c2.9-1 5.5-2 8.5-2.3.8-.1 1.5-.2 2.2-.5 1.4-.6 2.3-2 2.4-3.4 3.2 1.9 5.4 6.3 6.8 9.6 1.6 3.7 2.5 8.5-.3 11.9-3.7 4.5-11.7 4.3-16.9 5.5-4.6 1-9.5 1.8-13.8 0-4.7-2-5.3-5.6-8.5-8.9.2 1.2-1.3 2.1-2.5 1.8-1.2-.3-2-1.4-2.7-2.4-1.3-1.8-2.7-3.7-3.8-5.7-3-5.2-4.3-11.2-4.7-17.2-.1-1.2-.1-2.5.5-3.6.5-.9 1.3-1.5 1.7-2.4.4-1 .2-2.1.2-3.1.1-2 1-3.8 2-5.4 6.2-9.6 16.8-13.2 27.8-12.3 6.8.6 13.6 3.8 16.9 9.8.6 1.1 1.1 2.4 1 3.7-.4 3.2-4.2 4.5-7.4 5.1-5.5 1.1-11 2.1-16.6 2.2-4.9.1-9.8-.4-13.8 3.2l-.4.4c-.1.2-.1.4-.1.6-.1 3.1 1.2 6.1 2.4 9 .6 1.3 1.1 2.7 2 3.8 1.8 2.2 4.6 2.6 7.3 2.7 3.4 0 6.7-1.1 9.8-2.1z"/></g><g class="st8"><path class="st19" d="M73.7 206.9c5.8-3.9 14.4-1.7 21-2.7 4-.6 9.9-2.3 11.4-6.6.1-.3-.4-.5-.5-.2-2.8 5.8-11.5 6.3-17.1 6.5-4.9.1-11-.4-15 2.8 0 .1.1.3.2.2z"/></g><g class="st8"><path class="st19" d="M109.9 216.1c3.2 2.1 5.3 5.1 6.2 8.9.8 3.3.9 7.4-1.9 9.9-.3.3.1.7.4.5 3.1-1.9 2.9-6.2 2.4-9.3-.8-4.3-3.1-8.2-7-10.2-.1-.2-.2.1-.1.2z"/></g><path class="st20" d="m94.4 226.1 12.8-2.4c.2 0 .4.1.5.3.4 1.5 1.7 7.3-4.2 8.3-6.5 1.1-8.9-3.8-9.5-5.6-.1-.2.1-.6.4-.6z"/><g class="st8"><path class="st14" d="M79.4 227.1c-2.1-3.9-5.8-9.7-8.9-7-.5.5-.8 1.2-1 1.9-.9 3.7 1.3 7.8 4.8 9.1 2.3.8 5.2.5 5.3-2.5 0-.5-.1-1-.2-1.5z"/></g><path class="st18" d="M71.5 224.3s-.5-2.5.7-2.5 2.1 1 2.5 2c.1.4-1.1 1.7-.1 2.2 1 .5 1.6.4 2.3 1.1.7.7 1 2.5-.5 2.5m21.3-22.2s7 6.8 6.7 10.2c-.2 2.8-6.7 1.9-6.7 1.9"/><path class="st21" d="M92.3 296s1.4-21.2-1.6-35.6"/><path class="st20" d="M73.6 238.8s10.9 19.6 17.1 21.7c-3.8 5.5-8.7 13.9-11.1 13.9-4.2 0-14.3-28-14.3-28l8.3-7.6zm17.1 21.6c8.7-4.6 12.1-17 12.1-17l4.2 6s-2.8 22.5-6.3 22.5c-2 0-10-11.5-10-11.5z"/><path class="st17" d="M90.6 264.5c0 .5-.4.8-.8.8s-.8-.4-.8-.8c0-.5.4-.8.8-.8s.8.4.8.8zm.1 14.2c0 .5-.4.8-.8.8-.5 0-.8-.4-.8-.8s.4-.8.8-.8c.4-.1.8.3.8.8z"/><path class="st21" d="m128.4 279.4-2.1 27.1"/><g class="st8"><path class="st19" d="M62.7 208c-.9 6.7-.3 13.7 2.8 19.8 1.6 3.1 5.2 8.7 9.4 6.4.3-.2.1-.7-.2-.6-4.5 1.5-7.5-4.1-9.1-7.5-2.6-5.6-3-12-2.5-18.1 0-.1-.4-.2-.4 0z"/></g><path d="M103.6 339.8h24.1c3.9 0 7.1-3.2 7.1-7.1v-8.2c0-3.9-3.2-7.1-7.1-7.1h-27.1l-4.1-3.9v19.3c0 3.8 3.2 7 7.1 7z" style="fill:#fffcfa;stroke:#b3cef4;stroke-miterlimit:10"/><path class="st23" d="M105 329c0-.9.6-1.5 1.4-1.5s1.4.6 1.4 1.5-.6 1.5-1.5 1.5c-.8 0-1.3-.7-1.3-1.5zm9.2 0c0-.9.6-1.5 1.4-1.5s1.4.6 1.4 1.5-.6 1.5-1.5 1.5c-.7 0-1.3-.7-1.3-1.5zm9.3 0c0-.9.6-1.5 1.4-1.5.8 0 1.4.6 1.4 1.5s-.6 1.5-1.5 1.5c-.8 0-1.3-.7-1.3-1.5z"/><path class="st7" d="M296.3 354.7h-62.5l6.2-30.2h50.1z"/><path class="st23" d="m237.1 338.8 2.9-14.3 50.1 3.9z"/><path class="st7" d="M311 359.5h-91.9v-.6c0-3.2 2.6-5.7 5.7-5.7h80.5c3.2 0 5.7 2.6 5.7 5.7v.6z"/><path class="st24" d="M234.2 353.2H296"/><path class="st7" d="M361.6 182.9H168.5c-4.4 0-8 3.6-8 8v129.6c0 4.4 3.6 8 8 8h193.2c4.4 0 8-3.6 8-8V190.9c-.1-4.4-3.7-8-8.1-8z"/><path class="st5" d="M166.9 189.2h196.4v132.9H166.9z"/><path d="M361.6 182.9h-26.2c-2.2 1.5-4.2 3.2-5.8 5.3-1.8 2.3-3.2 5-3 7.9.3 4.9 5.5 8.4 10.4 8.3 4.9-.1 9.3-2.9 13-6.1 3.6-3.2 5.9-7.8 9.6-10.8 2-1.6 4.1-2.7 7.2-2.7-1.4-1.2-3.2-1.9-5.2-1.9z" style="fill:#ffecee"/><defs><path id="SVGID_5_" d="M166.9 189.2h196.4v132.9H166.9z"/></defs><clipPath id="SVGID_6_"><use xlink:href="#SVGID_5_" style="overflow:visible"/></clipPath><g class="st26"><path class="st27" d="M185.5 339.8c-4.3-4.8-6.1-11.2-7.8-17.4-1.9-7.1-3.9-14.3-3.5-21.7.2-3 .7-5.9.7-8.9.1-6.5-2.3-13-2-19.4 0-.7.9-.9 1.2-.4 7.3 10.3 12.3 22.1 14.6 34.5 2.2 11.8 2.2 24.5 8.2 35"/></g><g class="st26"><path class="st27" d="M214.9 331.5c-4.3-10-8.3-20.1-10-30.8-1.2-7.8-1-15.8-.8-23.7.3-7.4.6-14.5 2.2-21.8 2.2-9.9 5.6-19.5 9.2-29 .4-1.1 2.1-.9 2.2.3 1.1 10.7 2.4 21.4 4.4 31.9 2.1 10.7 5 21.4 5.2 32.4.3 15.2-4.6 30.3-2.7 45.3"/></g><g class="st26"><path class="st10" d="M217.3 224.7c-4 16.2-3.3 33.1-1.9 49.6.7 8.7 1.7 17.3 2.4 26 .7 8.9.6 17.7 1.1 26.5 0 .3.4.3.4 0 .9-8.4 0-17.2-.7-25.6-.7-8.7-1.7-17.3-2.4-26-1.5-16.9-1.9-33.8 1.4-50.5 0-.1-.2-.1-.3 0z"/></g><g class="st26"><path class="st10" d="M217.7 228.1c-.3 16.5 2.3 33 3.4 49.5.6 8 .9 16.1.5 24.2-.4 8.4-2.4 17.1-1.6 25.5 0 .3.4.3.4 0 .4-8.5 1.5-17 1.9-25.5.4-8.1 0-16.1-.6-24.2-1.2-16.5-3.2-32.9-3.8-49.5 0-.2-.2-.2-.2 0z"/></g><g class="st26"><path class="st10" d="M224.2 268.8c.3 10.1 1.1 20.2.5 30.3-.4 5.2-1.3 10.3-2.1 15.4-.7 4.3-1.3 8.8-.6 13.1.1.3.6.3.6-.1-.5-9.8 2.3-19.2 2.8-29 .6-9.9.1-20-.9-29.8 0-.1-.3-.2-.3.1z"/></g><g class="st26"><path class="st10" d="M211.7 235.1c-3.9 14.4-5.6 30-2.8 44.7 1.5 7.8 3.8 15.4 5.7 23.1 2 8.1 3.1 16.1 3 24.5 0 .4.5.4.6 0 1.6-15.3-4.8-30.5-7.9-45.2-1.6-7.7-2.3-15.4-1.7-23.3.6-8 2.2-15.8 3.5-23.7-.1-.2-.4-.3-.4-.1z"/></g><g class="st26"><path class="st10" d="M204.4 275.9c1 8.9 3.2 17.8 5 26.6.9 4.5 1.8 9 2.8 13.4.9 4.1 1.8 8.4 3.8 12.1.1.3.6.1.5-.2-2.8-8.2-4.5-16.6-6.3-25.1-1.9-8.9-4.2-17.8-5.4-26.9 0-.2-.4-.2-.4.1z"/></g><g class="st26"><path class="st28" d="M199.7 316.7c-8.8-27.8-12-57.4-9.2-86.5.9-8.9 2.2-17.7 4-26.4.2-1.1 1.7-1 1.9.1 1.2 11.1 5.9 21.9 9.6 32.6 11.1 32 14.2 66.8 8.9 100.2"/></g><g class="st26"><path class="st28" d="M228 333.5c-.8-21.7-11.8-43.1-7.1-64.3 1.2-5.3 3.3-10.4 4.1-15.8.6-4.1.5-8.2.7-12.4.4-8.2 2.4-16.3 5.7-23.8 1.7-3.8 4-7.2 6-10.9.6-1.1 2.6-4.2 3.8-6.7.4-.7 1.5-.6 1.6.2 2.4 13.5 3.8 28.6 2.3 42.2-.6 5.5-1.8 10.9-1.2 16.4.3 3.5 1.4 7 2 10.5 3.2 17.8-4.8 36.1-2.4 54.1"/></g><g class="st26"><path class="st28" d="M299.6 324.6c-5.5-16.9-5.6-35.5-.3-52.5.8-2.6 1.8-5.3 2.1-8 .7-4.9-.6-9.8-1-14.7-1-13.4 4.3-26.2 10.1-38.4.4-.9 1.8-.7 1.9.3 1.5 14 7.4 27.2 8.4 41.3.5 6.9.4 13.8-.7 20.6-1.2 7.4-3.2 14.8-3.8 22.3-.5 5.7-.6 12.4-2.5 17.9"/></g><g class="st26"><path class="st27" d="M330.9 331.5c.6.8 1.5-.6 1.5-1.6-.2-7.6-2.3-15.1-6-21.7-1.9-3.3-4.1-6.4-5.2-10-.9-3.1-.9-6.5-.6-9.7.2-3.2.6-6.5 1.8-9.4 2-4.9 6.2-8.6 8.9-13.1 6.3-10.3 2.9-23.6 7.8-34.7.6-1.3 3.1-1.3 3.5.1 1.7 6.2 4.8 13.2 5.5 19.5.9 7.8-3.1 15.5-2.3 23.4.6 6.5 3.9 12.8 3.3 19.3-.5 4.9-3.2 9.4-3.5 14.3-.2 4 1.2 7.9 2 11.8.8 3.9.9 8.4-1.6 11.5"/></g><path d="M263.7 324.5c-6.4-17.2.4-28 1.4-34.7 2.4-17-.6-21.9-1-34.3-.3-8.3-1.2-16.6.3-24.7 2.3-12.5 10.2-23.8 12.8-36 .4-1.7 2.7-1.8 3.2-.1 2.7 9.6 5.3 19.3 8 28.9 2.4 8.8 4.9 17.8 4.6 26.9-.2 5.7-1.4 11.3-2.1 17-.7 6.2-1.5 16.5-1.6 22.8-.1 9.6 5 15.9-1.3 35.7" style="fill:#d0e8c8" class="st26"/><g class="st26"><path class="st10" d="M172.8 272.4c2.8 9.5 5.6 19 7.4 28.8 1.9 9.9 2.1 20.8 7.2 29.8.1.2.4.1.3-.1-1.8-4.9-3.6-9.5-4.5-14.7-.9-5.2-1.5-10.4-2.5-15.5-1.8-9.6-4.4-19.1-7.5-28.3-.1-.3-.5-.2-.4 0z"/></g><g class="st26"><path class="st10" d="M173.8 281.3c1.5 8.1 2.4 16.4 3.7 24.5 1.3 7.6 2.9 15.8 6.9 22.5.2.3.6 0 .4-.3-3.3-7.6-5.5-15.1-6.8-23.3-1.3-7.9-2.1-15.8-4-23.5 0-.1-.2 0-.2.1z"/></g><g class="st26"><path class="st10" d="M174.3 297.8c-.1 5.5.6 11 2 16.3 1.3 5.1 3.2 10.8 6.2 15.2.1.2.4 0 .3-.2-2.1-5.1-4.5-9.8-5.9-15.2-1.4-5.3-2-10.7-2.2-16.1 0-.3-.4-.3-.4 0z"/></g><g class="st26"><path class="st10" d="M176.2 274.8c6.8 16.6 7 35.1 11.2 52.5 0 .1.2.1.2 0-1-9.2-3.1-18.4-4.6-27.6-1.5-8.3-2.3-17.7-6.8-24.9 0-.1 0-.1 0 0z"/></g><g class="st26"><path class="st10" d="M184.2 291.2c1.5 6.5 2.1 13 2.7 19.6.5 5.6 1 11.8 3.5 16.8.1.2.4.1.3-.1-.8-3-1.7-5.9-2.2-8.9-.6-3.3-.9-6.7-1.2-10-.6-5.9-1.1-11.8-3-17.4 0-.1-.1-.1-.1 0z"/></g><g class="st26"><path class="st10" d="M195.3 202.8c-1.2 15.7-1.7 31.9.4 47.6 1.1 7.9 3.1 15.4 5.4 23 2.3 7.6 4.1 15.2 5.5 23 1.8 9.5 3.2 19 4.2 28.6 0 .4.7.5.7 0-1.5-15.7-4.1-31.4-8.3-46.6-2.2-7.9-4.9-15.7-6.3-23.8-1.4-8.1-1.9-16.3-2-24.5-.1-9.1.5-18.1.7-27.2.1-.3-.3-.3-.3-.1z"/></g><g class="st26"><path class="st10" d="M192 221c-2.4 16.9-.6 34.7 2.4 51.5 3.2 17.7 8.3 35 14 52 .2.5.9.3.8-.2-5.6-16.6-10.6-33.4-13.8-50.6-1.6-8.7-2.8-17.4-3.4-26.2-.6-8.8-.3-17.6.1-26.5.1-.1-.1-.1-.1 0z"/></g><g class="st26"><path class="st10" d="M190 259c.5 10.8 2.2 21.5 4.7 32 2.5 10.2 5.7 21.1 11.3 30.1.2.3.6 0 .5-.3-2.2-5-4.7-9.9-6.6-15-1.8-4.9-3.3-9.9-4.5-15-2.6-10.5-3.9-21.1-5-31.8 0-.2-.4-.2-.4 0z"/></g><g class="st26"><path class="st10" d="M198.5 214.8c-.4 18.1 3.6 36.1 7.1 53.8 3.6 18.4 6.5 36.6 6.5 55.4 0 .4.6.4.6 0 1-18-2.5-36.1-5.9-53.8-3.6-18.4-6.9-36.6-7.8-55.4-.1-.3-.5-.3-.5 0z"/></g><g class="st26"><path class="st10" d="M208.2 245c.9 14 3 27.9 4.8 41.8.9 6.8 1.1 13.5.7 20.3-.4 6.7-1.5 13.6-.5 20.3 0 .2.3.1.3 0 .5-13.7 2-27.4.2-41.1-1.8-13.8-3.5-27.5-5.2-41.3 0-.2-.3-.2-.3 0z"/></g><g class="st26"><path class="st10" d="M242.6 199.9c-2.7 6.4-2.9 12.6-3.5 19.4-.7 9.1-1.4 18.1-2.1 27.2-1.3 17.9-2.8 35.8-2.9 53.8-.1 9.6.3 19.3 2.2 28.8.1.5.9.3.8-.2-2.6-17.4-2.1-34.7-1.1-52.2s2.3-34.9 3.5-52.4c.6-8.2.6-16.4 3.4-24.2.1-.4-.2-.4-.3-.2z"/></g><g class="st26"><path class="st10" d="M237 206c-2.3 7.4-3 15.1-3.5 22.8-.5 8.1-1.1 16.2-2.2 24.3-2.2 16.3-2.9 32.5-1.4 48.9.8 9 2 18.1 4.3 26.9.1.4.7.2.6-.2-2.9-16-5.1-31.8-4.9-48.1.2-16 3.2-31.7 4-47.6.5-9.1 1-18.1 3.4-26.9.1-.3-.2-.4-.3-.1z"/></g><g class="st26"><path class="st10" d="M228.6 225.2c-.1 9.4 0 18.8-1.9 28.1-.9 4.5-2.5 8.8-3.6 13.2-1 4.2-1.2 8.6-1 12.9.5 8.9 2.5 17.8 4.1 26.6 1.5 8.7 2.8 17.8 6.2 26 .2.4.8.1.7-.3-2.8-8.7-4.6-17.4-6.1-26.4-1.6-9-3.7-18.1-4-27.3-.2-4.7.4-9.3 1.7-13.9 1.2-4.1 2.5-8.2 3.2-12.4 1.5-8.7 1.4-17.6 1.1-26.4-.1-.3-.4-.3-.4-.1z"/></g><g class="st26"><path class="st10" d="M244.8 218.6c-1.7 8.6-3 17.5-3.9 26.2-.9 9.5-.1 19.1.6 28.6.7 9.4.9 18.6 0 27.9-.9 8.6-2.4 17.9.3 26.3.1.4.7.3.7-.2-1.8-9.3-.9-18.2 0-27.6.9-9 .5-18-.1-27-.7-9-1.4-18.1-.7-27.2.7-9.1 2.6-18 3.6-27.1-.1 0-.4-.1-.5.1z"/></g><g class="st26"><path class="st10" d="M268.9 219.5c-6.6 16.9-2.9 35.3-1.7 52.8.3 4.8.4 9.7.1 14.5-.3 4.5-1.3 8.8-1.9 13.3-1.2 9.3 1.2 19 2.9 28 .1.5.9.3.8-.2-1.7-9.7-4.2-19.7-2.6-29.6 1.4-8.7 2-17.1 1.5-26-1.1-17.6-4.6-35.6 1.3-52.7.1-.3-.3-.4-.4-.1z"/></g><g class="st26"><path class="st10" d="M274.3 203.1c-.7 15.6-6.2 30.7-5.2 46.4.5 8.2 1.4 16.4 1.6 24.7.2 8.2 0 16.3-.3 24.5-.4 8.4-1.5 17.7 1 25.9.1.4.7.2.7-.2-.7-5.3-1.3-10.4-1.1-15.7.1-5.1.4-10.2.6-15.3.3-10.3.3-20.6-.4-30.9-.3-4.9-1-9.9-1.2-14.8-.2-5.3.3-10.5 1.1-15.7 1.5-9.5 4.3-19.1 3.6-28.7-.1-.4-.4-.4-.4-.2z"/></g><g class="st26"><path class="st10" d="M278.4 194.1c-2 18.5-2.3 37.4-2.4 56 0 9.1.2 18.2.2 27.2 0 9.3-1 18.4-2.5 27.6-1.4 9.2-2.7 18.8.2 27.9.2.5.9.3.8-.2-2.4-8.9-1.5-18-.1-27 1.3-8.5 2.4-16.8 2.6-25.4.2-18.2-.3-36.5.2-54.7.3-10.5 1.1-21 1.5-31.4-.1-.3-.5-.2-.5 0z"/></g><g class="st26"><path class="st10" d="M282.4 204.6c1.3 8.6 1.8 16.9 1.6 25.6-.2 8.3-.7 16.7-.4 25 .3 8.6.8 17.1-.5 25.6-1.2 8-3.3 15.8-5 23.6-1.9 8.3-3.5 17-2.7 25.6 0 .5.8.5.7 0-.5-16.6 5.2-31.9 7.7-48.1 1.3-8.1 1.1-16.1.7-24.3-.4-8.5 0-17 .2-25.5.3-9.1.5-18.7-2.1-27.6 0-.1-.2-.1-.2.1z"/></g><g class="st26"><path class="st10" d="M289.8 230.6c2.5 16.5-.5 32.8-1.7 49.2-.6 7.8-.3 15.6-.4 23.4-.1 8.5-2.4 16.1-5.4 24-.2.5.6.7.8.2 2.8-7.5 5.2-14.8 5.3-22.8.2-8.3-.3-16.5.4-24.8 1.3-16.4 4.6-33 1.3-49.3-.1-.2-.3-.1-.3.1z"/></g><g class="st26"><path class="st10" d="M311.4 210.4c-3.4 7-6.3 14.4-7.9 22.1-1.6 7.8-1.1 15.4-.2 23.2.4 4 .8 8.1.5 12.2-.4 4.4-1.9 8.5-2.7 12.8-1.4 7.6-1.6 15.6-1.7 23.4-.1 8.3.6 16.7 3.8 24.4.2.4.8.1.6-.3-2.7-7.2-3.6-14.7-3.6-22.4 0-7.9.1-16.1 1.5-24 .6-3.7 1.9-7.4 2.5-11.1.6-3.7.6-7.6.3-11.3-.7-8.1-2-16-.8-24.1 1.3-8.7 4.8-16.7 7.9-24.9 0-.1-.2-.1-.2 0z"/></g><g class="st26"><path class="st10" d="M312.2 210.3c-6.9 18.9-3.8 39.9-3 59.5.4 10.4-.3 20.6-1.5 30.9-1.2 9.6-2.6 19.7-.8 29.4.1.3.6.2.5-.1-.9-9.9-.1-19.5 1.1-29.3 1.2-10.2 1.9-20.2 1.5-30.4-.8-20.2-3.1-40.1 2.5-59.9.1-.2-.2-.3-.3-.1z"/></g><g class="st26"><path class="st10" d="M312.5 215.7c-1 9.5-.7 19.1 0 28.6.7 9.1 2.3 18.4 2.1 27.6-.1 4.9-1.1 9.7-1.9 14.5-.7 4.2-1.1 8.4-1.5 12.6-.4 4.6-.9 9.1-1.3 13.7-.4 4.4-.5 9 .7 13.3.1.4.7.2.6-.2-1.7-9.1 0-18.7.9-27.8.9-9 3.2-18.1 3.3-27.2.1-9-1.5-18.1-2.2-27.1-.7-9.4-.9-18.7-.4-28.1 0-.1-.3-.1-.3.1z"/></g><g class="st26"><path class="st10" d="M315.7 229.5c.8 15.9 3 31.5 1.4 47.4-.8 7.9-2.8 15.5-3.9 23.3-1.1 7.4-1.4 14.9-1.4 22.4 0 .5.8.5.8 0 .3-8.1.4-16.1 1.7-24.1 1.2-7.4 3-14.7 3.7-22.1 1.5-15.5.4-31.6-2-47 0-.1-.3-.1-.3.1z"/></g><g class="st26"><path class="st10" d="M341.9 229.6c-1.2 3.7-1.9 7.6-2.1 11.5-.2 4.4.1 8.7-.3 13-1 8.7-4.2 17-6.4 25.5-2.1 8.1-2.5 15.7-.7 23.8 1 4.5 2.1 9 3.2 13.5.9 3.8 1.3 8.2 3.6 11.5.2.3.7 0 .5-.3-2.1-3.7-2.6-8.3-3.6-12.4-1-4.2-2-8.3-2.9-12.5-2-9-1-17.4 1.4-26.2 2.1-7.5 4.7-15 5.6-22.8.4-4 .2-8.1.3-12.1.1-4.2.8-8.3 1.9-12.3 0-.3-.4-.4-.5-.2z"/></g><g class="st26"><path class="st10" d="M342.6 231.7c-.5 4.2-.3 8.4-.4 12.6-.2 4.2-.7 8.5-1.5 12.7-1.3 7.4-3.1 14.8-4 22.2-.9 7.6-.2 14.8 1.1 22.3 1.5 8.4 1.9 16.9 2.6 25.5 0 .4.6.4.6 0-.3-8-.8-16-2.1-23.9-.7-4.2-1.6-8.3-1.9-12.5-.2-3.8 0-7.6.4-11.3.9-8 2.9-15.9 4.2-23.9 1.2-7.9.9-15.6 1.1-23.6 0-.2-.1-.2-.1-.1z"/></g><g class="st26"><path class="st10" d="M344.2 235.3c1.1 15.3-4.6 30-3.3 45.3.6 7.7 2 15.3 2.6 22.9.6 8.1.6 16.3.8 24.4 0 .3.5.3.5 0 .5-8 .2-16-.4-23.9-.6-7.8-2-15.6-2.6-23.4-1.3-15.2 4.6-30.1 2.8-45.3-.1-.2-.4-.2-.4 0z"/></g><g class="st26"><path class="st10" d="M337.4 238c1.2 15.3-7.4 29.1-10.5 43.7-.7 3.2-1.1 6.6-1 9.9.1 3.9 1.1 7.7 2 11.5 2.2 9.1 4.1 18.3 6.7 27.3.1.4.7.2.6-.2-1.7-8.9-4.1-17.6-6.2-26.4-1-4.3-2.2-8.5-2.2-13 0-3.8.6-7.5 1.5-11.2 3.3-13.7 11.2-27.1 9.5-41.6-.1-.3-.4-.3-.4 0z"/></g><g class="st26"><path class="st28" d="M351 334.9c-2.7-3.4-5.4-6.9-6.3-11-.7-3.2-.3-6.5-.5-9.7-.4-4.8-2.1-9.4-2.1-14.2 0-10 7-17.9 10.5-26.8 1.8-4.4 1.4-8.2 2.3-12.7 1-5.4 2.1-10.8 3.8-16.1.4-1.2 2.1-1 2.2.3 1.4 20.4 8.4 40.6 5.5 60.9-1.8 12.6-7.3 24.3-12.7 35.7"/></g><g class="st26"><path class="st10" d="M359.1 243.8c-1.5 6.7-.9 13.6-.9 20.5 0 3.7-.1 7.4-.7 11-.6 3.4-1.6 6.8-2.3 10.2-1.3 6.8-1.5 13.8-1.7 20.8-.2 7.6-.5 15.3-.5 22.9 0 .4.6.4.6 0 .3-7.3.4-14.6.6-21.9.2-7.5.3-15.1 1.9-22.5 1.4-6.4 2.8-12.4 2.8-19 0-7.3-.7-14.5.5-21.8 0-.3-.2-.4-.3-.2z"/></g><g class="st26"><path class="st10" d="M356.6 258.2c-.2 12.3-3.9 23.9-6.4 35.8-2.4 11.4-.1 23.4 1 34.9 0 .4.7.4.7 0-1.2-12.2-3.4-24.4-.6-36.5 2.6-11.3 5.9-22.4 5.7-34.1-.1-.3-.4-.3-.4-.1z"/></g><g class="st26"><path class="st10" d="M350.8 277.8c-4 7.7-6.3 15.5-5.7 24.2.7 8.8 1.4 18.4 4.3 26.8.1.3.6.2.5-.2-2-8.6-3.4-17.3-4.1-26.2-.4-4.3-.3-8.5.8-12.8 1.1-4.1 2.8-7.9 4.3-11.9.2.1 0 0-.1.1z"/></g><g class="st26"><path class="st10" d="M361.8 263.2c-.2 11.4-.4 22.9-1.8 34.3-.7 5.3-1.8 10.5-2.5 15.8-.6 5-1.1 11.1.4 16 .1.3.5.2.5-.1 0-2.6-.5-5.3-.5-7.9 0-2.7.1-5.3.4-7.9.6-5.5 1.9-10.8 2.5-16.3 1.4-11.2 1.4-22.5 1.4-33.8 0-.4-.4-.4-.4-.1z"/></g><g class="st26"><path class="st10" d="M364.7 299.4c-2.5 9.3-4.3 19.4-4 29 0 .5.7.5.7 0 .6-9.8 1.4-19.3 3.7-28.9.1-.3-.4-.4-.4-.1z"/></g><path class="st30" d="M292.1 211.5c3 1.8 5.4 4.7 6.6 8 1.2 3.3 1.3 7.6 3.4 10.5 1.6 2.2 4.1 3.5 6.4 4.9 2.4 1.4 4.9 2.8 5.4 5.5.8 4.2-3 8.2-2.3 12.4.8 4.5 6 6.3 9.4 9.3 3.2 2.8 5.1 7.1 4.9 11.4-.2 4.3-2.5 8.4-6 10.8-2.9 2-6.4 2.9-9.9 3.7-11.7 2.7-23.6 5.1-35.6 5.8-12 .8-24.2-.1-35.7-3.9-1.7-.5-3.3-1.2-4.7-2.3-1.3-1.1-2.2-2.5-3.1-4-2.3-3.6-4.6-7.3-5.4-11.5-.8-4.2.1-9 3.4-11.7 2-1.7 5.2-2.8 6.7-5.2 2.4-3.7-1-7.1-1.8-10.7-.9-3.9 2.5-6.6 5-8.8 2.9-2.5 3.9-5 4.8-8.7 1.8-7.1 6.4-13.4 12.6-17.2 6.2-3.9 13.9-5.2 21-3.7"/><path class="st30" d="M298.5 219.6c.8 3 1.2 6.2 2.8 9 1.5 2.6 4 4 6.6 5.3 3.4 1.8 7.2 4.1 7 8.5-.2 3.4-2.2 6.4-1.9 9.8.7 5.7 7 6.9 10.5 10.3 2 1.9 2.9 4.9 3 7.6.1 3.6-1.3 6-3.2 8.9-.1.2.2.5.4.4 4.1-3 4.5-9.5 2.7-13.9-2.3-5.6-9.6-6-12-11.3-1.7-3.7.9-7.5 1.3-11.3.3-2.9-.9-5.3-3.2-7.1-2.7-2.2-6.3-3.1-8.8-5.5-3.1-3-3.3-7.3-5.2-10.7 0-.1-.1-.1 0 0zm-53.7 5.1c-1 3.2-2.5 6.2-4.7 8.7-1.6 1.8-3.7 3.1-5.3 4.9-1.5 1.6-2.7 3.5-2.7 5.7 0 3.5 2.7 6.3 1.7 9.9-1 3.3-4.3 4.5-6.5 6.8-1.5 1.7-2.3 3.9-2.2 6.2.1 5.2 4 8.9 8.3 11.2.2.1.4-.2.2-.3-5.1-3.1-10.7-10.1-6.2-16 2.9-3.8 8.1-5.2 7.3-10.9-.4-2.9-2.6-5.4-1.6-8.5.8-2.8 3.1-4.4 5.2-6.2 3.4-3 5.9-6.9 6.8-11.4-.1-.1-.2-.2-.3-.1z"/><path class="st31" d="m222.3 289.7-16 17.2-15.9-34.4-6.6 1.6s-2.7 52.6 17.8 57.1c17.3 3.8 44.8-23.3 44.8-23.3"/><path class="st31" d="M189.4 275.5s2.1-3.1 2.4-5.5c.2-2.4.4-9.3-.3-9.6-.9-.4-2 2.9-2.1 3-.2.3-2.1-10.1-3-10-1 .1-.3 7.2-.3 7.2s-2.2-7.4-3.2-7.1c-1 .3.5 7.8.5 7.8s-2-6.9-3-6.3c-.9.6 1 7.8 1 7.8s-2.4-6.2-3.2-5.5c-1 .8 2.2 15.9 5.6 17.3l.9 3.5"/><path class="st32" d="M188.9 264.2s-4.1 3.7-2.6 7.2"/><path class="st31" d="m327.9 294 18.7 28.1H315l-11.8-11.3"/><path d="M251.6 274.2s-11.9 2.3-21.8 9c-11 7.4-16.4 15.7-16.4 15.7l19.9 23.2h83.1l22-14.3s-13.1-20.4-24-26c-8.7-4.5-18.7-7-18.7-7l-28.9 6.7-15.2-7.3z" style="fill:#277ef1"/><path class="st31" d="M252.2 214.3c-4.7 11.6-9.3 38.2 7.3 42.1 23.6 5.5 30.1-20.8 31.4-30.8 1.9-15.9-34-22.9-38.7-11.3z"/><path class="st31" d="m264.1 251.3-1.2 19-11.3 3.8s-.2 13.7 4.3 16.3c5.6 3.2 29.5 3.8 33.6-.3 4.1-4.1 6.2-15.5 6.2-15.5l-14.1-5.4-3.9-21"/><path class="st30" d="M273.4 218.3c-5.3 6.3-19 9.2-25.1 7.3-6.5-2-7.7-9.1-4.5-13.8 2.1-3.1 5.3-5.3 8.6-6.8 7.9-3.7 17.3-4.3 25.6-1.5 6.4 2.2 12.4 6.5 15 12.7 1 2.4 1.5 4.9 1.7 7.5.4 4.8-.1 9.7-1.6 14.3-.5 1.7-1.4 3.6-3 4.3-1.5.7-3.3.3-4.9-.4-6.2-2.5-9.4-13-11.8-23.6"/><path class="st30" d="M281.2 207.2c-1.1-2.8-.6-6.2 1.3-8.6 8.6-10.8 26.5 4.7 14.7 14.2-3.2 2.6-7.6 3.2-11.7 2.5"/><path class="st30" d="M298.9 200.1c3 3.4 3.3 8.4.1 11.8-2.6 2.8-6.2 3.7-9.8 4.2-.3 0-.2.4.1.4 4.3.3 9.3-1.9 11.5-5.7 2.2-3.7 1.3-8.1-1.8-10.9 0 0-.1.1-.1.2z"/><path class="st32" d="M263.7 257.3s6.7.5 11.7-2.9m-67.3 59-1.8-6.5"/><path d="M233.2 320.9s.8-11.7 8.2-23.3m59.5 9.3 7.7 15.3" style="stroke:#aa311d;fill:none;stroke-miterlimit:10"/><path d="M280.6 204.6s10.1 2.9 15.6 10.4" style="fill:none;stroke:#fb5910;stroke-miterlimit:10"/><path d="m277.8 316.2 2.2 2.4m16.4-20.7 2.2.2m-52.1 3.7 1.8-2.6m-10.4-15.4 2.7-1m-7 9.7 1.8 2.4m63.8-12.7.4 3.1m-77 13.4 2.8.9m58.5 3.4 2.3 1.6m21.3-12.8 2.3 1.6m7.1-4 2.3-1.5m-45.1 8.3.8 2.6m51.1 3.6 3 .1m-68-5.5-3 1m51.5 17.3 2.8-.9m-45-3.9 2.9-1.4m20.1 7.5 1.2-2.7m18.8-10.1 1.2-2.7m-52.7 8.7 2.6 1.5m-17.1 2.4 1.2 3.2m-11.8-10.5-3.2 1.1" style="stroke:#ffad76;stroke-width:2;stroke-linecap:round;stroke-linejoin:round;fill:none;stroke-miterlimit:10"/><path class="st30" d="M252.5 231.8c0 .6.5 1 1 1 .6 0 1-.5 1-1 0-.6-.5-1-1-1-.5-.1-1 .4-1 1zm19.5 3.3c0 .6-.5 1-1 1-.6 0-1-.5-1-1 0-.6.5-1 1-1s1 .4 1 1z"/><path class="st37" d="M268.8 238.5c2.2-1.6 6.4.9 6 4-.4 2.8-4 3.3-5.9 2.4-1.1-.5-1.8-1.8-1.7-3.1-.1-1.3.6-2.6 1.6-3.3zm-18.1-1.8c2.7-1.7 5.4.8 5 3.4-.3 2.3-3.4 2.8-5 2-.9-.4-1.5-1.5-1.5-2.6.1-1.2.6-2.3 1.5-2.8z"/><path class="st32" d="M260.5 236.1s-3.8 5.9-2.8 6.9 3.8 1.5 3.8 1.5"/><path class="st38" d="M268.8 231.2s5.2-3.3 8.1 2.9m-26.5-5.9s4.1-2.6 6.3 2.3"/><path class="st10" d="m257.1 246.8 8.2-.1c.2 0 .4.2.4.4.1 1.3-.1 5-3.5 5.4-4.4.5-5.4-3.6-5.6-5.1 0-.3.2-.6.5-.6z"/><path class="st31" d="M279.5 248.3s.3 3.1 3.3 3.1c4.8 0 9.1-5.5 7.8-9.4-1.9-5.8-7.7-2-8.5-.3"/><path d="M283.1 249.7v-.1c-.1-.3-.4-.5-.7-.4-.2.1-.3.2-.4.4-.1.3.1.6.4.7h.1c.3.2.7-.2.6-.6z" style="fill:#f7633a"/><path class="st32" d="M284.1 248.3c-1.1.3-2.9.2-2.8-1.3.1-1.4 1.6-1 2.3-1.9.3-.4.4-.9.5-1.3.2-.7.6-1.4 1.2-1.9.6-.4 1.5-.4 2.1.1.5.5.6 1.3.6 2 0 .3-.1.7-.4.7"/><path class="st10" d="M308.9 268.8c0 .5-.4.9-.9.9s-.9-.4-.9-.9.4-.9.9-.9.9.4.9.9z"/><path class="st27" d="M255.5 198.3c0 .5-.4.9-.9.9s-.9-.4-.9-.9.4-.9.9-.9.9.4.9.9zm59 29.2c0 .5-.4.9-.9.9s-.9-.4-.9-.9.4-.9.9-.9.9.4.9.9zM187.1 238c0 .5-.4.9-.9.9s-.9-.4-.9-.9.4-.9.9-.9.9.4.9.9z"/><path class="st10" d="M234.9 268.8c0 .5-.4.9-.9.9s-.9-.4-.9-.9.4-.9.9-.9c.4 0 .9.4.9.9zm-28.5-13.6c0 .5-.4.9-.9.9s-.9-.4-.9-.9.4-.9.9-.9c.5-.1.9.4.9.9zm12.8 8.9c0 .5-.4.9-.9.9s-.9-.4-.9-.9.4-.9.9-.9.9.4.9.9z"/><path class="st28" d="M224.9 217.8c0 .5-.4.9-.9.9s-.9-.4-.9-.9.4-.9.9-.9.9.4.9.9zm104 31.4c0 .5-.4.9-.9.9s-.9-.4-.9-.9.4-.9.9-.9.9.4.9.9zm10.4-30.5c0 .5-.4.9-.9.9s-.9-.4-.9-.9.4-.9.9-.9.9.4.9.9zm12.2-3.1c0 .5-.4.9-.9.9s-.9-.4-.9-.9.4-.9.9-.9c.4 0 .9.4.9.9zm-176.2 33.6c0 .5-.4.9-.9.9s-.9-.4-.9-.9.4-.9.9-.9.9.4.9.9z"/><path class="st10" d="M243.5 256.6c0 .4-.3.7-.7.7s-.7-.3-.7-.7.3-.7.7-.7.7.3.7.7zm49.3-31.8c0 .4-.3.7-.7.7-.4 0-.7-.3-.7-.7s.3-.7.7-.7c.4 0 .7.3.7.7zm63.6 74.8c0 .4-.3.7-.7.7-.4 0-.7-.3-.7-.7 0-.4.3-.7.7-.7.4 0 .7.3.7.7z"/><circle class="st27" cx="349.8" cy="270.7" r=".7"/><path class="st10" d="M180.6 308c0 .4-.3.7-.7.7-.4 0-.7-.3-.7-.7 0-.4.3-.7.7-.7.4.1.7.4.7.7zm166-53.6c0 .5-.4.9-.9.9s-.9-.4-.9-.9.4-.9.9-.9.9.4.9.9zm-147 29.4c0 .5-.4.9-.9.9s-.9-.4-.9-.9.4-.9.9-.9.9.3.9.9z"/><path class="st5" d="M188.6 196.8h-25.8c-5.5 0-9.9 4.4-9.9 9.9v11.4c0 5.5 4.4 9.9 9.9 9.9h42.1c.5 0 .7-.7.3-1l-6.7-4.9v-15.5c0-5.3-4.5-9.8-9.9-9.8z"/><path class="st28" d="m166.6 221.4-2-2.4c-.8-.9-.6-2.3.3-3l2.3-1.9c.9-.8 2.3-.6 3 .3 0 0 1 1.6 2.3 1.3 1.4-.3 4.4-2.5 6.1-4.2 1.1-1.2-.8-3.3-.8-3.3-.8-.9-.6-2.3.3-3l2.3-1.9c.9-.8 2.3-.6 3 .3l2 2.4c4.3 5.1-14.9 20-18.8 15.4z"/><path class="st2" d="M325.4 182.3c-1.9 2.2-3.5 4.8-3.5 7.7 0 4.9 5 8.7 9.9 8.9 4.9.2 9.5-2.3 13.3-5.3 3.8-3 7.4-6.2 11.3-9 4.3-3 8-5.2 14.8-3.8-.8-.8-3.8-2.8-4.6-3.3-1.8-1-3.7-1.9-5.6-2.6-4-1.4-8.4-2.1-12.6-2.1-8.2.1-17.4 3.2-23 9.5z"/><path class="st1" d="M331.7 192.2c2.2-6 6.6-11 12.5-13.6 6.2-2.8 12.5-2.4 19.1-2.8.2 0 .3-.3 0-.4-6.3-1.2-13.9.1-19.6 2.8-5.9 2.7-10.2 7.8-12.3 13.9-.1.2.2.3.3.1z"/><path class="st3" d="M77.3 308.8c1.9-.3 3.8.4 5.4 1.7 1.6 1.5 2.3 3.8 3.7 5.5.9 1.1 2.1 1.7 3.4 1.8 3.1.1 3.2-4.4 2.5-6.8-1.1-3.9-3.6-5.6-6.5-7.8"/><path class="st2" d="M59.6 320.1c.3-24.8 27.3-24 30.7-13-4.2-1-8.9.6-12 4-1.8 1.9-3.2 4.4-5 6.3-3.3 3.3-7.8 4.4-12.1 5.1-.7.1-1.5.2-2.2 0-.7-.3-1.4-1-1.3-1.9"/><path class="st3" d="M30.4 299.1c-2.4-.1-6.6.4-8.9 1.3-1 .7-2.7 2.3-3.6 4.6-.9 2.3-.5 5.3 1.4 6.9 1.4 1.3 3.4 1.7 5.3 1.6.9-.1 1.9-.2 2.7-.7 2-1.2 2.5-4 3.6-6.1 1.6-2.9 4.7-4.8 7.9-4.7"/><path class="st4" d="M23.1 308.7c.1-2.6.5-5.3 2.3-7.3 2.2-2.4 5-2.7 8-3.3.2 0 .1-.3 0-.3-3-.9-6.5.8-8.5 3.1-2 2.2-2.3 5-2.3 7.8 0 .3.5.3.5 0z"/><path class="st0" d="M21.5 300.3c4.5-.8 9.2 1 12.4 4.3 1.5 1.6 2.9 3.6 5.1 3.8 2.2.2 5 .4 5.1-4.2.1-3.5-2.1-4.4-3.9-5.6-1.9-1.2-4.1-1.7-6.3-1.8-2.7-.2-9 0-12.4 3.5"/><path class="st1" d="M34.4 297.9c7.9 4.6 7.6 14 8.5 22 0 .4.6.4.6 0 .7-7.7-1.1-18.6-8.9-22.4-.3-.1-.5.3-.2.4z"/><path class="st3" d="M46 269c-2.1-2.2-5.4-2.7-8.4-3-1.7-.2-3.4-.4-4.9.3-.8.4-1.6 1-2.2 1.7-1.2 1.3-2.1 3-2.4 4.8-.2 1.8.3 3.8 1.7 4.9 1.1 1 2.7 1.3 4.2 1.3 1 0 2 0 3-.4 2.4-1 3.6-3.6 5.5-5.5 2.1-2.2 5.2-3.3 8.2-2.9"/><path class="st2" d="M51.4 281c-6.9-1.2-6.9-6.3-8.8-9.2-2.5-3.9-5.9-4.7-9.4-5.6 2.3-1.9 5.3-2.4 9.2-2.1 2.8-.7 6.6-1.4 9.2-.2s4.8 3.7 5.3 6.6 1.4 8.6-5.5 10.5m-5.5 28.2c2.7-5 1.8-13.5.4-19s-4.5-10.4-8.6-14.3c-2.8-2.8-6.2-5.1-10-6.2-3.8-1.1-8-.7-11.3 1.5-3.3 2.2-5.4 6.4-4.7 10.3.9 5.1 5.6 8.8 10.4 10.5 13.8 4.8 16.5 17.2 23.8 17.2"/><path class="st3" d="M73.2 292.8c2.2-.5 4.6.2 6.3 1.8 1.5 1.4 2.7 2.9 4.9 3.1 3.3.4 7.7-2.9 5.6-6.5-.6-1.1-1.7-1.9-2.9-2.5-1.2-.5-2.4-.8-3.7-1-1.3-.3-2.7-.5-4.1-.2"/><path class="st1" d="M12.9 278.8c4.9-2.9 10.8-.1 15.1 2.8 4.2 2.8 7.7 6.6 10.5 10.9 6 9.3 7.5 19.8 9.1 30.5 0 .3.6.2.6-.1-.2-11.7-3.8-24.3-11-33.7-4.8-6.1-16.1-16.3-24.4-10.7-.2.2 0 .4.1.3z"/><path class="st2" d="M85 288c-4.1-.2-7.5 3.8-9.3 7.9-1.6 3.7-4.5 6.7-7.8 8.6-3.2 1.8-7.9 3.2-11.2.9-.1 0-.1-.1-.2-.2-1.6-1.3-2.2-3.7-1.8-5.9.4-2.1 1.6-4 2.9-5.6 6.5-8 18.1-9.3 27.4-5.7"/><path class="st1" d="M56 327c.1-9.2 2-19.6 6.3-27.8 2-3.7 4.7-7.2 8.3-9.4 4.6-2.8 9.2-2.7 14.3-1.5.4.1.7-.5.3-.7-8.5-3.9-17.6 1.4-22.2 8.6-2.7 4.1-4.2 8.9-5.3 13.6-1.3 5.6-2.4 11.3-2.1 17.1-.1.4.4.4.4.1zm-13.4-62.6c4.7 1.5 6.3 6.7 7.3 11.1 1.2 5.1 1.7 10.3 1.9 15.5.4 10.4-.8 20.7-.7 31 0 .4.6.4.6 0 .8-6 .9-12.1 1.1-18 .2-5.9.2-11.8-.3-17.6-.4-5-1.1-10.2-2.9-14.9-1.2-3.3-3.3-6.5-6.9-7.4-.2-.1-.3.2-.1.3zm43.3 37.3c-5.1-2.3-10.6 1.8-14 5.3-4 4.1-6.6 9.4-7.3 15.2 0 .2.3.2.3 0 1.1-5 3.1-9.7 6.4-13.6 3.6-4.2 8.7-7.9 14.4-6.6.3.1.4-.2.2-.3z"/><path class="st5" d="m32.3 320.1 9.1 39.4h29.4l9-39.4z"/><path class="st23" d="M75.8 335.8H36.3l1.3 5.5 37.9-4.1z"/><path style="fill:none;stroke:#ff796d;stroke-miterlimit:10" d="M35.6 335.7h41.1"/><path class="st10" d="m33.6 336.2-3.2-17.4h51.3l-3.2 17.4z"/><path class="st23" d="m81.1 319.3-3 16.4H34l-3-16.4h50.1m1.2-1H29.8l.2 1.2 3 16.4.2.8h45.7l.2-.8 3-16.4.2-1.2z"/><path class="st7" d="M148.8 98.1v65.8c0 4.2 4 7.5 8.9 7.5h113.8c4.9 0 8.9-3.4 8.9-7.5V98.1c0-4.2-4-7.5-8.9-7.5H157.7c-4.9-.1-8.9 3.3-8.9 7.5z"/><path transform="rotate(90 214.57 130.962)" class="st5" d="M178.2 71.3H251v119.3h-72.8z"/><defs><path id="SVGID_7_" transform="rotate(90 214.57 130.962)" d="M178.2 71.3H251v119.3h-72.8z"/></defs><clipPath id="SVGID_8_"><use xlink:href="#SVGID_7_" style="overflow:visible"/></clipPath><g class="st41"><path class="st42" d="M207.2 175.5c-.6-8.6-.2-17.2.3-25.8.5-8.1.6-16.3.8-24.4.2-8 .3-16 0-24-.2-4-.4-8-.9-11.9-.5-3.9-.6-8.8-3.1-11.9-1.4-1.8-4.5-.7-5 1.3-.9 3.6.8 7.9 1.2 11.5.5 4 .8 7.9.9 11.9.3 8.2.1 16.3.2 24.5 0 16.4-.4 33.1 2.3 49.3.3 1.8 3.4 1.4 3.3-.5zm23.4-97.3c-3.9 16.1-3.4 32.9-2.7 49.3.3 8.1.7 16.3.9 24.4.1 4.5.1 9 .3 13.4.2 4.7 0 9.9 1.3 14.4 1.2 4.1 7.3 3.3 7.4-1 .1-4.6-.8-9.3-.9-13.9l-.3-13.9c-.2-7.8-.8-15.6-1.3-23.5-1.1-16.3-2.2-32.6-1.6-48.9.1-1.7-2.7-2.1-3.1-.3zm30.4 93.1c.8-16.8-.3-33.6-.2-50.4.1-8.4.3-16.9.7-25.3.2-4.2.6-8.4.6-12.5.1-4.1 0-8-2.6-11.3-1.3-1.7-3.6-.4-4.3 1.1-1.5 3.8-.7 8.1-.9 12.1-.1 4-.5 8.1-.7 12.1-.4 8.4-.6 16.9-.3 25.3.5 16.5 1.6 33.1 4.6 49.4.4 1.7 3 1.1 3.1-.5zm-87.5-88.2c-1.5 3.2-1.6 7-1.9 10.5-.4 3.9-.7 7.9-.9 11.9-.4 7.9-.8 15.8-1.1 23.7-.3 7.9-.5 15.8-.7 23.7l-.3 11.4c-.1 3.9-.7 8.1.9 11.8.8 1.8 3.9 1.7 4.7 0 1.7-3.4 1.3-7.5 1.4-11.3l.3-11.9.6-23.2c.2-7.7.3-15.5.4-23.2 0-4 0-7.9-.1-11.9-.1-3.6.2-7.7-1.1-11.2-.4-.8-1.8-1.3-2.2-.3z"/><path class="st42" d="M147 114.6c35.8 1.8 71.7 1.7 107.5 2.1 10.3.1 20.6.3 30.9.4 4.3 0 4.3-6.6 0-6.6-35.8-.6-71.7-.8-107.5 0-10.3.2-20.6.5-30.9 1-1.9.1-1.9 3 0 3.1zm-2.3 38.1c19.7-.4 39.4 1.9 59.1 1.9 19.5 0 38.9-1.6 58.4-1.7 11-.1 22 .1 33 1.4 4.4.5 4.3-6.4 0-6.8-19.4-2.1-38.9-1-58.3.2-19.6 1.3-39 2.1-58.6 1.4-11.3-.4-22.4-.3-33.6.7-1.9.1-2 3 0 2.9z"/><path class="st42" d="M149.4 146c17.8.5 35.6.1 53.4.1 17.6-.1 35.3-.1 52.9-.1h30.5c.7 0 .7-1.1 0-1.1-35.5 0-70.9 0-106.4.3-10.2.1-20.3.1-30.5.5-.1 0-.1.3.1.3zm2.8-38.1c17 1.3 34.3 1 51.3 1 16.9 0 33.9-.4 50.8-1 9.8-.3 19.6-.8 29.4-1.3.7 0 .7-1.1 0-1.1-34 1.8-68 2.4-102.1 2.2-9.8-.1-19.6-.5-29.4-.3-.3 0-.3.5 0 .5z"/><path class="st42" d="M168.1 87c.2 15.6.5 31.1-.3 46.6-.7 14.5-3.4 29.5-.3 43.9.1.6 1 .3.9-.2-2.7-14.8-.2-29.8.5-44.7.7-15.2.6-30.5-.2-45.6-.1-.3-.6-.4-.6 0zm29.7 3.7c-2.2 14.4-1.8 29.1-1.8 43.6v21.9c0 3.6 0 7.3.1 10.9 0 3.8-.2 7.7.2 11.4.5 4.2 6.1 4.2 6.6 0 .4-3.6.1-7.3.1-10.9v-10.9c-.1-7.5-.1-14.9-.2-22.4-.1-14.5.1-29.2-2.3-43.6-.2-1.3-2.5-1.4-2.7 0zm27.3-2.4c1.4 29.7-1.2 59.5-.3 89.2 0 .6 1 .6 1 0-.3-29.7 2.2-59.6-.3-89.2 0-.3-.4-.4-.4 0zm26.4.3c-.9 3.4-.7 6.9-.3 10.4.4 3.8.6 7.7.6 11.5.1 7.9-.3 15.9-.1 23.8.2 7.6 1.6 15.1 1.8 22.7.2 7.4-.7 14.9 1.1 22.2.1.6 1 .4 1-.1v-1c0-.3-.5-.5-.6-.2-.2.4-.3.7-.4 1.1h1c-1.8-7.4-.8-14.9-1.1-22.4-.3-7.4-1.6-14.8-1.8-22.2-.2-7.5.2-14.9 0-22.4-.1-3.9-.2-7.8-.6-11.6-.4-3.9-1-7.7-.1-11.6 0-.3-.4-.5-.5-.2z"/></g><g class="st41"><path class="st30" d="M208.8 139.3c4.2 1.3 8.8 2.7 12.7-.3 3.7-2.9 2.5-9.6 1-13.4-.1-.3-.5-.2-.4.1.9 4.1 2.5 10.9-2 13.4-3.7 2-7.4.7-11.1-.2-.4-.1-.5.3-.2.4z"/><path d="M202.6 146s-13.3-3.6-27.6-1.4c-14.2 2.2-24.2 14.3-24.2 14.3v11.6h81.5c-6.3-18.9-29.7-24.5-29.7-24.5z" style="fill:#d7dfe5"/><g class="st44"><defs><path id="SVGID_9_" class="st44" d="M202.6 146s-13.3-3.6-27.6-1.4c-14.2 2.2-24.2 14.3-24.2 14.3v11.6h81.5c-6.3-18.9-29.7-24.5-29.7-24.5z"/></defs><clipPath id="SVGID_10_"><use xlink:href="#SVGID_9_" style="overflow:visible"/></clipPath><g style="clip-path:url(#SVGID_10_)"><path class="st46" d="M184.6 157.8c1.9 3.2 4.1 6.2 7.6 7.7 2.6 1.1 5.5 1.5 7.1 4.1 1.3 2.1 1.3 4.6 1.9 6.9.1.3.5.2.5-.1.1-3.5-1.2-7.7-4.4-9.5-2.1-1.2-4.6-1.5-6.6-2.8-2.5-1.6-4.2-4.1-5.8-6.5-.2-.1-.4 0-.3.2z"/><path class="st46" d="M184.2 153.8c1.8 4.7 5.7 7.8 10.1 10.1 2.7 1.5 5.8 2.6 8 4.9 2.3 2.5 2.9 5.8 3.9 8.9.1.3.6.2.5-.1-.8-5.1-3.1-9.3-7.7-11.9-5.7-3.1-11.8-5.6-14.5-12-.1-.1-.4 0-.3.1zm-2.6-6c3.7 5.7 8.7 11.1 15.8 12.1 3.3.4 5.9-.4 8.9-1.7 4.6-1.9 8.8-1.6 13.3.5.4.2.7-.3.3-.6-2.5-1.6-5.5-2.2-8.4-2-3.4.2-6 2.1-9.2 2.9-8.7 2-15.7-5-20.4-11.4-.2-.1-.4 0-.3.2z"/><path class="st46" d="M182.8 148c3.7 4.2 9.1 9.7 15.2 9.8 7.7.1 14.2-6.9 21.8-2.4.3.2.6-.2.4-.5-4.6-4.3-11.6-.7-16.4 1-4.4 1.5-8.2 1.4-12.2-1-3.1-2-6-4.4-8.5-7.1-.2-.2-.5 0-.3.2z"/><path class="st46" d="M183.2 142.1c-.2 5.8 8.1 8.9 12.7 8.7 3.7-.1 7.1-1.7 10.7-2.3 4.7-.7 8.5.8 12.5 3.1.3.2.6-.2.4-.5-4.2-4-10.7-4.1-16-2.7-3.6 1-7.1 2.1-10.9 1.4-3.5-.7-9.1-3.5-9.2-7.7.1-.2-.2-.2-.2 0zm34.2 19c-3.1-.9-9.7-1.5-11.4 2.3-.8 1.8.5 3.9 1.1 5.6 1.2 3.2 1.4 6.2 1 9.5 0 .3.5.4.6.1 1-3.2.2-6.7-1-9.8-.3-.8-1.1-2-1.2-2.8l1.2-3.6c.6-.4 1.3-.6 2-.8 2.5-.7 5-.6 7.5 0 .4 0 .5-.4.2-.5z"/><path class="st46" d="M213.4 177.4c-.7-1.9-1.3-3.8-1.8-5.7-.3-1.1-.6-2.3-.6-3.5 0-2.4 2.2-5.5 4.6-3.1.2.2.5-.1.4-.3-1.1-2.2-4-1.3-5 .6-1.8 3.5.7 8.9 2 12.2.1.1.5 0 .4-.2z"/></g></g><path class="st30" d="M221.9 116.8c.4 3.5.8 7.1 1.2 10.6.4 3.3.7 6.9-1.4 9.5-3.8 4.8-11.9 2.6-15.5-2.2"/><path class="st47" d="m207.5 135-1.3 15.9s-1.3 4.1-7.9 2.6c-5.1-1.1-6.6-7.1-6.6-7.1l3.8-14.1 12 2.7z"/><path class="st47" d="M219.4 111.2c3.4 9-.2 21.6-7 26.5-4 2.9-8.4 2.4-12.5 0-4.6-2.6-8.4-9.6-8.4-18.9.1-12.3 20.9-26.2 27.9-7.6z"/><path class="st30" d="M212.7 98.7c-1.5-.6-3.1-1.1-4.7-1.3-5.5-.8-11 1.5-15.3 4.9-4.2 3.4-6.7 7.4-8.8 12.4-.9 2.2-2 4.4-2.6 6.7-1 3.9-1.4 8.2 1.2 11.7 1.3 1.7 2.3 2.6 4.2 3.5 2.1 1 4.4 1.7 6.7 2.1.5.1 1.1.2 1.6 0 .9-.3 1.4-1.3 1.4-2.2 0-.9-.3-1.8-.5-2.7-1.7-5.8-2.5-12.3-.6-18.1.5-1.7 1.9-3.1 3.2-4.2.1-.1.3-.2.5-.3.4 0 .6.4.8.7.9 1.3 2.8 1.8 4.4 1.5 1.3-.2 2.4-.8 3.6-1.4.5-.3 1-.1 1.3.4.5.9 1.4 1.5 2.4 1.6.8.1 1.6-.1 2.3-.6.5-.3 1.1-.1 1.4.4.2.5.7.8 1.2.8.4 0 .7-.3 1.1-.3.8-.1 1.4.6 1.8 1.3 1 1.8 2.1 5.4 1.9 7.5 0-.4.8-1.1 1-1.5.4-.6.7-1.3.9-2 .4-1.3.6-2.7.7-4.1-.1-6.6-4.7-14.3-11.1-16.8z"/><path class="st47" d="M196.7 130.1s-1.2 2-3.3.9c-3.2-1.6-4.2-6.8-2.1-9 3.3-3.3 5.8 1.3 5.8 2.7"/><path class="st48" d="M193.6 128.6c.6.5 1.9 1.1 2.3.1.4-1-.7-1.2-.9-2-.1-.3 0-.7.1-1 .1-.6.1-1.2-.2-1.7-.3-.5-.9-.8-1.4-.7-.5.1-.8.6-1.1 1.1-.1.2-.2.5 0 .6"/><path d="M189.8 174.8c.5-10-1.5-22.5-5.1-30.9-12.6-.3-27.6 4.8-35.2 15.3v15.3l40.3.3zm23.4-1.1s1.8-17.9-3.1-25c13.3 3.5 23.3 17.7 23.9 23.2.5 5.5-20.8 1.8-20.8 1.8z" style="fill:#8faac8"/><path d="M179.2 144.4s-1.5 12.1-.4 13.5c1.1 1.4 6.9 4.9 6.9 4.9s-6.4-.7-6.4 1.3 3.2 7.3 3.2 7.3m31.5-20.8s7.2 10.1 6.7 12.2l-4.6 1.4s4.8.8 4.6 2.2c-.6 3.3-2.5 6.4-2.5 6.4" style="fill:none;stroke:#00275c;stroke-linejoin:round;stroke-miterlimit:10"/><path class="st30" d="M217.1 123.7c-.1.5-.6.7-1.1.6-.5-.1-.7-.6-.6-1.1.1-.5.6-.7 1.1-.6.4.2.7.6.6 1.1zm-14-3c-.1.5.1.9.6 1.1.5.1.9-.1 1.1-.6.1-.5-.1-.9-.6-1.1-.5-.1-1 .1-1.1.6z"/><path d="M204.1 122.9c-1.4-1.8-5.4-.6-5.7 1.9-.3 2.3 2.5 3.5 4.3 3.2 1-.2 1.8-1.1 2.1-2.2.2-1 0-2.1-.7-2.9zm13.8 3.1c-1.9-1.9-4.5-.5-4.8 1.6-.3 2 2.1 3 3.6 2.7.8-.1 1.5-.9 1.8-1.8.2-.9 0-1.9-.6-2.5z" style="fill:#d86e66"/><path class="st48" d="M211.2 123.8s.7 5.2-.3 5.8c-1.1.6-3.1-.4-3.1-.4"/><path class="st38" d="M206.9 118.6c-.9-1.7-4.2-2.9-6.8-.8m18.5 3.7s-1.7-3-4.5-1.7"/><path class="st10" d="m210.5 132.8-6.6-1.9c-.2-.1-.4.1-.4.2-.3 1-1 4 1.7 5.1 3.4 1.4 5.1-1.7 5.6-2.9 0-.2-.1-.4-.3-.5z"/><path class="st32" d="M207.1 139.7s-5.4.3-8.7-3.1"/><path class="st30" d="M196.9 99.8c-7.6 2.4-13.1 10.9-16 17.8-1.6 3.7-2.9 8.7-1.5 12.7 1.2 3.3 4.4 6 7.9 6.6.3 0 .6-.4.2-.5-3.3-1.4-6.4-3.3-7.4-7-1.2-4.3.6-9.5 2.5-13.4 3-6.2 7.7-13.2 14.5-15.8.1-.1 0-.5-.2-.4z"/></g><path class="st48" d="M207.1 139.6s-5 .6-9.1-3.4"/><path class="st5" d="M132.7 95.9h-15.2c-3.3 0-6.1 2.7-6.1 6.1v7c0 3.3 2.7 6.1 6.1 6.1h25.2c.3 0 .4-.4.2-.6l-4.1-3V102c-.1-3.4-2.8-6.1-6.1-6.1z"/><path class="st2" d="M117 105.5c0-.9.6-1.5 1.4-1.5.8 0 1.4.6 1.4 1.5s-.6 1.5-1.5 1.5c-.7 0-1.3-.7-1.3-1.5zm7.2 0c0-.9.6-1.5 1.4-1.5.8 0 1.4.6 1.4 1.5s-.6 1.5-1.5 1.5c-.7 0-1.3-.7-1.3-1.5zm7.2 0c0-.9.6-1.5 1.4-1.5.8 0 1.4.6 1.4 1.5s-.6 1.5-1.5 1.5c-.8 0-1.3-.7-1.3-1.5z"/><path class="st5" d="M304.4 171.4h45.5c2.9 0 5.2-2.3 5.2-5.2v-70c0-2.9-2.3-5.2-5.2-5.2h-45.5c-2.9 0-5.2 2.3-5.2 5.2v69.9c0 2.9 2.3 5.3 5.2 5.3z"/><path class="st2" d="M301.9 94.8h50.4v72.8h-50.4z"/><defs><path id="SVGID_11_" d="M301.9 94.8h50.4v72.8h-50.4z"/></defs><clipPath id="SVGID_12_"><use xlink:href="#SVGID_11_" style="overflow:visible"/></clipPath><g style="clip-path:url(#SVGID_12_)"><path class="st28" d="M298.4 98.4c5.4.9 11.1.6 16.6.5 5.8 0 11.6-.1 17.5-.2 11.6-.2 23.3-.5 34.9-1 1.8-.1 1.8-2.9 0-2.9-11.6.5-23.3.9-34.9 1.2-5.6.2-11.3.3-17 .4-5.6.1-11.5-.1-17.1.8-.5.3-.5 1.2 0 1.2zm-.8 3.9c11.9 2.1 23.9 0 35.9.3 11.7.4 24 3 35.7.6 1.4-.3 1.1-2.8-.4-2.6-5.9.6-11.7.9-17.6.6-5.9-.3-11.8-.8-17.7-.9-5.9-.1-11.7.6-17.6.9-6.1.3-12.1 0-18.1-.2-.7.1-.9 1.2-.2 1.3zm64.3 5.5c-11.3.6-22.4.5-33.8 0-11.2-.5-22.6-1.3-33.8-.3-1.7.1-1.8 2.8 0 2.7 11.5-.4 22.8-.3 34.3 0 11 .3 22.5.5 33.4-1.2.8-.1.6-1.3-.1-1.2zm-65.7 7.9c12.2.8 24.6.8 36.8 1 6 .1 12 .2 17.9.3 6.3.1 12.7.5 18.9.2 1.7-.1 1.6-2.4 0-2.6-6.1-.4-12.3-.2-18.4-.2-6.1-.1-12.3-.1-18.4-.1-12.3-.1-24.6-.4-36.8.2-.8 0-.8 1.2 0 1.2zm2.2 5.3c5.4 1.3 11.4 1.1 17 1.2 5.9.2 11.9.2 17.8.1 11.9-.1 23.8-.3 35.7-1.2 1.8-.1 1.9-2.9 0-2.9-11.9.4-23.8 1.1-35.7 1.3-5.8.1-11.6.1-17.3.1-5.7 0-11.8-.5-17.5.5-.4.2-.3.8 0 .9zm62.9 6c-5.1-1.1-10.8-.5-16-.5l-17.3-.3c-5.6-.1-11.2-.1-16.8-.2h-8.4c-2.7 0-5.6-.4-8.2.3-1 .3-1 1.8 0 2.1 2.4.7 5.2.4 7.7.4h8.4c5.8 0 11.5 0 17.3-.1 5.6 0 11.2-.1 16.8-.1 5.3 0 11.2.6 16.5-.4.5-.2.5-1.1 0-1.2zm-62.1 7.4c11.3 1.5 22.6-.7 33.9-.9 11.6-.2 23.1 1.8 34.6-.3 1.8-.3 1-3.1-.8-2.7-11.4 2.1-22.9.1-34.3.6-5.4.2-10.7 1-16.1 1.4-5.7.5-11.5.1-17.2.8-.6 0-.9 1-.1 1.1zm-3.5 5.5c12.1.7 24.3.7 36.4.7 6 0 12-.1 18-.1 3 0 6-.1 9-.1 2.8-.1 6.1.3 8.8-.5 1-.3 1.1-1.8 0-2.1-2.6-.7-5.6-.2-8.3-.2-3 .1-6 .1-9 .2l-18.5.3c-12.1.2-24.3.1-36.4.7-.7 0-.7 1 0 1.1zm64.9 3.7c-12-.3-24-.6-36-.8-5.9-.1-11.8-.1-17.8-.1h-8.9c-2.3 0-5.2-.7-7 .9-.3.3-.3.9 0 1.2 1.7 1.5 4.3.9 6.5.9 3 0 5.9 0 8.9-.1 6.1 0 12.2 0 18.2-.2 12-.2 24-.6 36-.9.7 0 .7-.8.1-.9zm-67.2 6.4c12.9.2 25.8-.1 38.6-.5 6.3-.2 12.5-.4 18.8-.7 6.4-.3 12.9-.3 19.2-1.2 1.7-.2 1.2-2.9-.4-2.9-6.2-.1-12.6.7-18.8 1-6.4.3-12.9.6-19.3.9-12.7.6-25.4.9-38.1 1.5-1.2 0-1.3 1.8 0 1.9zm-2.1 5c13.3.7 26.6.1 39.9-.1l19.5-.3c3.3-.1 6.7-.1 10-.2 2.8-.1 6.3.4 8.8-1 .4-.2.4-.9 0-1.1-2.4-1.3-5.6-.7-8.3-.7-3.3.1-6.7.1-10 .2-6.7.2-13.3.3-20 .5-13.3.3-26.7.3-39.9 1.5-.7.1-.8 1.2 0 1.2z" style="opacity:.35"/><path d="M290.3 175.3s8.6-14.5 17.4-19.4c9.1-5.1 48.2-11 57.4 3.7 9.1 14.6 8 21.3 8 21.3l-82.8-5.6z" style="fill:#8e444a"/><path class="st14" d="m323.3 144.1.5 11.2s2 2.6 7.8 1.7c7.4-1.1 8.7-4.7 8.7-4.7l-5.1-15.2"/><path class="st55" d="m317.3 125.3-4.7-4"/><path class="st14" d="M339.6 120.8c-.3-1.2-.8-2.4-1.4-3.5-2.1-3.8-5.8-6.7-10.1-7.4-2.1-.3-4.5 0-6.2 1.2-2.6 1.8-3.9 5.3-5.1 8.1-2.2 5.1-4.7 11.1-4.4 16.7.1 2 .7 3.9 1.9 5.5 1.2 1.5 3 2.4 4.8 3 2.6.8 5.4 1.1 8.1.5 3.4-.7 6.5-2.8 8.7-5.5s3.6-6.1 4.2-9.5c.4-3 .3-6.1-.5-9.1z"/><path class="st56" d="M346.1 134.5c-1.7 2.9-7.9 7.9-10.8 5.4-.6-.5.7-3.6.9-4.2.6-2 1.8-3.9.3-5.8-3.1-4.1-6.2-8.7-6.3-13.8-2.1.3-4.2.8-6.4.9-2.1 0-4.4-.4-6-1.8-1.6-1.4-2.5-3.8-1.6-5.8.4-.9 1.1-1.6 1.8-2.2.2-.2.5-.4.8-.4 1-.3 2 .7 3 1-.6-1.4.2-3.2 1.7-3.7.7-.2 1.4-.1 2.1-.1 2.4.3 4.8.5 7.1 1.1 4.6 1.1 8.9 3.4 12 6.9 5.7 6.2 5.7 15.4 1.4 22.5z"/><path class="st30" d="M327.5 127.5c-.3.2-.3.7 0 .9.2.3.7.3.9 0 .3-.2.3-.7 0-.9-.3-.3-.7-.3-.9 0zm-10-3.6c-.3.2-.3.7 0 .9.2.3.7.3.9 0 .3-.2.3-.7 0-.9-.2-.3-.6-.3-.9 0z"/><path class="st37" d="M330.3 133.3c-.2-1.7-3.2-2.6-4.4-1-1.1 1.4.2 3.3 1.5 3.8.7.3 1.6 0 2.2-.6.6-.6.8-1.5.7-2.2zm-13.2-5.8c-.2-1.5-2.3-2.3-3.4-.9-1 1.2-.3 2.9.8 3.4.6.2 1.4 0 1.9-.5.5-.6.8-1.3.7-2z"/><path class="st32" d="M320.7 126c-1.4 1.7-2.3 3.8-2.6 5.9-.1.6-.1 1.3.3 1.8.3.4.8.6 1.3.6s1-.1 1.4-.3"/><path d="M319.6 122.8c.1-.6-.4-1.5-.9-1.9-.4-.4-1.2-.5-1.6 0m10.1 3.5c1.2-.4 3.7-.7 4.6 2" style="stroke:#5b3005;stroke-linecap:round;stroke-linejoin:round;fill:none;stroke-miterlimit:10"/><path class="st55" d="M312.1 122.9c-.3 2.5 1.4 4.7 3.9 5 2.5.3 4.7-1.4 5-3.9.3-2.5-1.4-4.7-3.9-5-2.5-.3-4.7 1.4-5 3.9z"/><path class="st55" d="M324.5 126c-.2-1.2-2.1-2.4-3.6-1.2m18.2 8.7-4.6-4.8"/><circle transform="rotate(-22.18 329.48 127.288)" class="st55" cx="329.5" cy="127.3" r="5.2"/><path class="st10" d="M318 135.9c1.6.8 4.5 1.1 6.5.7.3-.1.6.1.7.2.8 1.6-.5 4.3-4 4-3.1-.3-5.2-2.2-3.8-4.8 0-.2.3-.3.6-.1z"/><path class="st14" d="M336.1 132.3c1.3-.6 3 .1 3.5 1.5.2.5.2 1.1.1 1.6-.3 2.3-2.2 4.6-4.4 4.9-2.2.3-3.7-1.1-3.5-2.8"/><path class="st37" d="M333.7 136.7c.4-.5 1.1-.5 1.6-.5.2 0 .5-.1.6-.3.1-.2.1-.3.1-.5 0-.4.1-.9.2-1.2.2-.4.5-.7.9-.7 1.7-.1.7 3 .2 3.8-.8 1.3-3.9 2.8-3.9.2.1-.4.2-.6.3-.8z"/><path class="st32" d="M323.3 145.5s5.6 0 10.5-4.1"/><path d="M320.9 152.4s-.9 7.4 8 7.4c7.6 0 14.7-2.5 14.5-9.3m-31.8 11.7-2.4 14.4" style="stroke:#63252c;fill:none;stroke-miterlimit:10"/><path class="st56" d="M337.9 107.3c5.4 3.5 10.6 8.2 11.5 14.9.9 6.4-2.7 11.9-7.4 15.9-.2.2.1.5.3.4 5.2-3.6 8.7-10 7.8-16.3-1-6.9-6.3-11.9-12.2-15.1-.1-.1-.2.1 0 .2zm-19.8.5c-4.1 1.6-4.5 7.2-.6 9.3 3.7 2 9.4.8 12.9-.9.3-.1.1-.6-.2-.5-2.9.7-5.8 1.7-8.8 1.5-1.7-.1-3.6-.5-4.8-1.8-2.2-2.3-1-6 1.7-7.3.2 0 0-.3-.2-.3z"/></g><path class="st5" d="M272.7 131.5h-18.3c-4 0-7.3-3.3-7.3-7.3v-8.4c0-4 3.3-7.3 7.3-7.3h30.3c.4 0 .5.5.2.7l-4.9 3.6v11.4c-.1 4.1-3.3 7.3-7.3 7.3z"/><path class="st28" d="M256.2 116.8c.3-1.8 1.7-3.2 3.5-3.5 2-.3 3.8.7 4.6 2.4.8-1.6 2.6-2.7 4.6-2.4 1.8.3 3.2 1.7 3.5 3.5.2 1.4-.3 2.8-1.2 3.7l-6.1 6.1c-.4.4-1.1.4-1.6 0l-6.1-6.1c-.9-.9-1.4-2.3-1.2-3.7z"/><path class="st24" d="M132.4 359.5h276.8m-386.4 0h76.4m5.1 0h12.5"/></svg>