<svg version="1.1" id="a74b504d-8f27-42fa-9c2d-377300434abb" xmlns="http://www.w3.org/2000/svg" x="0" y="0" viewBox="0 0 1123 672.4" style="enable-background:new 0 0 1123 672.4" xml:space="preserve"><style>.st1{fill:#3f3d56}.st2{opacity:.1;enable-background:new}.st6{fill:#5596e6}.st7{fill:#2f2e41}.st8{fill:#ffb9b9}</style><path d="M923.6 77C794.6-22.5 615-26.5 484.1 70.4 414.9 121.6 361.2 200 371 319.4c3.5 42.2 13.1 76.8 27.1 105.2C454.8 539.5 687.9 535 700.9 535c8.4 0 16.8.2 25.2.6 29.4 1.3 58.6 5 87.4 11.1 41.1 8.6 93.3 12.9 140-3.4 7.9-2.7 15.6-6.1 23.1-10 25.7-13.6 54.4-26.7 71.2-59 12.6-24.3 21.8-54.7 26.2-92.6 16.1-138.2-64.4-238.4-150.4-304.7z" style="fill:#f2f2f2"/><ellipse class="st1" cx="726.6" cy="537.2" rx="369" ry="34.6"/><ellipse class="st2" cx="708.6" cy="537.2" rx="343.2" ry="16.3"/><path d="M898.4 73.3v38.9h-50.6V536h105.6V73.3zM619.8 334.4v-66.8h-64.5v66.8h-24.2v202.3h112.2V334.4z" style="fill:#575a89"/><path class="st1" d="M543.6 442.9h87.3v94.6h-87.3z"/><path class="st2" d="M543.6 442.9h13.9v94.6h-13.9z"/><path class="st1" d="M810.5 52.1v22.7H681.4V52.1h-38.1v485.4h204.5V52.1z"/><path class="st2" d="M810.5 52.1h28.6v22.7h-28.6zm-167.2 0h28.6v485.4h-28.6z"/><path class="st1" d="M497.4 190.7v-18.4h-19.1v18.4h-34.4v346.8h87.2V190.7z"/><path class="st2" d="M478.3 172.3h10.3v18.3h-10.3zm-34.4 18.4h10.3v346.8h-10.3zM810.5 239h28.6v298.4h-28.6zm-305.8-48.3h26.4v63.8h-26.4z"/><path d="M674.8 113.7h41.1v17.6h-41.1zm87.3 181.1h41.1v17.6h-41.1zm-87.3 126.8h41.1v17.6h-41.1zM467.3 269.8h41.1v17.6h-41.1zM567 453.1h41.1v17.6H567z" style="fill:#fc6"/><path class="st2" d="M552.4 349.8h70.4v29.3h-70.4zm307.9-203.9h70.4v29.3h-70.4zm0 62.3h70.4v29.3h-70.4zm0 62.4h70.4v29.3h-70.4zm0 62.3h70.4v29.3h-70.4zm0 62.3h70.4v29.3h-70.4zm0 62.3h70.4v29.3h-70.4z"/><path class="st1" d="M977.6 278.6v-79.9h-51.3v79.9H908v258.9h87.2V278.6z"/><path class="st2" d="M926.3 198.7h16.1v79.9h-16.1zM908 278.6h16.1v258.8H908zm44 129.8h43.3v25.7H952z"/><path style="fill:#ff6584" d="M953.4 370.3h41.1v17.6h-41.1z"/><path class="st6" d="M1123 388.1c0 65.3-38.8 88.1-86.7 88.1s-86.7-22.8-86.7-88.1 86.7-148.4 86.7-148.4 86.7 83 86.7 148.4z"/><path class="st1" d="m1033.1 466.2.9-54.7 37-67.6-36.9 59 .4-24.5 25.5-49-25.4 42.5.8-44.3 27.2-38.9-27.1 32 .4-81.1-2.8 107.3.2-4.4-27.7-42.4 27.3 50.9-2.6 49.4-.1-1.3-32-44.7 31.9 49.3-.3 6.2-.1.1.1.5-6.6 125.3h8.8l1-64.7 31.8-49.2z"/><path class="st6" d="M487.3 388.8c0 65.3-38.8 88.1-86.7 88.1s-86.7-22.8-86.7-88.1 86.7-148.4 86.7-148.4 86.7 83 86.7 148.4z"/><path class="st1" d="m397.4 466.9.9-54.7 37-67.6-36.8 59 .4-24.5 25.4-49-25.3 42.5.7-44.2 27.3-39-27.2 32 .4-81.1-2.8 107.4.3-4.5-27.8-42.4 27.3 50.9-2.6 49.4v-1.3l-32-44.7 31.9 49.3-.4 6.2v.6l-6.6 125.3h8.8l1.1-64.7 31.8-49.2z"/><ellipse class="st1" cx="207" cy="644.4" rx="207" ry="28"/><ellipse class="st2" cx="207" cy="644.4" rx="162" ry="21.9"/><circle class="st7" cx="177.7" cy="201.8" r="44"/><circle class="st8" cx="189.7" cy="216.6" r="24.6"/><path class="st8" d="M176 229.5s6.3 15-3.3 19.2-5.8 28.8-5.8 28.8l37.5-7.9s0-10.4-7.5-15 10-25 10-25H176zm-12.1 110.9 1.2 13.8 56.3 9.6-5.4-25.4zM163 451l2.1 58.4s-10 23.8-2.1 67.6 2.1 55.9 2.1 55.9l28.4 3.8-1.7-16.3-6.7-14.2 2.9-80.9s12.9-30 13.3-35.9-.8-48.4-.8-48.4L163 451z"/><path class="st2" d="m163 451 2.1 58.4s-10 23.8-2.1 67.6 2.1 55.9 2.1 55.9l28.4 3.8-1.7-16.3-6.7-14.2 2.9-80.9s12.9-30 13.3-35.9-.8-48.4-.8-48.4L163 451z"/><path class="st7" d="M171.8 612.8s0-5.4-2.5-5.8-5.8-1.7-5.8 0-.4 13.3-1.3 15-2.5 7.9-1.3 10.4c0 0-3.8 9.6-.8 10.4s19.6.8 19.6.8l.8-4.6s37.1 11.7 45.1 1.3c0 0 3.8-7.5-2.9-9.2 0 0-15 .4-20.4-5.8s-15.9-20.9-15.9-20.9-8.3 1.3-7.5 6.7v1.7h-7.1z"/><path class="st8" d="M186 452.2s4.2 29.2 18.8 50.5c0 0 7.5 17.5 6.3 22.9s-1.3 35 11.3 61.3l11.7 38.4 5.8 13.8 10 4.2 16.3 1.3-9.2-19.2-4.6-10s-8.3-17.1-8.3-32.1-5.4-50.5-5.4-50.5 0-80.1-8.8-85.1-43.9 4.5-43.9 4.5z"/><path class="st7" d="m167.2 350-4.2-.8V368s-1.7 14.6-5.4 17.5-18.4 60.5-13.3 63.8 72.2 20.9 88.4 2.9l-11.3-54.6s.8-37.5 0-37.5-54.2-10.1-54.2-10.1z"/><path class="st6" d="M206.8 265.8s-20.9-14.2-41.7 4.2c0 0-7.5 30.9-8.8 38.4-1.3 7.5-9.2 38.4-3.3 41.3 5.8 2.9 5.8-7.1 20.9-5 15 2.1 47.1 1.3 47.1-1.3 0-2.5-7.5-22.5-4.6-25.9 2.9-3.3 7.9-19.2 2.9-27.1-4.9-7.9-12.5-24.6-12.5-24.6z"/><path class="st8" d="m179.7 350 41.7 19.6s16.7 21.3 20.4 9.2c3.8-12.1-12.5-20.9-12.5-20.9L201.4 342l-21.7 7.1v.9z"/><path class="st2" d="M182.6 269.9s-23.8 73.4-2.1 85.1 25-10.4 25-10.4-14.6-9.2-10-20.4c4.6-11.3 8.8-54.2 8.8-54.2l-21.7-.1z"/><path class="st6" d="M181.4 267.4s-23.8 73.4-2.1 85.1c21.7 11.7 25-10.4 25-10.4s-14.6-9.2-10-20.4c4.6-11.3 8.8-54.2 8.8-54.2h-21.7z"/><path class="st7" d="M238.7 621.4s-.4-5.7-3.1-5.9-6.2-1.3-6.1.5.6 14-.2 15.8-2 8.5-.5 11c0 0-3.2 10.3-.1 11s20.6-.6 20.6-.6l.5-4.9s39.8 9.4 47.3-2.2c0 0 3.4-8.2-3.8-9.4 0 0-15.7 1.6-21.9-4.5s-18.2-20.6-18.2-20.6-8.6 2-7.3 7.6l.1 1.7-7.3.5z"/><ellipse class="st7" cx="189.7" cy="200.6" rx="29.7" ry="15.8"/><ellipse class="st8" cx="165" cy="220.7" rx="4.2" ry="6.6"/><circle class="st7" cx="150.7" cy="157.8" r="20.8"/></svg>