<svg version="1.1" id="ab914baa-e043-4629-9a8e-c3988d23d2a0" xmlns="http://www.w3.org/2000/svg" x="0" y="0" viewBox="0 0 943.1 710" style="enable-background:new 0 0 943.1 710" xml:space="preserve"><style>.st0{fill:#2f2e41}.st2{fill:#3f3d56}.st3{fill:#ff6584}.st4{fill:#5596e6}.st7{fill:#fbbebe}.st8{opacity:.1;enable-background:new}.st9{fill:#f1f1f1}</style><path class="st0" d="M804.8 71.4c-7.1 20.9-17.9 39.9-39.9 39.9S726.2 93.4 725 71.4c-1.6-28.1 17.4-40 39.9-39.9 26.6.1 48.3 15.1 39.9 39.9z"/><path class="st0" d="M725 68.2h78.7v99.7H725z"/><path style="fill:#f2f2f2" d="M595.4 372.8H315.9l-71.6 336.8H667z"/><path class="st2" d="M667 335.9c0 6.1-39.3 11.3-95.2 13.5-15.5.6-32.3 1-49.8 1.1h-10.2c-85.7 0-155.1-6.6-155.1-14.7s69.5-14.7 155.1-14.7S667 327.8 667 335.9z"/><path transform="rotate(-77.994 317.002 522.853)" class="st2" d="M125.9 521.6H508v2.4H125.9z"/><path transform="rotate(-11.993 706.628 522.801)" class="st2" d="M705.5 331.8h2.4v382.1h-2.4z"/><path class="st0" d="M0 707.3h943.1v2.4H0z"/><path class="st3" d="m485.3 337-5-1.6c-17.9-6-29.7-9.9-33.9-19.3-3.4-7.4-.2-16.1 7.1-19.5.1-.1.3-.1.4-.2 4.3-1.9 9.2-1.8 13.4.3 1.3-4.5 4.5-8.2 8.8-10.2 7.4-3.4 16.1-.1 19.5 7.3.1.1.1.3.2.4 4.2 9.4-.8 20.8-8.4 38.1l-2.1 4.7zm86.5 12.5c-15.5.6-32.3 1-49.8 1.1 1.6-2.4 3.8-4.2 6.4-5.4 4.3-1.9 9.2-1.8 13.4.3 1.3-4.5 4.5-8.2 8.8-10.2 7.4-3.4 16.1-.1 19.5 7.3.1.1.1.3.2.4.9 2 1.4 4.2 1.5 6.5zm-82.9-167.7-2.1-1.6c-7.3-5.6-12.2-9.3-12.6-14.3-.4-4 2.5-7.5 6.4-7.9h.2c2.3-.2 4.6.6 6.2 2.3 1.3-1.9 3.4-3.1 5.7-3.3 4-.4 7.5 2.5 7.9 6.5v.2c.4 5-3.7 9.5-9.9 16.3l-1.8 1.8zm31.8-83-2.1-1.6c-7.3-5.6-12.2-9.3-12.6-14.3-.4-4 2.5-7.5 6.4-7.9h.2c2.3-.2 4.6.6 6.2 2.3 1.3-1.9 3.4-3.1 5.7-3.3 4-.4 7.5 2.5 7.9 6.5v.2c.4 5-3.7 9.5-9.9 16.3l-1.8 1.8zm7.4 151.9-.8-4.3c-2.6-15.6-4.4-25.8.9-32.6 4.1-5.4 11.8-6.5 17.2-2.4.1.1.2.1.3.2 3.1 2.4 4.9 6.1 5.1 10 3.8-.8 7.8.1 11 2.5 5.4 4.1 6.4 11.8 2.3 17.2-.1.1-.1.2-.2.3-5.3 6.8-15.6 7.6-31.4 8.8l-4.4.3z"/><path class="st0" d="m155 709.1-2.2-1.1c28.2-54.5 13.1-125.3-4.5-175.1-12-33.5-27.2-65.7-45.5-96.1l2.1-1.3c18.4 30.6 33.8 63 45.8 96.6 17.7 50.2 32.9 121.7 4.3 177z"/><path transform="rotate(-79.642 169.207 479.49)" class="st0" d="M125.1 478.3h88.2v2.4h-88.2z"/><path transform="rotate(-42.937 110.572 554.629)" class="st0" d="M109.3 494.5h2.4v120.1h-2.4z"/><path transform="rotate(-54.139 197.894 635.855)" class="st0" d="M162.5 634.6h70.9v2.4h-70.9z"/><circle class="st4" cx="183.2" cy="400.7" r="12.2"/><circle class="st2" cx="50.1" cy="494.7" r="12.2"/><circle class="st2" cx="103.8" cy="507" r="12.2"/><circle class="st4" cx="79.4" cy="554.6" r="12.2"/><circle class="st2" cx="232.1" cy="585.1" r="12.2"/><circle class="st2" cx="191.8" cy="598.6" r="12.2"/><circle class="st2" cx="219.9" cy="637.7" r="12.2"/><circle class="st2" cx="91.6" cy="415.3" r="12.2"/><path d="M806.1 142.6h6.7s16.4 20.8 8.9 49.1-1.5 33.5-1.5 33.5 9.7 30.6-.7 76.8 9.7 58.7 9.7 58.7l-18.6-37.2-10.4-98.2 5.9-82.7z" style="fill:#0062ff"/><path d="M806.1 142.6h6.7s16.4 20.8 8.9 49.1-1.5 33.5-1.5 33.5 9.7 30.6-.7 76.8 9.7 58.7 9.7 58.7l-18.6-37.2-10.4-98.2 5.9-82.7z" style="fill:#4284c6"/><path class="st7" d="M782.6 106.5s-6 23.8-3 23.8S793 143 793 143l6.7 24.6-5.2 17.9-17.9-3.7-22.3-24.6-6.7-6.7-6-21.6s7.4-8.9 2.2-16.4 38.8-6 38.8-6z"/><path class="st8" d="M782.6 106.5s-6 23.8-3 23.8S793 143 793 143l6.7 24.6-5.2 17.9-17.9-3.7-22.3-24.6-6.7-6.7-6-21.6s7.4-8.9 2.2-16.4 38.8-6 38.8-6z"/><path class="st7" d="m602.5 172.7-16.4-26.8s-17.7-39.1-30.3-25 19.2 42.8 19.2 42.8l16.4 21.6 11.1-12.6zm217.3 232.9-11.9 87.1s1.5 6.7-13.4 31.3-55.1 78.1-55.1 78.1l-11.9-22.3s14.1-70.7 38.7-85.6l-3-107.2 56.6 18.6z"/><path class="st8" d="m819.8 405.6-11.9 87.1s1.5 6.7-13.4 31.3-55.1 78.1-55.1 78.1l-11.9-22.3s14.1-70.7 38.7-85.6l-3-107.2 56.6 18.6z"/><path class="st0" d="m727.5 570.8 16.4 31.3s-13.4 38-8.2 41.7 11.9 37.2-2.2 33.5-25.3-18.6-25.3-20.8 8.2-33.5 3.7-40.9-7.4-9.7-7.4-9.7l-11.2 18.6-3.7-2.2 18.6-31.3s2.2-6 11.2-9.7l8.1-10.5z"/><path class="st8" d="m727.5 570.8 16.4 31.3s-13.4 38-8.2 41.7 11.9 37.2-2.2 33.5-25.3-18.6-25.3-20.8 8.2-33.5 3.7-40.9-7.4-9.7-7.4-9.7l-11.2 18.6-3.7-2.2 18.6-31.3s2.2-6 11.2-9.7l8.1-10.5z"/><path class="st7" d="M763.4 393.3s5.8 82.3-6.9 103.9v107.2l-17.1 2.2s-29-58-16.4-113.9S704.5 387 704.5 387l58.9 6.3z"/><circle class="st7" cx="759.2" cy="93.4" r="31.3"/><path class="st4" d="m790.8 175.7-31.3-39.4-17.9-11.9-7.4 9.7-20.8 6s-13.4 3-27.5 19.3-39.4 26-39.4 26l-20.8-3.7s-24.6-11.2-24.6-14.1-21.6 20.1-16.4 29 16.4 20.1 22.3 26 8.2 23.1 44.7 17.9 49.9-23.1 49.9-23.1 6.7 34.2 26 40.9 82.6 11.2 82.6 11.2l13.4-44.7s14.9-19.3-5.2-47.6c0 0-.4-15.8-2.5-26.3-.8-4.1-1.9-7.4-3.4-8.6-5.2-4.5-32.7-11.9-32.7-11.9s4.5 14.9 6.7 15.6 7.3 25.9 4.3 29.7z"/><path class="st0" d="M690.7 397.8c37.5-2.6 59.3 3.5 69 8.2 1.8.8 3.5 1.9 5.1 3.1.7.6 1.1 1.1 1.1 1.4 0 2.2 51.3 6.7 70 2.2S823.2 312.2 815 304s-3.8-38.1-3.8-38.1-16.3-3.5-20.8-2-27.5-2.2-35.7-6.7-18.6-1.5-25.3-3c-3-.7-4.5.5-5.3 1.9-1.2 2.2-2.9 4-5.1 5.1-15.8 9.1-28.5 72-38 106.8-10.4 38 9.7 29.8 9.7 29.8zm68.8 199.8 3 16.4s15.6 22.3 11.2 40.9c0 0 3.7 24.6 17.1 31.3s2.2 22.3-10.4 21.6-24.6.7-26-3-10.4-40.2-10.4-40.2l-2.4 42.7-7.6.7 2.4-49.4s-6-11.2 2.2-29.8l-2.1-28.6c.1.1 20.8 4.9 23-2.6z"/><path class="st8" d="M759.7 406c1.8.8 3.5 1.9 5.1 3.1.4-7 2.7-49.6-.1-48.9l-5 45.8z"/><path class="st0" d="M746.2 50.4s-.3-1.9-13.9 3.1S710.6 96 717.4 118c2.7 8.9.5 15.3-3.1 19.7-13.6 16.8-8.2 42 11.6 50.6.6.2 1.1.5 1.7.7l8.5 5.1s-10.8-14.2-5.4-32.3c4.7-15.5 5.3-31.9 1.7-47.7-.6-2.7-1.3-5.4-2.1-8.2-6.8-23.7-3.5-21 20.2-44.6 0 0 13.5 10.2 25.4 15.2s22 10.2 13.5 27.1-28.8 32.2-15.2 54.2 15.2 13.5 13.5 22l-1.7 8.5 10.2-10.2-6.8 13.5s22 0 28.8-16.9l3.4 3.4s13.5-23.7-11.8-45.7c0 0-8.5-5.1 3.4-22s2.7-53.3-12.5-60.1-54.5.1-54.5.1z"/><circle class="st0" cx="764.9" cy="24.1" r="15.7"/><path class="st0" d="M746 15.7C746 7.6 752.1.8 760.2 0c-.5-.1-1-.1-1.6-.1-8.7 0-15.7 7.1-15.7 15.7s7.1 15.7 15.7 15.7c.5 0 1.1 0 1.6-.1-8.1-.6-14.2-7.4-14.2-15.5z"/><path class="st3" d="m561 133-2.1-1.6c-7.3-5.6-12.2-9.3-12.6-14.3-.4-4 2.5-7.5 6.4-7.9h.2c2.3-.2 4.6.6 6.2 2.3 1.3-1.9 3.4-3.1 5.7-3.3 4-.4 7.5 2.5 7.9 6.5v.2c.4 5-3.7 9.5-9.9 16.3L561 133z"/><circle class="st9" cx="901.7" cy="494" r="18"/><circle class="st9" cx="400.8" cy="106.7" r="18"/><circle class="st9" cx="226.1" cy="310.7" r="18"/></svg>