<svg xmlns="http://www.w3.org/2000/svg" viewBox="0 0 512 512" style="enable-background:new 0 0 512 512" xml:space="preserve"><circle style="fill:#ffe17d" cx="256.429" cy="255.999" r="248.069"/><circle style="fill:#fff" cx="175.489" cy="207.989" r="32.01"/><circle style="fill:#fff" cx="327.538" cy="183.98" r="72.02"/><path style="fill:#9c6846" d="M255.513 303.778c-47.796 0-93.418-5.549-135.273-15.581-5.422-1.299-10.094 4.364-8.422 10.267 19.303 68.145 76.28 117.58 143.695 117.58s124.392-49.436 143.695-117.58c1.672-5.903-3-11.567-8.422-10.267-41.855 10.031-87.478 15.581-135.273 15.581z"/><path style="fill:#7d5046" d="M390.787 288.197c-41.856 10.032-87.479 15.581-135.274 15.581s-93.418-5.549-135.273-15.581c-5.422-1.299-10.094 4.364-8.422 10.268 5.053 17.838 12.741 34.345 22.468 49.068 39.769 7.555 80.228 11.71 121.244 11.71 41.004 0 81.448-4.153 121.204-11.702 9.73-14.725 17.421-31.235 22.474-49.076 1.673-5.904-2.999-11.567-8.421-10.268z"/><path style="fill:#e6646e" d="m376.741 321.96-17.573-17.573-131.232 27.204 69.588 69.588c21.875 21.875 57.343 21.875 79.218 0 21.875-21.877 21.875-57.343-.001-79.219z"/><path style="fill:#ffd164" d="M292.44 468.059c-137.005 0-248.07-111.064-248.07-248.07 0-59.33 20.855-113.773 55.598-156.461C44.082 109.015 8.36 178.326 8.36 256c0 137.004 111.064 248.07 248.07 248.07 77.676 0 146.986-35.723 192.472-91.609-42.688 34.743-97.132 55.598-156.462 55.598z"/><path style="fill:#dc4655" d="M255.587 359.241c35.638-.003 70.854-3.143 105.563-8.923 10.202-1.699 19.169-8.036 24.02-17.171l.08-.15c-2.335-3.927-5.128-7.658-8.507-11.038l-17.572-17.573-131.233 27.204 27.649 27.651z"/><path style="fill:#fff" d="M363.121 315.526c4.325-7.412 7.945-15.354 10.98-23.622-37.195 7.676-77.068 11.874-118.587 11.874-41.545 0-81.441-4.202-118.654-11.887 3.051 8.308 6.729 16.264 11.083 23.707 5.034 8.605 13.557 14.109 22.829 15.237 27.761 3.377 56.055 5.189 84.742 5.189 28.682 0 56.969-1.81 84.725-5.186 9.301-1.132 17.84-6.673 22.882-15.312z"/><path d="M15.109 248.713c1.833-61.604 26.857-119.542 70.459-163.145C129.171 41.965 187.11 16.943 248.713 15.11c61.333-1.834 120.401 19.43 166.327 59.852a7.498 7.498 0 0 0 10.585-.675 7.499 7.499 0 0 0-.675-10.585C376.159 20.759 313.409-1.82 248.267.116c-65.44 1.948-126.988 28.529-173.305 74.847C28.644 121.279 2.063 182.827.115 248.267-1.824 313.414 20.757 376.16 63.7 424.95a7.478 7.478 0 0 0 5.633 2.545 7.5 7.5 0 0 0 5.627-12.455c-40.422-45.925-61.677-104.994-59.851-166.327zM448.3 87.05a7.5 7.5 0 0 0-11.26 9.91c40.421 45.926 61.677 104.994 59.852 166.327-1.833 61.603-26.856 119.542-70.459 163.145s-101.541 68.626-163.145 70.459c-61.338 1.824-120.401-19.43-166.327-59.851a7.5 7.5 0 0 0-9.91 11.26C133.904 489.539 193.63 512 255.992 512c2.576 0 5.158-.039 7.742-.116 65.441-1.948 126.988-28.529 173.305-74.846 46.318-46.317 72.899-107.865 74.847-173.305 1.937-65.145-20.644-127.892-63.586-176.683z"/><path d="M403.388 285.048c-3.594-3.744-8.694-5.272-13.641-4.085-42.644 10.221-87.651 15.403-133.775 15.403s-91.132-5.182-133.775-15.403c-4.945-1.187-10.046.341-13.641 4.084-3.888 4.049-5.329 10.003-3.761 15.539 10.025 35.392 29.502 65.898 56.324 88.221 27.537 22.919 60.337 35.033 94.853 35.033 16.375 0 32.496-2.769 47.95-8.216 10.038 6.326 21.664 9.729 33.82 9.729 16.994 0 32.97-6.618 44.986-18.634 19.881-19.881 23.811-49.748 11.824-73.596a186.931 186.931 0 0 0 12.598-32.539c1.566-5.533.125-11.487-3.762-15.536zm-39.356 16.655a121.06 121.06 0 0 1-6.573 11.684c-3.729 5.832-10.246 9.789-17.435 10.587-28.071 3.116-56.351 4.696-84.053 4.696-27.711 0-55.997-1.581-84.072-4.698-7.171-.796-13.669-4.731-17.384-10.526a121.286 121.286 0 0 1-6.62-11.746c34.942 6.41 71.167 9.665 108.075 9.665 36.905.001 73.124-3.253 108.062-9.662zm8.088 94.411c-9.183 9.183-21.392 14.24-34.379 14.24-12.987 0-25.196-5.057-34.379-14.24l-33.89-33.89a7.5 7.5 0 0 0-10.606 0 7.5 7.5 0 0 0 0 10.606l31.376 31.376a128.81 128.81 0 0 1-34.271 4.634c-30.968 0-60.45-10.914-85.258-31.562-24.136-20.088-42.421-48.777-51.487-80.78-.104-.368-.058-.642.01-.821 3.532.843 7.085 1.639 10.648 2.415 3.273 8.23 7.305 16.118 12.003 23.448 6.132 9.567 16.733 16.049 28.357 17.34 28.623 3.178 57.466 4.79 85.727 4.79 16.965 0 34.142-.592 51.355-1.745l30.782 30.782a7.478 7.478 0 0 0 5.303 2.197 7.474 7.474 0 0 0 5.303-2.197 7.5 7.5 0 0 0 0-10.606l-21.743-21.743a787.94 787.94 0 0 0 14.708-1.476c10.702-1.188 20.529-6.788 26.824-15.144l3.618 3.618c9.183 9.183 14.24 21.392 14.24 34.379 0 12.988-5.058 25.196-14.241 34.379zm10.607-79.364-6.305-6.305a139.72 139.72 0 0 0 5.609-12.346 545.833 545.833 0 0 0 10.675-2.421c.068.179.114.453.011.82a172.61 172.61 0 0 1-8.022 22.322 65.931 65.931 0 0 0-1.968-2.07zM215.369 207.869c0-21.818-17.75-39.568-39.568-39.568s-39.568 17.75-39.568 39.568 17.75 39.568 39.568 39.568 39.568-17.75 39.568-39.568zm-64.136 0c0-13.547 11.021-24.568 24.568-24.568s24.568 11.021 24.568 24.568-11.021 24.568-24.568 24.568-24.568-11.021-24.568-24.568z"/><path d="M183.301 211.878v-8.017a7.5 7.5 0 0 0-15 0v8.017a7.5 7.5 0 0 0 15 0zm144.823-43.576a7.5 7.5 0 0 0-7.5 7.5v16.034a7.5 7.5 0 0 0 15 0v-16.034a7.5 7.5 0 0 0-7.5-7.5z"/><path d="M328.124 104.165c-43.921 0-79.654 35.732-79.654 79.654 0 43.921 35.732 79.653 79.654 79.653 43.921 0 79.652-35.732 79.652-79.653s-35.731-79.654-79.652-79.654zm0 144.306c-35.65 0-64.654-29.003-64.654-64.653s29.003-64.654 64.654-64.654c35.65 0 64.653 29.003 64.653 64.654 0 35.65-29.003 64.653-64.653 64.653z"/></svg>