<svg xmlns="http://www.w3.org/2000/svg" viewBox="0 0 512 512" style="enable-background:new 0 0 512 512" xml:space="preserve"><circle style="fill:#ffe17d" cx="256.017" cy="256.038" r="248.479"/><path style="fill:#ffd164" d="M292.089 468.443c-137.231 0-248.479-111.248-248.479-248.479 0-59.428 20.889-113.961 55.69-156.72C43.321 108.806 7.541 178.23 7.541 256.033c0 137.23 111.247 248.479 248.479 248.479 77.803 0 147.229-35.781 192.789-91.761-42.758 34.802-97.291 55.692-156.72 55.692z"/><path style="fill:#9c6846" d="M255.962 371.908c27.468 0 53.687 2.954 77.741 8.294 3.116.692 5.8-2.323 4.84-5.466-11.093-36.277-43.837-62.595-82.581-62.595s-71.488 26.317-82.581 62.595c-.961 3.143 1.724 6.157 4.84 5.466 24.055-5.341 50.273-8.294 77.741-8.294z"/><path style="fill:#a5cdff" d="M79.68 424.358c26.561 0 48.093-21.532 48.093-48.093 0-39.644-32.678-90.179-44.161-106.713-1.905-2.743-5.958-2.743-7.863 0-11.482 16.534-44.161 67.069-44.161 106.713-.001 26.561 21.532 48.093 48.092 48.093z"/><path style="fill:#8cb4eb" d="M54.259 385.001c0-29.125 17.629-78.115 31.543-112.25a337.944 337.944 0 0 0-2.19-3.198c-1.906-2.744-5.958-2.744-7.863 0-11.483 16.534-44.161 67.069-44.161 106.713 0 24.668 18.643 44.764 42.567 47.536-12.007-8.745-19.896-22.81-19.896-38.801z"/><path style="fill:#7d5046" d="M255.962 336.188c23.954 0 46.605 3.204 66.975 8.834-15.876-20.054-39.953-32.88-66.974-32.88-27.023 0-51.1 12.825-66.974 32.88 20.369-5.631 43.019-8.834 66.973-8.834z"/><path style="fill:#c4deff" d="M256.02 146.489c105.234 0 197.056 57.17 246.287 142.103 1.396-10.663 2.192-21.514 2.192-32.558 0-137.231-111.247-248.479-248.479-248.479S7.541 118.802 7.541 256.034c0 11.044.796 21.895 2.192 32.558 49.231-84.933 141.053-142.103 246.287-142.103z"/><path style="fill:#a5cdff" d="M43.61 219.965c0-59.428 20.889-113.961 55.69-156.72C43.321 108.806 7.541 178.23 7.541 256.033c0 11.043.796 21.895 2.192 32.557v.001c9.929-17.13 21.666-33.06 34.821-47.691-.577-6.909-.944-13.877-.944-20.935z"/><path style="fill:#7d5046" d="M340.182 264.049c-11.067 0-20.038-8.971-20.038-20.038V227.98c0-11.067 8.971-20.038 20.038-20.038s20.038 8.971 20.038 20.038v16.031c.001 11.067-8.971 20.038-20.038 20.038z"/><path style="fill:#9c6846" d="M360.221 227.98c0-12.378-11.221-22.133-24.046-19.649v15.642c0 13.281 10.766 24.046 24.046 24.046V227.98z"/><path style="fill:#7d5046" d="M171.858 264.049c-11.067 0-20.038-8.971-20.038-20.038V227.98c0-11.067 8.971-20.038 20.038-20.038s20.038 8.971 20.038 20.038v16.031c.001 11.067-8.971 20.038-20.038 20.038z"/><path style="fill:#9c6846" d="M191.897 227.98c0-12.378-11.221-22.133-24.046-19.649v15.642c0 13.281 10.766 24.046 24.046 24.046V227.98z"/><path d="M171.848 271.549c15.186 0 27.54-12.354 27.54-27.54v-12.025a7.5 7.5 0 0 0-14.998 0v12.025c0 6.915-5.626 12.541-12.541 12.541s-12.541-5.626-12.541-12.541v-16.033c0-6.915 5.626-12.541 12.541-12.541a7.5 7.5 0 0 0 0-14.998c-15.186 0-27.54 12.354-27.54 27.54v16.033c-.001 15.185 12.354 27.539 27.539 27.539zm195.885-27.539v-12.025a7.5 7.5 0 0 0-14.998 0v12.025c0 6.915-5.626 12.541-12.541 12.541s-12.542-5.626-12.542-12.541v-16.033c0-6.915 5.627-12.541 12.542-12.541a7.5 7.5 0 0 0 0-14.998c-15.186 0-27.541 12.354-27.541 27.54v16.033c0 15.186 12.355 27.54 27.541 27.54s27.539-12.356 27.539-27.541z"/><path d="M448.305 87.097a7.5 7.5 0 0 0-11.259 9.909c40.418 45.922 61.672 104.986 59.847 166.314-1.833 61.598-26.854 119.533-70.453 163.132-85.706 85.706-222.422 94.331-318.013 20.065a7.498 7.498 0 0 0-10.523 1.321 7.499 7.499 0 0 0 1.321 10.523c46.231 35.917 101.515 53.584 156.619 53.584 65.933 0 131.609-25.296 181.201-74.89 46.314-46.313 72.893-107.857 74.841-173.291 1.937-65.139-20.642-127.881-63.581-176.667zm-251.076 51.46c-2.912-2.932-7.656-2.946-10.597-.043-.231.228-23.724 22.987-76.938 38.191a7.5 7.5 0 0 0 2.056 14.712c.682 0 1.376-.094 2.064-.291 57.324-16.378 82.368-40.951 83.406-41.989a7.488 7.488 0 0 0 .009-10.58z"/><path d="M179.867 387.566c24.261-5.387 49.873-8.117 76.124-8.117 26.252 0 51.865 2.731 76.125 8.117a11.78 11.78 0 0 0 2.552.282c3.184 0 6.227-1.316 8.469-3.741 2.846-3.078 3.849-7.492 2.617-11.521-12.421-40.618-48.494-67.908-89.763-67.908s-77.341 27.29-89.762 67.907c-1.232 4.029-.23 8.443 2.615 11.521 2.837 3.068 6.958 4.362 11.023 3.46zm76.124-67.89c32.824 0 61.765 20.683 73.619 52.022-23.603-4.811-48.339-7.248-73.619-7.248s-50.016 2.438-73.619 7.248c11.855-31.339 40.795-52.022 73.619-52.022z"/><path d="M135.286 376.308c0-20.43-7.817-45.506-23.236-74.533a7.5 7.5 0 1 0-13.246 7.036c14.055 26.458 21.483 49.798 21.483 67.495 0 22.386-18.212 40.599-40.6 40.599S39.09 398.693 39.09 376.307c0-35.08 28.021-80.538 40.607-99.184.79 1.167 1.639 2.439 2.537 3.805a7.499 7.499 0 0 0 10.386 2.147 7.498 7.498 0 0 0 2.147-10.386c-5.288-8.043-8.926-12.907-9.079-13.11a7.499 7.499 0 0 0-11.998 0c-1.564 2.085-30.275 40.716-43.283 81.241-14.846-39.411-19.076-81.866-12.189-123.964 8.17-49.946 31.472-95.328 67.385-131.241 43.599-43.599 101.534-68.62 163.132-70.453 61.33-1.829 120.392 19.428 166.314 59.847a7.497 7.497 0 0 0 10.584-.675 7.498 7.498 0 0 0-.675-10.584C376.171 20.81 313.427-1.764 248.288.169 182.853 2.117 121.31 28.696 74.997 75.01c-38.148 38.148-62.9 86.36-71.581 139.425-8.478 51.823-1.102 104.164 21.327 151.39-.419 3.544-.65 7.047-.65 10.484 0 30.656 24.941 55.597 55.597 55.597s55.596-24.941 55.596-55.598z"/><path d="M400.348 191.416a7.503 7.503 0 0 0 7.207-5.441 7.499 7.499 0 0 0-5.151-9.271c-53.214-15.204-76.707-37.963-76.921-38.174a7.498 7.498 0 0 0-10.605 0 7.498 7.498 0 0 0 0 10.605c1.038 1.038 26.082 25.612 83.407 41.989.687.198 1.38.292 2.063.292z"/></svg>