<svg xmlns="http://www.w3.org/2000/svg" viewBox="0 0 512 512" style="enable-background:new 0 0 512 512" xml:space="preserve"><circle style="fill:#ffe17d" cx="256" cy="256" r="248.5"/><path style="fill:#ffd164" d="M292.073 468.428c-137.243 0-248.5-111.258-248.5-248.5 0-59.433 20.891-113.971 55.695-156.733C43.284 108.76 7.5 178.19 7.5 256c0 137.242 111.257 248.5 248.5 248.5 77.81 0 147.242-35.784 192.806-91.769-42.761 34.805-97.3 55.697-156.733 55.697z"/><path style="fill:#9c6846" d="M256 303.861c-47.878 0-93.58-5.559-135.509-15.608-5.431-1.302-10.112 4.372-8.436 10.285C131.392 366.801 188.467 416.323 256 416.323s124.608-49.521 143.945-117.785c1.675-5.914-3.005-11.587-8.436-10.285-41.929 10.049-87.631 15.608-135.509 15.608z"/><path style="fill:#7d5046" d="M391.509 288.253C349.58 298.302 303.879 303.86 256 303.86s-93.58-5.559-135.508-15.608c-5.431-1.301-10.112 4.372-8.436 10.285 5.061 17.869 12.763 34.405 22.507 49.153 39.838 7.568 80.367 11.731 121.455 11.731 41.075 0 81.589-4.16 121.415-11.722 9.747-14.75 17.451-31.289 22.513-49.161 1.674-5.914-3.006-11.587-8.437-10.285z"/><path style="fill:#fff" d="M363.795 315.629c4.333-7.425 7.958-15.381 10.999-23.663-37.26 7.689-77.202 11.894-118.794 11.894-41.617 0-81.582-4.209-118.861-11.907 3.056 8.322 6.741 16.292 11.102 23.748 5.043 8.62 13.58 14.133 22.868 15.263 27.809 3.383 56.152 5.197 84.89 5.197 28.732 0 57.068-1.813 84.871-5.195 9.32-1.133 17.874-6.683 22.925-15.337z"/><path style="fill:#a5cdff" d="M21.587 362.155c-18.783-18.783-18.783-49.236 0-68.019 28.035-28.035 86.881-40.663 106.693-44.235 3.287-.593 6.153 2.273 5.561 5.561-3.572 19.812-16.2 78.659-44.235 106.693-18.783 18.783-49.236 18.783-68.019 0z"/><path style="fill:#8cb4eb" d="M47.475 360.316c-18.783-18.783-18.783-49.236 0-68.019 14.464-14.464 40.564-28.254 65.79-39.339-26.017 5.863-68.959 18.46-91.677 41.178-18.783 18.783-18.783 49.236 0 68.019 13.546 13.546 33.124 17.167 50.055 11.174-8.852-1.844-17.298-6.142-24.168-13.013z"/><path style="fill:#a5cdff" d="M490.413 362.155c18.783-18.783 18.783-49.236 0-68.019-28.035-28.035-86.881-40.663-106.693-44.235-3.287-.593-6.153 2.273-5.561 5.561 3.572 19.812 16.2 78.659 44.235 106.693 18.783 18.783 49.236 18.783 68.019 0z"/><path style="fill:#8cb4eb" d="M444.604 352.3c-20.596-20.596-42.774-67.708-57.074-101.686-1.38-.265-2.675-.508-3.81-.713-3.288-.593-6.154 2.273-5.561 5.561 3.572 19.812 16.2 78.659 44.234 106.693 17.444 17.444 44.839 18.472 63.718 3.514-14.674 2.307-30.199-2.061-41.507-13.369z"/><path d="M139.076 229.753a7.5 7.5 0 0 0 10.544-1.147c6.758-8.408 16.314-13.231 26.219-13.231 9.904 0 19.46 4.823 26.219 13.231a7.485 7.485 0 0 0 5.851 2.802 7.5 7.5 0 0 0 5.841-12.199c-9.621-11.969-23.438-18.833-37.91-18.833-14.473 0-28.29 6.865-37.91 18.833a7.497 7.497 0 0 0 1.146 10.544zm67.775-80.777a7.499 7.499 0 0 0-9.749-4.178l-80.162 32.064a7.5 7.5 0 0 0 5.571 13.928l80.162-32.065a7.5 7.5 0 0 0 4.178-9.749zm129.31 51.399c-14.472 0-28.29 6.865-37.91 18.833a7.499 7.499 0 0 0 1.147 10.544 7.465 7.465 0 0 0 4.694 1.655 7.486 7.486 0 0 0 5.851-2.802c6.759-8.408 16.315-13.231 26.219-13.231s19.46 4.823 26.219 13.231a7.5 7.5 0 0 0 11.691-9.398c-9.621-11.967-23.438-18.832-37.911-18.832zm56.111-9.047a7.502 7.502 0 0 0 6.966-4.717 7.5 7.5 0 0 0-4.178-9.749l-80.162-32.064a7.499 7.499 0 0 0-9.749 4.178 7.5 7.5 0 0 0 4.178 9.749l80.162 32.065a7.464 7.464 0 0 0 2.783.538z"/><path d="M512 327.311a55.452 55.452 0 0 0-4.693-22.39c7.256-37.51 6.013-76.816-3.63-113.753-10.003-38.313-29.149-74.31-55.369-104.1a7.5 7.5 0 0 0-11.26 9.91c25.032 28.441 42.566 61.406 52.115 97.979 7.82 29.951 9.761 61.557 5.791 92.314-14.495-14.127-37.476-26.086-68.369-35.544-3.965-1.214-8.155 1.015-9.367 4.976s1.015 8.154 4.976 9.367c28.645 8.77 50.401 20.02 62.916 32.534 7.668 7.668 11.891 17.862 11.891 28.706s-4.223 21.039-11.891 28.707c-7.667 7.667-17.862 11.89-28.706 11.89s-21.039-4.223-28.707-11.89c-24.804-24.805-37.133-76.759-41.418-98.843 1.383.268 2.882.565 4.482.896a7.5 7.5 0 0 0 3.037-14.69c-9.425-1.949-15.438-2.814-15.69-2.851a7.503 7.503 0 0 0-8.486 8.486c.199 1.391 2.33 15.869 7.296 34.846-38.81 8.292-79.451 12.499-120.919 12.499-41.469 0-82.109-4.207-120.919-12.499 4.966-18.977 7.097-33.456 7.296-34.846a7.502 7.502 0 0 0-8.486-8.486c-.251.036-6.265.902-15.69 2.851a7.5 7.5 0 0 0 3.037 14.69c1.602-.331 3.103-.63 4.487-.897-4.275 22.076-16.585 74.005-41.423 98.844-7.668 7.667-17.863 11.89-28.707 11.89s-21.039-4.223-28.706-11.89C19.223 348.35 15 338.155 15 327.311s4.223-21.038 11.891-28.706c12.521-12.521 34.293-23.776 62.963-32.549a7.5 7.5 0 0 0-4.388-14.344c-30.89 9.452-53.873 21.402-68.378 35.52-9.683-74.061 15.338-148.454 68.528-201.645 43.598-43.597 101.53-68.617 163.126-70.451 61.331-1.825 120.388 19.429 166.308 59.845a7.499 7.499 0 0 0 10.585-.675 7.499 7.499 0 0 0-.675-10.585C376.176 20.784 313.442-1.799 248.296.143 182.863 2.091 121.322 28.668 75.009 74.981c-60.247 60.247-86.472 146.098-70.263 229.82A55.452 55.452 0 0 0 0 327.311c0 14.851 5.783 28.812 16.284 39.313a55.696 55.696 0 0 0 14.075 10.239 255.842 255.842 0 0 0 33.39 48.069 7.478 7.478 0 0 0 5.633 2.545 7.5 7.5 0 0 0 5.627-12.455 241.436 241.436 0 0 1-23.952-32.311c1.503.121 3.015.197 4.539.197 14.851 0 28.812-5.783 39.313-16.284 8.983-8.983 16.431-20.775 22.557-33.422C145.219 388.777 198 423.823 256 423.823c57.902 0 110.772-35.074 138.534-90.621 6.126 12.647 13.574 24.439 22.557 33.422 10.501 10.501 24.462 16.284 39.313 16.284a56.48 56.48 0 0 0 4.685-.208 241.81 241.81 0 0 1-34.646 43.713c-43.598 43.597-101.53 68.617-163.126 70.451-61.311 1.822-120.388-19.427-166.308-59.844a7.5 7.5 0 0 0-9.91 11.26c46.849 41.234 106.568 63.693 168.923 63.693 2.576 0 5.157-.038 7.741-.115 65.434-1.948 126.975-28.525 173.287-74.838 17.886-17.886 32.934-38.15 44.759-60.24a55.695 55.695 0 0 0 13.909-10.156C506.217 356.123 512 342.161 512 327.311zm-147.957-25.604a121.167 121.167 0 0 1-6.567 11.673c-3.728 5.831-10.244 9.788-17.432 10.586-28.07 3.116-56.346 4.695-84.044 4.695-27.704 0-55.987-1.58-84.062-4.697-7.17-.797-13.668-4.731-17.381-10.525a121.347 121.347 0 0 1-6.614-11.734c34.952 6.409 71.194 9.656 108.058 9.656 36.857 0 73.095-3.246 108.042-9.654zM256 408.823c-56.274 0-107.22-36.958-130.54-94.38a285.82 285.82 0 0 0 5.091-14.814c3.158 7.676 6.974 15.038 11.375 21.905 6.132 9.566 16.731 16.048 28.355 17.339 28.624 3.178 57.463 4.789 85.718 4.789 28.249 0 57.082-1.61 85.699-4.787 11.647-1.293 22.27-7.803 28.415-17.414a137.9 137.9 0 0 0 11.329-21.849 287.306 287.306 0 0 0 5.098 14.836c-23.313 57.386-74.36 94.375-130.54 94.375z"/></svg>