<svg xmlns="http://www.w3.org/2000/svg" viewBox="0 0 512 512" style="enable-background:new 0 0 512 512" xml:space="preserve"><circle style="fill:#ffe17d" cx="255.999" cy="256" r="248.499"/><path style="fill:#ffd164" d="M292.073 468.427c-137.242 0-248.499-111.257-248.499-248.499 0-59.433 20.891-113.97 55.695-156.732C43.284 108.761 7.501 178.191 7.501 256.001 7.501 393.242 118.757 504.5 256 504.5c77.81 0 147.241-35.784 192.805-91.768-42.761 34.804-97.3 55.695-156.732 55.695z"/><path style="fill:#9c6846" d="M255.943 317.922c-45.238 0-88.418-4.865-128.033-13.66-5.132-1.139-9.554 3.826-7.971 9.002 18.27 59.746 72.197 103.087 136.004 103.087s117.734-43.342 136.004-103.087c1.583-5.176-2.84-10.141-7.971-9.002-39.616 8.794-82.796 13.66-128.033 13.66z"/><path style="fill:#7d5046" d="M256.018 352.194c41.972 0 83.375-3.971 124.114-11.081 4.789-8.784 8.823-18.068 11.814-27.849 1.583-5.176-2.839-10.141-7.971-9.002-39.615 8.795-82.796 13.66-128.033 13.66s-88.418-4.865-128.033-13.66c-5.131-1.139-9.554 3.826-7.971 9.002 2.988 9.771 7.018 19.046 11.8 27.822 40.792 7.128 82.251 11.108 124.28 11.108z"/><path style="fill:#e6646e" d="M182.901 247.762c13.626-17.131 45.886-63.123 27.487-94.386-7.113-12.086-21.108-18.982-35.04-17.389-11.315 1.293-20.394 7.238-26.091 15.416a9.089 9.089 0 0 1-10.431 3.417c-9.431-3.223-20.268-2.644-30.155 3.008-12.174 6.96-19.377 20.799-17.961 34.751 3.664 36.09 56.883 54.083 78.003 59.832a13.595 13.595 0 0 0 14.188-4.649zm146.197 0c-13.626-17.131-45.886-63.123-27.487-94.386 7.113-12.086 21.108-18.982 35.04-17.389 11.315 1.293 20.394 7.238 26.091 15.416a9.089 9.089 0 0 0 10.431 3.417c9.431-3.223 20.268-2.644 30.155 3.008 12.174 6.96 19.377 20.799 17.961 34.751-3.664 36.09-56.883 54.083-78.003 59.832a13.595 13.595 0 0 1-14.188-4.649z"/><path style="fill:#dc4655" d="M189.89 231.477c-21.121-5.749-74.34-23.742-78.004-59.832-.572-5.631.319-11.219 2.316-16.369-1.865.704-3.717 1.514-5.533 2.552-12.174 6.959-19.377 20.799-17.961 34.751 3.664 36.09 56.883 54.083 78.004 59.832a13.59 13.59 0 0 0 14.188-4.648 225.4 225.4 0 0 0 11.523-15.917c-1.503.109-3.027.041-4.533-.369z"/><path style="fill:#e6646e" d="M329.098 247.762c-13.626-17.131-45.886-63.123-27.487-94.386 7.113-12.086 21.108-18.982 35.04-17.389 11.315 1.293 20.394 7.238 26.091 15.416a9.089 9.089 0 0 0 10.431 3.417c9.431-3.223 20.268-2.644 30.155 3.008 12.174 6.96 19.377 20.799 17.961 34.751-3.664 36.09-56.883 54.083-78.003 59.832a13.595 13.595 0 0 1-14.188-4.649z"/><path style="fill:#dc4655" d="M356.018 242.862c-13.626-17.131-45.886-63.124-27.487-94.386 2.845-4.833 6.819-8.787 11.421-11.75-1.112-.228-2.141-.607-3.3-.74-13.933-1.592-27.928 5.304-35.04 17.389-18.399 31.264 13.861 77.256 27.487 94.386a13.59 13.59 0 0 0 14.188 4.648 226.291 226.291 0 0 0 17.889-5.717c-1.958-.869-3.772-2.087-5.158-3.83z"/><path d="M15.108 248.714c1.833-61.604 26.857-119.542 70.459-163.145C129.17 41.966 187.109 16.943 248.712 15.11c61.338-1.826 120.4 19.43 166.327 59.852a7.5 7.5 0 1 0 9.91-11.26C376.159 20.759 313.406-1.821 248.267.116c-65.44 1.947-126.988 28.528-173.305 74.846C28.644 121.28 2.063 182.827.115 248.268-1.824 313.413 20.757 376.161 63.7 424.951a7.478 7.478 0 0 0 5.633 2.545 7.5 7.5 0 0 0 5.627-12.455c-40.422-45.926-61.677-104.996-59.852-166.327zM448.3 87.052a7.5 7.5 0 1 0-11.26 9.91c40.421 45.925 61.677 104.994 59.852 166.326-1.833 61.604-26.856 119.542-70.459 163.145s-101.541 68.626-163.145 70.459c-61.336 1.822-120.401-19.43-166.327-59.852a7.5 7.5 0 0 0-9.91 11.26C133.905 489.539 193.63 512 255.992 512c2.577 0 5.158-.038 7.742-.115 65.441-1.948 126.988-28.529 173.305-74.846 46.318-46.317 72.899-107.865 74.847-173.305 1.937-65.146-20.644-127.894-63.586-176.682z"/><path d="M382.394 296.917c-40.301 8.947-82.836 13.484-126.423 13.484s-86.122-4.537-126.423-13.484c-4.989-1.107-10.051.484-13.539 4.255-3.573 3.864-4.78 9.196-3.231 14.262 9.539 31.192 28.047 58.062 53.525 77.704 26.053 20.086 57.06 30.703 89.667 30.703s63.615-10.617 89.668-30.703c25.478-19.642 43.986-46.512 53.525-77.705 1.549-5.066.341-10.398-3.231-14.262-3.488-3.772-8.548-5.36-13.538-4.254zm-45.914 84.342c-23.405 18.044-51.245 27.582-80.51 27.582s-57.104-9.538-80.51-27.582c-22.467-17.321-39.528-41.963-48.108-69.465 41.054 9.03 84.318 13.607 128.617 13.607s87.565-4.577 128.618-13.607c-8.576 27.496-25.638 52.143-48.107 69.465zM166.761 259.617a21.056 21.056 0 0 0 22.029-7.216c15.315-19.254 48.71-67.823 28.084-102.869-8.536-14.504-25.559-22.959-42.359-21.039-12.929 1.477-24.079 8.077-31.397 18.583a1.585 1.585 0 0 1-1.852.606c-12.116-4.14-25.01-2.864-36.307 3.594-14.681 8.393-23.402 25.28-21.702 42.023 4.108 40.458 59.765 59.856 83.504 66.318zm-54.356-95.319c4.627-2.645 9.643-3.986 14.681-3.986 3.131 0 6.271.519 9.331 1.564 6.978 2.385 14.797-.176 19.012-6.228 4.82-6.92 12.204-11.272 20.792-12.253 11.007-1.255 22.151 4.266 27.729 13.744 6.663 11.322 5.933 26.717-2.171 45.758-7.235 16.999-18.596 32.462-24.725 40.167a6.07 6.07 0 0 1-6.351 2.08c-9.499-2.586-27.808-8.331-43.697-17.754-17.799-10.557-27.497-22.536-28.823-35.605-1.112-10.943 4.604-21.989 14.222-27.487zm316.394 29.001c1.7-16.743-7.021-33.631-21.702-42.023-11.297-6.458-24.191-7.734-36.307-3.594a1.588 1.588 0 0 1-1.853-.606c-7.317-10.506-18.467-17.106-31.396-18.583-16.799-1.919-33.824 6.535-42.36 21.039-20.625 35.047 12.77 83.616 28.085 102.869a21.053 21.053 0 0 0 22.029 7.216c23.74-6.462 79.397-25.86 83.504-66.318zm-43.746 34.091c-15.889 9.423-34.198 15.168-43.697 17.754a6.07 6.07 0 0 1-6.351-2.08c-6.128-7.705-17.49-23.168-24.725-40.167-8.104-19.041-8.835-34.436-2.172-45.758 5.05-8.582 14.663-13.921 24.606-13.921a27.5 27.5 0 0 1 3.123.177c8.587.981 15.971 5.333 20.791 12.254 4.216 6.052 12.036 8.612 19.012 6.227 7.981-2.727 16.509-1.867 24.012 2.422 9.618 5.499 15.334 16.544 14.224 27.486-1.327 13.07-11.024 25.049-28.823 35.606z"/></svg>