<svg xmlns="http://www.w3.org/2000/svg" viewBox="0 0 511.999 511.999" style="enable-background:new 0 0 511.999 511.999" xml:space="preserve"><path style="fill:#fac97a" d="M256 7.5c-22.136 0-40.081 17.945-40.081 40.081v24.048h80.161V47.581C296.081 25.445 278.136 7.5 256 7.5z"/><path style="fill:#fab667" d="M239.968 23.532V10.884c-14.144 6.19-24.048 20.27-24.048 36.697v24.048h80.161V47.581h-32.065c-13.281 0-24.048-10.767-24.048-24.049z"/><path style="fill:#9c969e" d="M336.161 71.629H175.839c-8.854 0-16.032 7.178-16.032 16.032v16.032h192.387V87.661c0-8.854-7.178-16.032-16.033-16.032z"/><path style="fill:#e6646e" d="M480.452 368.226H31.548c-8.854 0-16.032-7.178-16.032-16.032V256c0-8.854 7.178-16.032 16.032-16.032h448.903c8.854 0 16.032 7.178 16.032 16.032v96.194c.001 8.854-7.177 16.032-16.031 16.032z"/><path style="fill:#c4deff" d="M408.306 504.5H103.694c-26.563 0-48.097-21.534-48.097-48.097V151.79c0-26.563 21.534-48.097 48.097-48.097h304.613c26.563 0 48.097 21.534 48.097 48.097v304.613c-.001 26.563-21.534 48.097-48.098 48.097z"/><circle style="fill:#a5cdff" cx="167.82" cy="264.02" r="64.13"/><circle style="fill:#fff" cx="167.82" cy="264.02" r="40.08"/><path style="fill:#fff" d="M360.21 432.355H151.79c-8.854 0-16.032-7.178-16.032-16.032V400.29c0-8.854 7.178-16.032 16.032-16.032h208.42c8.854 0 16.032 7.178 16.032 16.032v16.032c0 8.855-7.178 16.033-16.032 16.033z"/><circle style="fill:#a5cdff" cx="344.18" cy="264.02" r="64.13"/><circle style="fill:#fff" cx="344.18" cy="264.02" r="40.08"/><path style="fill:#a5cdff" d="M151.79 472.435c-35.417 0-64.129-28.712-64.129-64.129V106.489c-18.668 6.609-32.065 24.368-32.065 45.301v304.613c0 26.563 21.534 48.097 48.097 48.097h304.613c20.933 0 38.691-13.396 45.301-32.065H151.79z"/><path d="M480.452 232.468h-16.548v-80.677c0-30.656-24.94-55.597-55.597-55.597h-48.613v-8.532c0-12.976-10.557-23.532-23.532-23.532h-32.581V47.581C303.581 21.345 282.236 0 256 0s-47.581 21.345-47.581 47.581v16.548h-32.581c-12.976 0-23.532 10.557-23.532 23.532v8.532h-48.613c-30.656 0-55.597 24.941-55.597 55.597v80.677H31.548c-12.976 0-23.532 10.557-23.532 23.532v96.193c0 12.976 10.557 23.532 23.532 23.532h16.548v80.678c0 30.656 24.94 55.597 55.597 55.597h304.613c30.656 0 55.597-24.94 55.597-55.597v-80.678h16.548c12.976 0 23.532-10.557 23.532-23.532V256c.001-12.976-10.556-23.532-23.531-23.532zM223.419 47.581C223.419 29.616 238.035 15 256 15s32.581 14.616 32.581 32.581v16.548H223.42l-.001-16.548zm-56.112 40.08c0-4.705 3.828-8.532 8.532-8.532h160.322c4.705 0 8.532 3.828 8.532 8.532v8.532H167.307v-8.532zm321.677 264.532c0 4.705-3.828 8.532-8.532 8.532h-16.548v-72.658a7.5 7.5 0 0 0-15 0v168.335c0 22.385-18.211 40.597-40.597 40.597H103.693c-22.385 0-40.597-18.211-40.597-40.597V288.061a7.5 7.5 0 0 0-15 0v72.665H31.548c-4.705 0-8.532-3.828-8.532-8.532V256c0-4.705 3.828-8.532 8.532-8.532h16.548v8.534a7.5 7.5 0 0 0 15 0V151.791c0-22.385 18.211-40.597 40.597-40.597h304.613c22.385 0 40.597 18.212 40.597 40.597V256a7.5 7.5 0 0 0 15 0v-8.532h16.548c4.705 0 8.532 3.828 8.532 8.532l.001 96.193z"/><path d="M360.209 376.758H151.791c-12.976 0-23.532 10.557-23.532 23.532v16.032c0 12.976 10.557 23.532 23.532 23.532H360.21c12.976 0 23.532-10.557 23.532-23.532V400.29c0-12.975-10.557-23.532-23.533-23.532zm-136.79 15H248.5v33.097h-25.081v-33.097zm-15 33.097h-25.081v-33.097h25.081v33.097zm55.081-33.097h25.081v33.097H263.5v-33.097zm40.08 0h25.081v33.097H303.58v-33.097zm-160.322 24.565v-16.032c0-4.705 3.828-8.532 8.532-8.532h16.548v33.097H151.79c-4.704-.001-8.532-3.829-8.532-8.533zm225.484 0c0 4.705-3.828 8.532-8.532 8.532h-16.548v-33.097h16.548c4.705 0 8.532 3.828 8.532 8.532v16.033zM139.11 312.753a7.5 7.5 0 0 0-7.623 12.919 71.475 71.475 0 0 0 36.381 9.944c18.506 0 36.818-7.167 50.602-20.951 23.08-23.079 27.605-58.848 11.007-86.984a7.5 7.5 0 1 0-12.919 7.623c13.122 22.241 9.546 50.515-8.694 68.755a56.426 56.426 0 0 1-32.542 16.059V207.934a56.526 56.526 0 0 1 21.212 7.345 7.5 7.5 0 0 0 7.623-12.919c-28.135-16.599-63.904-12.073-86.983 11.006s-27.605 58.849-11.006 86.984a7.496 7.496 0 0 0 10.27 2.648 7.5 7.5 0 0 0 2.648-10.271c-13.122-22.241-9.546-50.514 8.694-68.755a56.414 56.414 0 0 1 32.543-16.059v112.184a56.511 56.511 0 0 1-21.213-7.344zm256.406-87.72a7.5 7.5 0 0 0-2.648 10.271c13.122 22.241 9.546 50.514-8.694 68.755a56.42 56.42 0 0 1-32.543 16.059V207.934a56.509 56.509 0 0 1 21.212 7.345 7.5 7.5 0 0 0 7.623-12.919c-28.135-16.599-63.905-12.073-86.984 11.006-23.08 23.08-27.605 58.849-11.006 86.984a7.496 7.496 0 0 0 10.271 2.648 7.5 7.5 0 0 0 2.648-10.271c-13.122-22.241-9.546-50.514 8.694-68.755a56.419 56.419 0 0 1 32.543-16.058v112.183a56.509 56.509 0 0 1-21.212-7.345 7.5 7.5 0 1 0-7.623 12.919 71.475 71.475 0 0 0 36.381 9.944c18.506 0 36.819-7.167 50.603-20.95 23.08-23.08 27.605-58.849 11.006-86.984a7.5 7.5 0 0 0-10.271-2.648z"/></svg>