<svg xmlns="http://www.w3.org/2000/svg" width="73" height="73" fill="none"><path d="M36.001 72.002c19.883 0 36.001-16.118 36.001-36.001S55.884 0 36.001 0 0 16.118 0 36.001s16.118 36.001 36.001 36.001Z" fill="#FAE7D9"/><path d="M34.98 14.503S21.002 31.56 20.924 43.386c-.079 11.825 7.701 13.002 11.303 11.8 3.601-1.2 12.835-11.704 9.934-17.983-1.559-3.372-3.646.606-3.646.606s3.037-5.191 1.826-8.54c-1.384-3.826-3.178-2.38-3.178-2.38s1.23-2.895.527-6.653c-.335-1.794-1.341-3.577-2.71-5.733Z" fill="#D2854F"/><path d="M50.751 22.153s-19.845 9.621-24.875 20.324c-5.031 10.7 1.537 15.033 5.31 15.452 3.774.419 16.561-5.24 16.561-12.159 0-3.714-3.563-.977-3.563-.977s4.935-3.438 5.24-6.988c.351-4.053-1.886-3.494-1.886-3.494s2.332-2.11 3.269-5.817c.447-1.771.282-3.811-.056-6.341Z" fill="#EDBE9C"/></svg>