<svg version="1.1" id="Calque_1" xmlns="http://www.w3.org/2000/svg" x="0" y="0" viewBox="-155 247 300 300" style="enable-background:new -155 247 300 300" xml:space="preserve"><style>.st1{fill:#fff}</style><linearGradient id="SVGID_1_" gradientUnits="userSpaceOnUse" x1="-154.8" y1="546.8" x2="144.8" y2="247.2"><stop offset="0" style="stop-color:#f90"/><stop offset="1" style="stop-color:#c03"/></linearGradient><path style="fill:url(#SVGID_1_)" d="M-154.8 247.2h299.6v299.6h-299.6z"/><path class="st1" d="M10.5 400.6c-2.2-1.2-4.4-2-6.4-2.2-2.1-.3-3.3-.4-3.8-.4H.1c-.9-.1-1.7-.4-2.3-1-.6-.6-.9-1.4-.9-2.3-.1-.8.2-1.6.9-2.2.6-.6 1.4-1 2.2-1.1h.3c.2 0 .6 0 1.2-.1.6 0 1.3-.1 2.1-.3.8-.2 1.7-.4 2.7-.7 1-.3 1.9-.7 2.9-1.3 4.7-2.4 7-6.7 7-12.8 0-6.3-2.6-10.8-7.8-13.5-1.1-.5-2.1-.8-3.1-1.1-1-.3-1.9-.5-2.7-.6-.8-.1-1.7-.2-2.7-.3h-28.8v30.6h15.6c.9 0 1.7.3 2.3 1 .6.6 1 1.4 1 2.3 0 .8-.3 1.6-1 2.3-.7.7-1.4 1-2.3 1h-15.6v35.4H-.3c.1 0 .4 0 1.1-.1.6 0 1.5-.1 2.5-.2s2.1-.3 3.3-.6c1.2-.3 2.4-.7 3.6-1.3 5.8-2.6 8.7-7.1 8.7-13.5 0-8.1-2.8-13.8-8.4-17z"/><path class="st1" d="M41.7 323h-93.3c-15.1 0-27.3 12.2-27.3 27.3v93.3c0 15.1 12.2 27.3 27.3 27.3h93.3c15.1 0 27.3-12.2 27.3-27.3v-93.3c0-15.1-12.2-27.3-27.3-27.3zM21.5 430.3c-2.2 3-5.1 5.3-8.7 6.9-1.5.7-3 1.2-4.4 1.5-1.4.3-2.7.6-4 .8-1.2.2-2.3.3-3.1.3-.8 0-1.4.1-1.6.1h-31.9c-.8 0-1.6-.3-2.2-1-.7-.6-1-1.4-1-2.3v-79.3c0-.9.3-1.7 1-2.3.6-.6 1.4-1 2.2-1H-.1c.1 0 .4 0 1.1.1.6 0 1.5.2 2.5.3 1 .2 2.2.5 3.5.8 1.3.3 2.6.8 4 1.4 3.4 1.6 6.1 3.8 8.1 6.6 1.2 1.8 2.1 3.7 2.7 5.9.6 2.2.9 4.5.9 6.9 0 2.5-.3 4.8-.9 6.8-.6 2-1.3 3.7-2.2 5.2-.9 1.5-1.9 2.7-3.1 3.8s-2.3 1.9-3.4 2.6c.3.2.6.3.8.3 1.3.8 2.6 1.8 4 3 1.4 1.3 2.6 2.8 3.7 4.6 1.1 1.8 2 4 2.7 6.5.7 2.5 1.1 5.4 1.1 8.6 0 5.3-1.3 9.6-3.9 12.9z"/></svg>