<svg version="1.1" id="Capa_1" xmlns="http://www.w3.org/2000/svg" x="0" y="0" viewBox="-41 164.8 512.1 512.1" style="enable-background:new -41 164.8 512.1 512.1" xml:space="preserve"><style>.st1{fill:#ffc107}</style><circle cx="215" cy="420.8" r="256" style="fill:#7f00ff"/><path class="st1" d="M299.4 505c-3.9 0-7-3.1-7-7s3.1-7 7-7c23.3 0 42.1-18.9 42.1-42.1v-49.1c0-11.6-9.4-21.1-21.1-21.1h-14c-3.9 0-7-3.1-7-7s3.1-7 7-7h14c19.4 0 35.1 15.7 35.1 35.1v49.1c0 31-25.1 56.1-56.1 56.1z"/><path class="st1" d="M292.3 385c-.3-3.2-2.7-5.7-5.9-6.2l-150.2-24.1c-1.9-.3-3.8.2-5.4 1.4-1.5 1.2-2.5 2.9-2.7 4.8l-18.3 164.4c-.4 3.9 2.4 7.3 6.2 7.7h183.3c3.9 0 7-3.1 7.1-7v-.7L292.3 385z"/><path d="M159 505h-.5c-3.9-.2-6.8-3.6-6.6-7.5l7-105.3c.3-3.8 3.6-6.7 7.5-6.6 3.9.3 6.8 3.6 6.5 7.5l-7 105.3c-.1 3.8-3.2 6.6-6.9 6.6zm49.1 0c-3.9 0-7-3.1-7-7V385.7c0-3.9 3.1-7 7-7s7 3.1 7 7V498c0 3.9-3.1 7-7 7zm49.1 0c-3.7 0-6.8-2.9-7-6.6l-7-112.3c-.2-3.9 2.7-7.2 6.6-7.5 3.8-.3 7.1 2.5 7.4 6.3v.2l7 112.3c.2 3.9-2.7 7.2-6.6 7.4l-.4.2z" style="fill:#fafafa"/><path d="M285 323.2c-3.5-34.6-34.4-59.9-69-56.4-26.5 2.7-48.5 21.7-54.9 47.6-7.1-3.9-15-5.9-23.1-5.9-27.1 0-49.1 21.9-49.2 49.1s21.9 49.1 49.1 49.2c19.1 0 36.5-11.1 44.6-28.4 20.6 16.7 49.4 18.8 72.2 5.2 6.4 6 14.9 9.2 23.6 9.2 19.4 0 35.1-15.7 35.1-35.1 0-16.8-11.9-31.3-28.4-34.5z" style="fill:#ffe082"/><path d="M299.4 519.1H116.9c-15.5 0-28.1 12.6-28.1 28.1s12.6 28.1 28.1 28.1h182.5c15.5 0 28.1-12.6 28.1-28.1-.1-15.6-12.6-28.1-28.1-28.1z" style="fill:#ffa000"/></svg>