<svg xmlns="http://www.w3.org/2000/svg" viewBox="-41 164.8 512.1 512.1" style="enable-background:new -41 164.8 512.1 512.1" xml:space="preserve"><circle cx="215" cy="420.8" r="256" style="fill:#7f00ff"/><path d="M269.4 271.2H160.7c-18.7 0-33.9 15.2-33.9 33.9 0 3.7 3 6.8 6.8 6.8h163c3.7 0 6.8-3 6.8-6.8-.1-18.7-15.3-33.9-34-33.9z" style="fill:#607d8b"/><path d="m303.3 333.1-3.9 33.1-17.5 149.4-5.7 48.3c-.4 3.4-3.4 6-6.8 6H160.7c-3.4 0-6.3-2.6-6.8-6l-5.7-48.3-17.5-149.4-3.9-33.1c-.2-1.9.4-3.9 1.8-5.3 1.2-1.5 3.1-2.3 5-2.3h163c1.9 0 3.8.8 5 2.3 1.3 1.5 1.9 3.4 1.7 5.3z" style="fill:#cfd8dc"/><path d="M106.4 298.4h217.3c3.7 0 6.8 3 6.8 6.8v27.2c0 3.7-3 6.8-6.8 6.8H106.4c-3.7 0-6.8-3-6.8-6.8v-27.2c0-3.8 3.1-6.8 6.8-6.8z" style="fill:#455a64"/><path style="fill:#6d4c41" d="m299.4 366.3-17.5 149.3H148.2l-17.5-149.3z"/><path d="M231.5 418.5c-6.4-6.4-19.1-4.3-28.2 4.8-9.1 9.1-11.3 21.7-4.8 28.2 2.6 2.5 6.2 3.8 9.8 3.7 7-.4 13.6-3.4 18.4-8.5 9.1-9.1 11.3-21.7 4.8-28.2zm-16 17.5c-6.7 2.6-12.8 6.6-17.7 11.9-.2.2-.4.3-.7.3-.6 0-1-.5-1-1 0-.3.1-.5.3-.7 5.1-5.4 11.4-9.6 18.3-12.3 6.7-2.6 12.8-6.6 17.7-11.9.4-.4 1-.4 1.4 0 .4.4.4 1 0 1.4-5.1 5.4-11.4 9.5-18.3 12.3z" style="fill:#fafafa"/></svg>