<svg xmlns="http://www.w3.org/2000/svg" viewBox="-41 164.8 512.1 512.1" style="enable-background:new -41 164.8 512.1 512.1" xml:space="preserve"><circle cx="215" cy="420.8" r="256" style="fill:#7f00ff"/><path d="M190.5 540.2c-3.3 0-6-2.7-5.9-6 0-.8.2-1.6.5-2.4l95.4-214.7c.5-1.1 1.3-2.1 2.4-2.7l59.6-35.8c2.8-1.8 6.5-1 8.3 1.7 1.8 2.8 1 6.5-1.7 8.3-.1.1-.2.2-.4.2l-58 34.8-94.7 213c-1 2.1-3.1 3.5-5.5 3.6z" style="fill:#455a64"/><path d="M214.4 301.6c-42.8.1-77.5 34.7-77.5 77.5 0 3.3 2.7 6 6 6H286c3.3 0 6-2.7 6-6-.1-42.8-34.8-77.4-77.6-77.5z" style="fill:#64b5f6"/><path d="M279.5 470.7c-1.1-1.3-2.8-2.1-4.5-2.1H153.8c-3.3 0-6 2.7-6 6 0 .3 0 .6.1.9l12.9 83.5c.4 2.9 2.9 5.1 5.9 5.1h95.4c2.9 0 5.4-2.1 5.9-5.1l12.9-83.5c.2-1.8-.2-3.5-1.4-4.8z" style="fill:#ffc107"/><path d="M290.5 399.1c-1.1-1.3-2.8-2.1-4.5-2.1H142.8c-3.3 0-6 2.7-6 6 0 .3 0 .6.1.9l11 71.6c.4 2.9 2.9 5.1 5.9 5.1H275c2.9 0 5.4-2.1 5.9-5.1l11-71.6c.2-1.7-.3-3.5-1.4-4.8z" style="fill:#cfd8dc"/><path d="M119 373.2h190.8c3.3 0 6 2.7 6 6V403c0 3.3-2.7 6-6 6H119c-3.3 0-6-2.7-6-6v-23.9c0-3.3 2.7-5.9 6-5.9z" style="fill:#2196f3"/></svg>