<svg xmlns="http://www.w3.org/2000/svg" viewBox="-41 164.8 512.1 512.1" style="enable-background:new -41 164.8 512.1 512.1" xml:space="preserve"><circle cx="215" cy="420.8" r="256" style="fill:#7f00ff"/><path d="M277.4 559.5H222V476c39.2-3.6 69.3-36.5 69.3-75.9v-.8l-13.9-124.8c-.4-3.5-3.4-6.2-6.9-6.2H159.6c-3.5 0-6.5 2.6-6.9 6.2L138.8 400c.1 39.4 30.1 72.3 69.3 75.9v83.5h-48.5c-3.8 0-6.9 3.1-6.9 6.9s3.1 6.9 6.9 6.9h117.8c3.8 0 6.9-3.1 6.9-6.9s-3-6.8-6.9-6.8z" style="fill:#cfd8dc"/><path d="m152.7 400.8 2.4-21.6h120.1l2.4 21.2c.1 34.5-27.7 62.5-62.2 62.6-34.6.1-62.6-27.7-62.7-62.2z" style="fill:#f44336"/></svg>