<svg xmlns="http://www.w3.org/2000/svg" viewBox="0 0 512 512" style="enable-background:new 0 0 512 512" xml:space="preserve"><circle style="fill:#0052b4" cx="256" cy="256" r="256"/><path style="fill:#f0f0f0" d="m112.449 155.827 5.526 17.008h17.88l-14.465 10.509 5.525 17.005-14.466-10.509-14.467 10.509 5.527-17.005-14.466-10.509h17.879zm55.652-16.695 5.526 17.007h17.88l-14.465 10.509 5.525 17.005-14.466-10.509-14.466 10.509 5.526-17.005-14.465-10.509h17.88zm55.652-16.696 5.526 17.007h17.88l-14.465 10.51 5.525 17.005-14.466-10.51-14.466 10.51 5.526-17.005-14.465-10.51h17.88zm175.798 33.391-5.526 17.008h-17.88l14.466 10.509-5.526 17.005 14.466-10.509 14.467 10.509-5.527-17.005 14.466-10.509h-17.88zm-55.652-16.695-5.526 17.007h-17.88l14.466 10.509-5.526 17.005 14.466-10.509 14.466 10.509-5.526-17.005 14.465-10.509h-17.88zm-55.652-16.696-5.526 17.007h-17.88l14.465 10.51-5.525 17.005 14.466-10.51 14.466 10.51-5.526-17.005 14.465-10.51h-17.88z"/><path style="fill:#ffda44" d="M300.522 267.13 256 211.478l-22.261 11.13v22.261l-33.391 22.261h-22.261v28.759c32.628 13.212 55.652 45.181 55.652 82.546H256v-22.261l22.261-22.261 22.261 22.261 22.261-22.261v-22.261l22.261-33.391-44.522-11.131z"/></svg>