<svg version="1.1" id="Layer_1" xmlns="http://www.w3.org/2000/svg" x="0" y="0" viewBox="-157 248 297 297" style="enable-background:new -157 248 297 297" xml:space="preserve"><style>.st1{fill:#fafafa}</style><path style="fill:#ccc" d="M-157 248h297v297h-297z"/><path class="st1" d="M-71.4 327.3c-1.7 0-3.3.6-4.5 1.8-1.2 1.2-1.9 2.9-1.9 4.6V431c0 3.5 2.9 6.4 6.4 6.4 15.1 0 40.4 3.2 57.8 21.4V357.1c0-1.2-.4-2.3-.9-3.3-14.2-23-41.8-26.5-56.9-26.5zM60.8 431v-97.3c0-1.7-.7-3.4-1.9-4.6-1.2-1.2-2.8-1.8-4.5-1.8-15.1 0-42.7 3.5-56.9 26.6-.6 1-.9 2.1-.9 3.3V459c17.4-18.2 42.7-21.4 57.8-21.4 3.5-.1 6.4-3 6.4-6.6z"/><path class="st1" d="M75.7 349.7H71v81.2c0 9.1-7.4 16.5-16.5 16.5-12.8 0-33.9 2.6-48.9 16.7 25.9-6.3 53.1-2.2 68.6 1.3 1.9.5 3.9 0 5.5-1.2s2.4-3 2.4-5.1v-103c0-3.5-2.9-6.4-6.4-6.4zM-87.9 431v-81.4h-4.7c-3.5 0-6.4 2.9-6.4 6.4v103c0 1.9.9 3.8 2.4 5.1 1.6 1.2 3.5 1.7 5.5 1.2 15.6-3.5 42.8-7.7 68.6-1.3-15-14.1-36-16.7-48.9-16.7-9.1.3-16.5-7.1-16.5-16.3z"/></svg>