<svg xmlns="http://www.w3.org/2000/svg" viewBox="-157 248 297 297" style="enable-background:new -157 248 297 297" xml:space="preserve"><path style="fill:#ccc" d="M-157 248h297v297h-297z"/><path d="M76 396.5C76 349.9 38.1 312-8.5 312S-93 349.9-93 396.5-55.1 481-8.5 481h73.9v-10.6H32.3C58.3 456 76 428.3 76 396.5zM3.9 413.6c7.1-5.1 17-3.6 22.1 3.5 5.1 7.1 3.6 17-3.5 22.1-7.1 5.1-17 3.6-22.1-3.5-5.1-7.1-3.6-17 3.5-22.1zM21.8 370c8.3-2.7 17.3 1.9 20 10.2 2.7 8.3-1.9 17.3-10.2 20-8.3 2.7-17.3-1.9-20-10.2-2.7-8.3 1.8-17.3 10.2-20zm-30.3-26.3c8.8 0 15.8 7.1 15.8 15.8 0 8.8-7.1 15.8-15.8 15.8s-15.8-7.1-15.8-15.8c0-8.7 7-15.8 15.8-15.8zm-50.2 36.5c2.7-8.3 11.6-12.9 20-10.2 8.3 2.7 12.9 11.6 10.2 20-2.7 8.3-11.6 12.9-20 10.2-8.4-2.8-12.9-11.7-10.2-20zm41.3 55.5c-5.1 7.1-15.1 8.6-22.1 3.5-7.1-5.1-8.6-15.1-3.5-22.1 5.1-7.1 15.1-8.6 22.1-3.5 7.1 5.1 8.6 15 3.5 22.1zm-1.7-39.2c0-5.8 4.7-10.6 10.6-10.6s10.6 4.7 10.6 10.6c0 5.8-4.7 10.6-10.6 10.6s-10.6-4.8-10.6-10.6z" style="fill:#fafafa"/></svg>