<svg xmlns="http://www.w3.org/2000/svg" viewBox="0 0 500 324.5" style="enable-background:new 0 0 500 324.5" xml:space="preserve"><style>.st0{fill:#f4f4f4}.st1{fill:#fa968c}.st2{fill:#8c29ff}.st3{fill:#fab9af}.st5{fill:#0091c8}.st6{fill:#7f00ff}.st7{fill:#5e05db}.st9{fill:#ed4c67}.st11{fill:none;stroke:#5046af;stroke-width:2.0668;stroke-linecap:round;stroke-miterlimit:10}.st14{fill:#fff}.st15{opacity:.4;fill:none;stroke:#7f00ff;stroke-width:.9879;stroke-miterlimit:10}.st17{fill:#b4d7dc}.st18{fill:#6a00e5}.st19{fill:#41b4e6}.st23{fill:#d2daf9}</style><g id="BACKGROUND"><path id="XMLID_141_" class="st0" d="M0 0h500v324.5H0z"/><g id="XMLID_1_"><path id="XMLID_114_" class="st0" d="M0 0h500v324.5H0z"/></g></g><g id="OBJECTS"><g id="XMLID_12_"><g id="XMLID_13_"><g id="XMLID_14_"><path class="st1" d="M343.7 21.2c.1-1.4 2.5-4.2 2.1-4.6-.3-.3-1.2.6-1.7 1.1-.1.1-.1.1-.2.1s-.1-.1-.1-.2c-.1-1.4-.5-5.2-.8-5.3-.4 0-.6 2.4-.6 3.2h-.1c-.3-.9-1.3-3.7-1.7-3.3-.4.3.2 3 .5 4v.1h-.1c-.5-.9-1.9-3.3-2.3-3-.4.3.7 2.8 1.1 3.7v.1h-.1c-.6-.7-2.2-2.4-2.1-1.9 0 .6 2.7 5.8 3.6 6.7.7 1 2.5-.7 2.5-.7z"/><path id="XMLID_15_" class="st1" d="M368.2 38.5c-1.9 4.1-4.5 8.8-7.7 12-6.3 6.2-14.3 4.6-17.1-9.9-.5-2.2-.8-4.4-1.1-6.5-.6-4.3-.8-8.7-1-13 0-.7.5-1.2 1.1-1.2.6 0 1.1.4 1.2.9.9 4.2 1.7 8.4 2.8 12.4.6 2 1.1 4 1.8 6 .6 1.8 3 7.5 4.8 8.1.1 0 .1.1.2 0h.1l.1-.1c.1-.1.2-.1.4-.3.4-.3 1-.8 1.5-1.4 1.1-1.3 2.1-2.9 2.9-4.7 1.5-3 2.4-5.1 2.4-5.1 1.9-5.1 9.6-2.7 7.8 2.5-.1.1-.1.2-.2.3z"/><path class="st2" d="M355.8 44.1c0-.1 0-.1 0 0 1-1.4 1.8-2.9 2.7-4.4.8-1.4 1.6-3.1 2.2-4.4v-.1c0-.1.1-.2.2-.3 1.1-2 3.6-2.8 5.6-1.7 2 1.1 2.8 3.6 1.7 5.6-1 1.9-2 3.4-3.1 5.1-.7 1.1-1.5 2.1-2.4 3.2-.6-.8-5.5-2.5-6.9-3z"/><path class="st3" d="M359.8 72.8c3.6 4.1 24.4 5.9 24.4 5.9 1.5-1.8-.7-9.9-1.2-18.1-.6-8.9-.9-18.7-1.1-24-.1-2.2-1.9-3.9-4-3.9h-13.2c-2 0-3.7 1.6-3.9 3.6-.3 4.2-.9 11.5-1.5 18.6-.7 7.2-2.6 14.3.5 17.9z"/><path class="st1" d="M371.8 141.9v8.2l.7 4c.1.7-.4 1.3-1.1 1.3-3.3.1-11.9.3-12.1 0-1.1-1.7 3.8-2.4 7.4-3.8 3.6-1.4 1.1-14.9 1.1-14.9l4 5.2z"/><path d="M366.6 151.5s.1 0 0 0c.9.3 1.9.5 2.9.5.9 0 1.8-.1 2.5-.4l.4 2.4c.1.7-.4 1.3-1.1 1.3-3.3.1-11.9.3-12.1 0-1-1.7 3.9-2.4 7.4-3.8z" style="fill:#f57a2f"/><path class="st5" d="M359.8 75.8c-.1 5.7 2.1 41.7 6.5 41.8 4.4.1 9.3-35.8 9.5-41.5.1-5.7-3.3-10.4-7.8-10.5-4.4 0-8 4.5-8.2 10.2z"/><path class="st6" d="M372.5 110.1c.4 3.1.5 23.2-.2 33.3h-4c-2.2-9.9-4.5-29-4.9-32.1v-.1c-2.4-10.6-3.6-31.3-3.5-35.5.1-5.7 3.8-10.2 8.2-10.1 4.4.1 7.9 4.8 7.8 10.5-.2 3.6-3.7 32.5-3.4 34z"/><path class="st7" d="M371.8 126c.1-2.2-.1-4.3-.7-6.3-1.6-6-1.6-12.3-1-18.5.1-.5.1-1 .1-1.6.4-8.1-4-15.5-10.3-20.1-.1-1.7-.1-3-.1-3.8.1-5.7 3.8-10.2 8.2-10.1 4.4.1 7.9 4.8 7.8 10.5-.1 3.6-3.6 32.5-3.4 34 .4 3.1.5 23.2-.2 33.3h-4c-.3-1.2-.5-2.5-.8-3.8 2.6-3.9 4.2-8.6 4.4-13.6z"/><path class="st1" d="M381.5 141.9v8.2l.7 4c.1.7-.4 1.3-1.1 1.3-3.3.1-11.9.3-12.1 0-1.1-1.7 3.8-2.4 7.4-3.8 3.6-1.4 1.1-14.9 1.1-14.9l4 5.2z"/><path d="M376.3 151.5c.9.3 1.9.5 2.9.5.9 0 1.8-.1 2.5-.4l.4 2.4c.1.7-.4 1.3-1.1 1.3-3.3.1-11.9.3-12.1 0-1.1-1.7 3.8-2.4 7.4-3.8z" style="fill:#ff8c46"/><path class="st5" d="M369.5 75.8c-.1 5.7 2.1 41.7 6.5 41.8 4.4.1 8.4-35.9 8.5-41.6s-2.4-10.2-6.8-10.3c-4.4-.1-8.1 4.4-8.2 10.1z"/><path class="st6" d="M382.1 110.1c.4 3.1.5 23.2-.2 33.3h-4c-2.2-9.9-4.5-29-4.9-32.1v-.1c-2.4-10.6-4.5-31.4-4.5-35.6.1-5.7 4.8-10.1 9.2-10 4.4.1 6.9 4.7 6.8 10.3-.1 3.7-2.6 32.7-2.4 34.2z"/><path class="st6" d="M364.5 32.7h2.1c.7 1.7 2.3 3.1 4.8 3.1s4-1.3 4.8-3.1h2c2 0 3.6 1.6 3.7 3.6.1 5.2.5 15.2 1.1 24.3.5 8.2 2.8 15.8 1.2 18.1 0 0-20.8-1.7-24.4-5.9-3.1-3.6-1.2-10.7-.6-17.9.6-7.2 1.2-14.6 1.6-18.8.1-1.9 1.8-3.4 3.7-3.4z"/><path class="st7" d="M379.5 44.5c.2-4.2-.9-8.3-2.9-11.8h1.5c2 0 3.6 1.6 3.7 3.6.1 5.2.5 15.2 1.1 24.3.5 8.2 2.8 15.8 1.2 18.1 0 0-20.8-1.7-24.4-5.9-.8-.9-1.3-2.1-1.5-3.5 12.2-1.9 20.8-12.5 21.3-24.8z"/><path id="XMLID_88_" class="st9" d="m372 27.9.2.1c1.9.4 3.7-.8 4.2-2.7l1.1-5-3.7-.8-1.8 8.4z"/><path class="st3" d="M368.8 32.7h6.9l-2-6.9-4.7.6z" id="XMLID_18_"/><path class="st1" d="m369 26.4 4.7-.6.9 3.2c-1.1 1.2-2.6 3-4.3 3-.5 0-1-.2-1.5-.4l.2-5.2z"/><path class="st3" d="M368.3 30c3.1.7 6.2-1.3 6.9-4.4l1.4-6.2-9.6-2.1s-1.1 4.9-1.1 8.3c-.2 2.6.8 4.1 2.4 4.4z"/><path id="XMLID_87_" transform="rotate(-167.462 375.457 22.136)" style="fill:#41378c" d="M374.6 21.7h1.9v.8h-1.9z"/><path class="st3" d="M373.7 24.1c-.3 1.2.1 2.3.8 2.5.7.2 1.9-1.3 2.1-2.5s-.4-1.8-1.2-1.9c-.6-.2-1.4.7-1.7 1.9z"/><path class="st9" d="M365.6 19.7c-.1-.8.1-1.7.4-2.4.8-1.9 2.9-2.7 4.9-2.1.2.1.4.1.6.2l3.2.7c2 .4 3.2 2.4 2.7 4.3l-.2.8-1.9 1.1-.8 1.4h-.1c-.6-.1-1-.7-.9-1.4.2-1-.3-2-1.4-2.2l-2.9-.6c-1.8-.4-2.9.3-3.2 1.7l-.2 1.1-.2-2.6z"/><g id="XMLID_19_"><path id="XMLID_22_" class="st11" d="m374.8 56.8 47.5 264"/><path id="XMLID_23_" class="st11" d="m382.8 320.8-47.4-264"/><path id="XMLID_24_" class="st11" d="M338.5 68.5h38.6"/><path id="XMLID_25_" class="st11" d="M341.1 86.2h39.1"/><path id="XMLID_26_" class="st11" d="M344.7 103.9h38.7"/><path id="XMLID_37_" class="st11" d="M348.1 121.5h38.5"/><path id="XMLID_38_" class="st11" d="M350.2 139.2h39"/><path id="XMLID_39_" class="st11" d="M352.9 156.6h39.5"/><path id="XMLID_40_" class="st11" d="M356.9 174.5h38.9"/><path id="XMLID_41_" class="st11" d="M360 192.2h39"/><path id="XMLID_42_" class="st11" d="M363.2 208.9h39"/><path id="XMLID_43_" class="st11" d="M365.8 225.6h39.1"/><path id="XMLID_44_" class="st11" d="M368.9 242.3h39"/><path id="XMLID_45_" class="st11" d="M371.9 259h39"/><path id="XMLID_46_" class="st11" d="M374.8 275.7h39"/><path id="XMLID_47_" class="st11" d="M378.2 292.4h39"/></g><path d="m335.4 56.8-47.9 264.6m39.5 0 47.8-264.6m-3.1 11.7h-38.5m35.9 17.7H330m35.6 17.7h-38.8m35.3 17.6h-38.5m35.7 17.7h-38.9m36.3 17.4h-39.5m35.7 17.9h-39m36.3 17.7h-39m36 19.8h-39m34.4 19.9h-39m35.7 19.8h-39.1m35.9 19.8H297m34.9 20h-39" style="stroke:#9f9fff;fill:none;stroke-width:2.0668;stroke-linecap:round;stroke-miterlimit:10" id="XMLID_48_"/><path class="st9" d="M375.4 17.4c.2 1.8-6.2 4-7.9 4.2-1.7.2-3.2-1.1-3.5-2.8-.2-1.8 1-3.4 2.7-3.6 1.7-.2 8.4.4 8.7 2.2z"/><path class="st6" d="M286.9 20.1c-2 .4-3.4 2.3-3.1 4.4l3.5 19.7 1.3-.2c1.2-2.6 3.8-4.4 7.1-4.4 3.1 0 5.9 2 7 4.8 1.8 4.7-1.1 9.5-5.8 10.3-2.5.5-5-.4-6.7-2.1l-1.3.2 3.9 21.8c.4 2 2.3 3.4 4.4 3.1l19.7-3.5-.2-1.4c-2.6-1.2-4.4-3.8-4.4-7.1 0-3.1 2-5.9 4.8-7 4.7-1.8 9.5 1.1 10.3 5.8.5 2.5-.4 5-2.1 6.7l.2 1.4 21.8-3.9c2-.4 3.4-2.3 3.1-4.4l-8.9-50.1c-.4-2-2.3-3.4-4.4-3.1l-50.2 9z"/><path id="XMLID_49_" class="st3" d="M382.7 39.4c-2.1 2.9-5.8 6.7-10.1 10-13.3 9.7-27.6 10.7-39.2-.3-.5-.5-.5-1.2 0-1.7.4-.4 1-.5 1.5-.2h.1c7.6 4.4 14.4 6.2 22.9 2.6 11.2-4.8 19.2-16.5 18.3-15.4 1.4-1.8 4-2.2 5.8-.8 1.6 1.4 2 4 .7 5.8z"/><path class="st2" d="M369.9 41.1c2.8-2.5 6.3-7.4 6.3-7.4s1.7-2 5.1-.5c2.8 1.2 2.2 4.4 2.2 4.4-.1.5-1 5.8-7.3 10.6 0 0-6.7-6.6-6.3-7.1z" id="XMLID_50_"/><path class="st3" d="M335.6 47.7c-.9-1.1-1.2-4.8-1.7-4.8-.4 0-.4 1.3-.4 2 0 .1-.1.2-.1.2h-.2c-1-.9-4-3.4-4.3-3.2-.3.2 1.2 2.1 1.8 2.8v.1h-.1c-.8-.4-3.5-1.7-3.5-1.2-.1.5 2.3 2 3.2 2.6v.1h-.1c-1-.3-3.6-1-3.7-.6-.1.5 2.5 1.6 3.4 1.9v.1h-.1c-.9-.1-3.2-.2-2.8.1.4.4 6 2.3 7.2 2.3 1.2 0 1.4-2.4 1.4-2.4z"/></g><path style="fill:#5046af" d="M118.7 110.8h263.7v160.5H118.7z"/><path id="XMLID_86_" class="st14" d="M132 122.8h237v136.4H132z"/><g id="XMLID_51_"><path class="st15" d="M147.5 157.1h60.7v87h-60.7z"/><path id="XMLID_85_" class="st15" d="M221.9 157.1h60.7v87h-60.7z"/><path class="st15" d="M296.3 157.1H357v87h-60.7z"/></g><path id="XMLID_84_" style="fill:#a5c8cd" d="M132 122.8h237v2.2H132z"/><g id="XMLID_54_"><path class="st1" d="M95.4 294.8S90 301 89 302c-.8.8-2 1.1-3.1 1.4-.4.1-.8.5-1.2.8-.3.2-.5.6-.5 1 .1 7 6.2 11.9 6.6 11.5.6-.7.1-2.8-1-4.1-1.2-1.4-1.5-3.3-.9-5 .4-1.4 1.2-2.6 2.2-3.6l4.7-4.4-.4-4.8z"/><path class="st17" d="M83.2 323.4h88.5c.7 0 1.3-.6 1.3-1.3 0-.7-.6-1.3-1.3-1.3H83.2c-.7 0-1.3.6-1.3 1.3 0 .7.6 1.3 1.3 1.3z"/><path class="st1" d="m150.7 303.7 4.3 7.2c1.3 2.2 1.8 4.8 1.4 7.3-.2 1.4.8 2.7 2.2 2.8 4.6.1 13.6.3 13.9-.1 1.3-2.2-4.4-3.1-8.8-4.6-3-1-6.7-9.2-9-15.6l-3.5 2.2c-.4.2-.5.5-.5.8z"/><path class="st9" d="M163.6 318.7c1.9 0 3.8-.4 5.6-.8h.6c2.1.7 3.3 1.8 2.6 2.9-.3.5-10.8.2-15 .1-.9 0-1.5-.8-1.3-1.7l.3-1.5c2.4.6 4.8 1 7.2 1z"/><path id="XMLID_55_" class="st18" d="M135.3 222.4c-4.8-1-10.4 2.9-11.7 9.1-.7 3.5-1.7 16.6-1.6 27.3.1 4.1-1.9 8.1-5.4 10.2-.6.3-1.1.7-1.6 1.1-2.3 2.1-13.3 15.8-20.1 25.1-.2 1.5 0 3.5.8 4.4 8.8-6.9 23.6-19.8 26.1-22.1 1.4-1.3 2.9-2.8 4.2-4.2 5.4-3.6 14.1-31.2 15.3-36.8 1.2-6-1.3-13.1-6-14.1z"/><ellipse class="st9" cx="132.3" cy="182.7" rx="7.4" ry="9.6"/><path id="XMLID_56_" class="st9" d="M130.5 183.7c-.1-5.3-4.4-9.7-9.7-10-4.7-.3-8.7 2.6-10.2 6.7-.5 1.4-1.9 2.4-3.5 2.3-.6 0-1.3 0-2 .2-3.9.8-6.9 4.1-7.3 8-.4 3.5 1.3 6.7 4 8.5 1.1.8 1.8 2.1 2 3.4.9 6.3 6.6 10.9 13.2 10.2 5.6-.6 10.1-5.2 10.6-10.9.3-3.5-.9-6.6-3-9 3.6-1.5 6-5.2 5.9-9.4z"/><path id="XMLID_57_" class="st6" d="M195.8 185c-1.9-.4-3.6.4-4.6 1.8h-1.1v-10.2c0-1.9-1.5-3.4-3.4-3.4h-11.4V172c1.4-1 2.2-2.7 1.8-4.6-.3-1.6-1.6-2.9-3.2-3.3-2.9-.7-5.4 1.5-5.4 4.3 0 1.5.7 2.8 1.9 3.6v1.1H160c-1.9 0-3.4 1.5-3.4 3.4v10.2h.8c1-1.4 2.7-2.2 4.6-1.8 1.6.3 2.9 1.6 3.3 3.2.7 2.9-1.5 5.4-4.3 5.4-1.5 0-2.8-.7-3.6-1.9h-.8V203c0 1.9 1.5 3.4 3.4 3.4h10.2v-.8c-1.4-1-2.2-2.7-1.8-4.6.3-1.6 1.6-2.9 3.2-3.3 2.9-.7 5.4 1.5 5.4 4.3 0 1.5-.7 2.8-1.9 3.6v.8h11.4c1.9 0 3.4-1.5 3.4-3.4v-11.4h1.1c.8 1.1 2.1 1.9 3.6 1.9 2.8 0 4.9-2.5 4.3-5.4-.2-1.4-1.5-2.7-3.1-3.1z"/><path class="st9" d="M132.3 170s4.2 2.6 3.7 6.2c0 0 2.2-1.6 2.7-7 .3-3.8-6.4.8-6.4.8z"/><path id="XMLID_59_" class="st3" d="M142.3 191.6c-.1 1.7 0 3.4.2 5s.6 3.3 1.2 4.6c.3.7.6 1.3.9 1.7.3.4.5.6.5.6-.1 0-.1.2.3 0 .2 0 .4-.2.6-.4.2-.2.5-.4.8-.7 1.1-1.1 2.1-2.6 3-4.2.9-1.6 1.7-3.3 2.5-5.1 1.5-3.5 2.8-7.2 4-10.9.2-.7 1-1.1 1.6-.8.6.2 1 .8.9 1.4-.5 3.9-1.2 7.9-2.2 11.8-.2 1-.5 2-.8 3-.3 1-.6 2-1 3-.7 2-1.7 3.9-3.1 5.9l-1.2 1.5c-.5.5-1 1-1.7 1.4l-.5.3-.6.3c-.4.2-.8.3-1.3.4-.9.2-2 .2-2.9 0-2-.4-3.4-1.5-4.4-2.5-1-1-1.8-2.1-2.4-3.2-2.3-4.3-3.2-8.7-3.4-13.2-.1-2.5 1.8-4.6 4.3-4.8 2.5-.1 4.6 1.8 4.8 4.3-.1.3-.1.4-.1.6z"/><path id="XMLID_58_" class="st3" d="M137 209.9c1.7-5 5-15.7 4.7-19.1-.2-2.2-2-3.9-4.3-3.9h-14.5c-2.4 0-4.4 1.9-4.4 4.3-.1 4.2 1.8 13.8 2.9 18.8H137z"/><path class="st3" d="M134.1 232.5c1.7 6 15.2 48.8 10.5 50.1-4.7 1.3-30.1-40.5-30.5-46.7-.3-5.9 3.1-12.3 7.8-13.6 4.8-1.3 10.5 4.2 12.2 10.2z"/><path id="XMLID_60_" class="st6" d="M155.1 302.4c.2-.2.2-.5.1-.7-3.6-10-8.5-22.7-9.5-25.1-.1-.3-.2-.5-.4-.8-1.8-12.7-9.9-38.5-11.2-43.1-1.7-6-7.4-11.5-12.1-10.2-4.7 1.3-8.1 7.7-7.8 13.6.2 3.9 10.3 21.7 18.9 34.2 1.8 2.6 3 5.6 3.5 8.8.4 2.2 1 4.3 1.7 5.9 1 2.4 7 11.4 12.4 19 .2.2.4.4.7.3 1.4-.2 2.7-.8 3.7-1.9z"/><path class="st6" d="M119.7 216.2c.8-2.1 1-4.4.7-6.6-.7-5.1-2-14.8-1.9-18.9.1-2.2 1.9-3.9 4.1-3.9h2.2c.8 1.9 2.6 3.4 5.3 3.4 2.7 0 4.4-1.5 5.2-3.4h2c-2.2 4.7-1.4 10.9 2.4 14.5-.7 2.5-1.3 5-1.7 7-.6 2.7-.3 5.6.7 8.2 1.9 4.4 3.3 11.6 2.9 14.4-15.3 4.3-25.8-3.3-25.8-3.3l3.9-11.4z"/><path id="XMLID_61_" class="st18" d="M137.9 208.3c.1-.7.3-1.4.5-2.2-2.2-.5-4.4-1.3-6.5-2.2-4.4-1.9-10.1-5.1-13.3-9.5.1 1.3.2 2.6.4 4.1 1.6 3.7 3.2 7.2 6.3 9.9 3.7 3.3 8.2 5.5 12.9 6.9-.7-2.3-.8-4.7-.3-7z"/><path class="st3" d="m132.3 187.8-6.6-.7 2.1-7.2 4.3.5z" id="XMLID_62_"/><path class="st1" d="m132.1 180.4-4.3-.5-.6 2.2c1 1.1 2.2 3.4 3.7 3.4.5 0 .9-.1 1.3-.4l-.1-4.7z"/><path class="st3" d="M132.2 183.9c-1.4 0-3-.7-5.2-2.6-1.2-1.1-2.2-3-2.2-4.2v-7h10.8s.8 3.7 0 7.4c-.4 2.7-2.2 6.4-3.4 6.4z"/><path class="st3" d="M126.7 175.7c0 1.4-.7 2.5-1.5 2.5s-1.7-1.8-1.7-3.2c0-1.4.9-1.8 1.7-1.8.9 0 1.5 1.2 1.5 2.5z"/><path class="st9" d="M123.6 170.9c0-2.2 1.8-4 4-4h3.7c1 0 2.1-.3 2.9-.8 1.3-.7 2.9-.5 3.8.7 1 1.3 1.4 3-1 4.6-1.2.8-3-.1-4.1.3h-3.4c-1.1 0-2 .9-2 2 0 .7-.6 1.3-1.3 1.3h-.1l-.5-1.7-1.8 2.4v-4.8z"/><path class="st3" d="M159.2 178.6s.8 3.7-.3 4.3c-1.1.6-1.9.8-2.8-.7s-1.5-4-1.6-5.6c0-1.6 1-4.3 1.3-4.5 1.1-.8.9 2.1.8 3.5 0 1.4 0 3 .7 2.8.7-.2.6-2.9 1.3-3.3.7-.4.6 3.5.6 3.5zm16.1 25.5s-3.8-.6-4.3.5c-.6 1.1-.8 1.9.8 2.8 1.6.9 4.1 1.4 5.7 1.3 1.6 0 4.2-1.2 4.4-1.5.7-1.1-2.1-.8-3.5-.7-1.4.1-3 .1-2.8-.6.1-.7 2.8-.7 3.3-1.4.3-.7-3.6-.4-3.6-.4z"/><path class="st9" d="M134.9 169.9c-.4 1.6.2 2.5-5.1 5s-6.9 1.4-8.6 4.1c0 0 .7-4.5 3.6-6 2.9-1.5 8-2.5 9.6-6.1.1 0 .8 1.9.5 3z"/><path id="XMLID_64_" class="st3" d="M125.8 190.9v-.1.1l.1.1c.1.2.1.3.2.5.2.3.3.7.5 1.1.2.3.4.7.7 1.1.3.3.6.7.8 1 .7.6 1.2 1.4 2 1.9l1.1.9 1.3.8c3.5 2.1 7.7 3.5 12.1 4.6 1.1.2 2.2.4 3.4.6 1.1.2 2.2.4 3.4.5l3.5.3 1.7.2 1.8.1 3.5.2c1.2.1 2.4.1 3.5.1h7.2c.7 0 1.3.6 1.3 1.3 0 .6-.5 1.1-1 1.3-2.4.5-4.8.9-7.1 1.4-1.2.3-2.4.4-3.6.5l-3.6.4-1.8.2-1.8.1-3.7.1c-1.2.1-2.5 0-3.7-.1-1.3-.1-2.5-.1-3.8-.2-5-.6-10.2-1.6-15.1-4.1l-1.8-1-1.8-1.2c-1.2-.8-2.2-1.8-3.3-2.8-.5-.6-1-1.1-1.5-1.7-.5-.6-.9-1.3-1.3-1.9-.4-.7-.8-1.4-1.1-2.1l-.4-1.2-.2-.7-.1-.4-.1-.6c-.4-2.5 1.4-4.8 3.8-5.2 2.2-.3 4.6 1.4 4.9 3.9z"/><path id="XMLID_63_" class="st9" d="M133.9 170.2s.2 5.4 4.9 8c0 0-2.1-4.1-1.9-6.8.1-2.6-3.3-3-3-1.2z"/><path class="st9" d="M81.9 306.5c-.2-.4 0-.9.4-1.2.3-.2 1.2-.8 1.9-1.2.3-.2.7 0 .7.4.4 3.9 2.2 7.4 5.5 9.1.9 1.1 1 3.1.5 3.7-.1.1-1.7-.4-2.9-1.9-5.8-6.6-6.1-8.9-6.1-8.9z"/></g><g id="XMLID_65_"><path class="st3" d="M431.2 286.3c-.2 0-.4-.1-.7-.1-.5-.1-1.2-.1-1.8-.1-1 .1-2-.1-3-.6l-3.8-1.9c-1.6-.8-3.3.9-2.6 2.5.1.1.2.3.3.3l4.5 2c1.3.6 2.5 1.5 3.4 2.6l1.3 1.6c2.7-1.7 2.4-4.7 2.4-6.3z"/><path class="st9" d="M429.6 299.4c.2-2.2-.8-5.8-1.3-7 1.2-2.1 1.2-4.4.5-6.5.6 0 1.3-.1 1.8.1.7.2 2.4.4 3.1.5.5.1.8.5.8 1 0 0-2.2 15.6-2.6 15.3-.9-.4-2.5-1.5-2.3-3.4z"/><path class="st17" d="M285.3 324.5h55.2c.7 0 1.3-.6 1.3-1.3 0-.7-.6-1.3-1.3-1.3h-55.2c-.7 0-1.3.6-1.3 1.3 0 .7.6 1.3 1.3 1.3zm90.1 0h60c.8 0 1.4-.6 1.4-1.4 0-.8-.6-1.4-1.4-1.4h-60c-.8 0-1.4.6-1.4 1.4 0 .8.6 1.4 1.4 1.4z"/><path class="st19" d="M348.1 270.8c-1.2 4.8-9.7 42.5-8 42.5 1.5 0 17-35.2 18.2-40 1.2-4.8-.1-9.2-2.9-10-2.9-.6-6.1 2.7-7.3 7.5z"/><path class="st19" d="M366.7 232.5c-4.1 5-22.4 37.7-18.5 40.9 3.9 3.2 29.3-23.9 33.4-28.9 4.1-5 3.5-12.1-.4-15.3-3.9-3.1-10.4-1.6-14.5 3.3z"/><path id="XMLID_66_" class="st3" d="M342.2 318.6v-.7c0-.6-.1-1.2-.2-1.8-.2-1-.2-2 .1-3l1.3-4c.5-1.7-1.3-3.2-2.9-2.2-.1.1-.2.2-.3.4l-1.3 4.8c-.4 1.4-1.1 2.6-2.1 3.7l-1.4 1.5c2.2 2.3 5.2 1.4 6.8 1.3z"/><path class="st9" d="M328.9 318.9c2.2-.1 5.6-1.6 6.7-2.3 2.3.8 4.6.5 6.5-.5.1.6.2 1.2.2 1.8 0 .7-.1 2.4-.1 3.1 0 .5-.4.9-.9.9 0 0-15.8.2-15.5-.4.4-.8 1.3-2.5 3.1-2.6z"/><path d="M358.2 273.4c-.7 3-10 25.9-15 36.6-1.5-.6-2.3-.5-3.9-1 2-10 5.4-32.5 6.6-37.3.5-6.7 17-34.5 20.8-39.1 4.1-5 10.6-6.5 14.4-3.3 3.9 3.2 4.5 10.3.4 15.3-2.6 3.2-22.8 26.8-23.3 28.8z" style="fill:#7006ed"/><path id="XMLID_67_" d="M381.2 229.3c-3.9-3.2-10.3-1.7-14.4 3.3-.3.4-.8 1-1.3 1.7 3.7 7.4 5 15.5 4.8 23.8 5.1-6.1 10.1-12 11.3-13.5 4.1-5 3.5-12.2-.4-15.3z" style="fill:#5b07d3"/><path class="st6" d="M378.1 273.6c-.2-.3-.3-.7-.4-1-2.7-8.1-2-37.5-1.1-43.5.2-1.6.7-3.1 1.3-4.4l8.7 4.7c2.2 2.5 4.8 4.7 7.7 6.4.4.3-.1-.9.3-.7-1.3 7.7-2.9 23.1-3.5 30.8-.1 1.7.8 3.4 2.5 4.1 8.1 3.4 22.6 10 30.7 14.4l-.3 4.6c-11.8-2.5-35.3-9.5-38.9-10.5-3.3-.9-5.9-2.9-7-4.9z"/><path id="XMLID_69_" class="st1" d="M370.9 199.3c0 .5-.1.7-.1 1.1 0 .3-.1.6-.1.9-.1.6-.2 1.2-.3 1.7-.3 1.1-.6 2.2-1 3.3-.8 2.2-1.8 4.2-3.2 6.2-2.6 3.8-6.5 6.9-10.7 8.5-2.1.9-4.2 1.4-6.3 1.7-2.1.3-4.2.4-6.3.3-4.1-.2-8.1-1-12-2-.7-.2-1.1-.9-.9-1.7.2-.6.8-1 1.4-1 3.8.3 7.6.3 11.3-.1 3.6-.5 7.1-1.4 10-3.2 2.9-1.7 5.1-4 6.5-6.8.7-1.4 1.3-2.9 1.7-4.5.2-.8.3-1.6.4-2.4.1-.4.1-.8.1-1.2v-1c0-2.6 2.2-4.7 4.7-4.6 2.7.1 4.8 2.2 4.8 4.8z"/><path class="st2" d="M356.5 206.1c.8-1.7 3.9-8.5 4.3-10.1v-.1c0-.1.1-.3.1-.4.8-2.5 3.5-3.8 5.9-3 2.5.8 3.8 3.5 3 5.9-.8 2.3-1.6 4.2-2.5 6.3-.6 1.3-1.3 2.7-2.1 4-.6-.6-8.7-2.6-8.7-2.6z"/><path class="st3" d="M366.9 238.2c3.9 3.2 20.1 2.6 26.2 2.2 1.5-.1 2.7-1.5 2.4-3-.6-3.8-3.3-10.4-4.9-17.2-2.3-9.9-4.5-20.8-5.7-26.7-.5-2.4-2.8-4.1-5.3-3.6l-14.8 2.4c-2.3.4-3.9 2.4-3.7 4.7.4 4.8 1.1 13.1 1.7 21.2.8 8.3 0 16.6 4.1 20z"/><path d="m364.8 192.3 2.4-.4c1.2 1.8 3.2 3 5.9 2.5 2.8-.5 4.3-2.2 4.8-4.3l2.2-.4c2.2-.4 4.4 1.1 4.8 3.3 1.1 5.8 3.4 17 5.7 27.1 1.6 6.9 4.3 13.3 4.9 17.2.2 1.5-.9 2.9-2.4 3-6.1.4-22.2 1-26.1-2.2-4.2-3.4-3.3-11.7-4-20-.7-8.2-1.3-16.6-1.7-21.3-.3-2.1 1.3-4.1 3.5-4.5z" style="fill:#9043ff"/><path id="XMLID_83_" class="st6" d="m372.6 184.3.3-.1c2.1-.6 3.3-2.8 2.7-4.9l-1.6-5.6-4.1 1.2 2.7 9.4z"/><path class="st3" d="m369.3 192.4 7.1-.6.3-1-4.2-7.5-4.9 2.1z" id="XMLID_68_"/><path class="st1" d="m367.6 185.4 5-2.1 1.7 3c-.8 1.6-1.7 3.4-3.6 4-.6.2-1.3.1-1.8 0l-1.3-4.9z"/><path class="st3" d="M370 188.5c3.5-1 5.5-4.6 4.5-8.1l-2-7-10.8 3.1s1.6 5.5 3.4 8.9c1.4 2.6 3.2 3.6 4.9 3.1z"/><path id="XMLID_82_" transform="rotate(163.987 372.957 176.69)" class="st6" d="M371.9 176.2h2.1v1h-2.1z"/><path class="st3" d="M372.3 179.6c.4 1.4 1.4 2.3 2.2 2.1.8-.2 1.2-2.3.8-3.6-.4-1.4-1.4-1.5-2.2-1.3-.9.2-1.2 1.4-.8 2.8z"/><path class="st6" d="M361.8 179.6c-.5-.8-.8-1.7-.9-2.6 0 0-.9-3.1.1-4.1 1-.9 3.1-.7 4.3-.8.9-.1 3.6-1 3.6-1 2.2-.6 4.5.6 5.1 2.8l.2.8-1.3 2.2v1.8h-.1c-.7.2-1.4-.2-1.7-.8-.4-1.1-1.4-1.8-2.6-1.5l-3.2.9c-2 .6-2.7 1.9-2.3 3.4l.5 1.2-1.7-2.3zM335 196.1l-.7-1.7c1.1-1.7 1.5-3.9.8-6-1.2-3.6-5.5-5.7-9-4.4-3.6 1.4-5.4 5.4-4 9 .9 2.2 2.7 3.7 4.8 4.2l.7 1.7-18.3 7.1c-1.6.6-2.4 2.4-1.8 4l7.1 18.1-1 .4c-1.7-1.1-3.9-1.5-6-.8-3.6 1.2-5.7 5.5-4.4 9 1.4 3.6 5.4 5.4 9 4 2.2-.9 3.7-2.7 4.2-4.8l1-.4 7.1 18.1c.6 1.6 2.4 2.4 4 1.8l43.6-17c1.6-.6 2.4-2.4 1.8-4l-17-43.6c-.6-1.6-2.4-2.4-4-1.8l-17.9 7.1z"/><path id="XMLID_70_" class="st3" d="M386.8 194.1c.6 11.7-5.9 25.6-19.7 29-11 2.7-22.8-.3-33.2-4.8-.7-.3-1-1.1-.7-1.8.3-.6.9-.9 1.5-.8 14.5 3.1 33 5.1 39.8-8.1 3.5-6.5 2.8-14.3 2.9-13.2 0-6 9.1-6.3 9.4-.3z"/><path class="st2" d="M376 203.4c1.1-5 1.2-9 1.3-9.1v.1l.8-3.2s1.5-2.5 5.6-1.6c3.3.8 3.3 4.5 3.3 4.5 0 .5 1.2 4.3-2 12.4 0 .3-9.1-2.4-9-3.1z" id="XMLID_71_"/></g><path class="st3" d="M335.5 216c-.9-1.1-1.2-4.8-1.7-4.8-.4 0-.4 1.3-.4 2 0 .1-.1.2-.1.2h-.2c-1-.9-4-3.4-4.3-3.2-.3.2 1.2 2.1 1.8 2.8v.1h-.1c-.8-.4-3.5-1.7-3.5-1.2-.1.5 2.3 2 3.2 2.6v.1h-.1c-1-.3-3.6-1-3.7-.6-.1.5 2.5 1.6 3.4 1.9v.1h-.1c-.9-.1-3.2-.2-2.8.1.4.4 6 2.3 7.2 2.3 1.3 0 1.4-2.4 1.4-2.4z"/><path class="st23" d="M228 164.6h47.8v11.2H228zm0 16.8h47.8v11.2H228zm0 16.8h47.8v11.2H228zm0 16.8h47.8v11.2H228z"/><path id="XMLID_81_" class="st23" d="M147.4 135.5h209.8v12.3H147.4z"/></g><path id="XMLID_80_" class="st6" d="M243.8 141.4h-64.2c-3.2 0-5.9-2.6-5.9-5.9v-14.8c0-3.2 2.6-5.9 5.9-5.9h64.2c3.2 0 5.9 2.6 5.9 5.9v14.8c0 3.3-2.6 5.9-5.9 5.9z"/><path transform="rotate(45.001 234.11 141.345)" class="st6" d="M231.1 138.3h6.1v6.1h-6.1z"/><path id="XMLID_79_" class="st14" d="M182.8 121.6h56.3v2.1h-56.3z"/><path id="XMLID_78_" class="st14" d="M182.8 127.1h56.3v2.1h-56.3z"/><path id="XMLID_77_" class="st14" d="M182.8 132.6h56.3v2.1h-56.3z"/><g id="XMLID_72_"><path class="st6" d="M230.6 222.4h6.1v6.1h-6.1z"/><circle class="st6" cx="217.5" cy="242.3" r="24"/><g id="XMLID_75_"><circle class="st14" cx="208.3" cy="242.4" r="1.9"/><circle class="st14" cx="216.9" cy="242.4" r="1.9"/><circle class="st14" cx="225.4" cy="242.4" r="1.9"/></g></g></g></g></svg>