<svg xmlns="http://www.w3.org/2000/svg" viewBox="0 0 826 639" style="enable-background:new 0 0 826 639" xml:space="preserve"><style>.st0{fill:#9ea6ad}.st1{fill:#1a3151}.st2{fill:#cc937a}.st3{fill:#fff}.st4{fill:#ffb03e}.st5{fill:#7f00ff}.st6{fill:#eacfc1}.st7{fill:#ff225c}</style><g id="object"><path class="st0" d="m633.4 187.9 40.3-16s14.3 35.6 30.6 92.7-7.6 129.7-7.6 129.7-92.4-22-110.9-25.6L609 264.4l24.4-76.5z"/><path class="st0" d="M664.8 329.9v20.3l-27.1 88.2 6.8 91.5-16.9 3.4-27.2-111.9 1.1-32.9 12.5-67.1z"/><path class="st0" d="m643.3 354 27.3 186.4H683l7.8-101.7L707.7 337z"/><path class="st1" d="m629.8 531.5-13 13.7 3.8 7 26.7-12.8-4.9-10.2zm41 6.3-15.9 10 1.8 7.7 29.1-5.8-2.2-11z"/><path class="st2" d="M632.1 132c11 .8 21.3-8.2 32.1-6 7 1.5 12.6 7.7 14.7 14.7 1 3.3 1.4 6.8.4 10.1-.6 2.1-1.8 4-3.2 5.7-1.8 2.3-4.1 4.1-6.6 5.6 1.4 2.2 3 4.3 4.7 6.2-5.1 1.9-10.1 3.9-15.2 5.8-1.1-2.9-2.2-5.8-3.4-8.7-1.5-.1-3-.3-4.5-.7-9-2.3-16.5-10.2-18.5-19.5-.9-4.3-.8-8.8-.5-13.2z"/><path class="st1" d="m634.8 135.3 34-4.1 6.6 26 9.6-7.6-5-42.5-47.9-1-20.7 12.2.8 12.2 18.6 12.5z"/><path class="st3" d="m648 178.2 40.3-16s14.3 35.6 30.6 92.7-7.6 129.7-7.6 129.7-82.7-40.9-101.1-44.5l13.4-85.4 24.4-76.5z"/><path class="st0" d="m688.8 163.6 44.9 94.1-15.9 25.2-20.8-12.6-21.3-76.1z"/><path class="st0" d="M719.6 256.1C703.3 199 689 163.4 689 163.4l-40.3 16-.1.2c.9 2.3 1.8 4.6 2.6 7 3.2 9.3 5.6 18.9 7 28.7 2.6 17.1 2.8 34.8 2.3 52.1-.5 16.6-2.2 33.2-5.2 49.5-3.9 21.6-10.1 42.7-18.1 63 37.5 7.6 81.7 16.6 81.7 16.6s17-83.4.7-140.4z"/><path class="st0" d="M629.6 269.3c-1.8 7.7-3.8 16.3-2.2 23.8 0 0 5 10.5 5.5 10.1 0-.3 5.7-5.1 7.3-8.6 2.7-6 3.3-13.5 3.4-20.3.2-24-1.2-48.3 2.8-72 4.7-1.4 8.8-4.9 5.9-9.9-9.2 3.5-10.2 24.2-12.2 32.7-3.5 14.8-7 29.5-10.5 44.2z"/><path class="st2" d="m648.6 245.6-17 16.3-24.8-2.7 3.2-8.2s17-2.7 17.4-3.8c.4-1 3.4-5.7 3.4-5.7l9.4-1.6 8.4 5.7z"/><path class="st0" d="m733.8 257.4-35.3-19.9h-56.6l-1.7 19.2L723 276z"/><path class="st4" d="m492.5 155.2-18.3 7.3-36.1 65.6 4.9 18.1 18.1 2.2zm34.6-1.7 17.2 9 33.4 65.6-12.6 23.6-15.3-7.7-22.5-88.7z"/><path class="st4" d="M574.5 317.5c.3 9.9.1 23.2-4.1 23.7-.8.1-1.5-.3-2.2-.6-7.3-3.5-12.4-8.5-19.6-11.9-7.5-3.6-16-5.4-24.4-6.7-12.4-2-25.1-3.2-37.6-3.3-10.8-.1-21.9 4.8-32.1 7.5-3.9 1-7.1 3.9-10.3 6.1-4.8 3.3-6.9 4.6-6.3-2.1 1.1-11 2.2-22 3.5-33 2.7-21.9 6.4-43.8 12.6-65 2.4-8.1 5.1-16.1 7.9-24.1 3.3-9.7 6.7-19.4 10-29.2 4.2-12.1 11.2-20.6 23.4-24.8 10.6-3.7 23.8-4.7 34.1.5 11.5 5.7 16.9 25.1 22.5 35.4 4.9 9.1 11 33.8 12.9 43.6 2.2 11.8 4.2 23.5 5.8 35.2 1.8 12.9 3 25.8 3.4 38.7.1 1.3.4 5.2.5 10z"/><path class="st4" d="m457.2 279.8-1.3 108.1 20.4 139.4h15.6l9.9-128.6 21.5-128.6z"/><path class="st4" d="m553.6 279.8.3 62.6-19.4 184.9h-15.7l-17.3-122.8-14-134.4z"/><path class="st1" d="m466.4 533.9 8.5 8.4 17-8.4v-8.5h-17zm77.4-.1-8.5 8.4-16.9-8.4v-8.5h16.9z"/><path class="st3" d="m516.8 156.2-21.2.2s-22.7 79.4-23.5 93c-.8 13.4-6.6 67.9-6.6 67.9s23.4.6 50.4 3.8c26.4 5.7 28.6 2.3 28.6 2.3s-14.2-57.2-14.7-73.7c-.5-16.8-2.6-72.4-2.6-72.4l-10.4-21.1z"/><path class="st5" d="M513.7 157.5h-10.4c-2.4 0-3.8 2.8-2.3 4.7l4.3 5.6-11.4 105 14 13.8 9.6-16.4-2.6-102.4 1.7-6.7c.4-1.8-1-3.6-2.9-3.6z"/><path class="st6" d="M503.9 156.7c.2.2.5.4.9.5.7.2 1.4.1 2.1.1 2.8-.3 5.6-.7 8.4-1-.9-8.6 4.1-10.5 9-16 5-5.6 3.4-13.1 3.1-20-.1-1.9-.2-3.9-1-5.6-1.4-3-4.7-4.7-7.9-5.7-8.2-2.5-17.5-1.9-24.7 2.7-1.9 1.2-3.7 2.8-4.7 4.8-1.6 3.1-1.2 6.8-.7 10.3.7 5.3 2.3 10.6 5.3 15.1 2.8 4.2 8.2 6.2 8.8 11.2.1 1.3.5 2.7 1.4 3.6z"/><path class="st5" d="M535.6 90.3c-1.6-2.5-3.6-4.8-5.9-6.2-5.6-3.4-13.3-3.7-19.3-6-8.4-3.3-12.7-.3-20.6 2.2-3.2 1-6.8 1.9-8.5 4.9-.9 1.7-1.1 3.7-2 5.4-1.2 2.1-3.5 3.2-5.5 4.6-2.3 1.6-3.3 3.9-3.4 6.4-.2 5.5 4 14.5 9.1 16.7 1 .4 2.1.7 3.3.8 1.2 3.4 3.4 6.7 6.7 7.9.5-2.1-.5-4.3-1-6.5-.1-.5-.1-1.1-.1-1.7 3.8-.7 7.7-2.1 10.5-3.3 5.9-2.6 17.3-5.3 23.3-2.3 4.8 2.4 3.3 10 3.1 14.8-.1 1.2-.2 2.5.1 3.7.4 1.7 1.7 2.6 1.9 4.3 3.9-1.8 6.3-6.2 8.5-9.8 1.1-1.8 2.2-3.7 3-5.7 3.8-9.1 2.4-21.4-3.2-30.2z"/><path class="st4" d="m438.1 228.1 32.3-13.1 67.3-2.2 1.7 12.6-73.9 23-22.5-2.2z"/><path class="st4" d="M577.7 228.1 546 216.6l-70.4-11-5.1 11s69 30.7 71.2 31.7c2.2 1.1 23.5 3.3 23.5 3.3l12.5-23.5z"/><path class="st6" d="m537.8 213.6 13.6-4.1 11.5 5.5 4.4 11h-11l-9-8.8-9.2-1.8zm-63.6-6.8s-2.3 8.2-3.1 8.2-18.1 7.1-18.1 7.1.9-9.3 1.5-9.3c.5 0 9.9-8.2 9.9-8.2l9.8 2.2zM246 188.7l-2.2-10.9-5.5-6.6-2.7 1.1 2.2 4.9-11-8.2-4.4 2.8 6.1 14.7 9.8 7.2zm173.5-13.9 7-8.2 6.8-4 1.2 2.5-2.9 3.4 13.9-3.6 3.1 7.5-13.3 8.8-10.3 1.1z"/><path class="st1" d="m345.1 161.9-.8-5.7 11.2 1.8 24.1 19.2 30.7 53.6s-10.9 23.5-10.4 24.1c.5.5-10.9-5.5-10.9-5.5l-43.9-87.5zm20.8 361.3 13.1 9.3 4.4 7.1s-4.9 2.2-7.7 2.7c-2.7.5-24.1-2.7-24.1-2.7V527l14.3-3.8zm-47.7 6 7.1 7.1s6 9.9 3.3 9.9-17.5 1.6-18.6 0c-1.1-1.6-9.3-7.1-10.4-8.2-1.1-1.1-.6-10.7-.6-10.7l19.2 1.9z"/><path class="st1" d="m343.4 337.1-9.3 93.6-15.9 98.5H299l-2.2-102.9s-19.2-93.6-20.8-121.5l67.4 32.3z"/><path class="st1" d="M387.2 338.7 370.8 527h-19.7l-6-96.3-11.4-85.3 43.1-50.5z"/><path class="st1" d="M416.4 340.4c-4-11-3.1-22.8-4.4-34.3-2.3-20-10.5-38.2-17.4-56.9-2.9-7.7-5.6-15.5-8-23.3-1.1-3.6-2.1-7.2-3.1-10.8-1.1-3.6-3-8.3-3-12 0-15.1-13.5-26.4-22.3-37.5-2.6-3.3-5.5-6.8-9.4-8.3-2.7-1.1-5.7-1.2-8.6-1.3-8.8-.3-17.6-.5-26.4-.8-3.2-.1-6.6-.2-9.5 1.2-4.4 2-6.9 6.6-9 10.9-9.7 19.3-5.5 42.3-9 63.7-1.8 11.2-3.5 22.4-4.8 33.7-.4 3.2-1.7 8.6-3.6 15 0 0-14.5 61.5-5.9 86.5 5.1-3.4 9.3-7.4 14.8-10.3 6.8-3.6 14.6-5.6 22.2-6.9 11.4-2.1 23.1-3.4 34.7-3.6 9.1-.2 18.3.6 27.5 1.4 7.6.6 14.6 2.9 22.4 2.3 7.9-.5 15.7-3 22.5-7.1.2-.2.5-.3.6-.6-.1-.3-.2-.7-.3-1z"/><path class="st3" d="M319.3 155.9h-7.1v8.2l33.4 70.6 2.7-32.3-10.9-45.4z"/><path class="st7" d="M347.8 208.3c-.3-2.9-.7-5.5-1.2-7.5-3.1-14.4-15.3-32.3-15.3-32.3s-1.1-4.1-1.6-7.7l-8.8-.5 1.4 8.9 4.1 3.5s12.5 33.7 14 47.5c.2 1.5.3 3 .4 4.5l4.7 10 2.3-26.4z"/><path class="st3" d="m351.6 262.6-12 82.7 21.3 1.6h14.8l-17-71.7z"/><path class="st6" d="m331.1 160.9-14.7-.6c-.3-3.9-.2-7.8.1-11.7-4.1-1.2-9-3.1-9.9-7.3-.3-1.3-.1-2.7 0-4.1.6-5.6 1.3-11.2 1.9-16.8.2-1.9.5-3.9 1.4-5.6 1.7-3 5.1-4.4 8.5-5.2 8.5-2 17.9-.6 24.9 4.6 1.9 1.4 3.5 3.1 4.4 5.2 1.4 3.3.7 7 0 10.5-.7 3.2-1.3 6.5-2 9.7-.8 3.7-1.9 8-5.4 9.5-1.8.8-4.1.7-5.7 1.9-2.8 2.2-2.2 6.7-3.5 9.9z"/><path class="st7" d="M358.2 90c-1.1-.2-2.2-.4-3.3-.9-3.6-1.5-6-4.6-9.8-6.1-7.6-2.9-17.2-2.5-24.7.6-7.2 3-17 4.2-23.4 8.2-2.7 1.7-4.8 4.2-6.3 7-5.5 9.5-4.8 22.2 1.6 31.2 1.4 2 3.1 3.8 4.9 5.5 3.7 3.6 8 8 12.9 9.1-.1-4.3-4.7-17.4-1.7-21.1 4.1-4.9 12.1-4.7 17.8-4.2 6.8.6 12.4-1.6 19.2-1.2 3.5.2 7.4.9 10-1.4 3.1-2.6 9.6-10.8 11.1-14.4 1.3-3.1.4-7-1.9-9.5-1.9-2.2-4.1-2.4-6.4-2.8z"/><path class="st1" d="m386.7 225.4 32.8-50.4 9.9 7.1-18.6 65.7-10.9 7.1s-13.7-1.6-13.1-3.3c.4-1.6-.1-26.2-.1-26.2zm-81.6-69.5-16.4 7.1-26.8 71.7 9.9 20.5 22.4-.8z"/><path class="st1" d="m293.1 244-6.1-15.9-40.5-41-11.5 6 29 55.8 12.1 11.5z"/><path class="st5" d="m218.9 197.2 22.7 61.1-22.2 32.2-4.3-77.4z"/><path class="st1" d="M159.3 530.8c-2.1-1.3-4.2-1.8-6.2-.9-2 .8-3.5 2.7-3.8 4.7-.3 1.4 0 2.8.2 4.2 1.2 7.1 5.5 23.7 15.7 23.6 4.3 0 6.8-3.7 7-7.5.2-5.7-6-19.7-12.9-24.1z"/><path class="st6" d="m177.6 440.5-1.6 18.1-12 73.3 2.2 10.9s-1.1 6-7.1 4.9c-2.4-.4-8.2-12.6-8.2-12.6l1.6-4.9-1.6-52.5 3.8-22.4-3.8-18.1 26.7 3.3z"/><path class="st1" d="m217.5 551.9-13.6-12.5c-3.9-2-8.1-3.4-11.5-3.3-2.4 0-4.5.8-5.7 2.7-1.2 1.8-1.4 4.1-.6 6 .3.7.7 1.3 1.2 1.9.4.5.8 1 1.3 1.5.3.3.6.6.9 1 2.8 3 7.5 8 9.4 9.1 2.7 1.6 8.8 6 15.9 1.1 0 0-.1 0-.1-.1 2.6-1.8 3.3-4.7 2.8-7.4z"/><path class="st6" d="m206.8 442.9-1.1 15.7-5.4 76.5 5.4 8.9s1.1 7.1-7.1 6.6c-2.4-.2-11.1-11.2-11.1-11.2l1.3-5-5.8-52.3-.3-21.9-2.9-18.5 27 1.2z"/><path class="st1" d="m160.7 180.9 38.3 2.3 20.1 14.4s-1.1 64.3 0 88.1c1.1 23.8 3 43.1 5.6 77.9 2.9 38.3-6.2 84.5-6.2 84.5h-79.6s-17.5-87-9.5-109.7c8-22.7 11.1-44.8 11.1-63.3s-8.2-77.2-8.2-77.2l28.4-17z"/><path class="st5" d="m142.9 186.1-13 9.8s9.9 67.6 10.4 79.4c.5 11.8-13.1 59.1-13.1 59.1l62.9 8.2s12.1-54.9 14.8-79.9-44.3-81.6-44.3-81.6l-17.7 5z"/><path class="st5" d="m206 184.9 13.1 12.6s1.7 75.9 1.2 87.7c-.5 11.8 9.8 49.3 9.8 49.3l-20.3 7s-10.1-37.9-12.6-62.9-2.2-96.3-2.2-96.3l11 2.6z"/><path class="st4" d="M196.7 153.3c2.2 6.3-1 13-3.8 18.7-1.2 2.3-3 5.6-1 8 2.2 2.7 7.1 1.6 9-.7 1.4-1.6 1.9-3.7 2.4-5.8 2.1-9.1 5-21.9 3.4-31.1-1.3-7.4-11.7-19.8-20.7-14.2-1.6 1-2.6 2.7-3.4 4.4-.5 1-.9 2-.9 3.1-.1 4.4 4.2 5.1 7.2 7.2 3.6 2.6 6.4 6.4 7.8 10.4z"/><path class="st6" d="M183.1 177.8c6.2-1.4 11.1-6.2 13.4-11.8 2.3-5.6 2.5-11.7 1.8-17.6-2.2-19.8-28.5-18.5-37.4-3.3-7.8 13.1 4.1 36.7 22.2 32.7z"/><path class="st4" d="M162.9 154.3c0 2.4-1 5.1-1.1 7.6-.2 4.6 1.3 10.4.1 14.7-4.7-.2-10.5-2.6-14.2-5.4-3.8-2.9-3.6-7.8-4.8-12.4-1.1-4.3-2.4-8.7-2.6-13.1-.8-24.5 22.3-40 44.6-30.9 8.5 3.4 13 13.7 7.6 21.1-5.7 8-19 6-26.2 12.2-1.6 1.2-2.7 3.5-3.4 6.2z"/><path class="st6" d="m183.4 175.7-.6 4.5c-.1.7.1 2.6-.4 3.1-.3.3-.7.3-1.1.3-1.1 0-11.4-.4-11.4-1.1.1-1.8.3-3.5.7-5.2.3-1.4.3-3.9 1-5 1.8 1 3.7 1.6 5.8 2 2 .4 4 .7 6.1 1-.1.2-.1.3-.1.4z"/><path class="st5" d="m129.9 195.9-37.7 85.6 8.7 11.3 74 6.6 5.5-14.9-56.5-19.1 29.2-47.6z"/><path class="st3" d="M222.4 273 173 242.2l-52.1 19.6 24.7 11 36.1 13.1z"/><path class="st6" d="m191.8 282.3-3.3 1.1 2.2-5.5-1.6-2.7-4.9 4.9s-4.4 6.6-4.7 6.9l-3.9 10.2c4.4.2 11.4.4 12.9.4l16.4-14.2 1.6-9.3-14.7 8.2z"/><path d="m222.4 273 45.4-35.6c-4.4.5-56.4 14.2-56.4 14.2l-10.9 7.7 21.9 13.7z" style="fill:#f1f2f2"/><path class="st6" d="m249.5 241.8-7.9-2.7-10.9-1.1-5.5 6.6s-.5 7.7 0 7.1c.5-.5 3.3 0 3.3 0l1.6-3.8 2.5-1.8 16.9-4.3z"/></g></svg>