<svg version="1.1" id="Layer_1" xmlns="http://www.w3.org/2000/svg" x="0" y="0" viewBox="0 0 1700 1400" style="enable-background:new 0 0 1700 1400" xml:space="preserve"><style>.st0{fill:#d84136}.st1{fill:#f9b982}.st2{fill:#ea5443}.st4{fill:#ef7e39}.st5{fill:#fff}.st7{fill:#a25919}.st8{fill:#634e42}.st10{fill:#28313f}.st11{fill:#354258}.st12{fill:#a68987}.st14{fill:#c6b2b0}</style><path class="st0" d="M999.3 763.4c-17.9 0-32.5 14.6-32.5 32.5V1034H744.6v65h254.8c17.9 0 32.5-14.6 32.5-32.5V795.9c-.1-17.9-14.6-32.5-32.6-32.5z"/><circle class="st1" cx="719" cy="1074.8" r="58.4"/><path class="st2" d="M1100.2 688.3h-52.7c-5.9 0-10.6 4.8-10.6 10.6V714h74v-15c-.1-5.9-4.9-10.7-10.7-10.7z"/><path d="M1265.7 815.4h-220.5V1099H1326V875.8c0-33.3-27-60.4-60.3-60.4z" style="fill:#564596"/><path class="st2" d="M962.9 1098.6h203.5V714h-140.1c-35.1 0-63.5 28.4-63.5 63.5v321.1z"/><path class="st1" d="M1139.4 676.1c1.4 0 2.8 0 4.1-.1v38h-70.1v-59.6c18.4 13.7 41.3 21.7 66 21.7z"/><path class="st4" d="M1143.5 538.5V676c-1.4.1-2.7.1-4.1.1-24.7 0-47.6-8.1-66-21.8V538.5h70.1z"/><path class="st2" d="M1228 1098.6h-123.2v-323c0-34 27.6-61.6 61.6-61.6s61.6 27.6 61.6 61.6v323z"/><path class="st5" d="M690.8 1048.8c-27.5 0-49.9 22.3-49.9 49.9v2h99.8v-2c-.1-27.5-22.4-49.9-49.9-49.9z"/><path d="M1206 503.3c29 0 52.4-23.5 52.4-52.4v-8.8c0-29-23.5-52.4-52.4-52.4v113.6z" style="fill:#954f18"/><path class="st7" d="M996.6 503.3h48.4v86.1c-26.7 0-48.4-21.7-48.4-48.4v-37.7z"/><path class="st1" d="M1139.4 651.1c61.3 0 111-49.7 111-111v-70c0-61.3-49.7-111-111-111s-111 49.7-111 111v70c0 61.3 49.7 111 111 111z"/><path class="st8" d="M1215.7 469.1c12.7-4.7 26.4-4.2 38.7 1.4 3.5 1.6 5 5.7 3.4 9.2-.8 1.7-2.2 3-3.9 3.6-1.7.6-3.6.6-5.3-.2-8.9-4.1-18.9-4.5-28.1-1-3.6 1.3-7.6-.5-8.9-4.1-1.4-3.6.5-7.5 4.1-8.9zm-87 0c12.7-4.7 26.4-4.2 38.7 1.4 3.5 1.6 5 5.7 3.4 9.2-.8 1.7-2.2 3-3.9 3.6-1.7.6-3.6.6-5.3-.2-8.9-4.1-18.9-4.5-28.1-1-3.6 1.3-7.6-.5-8.9-4.1-1.4-3.6.5-7.5 4.1-8.9z"/><path class="st4" d="M1213.6 564.4c-2.5 5.1-7.7 8.6-13.8 8.6s-11.3-3.5-13.8-8.6h27.6z"/><path class="st5" d="M1160.3 632.4c-23.7 0-43-19.3-43-43h86c0 23.8-19.3 43-43 43z"/><circle class="st8" cx="1237.6" cy="500.7" r="8.3"/><circle class="st8" cx="1152" cy="500.7" r="8.3"/><path class="st7" d="M1086 327h206.8c0 49.3-40 89.3-89.3 89.3h-98.8V466c0 20.6-16.7 37.3-37.3 37.3V552c0 6.9-5.6 12.5-12.5 12.5h-17v-61.1h-41.3v-87c0-49.4 40-89.4 89.4-89.4z"/><path class="st2" d="M1160.8 688.3H1108c-5.9 0-10.6 4.8-10.6 10.6V714h74v-15c0-5.9-4.8-10.7-10.6-10.7z"/><circle class="st5" cx="1046.9" cy="736.6" r="7.6"/><circle class="st5" cx="1046.9" cy="823" r="7.6"/><circle class="st5" cx="1046.9" cy="909.5" r="7.6"/><circle class="st5" cx="1046.9" cy="995.9" r="7.6"/><path class="st0" d="m1161.8 788.1 66.2 271.2V797z"/><path class="st2" d="M1412.5 800.4c-10.8-3.5-20.6-9.6-28.6-17.6l-68.7 166.1-93.5-185.5c-8.1-16-27.6-22.5-43.7-14.4-16 8.1-22.5 27.6-14.4 43.7l125.4 248.8c5.5 11 16.8 17.9 29 17.9h1.2c12.7-.5 24-8.3 28.8-20.1l97.8-236.5c-11 1.8-22.6 1-33.3-2.4z"/><path class="st1" d="m1406.1 729-22.2 53.8c8 8 17.8 14.1 28.6 17.6 10.8 3.5 22.3 4.3 33.5 2.4l20.2-48.9-60.1-24.9z"/><circle class="st1" cx="1425" cy="723.8" r="58.4"/><path d="m932.8 479.4-83.5-105c19.2-29.2 30.4-64.1 30.4-101.7 0-102.2-82.8-185-185-185s-185 82.8-185 185 82.8 185 185 185c26 0 50.7-5.4 73.1-15l165 36.7z" style="fill:#f6f6f6"/><path class="st10" d="M1206.9 1098.6h403.2v69h-403.2z"/><path class="st11" d="M89.9 1098.6h1121.8v69H89.9z"/><path class="st10" d="M1392.4 1312.3H886.8v-144.6H1537c0 79.8-64.8 144.6-144.6 144.6z"/><path class="st11" d="M1032.3 1312.3H307.6c-79.9 0-144.6-64.8-144.6-144.6h1013.9c0 79.8-64.8 144.6-144.6 144.6z"/><path class="st12" d="M373.3 1079.4h287v19.2h-287z"/><path class="st12" d="M523.9 832.4h-85.3c-17 0-30.9 13.8-30.9 30.9v235.3h147V863.3c0-17-13.8-30.9-30.8-30.9z"/><path class="st5" d="M761.5 992.1H503c-21.1 0-38.2-17.1-38.2-38.2V556.4c0-21.1 17.1-38.2 38.2-38.2h258.6c21.1 0 38.2 17.1 38.2 38.2V954c0 21-17.2 38.1-38.3 38.1z"/><path d="M718 992.1H244.5c-21.1 0-38.2-17.1-38.2-38.2V556.4c0-21.1 17.1-38.2 38.2-38.2H718c21.1 0 38.2 17.1 38.2 38.2V954c.1 21-17.1 38.1-38.2 38.1z" style="fill:#f3f3f4"/><path class="st14" d="M497.4 832.4h-85.3c-17 0-30.9 13.8-30.9 30.9v235.3h147V863.3c.1-17-13.8-30.9-30.8-30.9z"/><path style="fill:#b69a98" d="M311.3 1079.4h287v19.2h-287z"/><path class="st14" d="M679.6 927.4h-66.7a6.7 6.7 0 0 1 0-13.4h66.7a6.7 6.7 0 0 1 0 13.4zm0 23.4h-66.7a6.7 6.7 0 0 1 0-13.4h66.7a6.7 6.7 0 0 1 0 13.4z"/><circle class="st5" cx="454.8" cy="676.1" r="55.7"/><path class="st14" d="M796.5 206.2H577.2c-4.8 0-8.8 3.9-8.8 8.8 0 4.8 3.9 8.8 8.8 8.8h219.3c4.8 0 8.8-3.9 8.8-8.8s-4-8.8-8.8-8.8zM769 242H604.7c-4.8 0-8.8 3.9-8.8 8.8 0 4.8 3.9 8.8 8.8 8.8H769c4.8 0 8.8-3.9 8.8-8.8-.1-4.8-4-8.8-8.8-8.8zm-28.7 93H623.7c-4.8 0-8.8 3.9-8.8 8.8 0 4.8 3.9 8.8 8.8 8.8h116.5c4.8 0 8.8-3.9 8.8-8.8s-3.9-8.8-8.7-8.8zm-42.9-39.7h-94.8c-4.8 0-8.8 3.9-8.8 8.8 0 4.8 3.9 8.8 8.8 8.8h94.8c4.8 0 8.8-3.9 8.8-8.8-.1-4.9-4-8.8-8.8-8.8zm73.7 0h-27.6c-4.8 0-8.8 3.9-8.8 8.8 0 4.8 3.9 8.8 8.8 8.8h27.6c4.8 0 8.8-3.9 8.8-8.8s-3.9-8.8-8.8-8.8z"/><circle class="st5" cx="1109.8" cy="1082.4" r="7.6"/></svg>