<svg xmlns="http://www.w3.org/2000/svg" viewBox="0 0 512 512" style="enable-background:new 0 0 512 512" xml:space="preserve"><circle style="fill:#338af3" cx="256" cy="256" r="256"/><path style="fill:#f0f0f0" d="m255.999 111.304 11.05 34.012h35.764l-28.932 21.021 11.05 34.011-28.932-21.02-28.933 21.02 11.053-34.011-28.933-21.021h35.763zM111.304 256.002l34.012-11.052v-35.764l21.021 28.934 34.011-11.051-21.02 28.933 21.02 28.93-34.011-11.052-21.021 28.933v-35.762zm144.697 144.694-11.051-34.012h-35.764l28.934-21.021-11.051-34.011 28.932 21.02 28.931-21.02-11.052 34.011 28.933 21.021h-35.762zm144.695-144.697-34.012 11.051v35.763l-21.021-28.933-34.011 11.051 21.02-28.932-21.02-28.931 34.011 11.052 21.021-28.934v35.763z"/></svg>