<svg version="1.1" id="Layer_1" xmlns="http://www.w3.org/2000/svg" x="0" y="0" viewBox="-149 272.9 297 297" style="enable-background:new -149 272.9 297 297" xml:space="preserve"><style>.st1{fill:#f28f00}.st2{fill:#f4b145}</style><circle cx="-.5" cy="421.4" r="148.5" style="fill:#7f00ff"/><path class="st1" d="m-51.2 389.5-10.3 2.6c-3.3.8-6.7-1.2-7.5-4.5l-13.8-54.9c-.8-3.3 1.2-6.7 4.5-7.5l10.3-2.6c3.3-.8 6.7 1.2 7.5 4.5l13.8 54.9c.8 3.3-1.2 6.7-4.5 7.5zm112.1 16.3-10.4-2.1c-3.3-.7-5.5-3.9-4.8-7.3l11.2-55.5c.7-3.3 3.9-5.5 7.3-4.8l10.4 2.1c3.3.7 5.5 3.9 4.8 7.3L68.2 401c-.7 3.3-3.9 5.5-7.3 4.8zm-28.1-38.9-10.6-.1c-3.4 0-6.2-2.8-6.2-6.2l.3-56.6c0-3.4 2.8-6.2 6.2-6.2l10.6.1c3.4 0 6.2 2.8 6.1 6.2l-.2 56.7c0 3.4-2.8 6.1-6.2 6.1z"/><path class="st2" d="M-37.6 388.4h-14.6c-3.4 0-6.2-2.8-6.2-6.2v-68.6c0-3.4 2.8-6.2 6.2-6.2h14.6c3.4 0 6.2 2.8 6.2 6.2v68.6c-.1 3.4-2.8 6.2-6.2 6.2z"/><path d="m-6.7 386.3-10.6.9c-3.4.3-6.4-2.2-6.7-5.6l-4.9-56.4c-.3-3.4 2.2-6.4 5.6-6.7l10.6-.9c3.4-.3 6.4 2.2 6.7 5.6l4.9 56.4c.4 3.4-2.2 6.4-5.6 6.7zm33.6 4.9-10.6.9c-3.4.3-6.4-2.2-6.7-5.6l-5-56.5c-.3-3.4 2.2-6.4 5.6-6.7l10.6-.9c3.4-.3 6.4 2.2 6.7 5.6l4.9 56.4c.4 3.5-2.1 6.5-5.5 6.8z" style="fill:#ffa800"/><path d="m42.1 388-10.3-2.5c-3.3-.8-5.4-4.1-4.6-7.4l13-55.1c.8-3.3 4.1-5.4 7.4-4.6l10.3 2.5c3.3.8 5.4 4.1 4.6 7.4l-13.1 55.1c-.7 3.4-4 5.4-7.3 4.6z" style="fill:#f7b759"/><path class="st2" d="m-67.5 391.6-10.3 2.6c-3.3.8-6.7-1.2-7.5-4.5l-13.8-54.9c-.8-3.3 1.2-6.7 4.5-7.5l10.3-2.6c3.3-.8 6.7 1.2 7.5 4.5l13.8 54.9c.8 3.3-1.2 6.7-4.5 7.5z"/><path d="m-66.5 536.9 15.6-156.2c.5-4.7-3.2-8.8-8-8.8h-30.9c-5 0-8.8 4.6-7.8 9.6l31.1 155.4z" style="fill:#79302a"/><path d="M65.5 536.9 49.9 380.7c-.5-4.7 3.2-8.8 8-8.8h30.9c5 0 8.8 4.6 7.8 9.6L65.5 536.9z" style="fill:#6d2623"/><path class="st1" d="m6.4 375.4-10.6-.1c-3.4 0-6.2-2.8-6.2-6.2l.3-56.6c0-3.4 2.8-6.2 6.2-6.2l10.6.1c3.4 0 6.2 2.8 6.1 6.2l-.3 56.6c.1 3.4-2.7 6.2-6.1 6.2z"/><path d="M6.7 306.4H-.4v69h6.7c3.4 0 6.2-2.7 6.2-6.2l.3-56.6c.1-3.4-2.6-6.2-6.1-6.2z" style="fill:#e28305"/><path d="m3.4 404.8-10.6-1c-3.4-.3-5.9-3.3-5.6-6.7l5.1-56.4c.3-3.4 3.3-5.9 6.7-5.6l10.6 1c3.4.3 5.9 3.3 5.6 6.7l-5.1 56.4c-.3 3.4-3.3 5.9-6.7 5.6z" style="fill:#f4b65b"/><path d="m9.6 336.1-9.9-.9v69.3l3.8.3c3.4.3 6.4-2.2 6.7-5.6l5.1-56.4c.2-3.4-2.3-6.4-5.7-6.7z" style="fill:#efac54"/><path style="fill:#c63c22" d="M-66.5 371.9h132v165h-132z"/><path style="fill:#af2d1c" d="M-.3 371.9h65.8v165H-.3z"/><circle cx="-.5" cy="454.4" r="22" style="fill:#f86e51"/><path d="M21.5 454.4c0-12.1-9.8-21.9-21.8-22v44c12-.1 21.8-9.9 21.8-22z" style="fill:#e55a42"/></svg>