<svg xmlns="http://www.w3.org/2000/svg" viewBox="-41 164.9 512 512" style="enable-background:new -41 164.9 512 512" xml:space="preserve"><circle cx="215" cy="420.9" r="256" style="fill:#7f00ff"/><path d="M57.6 321h-2.2c-.5 0-.9.4-.9 1v54.6c.1.7-.5 1.1-1.2 1.1s-1.5-.3-1.5-1.1c0-2.6-1-52.5-1-54.6 0-.5-.4-1-.9-1h-3.2c-.5 0-.9.4-.9 1 0 .5-.5 51.3-.5 54.6 0 .4-.1.7-.3.9-.2.2-.4.2-.7.2h-.6c-.3 0-.6-.1-.7-.2-.2-.2-.3-.5-.3-.9 0-3.3-.5-54.1-.5-54.6s-.4-1-.9-1h-3.2c-.5 0-.8.4-.9 1 0 2.1-1 52-1 54.6 0 .8-.4 1.1-1.2 1.1-.7 0-1.4-.2-1.4-1.1V322c0-.5-.4-1-.9-1H31c-.4 0-.8.3-.8.8-.4 2.3-10.2 56.5-5 65.5 3.4 5.8 7.9 9.6 13.5 11.2l-5.1 113.6v.2c0 5.6 4 10.2 8.9 10.2h3.8c4.9 0 8.9-4.6 8.9-10.2v-.2L50 398.4c5.5-1.6 10.1-5.4 13.5-11.2 5.2-9-4.6-63.2-5-65.5-.1-.4-.5-.7-.9-.7zm290.2 96.5s-.3-96.3-.3-104.6c-.1-5.7-6.3.2-8.9 5.7-2.6 5.4-13.5 27.2-13.5 52.4v30.7c0 10.8 11.4 5.9 11.4 21.3l-5.2 101v.2c0 4.9 3.9 8.8 8.8 8.8h3.3c4.8 0 8.8-3.9 8.8-8.8v-.2l-4.4-106.5zm62.9-58.7c0-18.7-14.5-34.8-28.5-34.9-14 .1-28.5 16.2-28.5 34.9 0 17.1 7.4 30.3 17.5 34.8 1.1.5 5.8 2.1 5.8 2.1l-5.9 114.5v.2c0 5.1 4.1 9.2 9.3 9.2h3.5c5.1 0 9.3-4.1 9.3-9.2v-.2l-5.9-114.4s5.8-2.1 5.9-2.2c10.1-4.5 17.5-17.6 17.5-34.8z" style="fill:#eaebec"/><path d="M192.2 297.2c-68.8 0-124.6 55.8-124.6 124.6s55.8 124.6 124.6 124.6 124.6-55.8 124.6-124.6S261 297.2 192.2 297.2zm0 213.6c-49.1 0-89-39.8-89-89s39.8-89 89-89 89 39.8 89 89-39.8 89-89 89z" style="fill:#72a2f7"/><circle cx="192.2" cy="421.8" r="89" style="fill:#fff"/></svg>