<svg xmlns="http://www.w3.org/2000/svg" viewBox="-149 272.9 297 297" style="enable-background:new -149 272.9 297 297" xml:space="preserve"><circle cx="-.5" cy="421.4" r="148.5" style="fill:#7f00ff"/><path d="M65.5 338.9c-26.8-28.5-79.3-23.5-84.4 17.7-5.7 46.1-27.8 58.8-62.3 72.5-36.9 14.6-26.9 81.9 46.5 77.8 95.9-5.5 180.7-82.5 100.2-168z" style="fill:#ea4c67"/><path d="M-41.1 514.5c-42.4 0-62.8-23.2-67.3-43.9-4.6-21 5.5-40.9 24.5-48.5 32.3-12.8 52.3-23.7 57.6-66.4 2.4-19.2 14.1-33.6 32.1-39.5 22.2-7.3 48.4-.2 65.2 17.6 40.3 42.8 37.8 79.5 28.5 102.7C90.9 458 73.1 476.8 48 491c-23.7 13.4-52.9 21.7-82.2 23.4-2.4 0-4.7.1-6.9.1zm64.8-186.1c-4.5 0-9 .7-13.3 2.1-12.5 4.1-20.2 13.7-21.9 27-2.9 23.4-10 40.2-22.5 52.8-11 11.1-25.2 18.1-44.5 25.8-14.2 5.6-17.9 19.8-15.4 31.3 3.5 16.1 21.1 34.1 58.8 32 56.2-3.2 105.8-31.3 120.6-68.5 10.9-27.5 2.1-57.5-25.5-86.8-9.4-10.1-23.1-15.7-36.3-15.7z" style="fill:#cc805a"/><path d="M65.5 338.9c-18.1-19.2-47.8-23.2-66.8-11.2V502c80.2-19 137.8-87.7 66.8-163.1z" style="fill:#c94763"/><path d="M71 333.7C54.2 316 28 308.9 5.8 316.2c-2.5.8-4.9 1.8-7.1 2.9v18c3.2-2.9 7.2-5.2 11.8-6.7 4.2-1.4 8.7-2.1 13.3-2.1 13.2 0 26.9 5.7 36.3 15.6 27.6 29.3 36.4 59.4 25.5 86.8-11.8 29.5-45.4 53.3-86.9 63.4v15.4c17.7-4 34.6-10.4 49.3-18.7 25.1-14.2 42.9-33 51.5-54.5 9.2-23.1 11.8-59.7-28.5-102.6z" style="fill:#7c4529"/><circle cx="30.3" cy="379.9" r="19" style="fill:#e8a89e"/></svg>