<svg version="1.1" id="Calque_1" xmlns="http://www.w3.org/2000/svg" x="0" y="0" viewBox="-41 164.9 512 512" style="enable-background:new -41 164.9 512 512" xml:space="preserve"><style>.st1{fill:#ea4c67}</style><g id="Layer_3"><circle cx="215" cy="420.9" r="256" style="fill:#7f00ff"/><path class="st1" d="M197.6 430.3c0-31.2-25.3-56.5-56.5-56.5-21.4 0-40 11.9-49.6 29.4l53.3 83.5c29.5-1.9 52.8-26.4 52.8-56.4z"/><path d="M213.1 318.4c-84.4 0-144.5 43.8-145.1 44.2-.5.4-1.1.8-1.7 1.1l25.2 39.5c9.6-17.5 28.2-29.4 49.6-29.4 31.2 0 56.5 25.3 56.5 56.5 0 30-23.3 54.5-52.8 56.4l47.9 75.1c4.5 6.7 11.9 10.7 19.9 10.9h.5c7.8 0 15.2-3.7 19.9-10.1l63.9-92.2 51.8-74.6 20.4-29.4c-2.3-.7-4.5-1.8-6.5-3.3-.7-.6-64.7-44.7-149.5-44.7zm17.7 195c-13.6 0-24.5-11-24.5-24.5 0-13.6 11-24.5 24.5-24.5 13.6 0 24.5 11 24.5 24.5s-11 24.5-24.5 24.5zm35.1-89.3c-21.4 0-38.7-17.3-38.7-38.7 0-21.4 17.3-38.7 38.7-38.7 21.4 0 38.7 17.3 38.7 38.7 0 21.3-17.4 38.7-38.7 38.7z" style="fill:#ffc34a"/><path d="M164.4 273.1c12.3-2 25.3-3.4 38.9-3.8-13.8.5-26.8 1.8-38.9 3.8z" style="fill:#f6e0c2"/><circle class="st1" cx="265.9" cy="385.4" r="38.7"/><circle class="st1" cx="230.8" cy="488.8" r="24.5"/><path d="M390.9 322.8c-3-2.2-74.8-52.1-173.5-53.6h-9.8c-1.3 0-2.6.1-3.9.1h-.5c-13.6.4-26.6 1.8-38.9 3.8-74.6 12.2-123.5 48.2-125.9 50-10.9 8.2-13.1 23.6-5 34.5 4.8 6.5 12.2 9.9 19.7 9.9 4.5 0 9-1.2 13-3.8.6-.4 1.1-.7 1.7-1.1.6-.4 60.7-44.2 145.1-44.2 84.8 0 148.9 44.2 149.5 44.6 2.1 1.5 4.3 2.5 6.5 3.3 10 3.3 21.4-.1 27.8-9.2 8-11.1 5.3-26.5-5.8-34.3z" style="fill:#735542"/></g></svg>