<svg xmlns="http://www.w3.org/2000/svg" viewBox="0 0 512 512" style="enable-background:new 0 0 512 512" xml:space="preserve"><circle style="fill:#fcfcfc" cx="256" cy="256" r="256"/><path style="fill:#a2001d" d="m105.739 237.449-27.826-50.483 27.826-49.691 27.826 49.691zm-55.652 0-27.826-50.483 27.826-49.691 27.826 49.691zm55.652 137.276-27.826-50.483 27.826-49.691 27.826 49.691zm-55.652 0-27.826-50.483 27.826-49.691 27.826 49.691zm83.478-325.033-7.878-14.068a256.698 256.698 0 0 0-39.594 28.909l19.646 35.641 27.826-50.482zm-27.826 362.134-19.854 35.456a256.711 256.711 0 0 0 39.568 28.955l8.113-14.719-27.827-49.692z"/><path style="fill:#6da544" d="M155.826 322.783v168.863C186.595 504.743 220.448 512 256 512c110.071 0 203.906-69.472 240.077-166.957l-340.251-22.26z"/><path style="fill:#a2001d" d="M496.077 345.043C506.368 317.31 512 287.314 512 256 512 114.616 397.384 0 256 0c-35.549 0-69.405 7.253-100.174 20.348v324.696h340.251z"/></svg>