<svg xmlns="http://www.w3.org/2000/svg" viewBox="0 0 512 512" style="enable-background:new 0 0 512 512" xml:space="preserve"><path style="fill:#a2001d" d="M512 256c0 141.384-114.616 256-256 256S0 397.384 0 256 256 0 256 0s256 114.616 256 256z"/><path style="fill:#0052b4" d="M0 256C0 114.616 114.616 0 256 0s256 114.616 256 256"/><path style="fill:#f0f0f0" d="M345.043 322.783 256 311.652l-89.043 11.131V189.217h178.086z"/><circle style="fill:#0052b4" cx="256" cy="267.13" r="44.522"/><circle style="fill:#a2001d" cx="256" cy="267.13" r="22.261"/><path style="fill:#6da544" d="M222.609 211.478h66.782L256 244.87z"/><path style="fill:#ffda44" d="M244.87 233.739h22.261v66.783H244.87z"/><path style="fill:#6da544" d="M291.617 293.843h-71.236l-53.424 28.94h178.086z"/></svg>