<svg xmlns="http://www.w3.org/2000/svg" viewBox="0 0 512 512" style="enable-background:new 0 0 512 512" xml:space="preserve"><circle style="fill:#f0f0f0" cx="256" cy="256" r="256"/><path style="fill:#d80027" d="M256 0C255.761-.18-.068 255.933 0 256 0 114.616 114.616 0 256 0zm0 0c.239-.18 256.068 255.932 256 256C512 114.616 397.384 0 256 0z"/><path style="fill:#0052b4" d="M256 512c-.239.18-256.068-255.932-256-256 0 141.384 114.616 256 256 256zm0 0c.239.18 256.068-255.932 256-256 0 141.384-114.616 256-256 256z"/><path style="fill:#ffda44" d="m256 133.565 27.628 85.029h89.405l-72.331 52.55 27.628 85.03L256 303.623l-72.33 52.551 27.628-85.03-72.33-52.55h89.404z"/></svg>