<svg xmlns="http://www.w3.org/2000/svg" viewBox="0 0 512 512" style="enable-background:new 0 0 512 512" xml:space="preserve"><circle style="fill:#e6646e" cx="255.999" cy="255.999" r="248.499"/><path style="fill:#dc4655" d="M292.073 468.427c-137.242 0-248.499-111.257-248.499-248.499 0-59.433 20.891-113.97 55.695-156.732C43.285 108.761 7.501 178.191 7.501 256c0 137.241 111.256 248.499 248.499 248.499 77.81 0 147.241-35.784 192.805-91.768-42.761 34.804-97.3 55.696-156.732 55.696z"/><path style="fill:#fff" d="M320.156 400.359c-3.347 0-6.744-.423-10.134-1.307-34.233-8.916-73.813-8.916-108.045 0-21.418 5.593-43.31-7.261-48.891-28.679-5.582-21.418 7.257-43.31 28.679-48.891 47.416-12.361 101.054-12.361 148.47 0 21.422 5.582 34.26 27.473 28.679 48.891-4.698 18.033-20.957 29.986-38.758 29.986z"/><path style="fill:#5a4650" d="M171.831 272.032c-11.068 0-20.04-8.972-20.04-20.04V235.96c0-11.068 8.972-20.04 20.04-20.04s20.04 8.972 20.04 20.04v16.032c0 11.068-8.972 20.04-20.04 20.04z"/><path style="fill:#6e5a64" d="M191.871 235.96c0-12.379-11.222-22.135-24.048-19.651v15.643c0 13.282 10.767 24.048 24.048 24.048v-20.04z"/><path style="fill:#5a4650" d="M340.169 272.032c-11.068 0-20.04-8.972-20.04-20.04V235.96c0-11.068 8.972-20.04 20.04-20.04s20.04 8.972 20.04 20.04v16.032c0 11.068-8.973 20.04-20.04 20.04z"/><path style="fill:#6e5a64" d="M360.209 235.96c0-12.379-11.222-22.135-24.048-19.651v15.643c0 13.282 10.767 24.048 24.048 24.048v-20.04z"/><path d="M171.821 223.445a7.5 7.5 0 0 0 0-15c-15.187 0-27.542 12.356-27.542 27.543v16.034c0 15.187 12.355 27.542 27.542 27.542s27.542-12.355 27.542-27.542v-12.026a7.5 7.5 0 0 0-15 0v12.026c0 6.916-5.626 12.542-12.542 12.542s-12.542-5.626-12.542-12.542v-16.034c-.001-6.918 5.626-12.543 12.542-12.543zm195.9 16.55a7.5 7.5 0 0 0-15 0v12.026c0 6.916-5.626 12.542-12.542 12.542-6.916 0-12.543-5.626-12.543-12.542v-16.034c0-6.916 5.627-12.543 12.543-12.543a7.5 7.5 0 0 0 0-15c-15.187 0-27.543 12.356-27.543 27.543v16.034c0 15.187 12.356 27.542 27.543 27.542s27.542-12.355 27.542-27.542v-12.026z"/><path d="M15.109 248.713c1.833-61.604 26.857-119.542 70.459-163.145C129.171 41.966 187.11 16.943 248.713 15.11c61.333-1.827 120.401 19.43 166.327 59.851a7.499 7.499 0 0 0 10.585-.675 7.499 7.499 0 0 0-.675-10.585C376.16 20.759 313.414-1.822 248.267.116c-65.44 1.948-126.988 28.529-173.305 74.846C28.644 121.279 2.063 182.827.115 248.267-1.824 313.414 20.757 376.161 63.7 424.95a7.478 7.478 0 0 0 5.633 2.545 7.5 7.5 0 0 0 5.627-12.455c-40.422-45.925-61.677-104.994-59.851-166.327zM448.3 87.051a7.5 7.5 0 1 0-11.26 9.91c40.421 45.925 61.677 104.994 59.852 166.326-1.833 61.603-26.856 119.542-70.459 163.145s-101.541 68.626-163.145 70.459c-61.338 1.832-120.401-19.43-166.327-59.851a7.5 7.5 0 0 0-9.91 11.26C133.904 489.539 193.63 512 255.992 512c2.576 0 5.158-.039 7.742-.116 65.441-1.948 126.988-28.529 173.305-74.846 46.318-46.317 72.899-107.864 74.847-173.305 1.937-65.145-20.644-127.893-63.586-176.682z"/><path d="M207.865 207.47a7.5 7.5 0 0 0 3.055-14.353l-72.154-32.126a7.499 7.499 0 0 0-9.902 3.801 7.5 7.5 0 0 0 3.801 9.902l72.154 32.126c.991.441 2.027.65 3.046.65zm175.213-42.678a7.5 7.5 0 0 0-9.902-3.801l-72.153 32.126a7.5 7.5 0 0 0 6.101 13.703l72.153-32.126a7.5 7.5 0 0 0 3.801-9.902zM167.759 401.355c7.398 4.341 15.635 6.562 23.988 6.561 4.028 0 8.085-.517 12.085-1.562 33.135-8.63 71.143-8.63 104.273-.001a47.657 47.657 0 0 0 12.029 1.551c21.636 0 40.56-14.639 46.02-35.598 3.205-12.299 1.428-25.11-5.002-36.074-6.431-10.964-16.747-18.767-29.045-21.972-48.386-12.614-103.885-12.614-152.27 0-12.3 3.205-22.616 11.008-29.047 21.972-6.431 10.964-8.207 23.775-5.002 36.074 3.205 12.301 11.008 22.616 21.971 29.049zm152.375-8.45a32.68 32.68 0 0 1-8.245-1.065c-35.537-9.256-76.301-9.256-111.842.001-8.418 2.199-17.189.983-24.697-3.423-6.123-3.593-10.804-8.954-13.515-15.379 30.097-8.235 61.726-12.414 94.135-12.414 32.407 0 64.033 4.178 94.126 12.411-5.038 11.899-16.76 19.869-29.962 19.869zM183.62 328.776c22.99-5.993 47.67-8.99 72.352-8.99 24.681 0 49.362 2.997 72.353 8.99 8.423 2.195 15.486 7.538 19.89 15.046a32.426 32.426 0 0 1 4.416 14.367c-30.957-8.331-63.424-12.563-96.658-12.563s-65.702 4.233-96.658 12.563a32.439 32.439 0 0 1 4.416-14.367c4.401-7.508 11.465-12.851 19.889-15.046zM389.546 82.369a7.5 7.5 0 0 0-10.606 0l-14.74 14.74-14.74-14.74a7.5 7.5 0 0 0-10.606 0 7.5 7.5 0 0 0 0 10.606l14.739 14.74-14.739 14.739a7.5 7.5 0 0 0 0 10.606 7.474 7.474 0 0 0 5.303 2.197 7.474 7.474 0 0 0 5.303-2.197l14.74-14.739 14.74 14.739c1.464 1.465 3.384 2.197 5.303 2.197s3.839-.732 5.303-2.197a7.5 7.5 0 0 0 0-10.606l-14.739-14.739 14.739-14.74a7.497 7.497 0 0 0 0-10.606z"/></svg>