<svg xmlns="http://www.w3.org/2000/svg" viewBox="0 0 512 512" style="enable-background:new 0 0 512 512" xml:space="preserve"><circle style="fill:#ffe17d" cx="255.999" cy="255.999" r="248.499"/><path style="fill:#ffd164" d="M292.073 468.426c-137.242 0-248.499-111.257-248.499-248.499 0-59.433 20.891-113.97 55.695-156.732C43.284 108.76 7.501 178.19 7.501 256c0 137.241 111.256 248.499 248.499 248.499 77.81 0 147.241-35.784 192.805-91.768-42.761 34.804-97.3 55.695-156.732 55.695z"/><ellipse style="fill:#ffd164" cx="159.809" cy="255.999" rx="64.13" ry="56.11"/><ellipse style="fill:#ffd164" cx="352.188" cy="255.999" rx="64.13" ry="56.11"/><path style="fill:#6e5a64" d="M79.646 175.838a8.016 8.016 0 0 0-8.016 8.016v15.468c0 5.36 2.679 10.366 7.139 13.339l40.957 27.305 40.081-64.129-80.161.001z"/><ellipse style="fill:#5a4650" cx="159.809" cy="231.949" rx="64.13" ry="56.11"/><path style="fill:#84737b" d="M159.806 215.919c23.338 0 45.048 3.153 63.489 8.523-4.204-27.43-30.989-48.604-63.489-48.604s-59.285 21.173-63.489 48.604c18.443-5.37 40.153-8.523 63.489-8.523z"/><path style="fill:#6e5a64" d="M424.338 175.838a8.016 8.016 0 0 1 8.016 8.016v15.468c0 5.36-2.679 10.366-7.139 13.339l-40.957 27.305-40.081-64.129 80.161.001z"/><ellipse style="fill:#5a4650" cx="344.178" cy="231.949" rx="64.13" ry="56.11"/><path style="fill:#84737b" d="M344.176 215.919c-23.338 0-45.048 3.153-63.489 8.523 4.204-27.43 30.989-48.604 63.489-48.604s59.285 21.173 63.489 48.604c-18.441-5.37-40.152-8.523-63.489-8.523z"/><path d="M346.134 331.696c-20.755 28.207-54.45 45.047-90.134 45.047s-69.38-16.84-90.134-45.047a7.5 7.5 0 0 0-12.082 8.89c23.571 32.033 61.783 51.158 102.216 51.158 40.435 0 78.646-19.125 102.216-51.158a7.5 7.5 0 0 0-12.082-8.89z"/><path d="M15.108 248.713c1.833-61.604 26.857-119.542 70.459-163.145 43.603-43.603 101.542-68.626 163.145-70.459 61.333-1.83 120.401 19.43 166.327 59.852a7.498 7.498 0 0 0 10.585-.675 7.499 7.499 0 0 0-.675-10.585C376.159 20.757 313.409-1.815 248.267.115c-65.44 1.948-126.988 28.529-173.305 74.847C28.644 121.279 2.063 182.825.115 248.266-1.824 313.413 20.757 376.16 63.7 424.949a7.478 7.478 0 0 0 5.633 2.545 7.5 7.5 0 0 0 5.627-12.455c-40.422-45.925-61.677-104.994-59.852-166.326zM448.3 87.05a7.5 7.5 0 0 0-11.26 9.91c40.421 45.926 61.677 104.994 59.852 166.327-1.833 61.603-26.856 119.542-70.459 163.145s-101.541 68.626-163.145 70.459c-61.338 1.826-120.401-19.43-166.327-59.851a7.5 7.5 0 0 0-9.91 11.26C133.905 489.539 193.63 512 255.992 512c2.576 0 5.158-.039 7.742-.116 65.441-1.948 126.988-28.529 173.305-74.846 46.318-46.317 72.899-107.865 74.847-173.305 1.937-65.146-20.644-127.893-63.586-176.683z"/><path d="M447.863 199.287v-15.47c0-8.556-6.961-15.517-15.517-15.517h-80.171c-30.92 0-57.324 17.489-67.337 41.912-8.186-6.292-18.32-9.843-28.852-9.843-10.555 0-20.693 3.552-28.878 9.854-10.01-24.428-36.417-41.922-67.341-41.922h-80.17c-8.556 0-15.517 6.961-15.517 15.517v15.47a23.487 23.487 0 0 0 10.479 19.582l13.72 9.146a56.792 56.792 0 0 0-.148 3.905c0 35.08 32.136 63.62 71.636 63.62s71.636-28.54 71.636-63.62c0-1.653-.094-3.286-.234-4.907 6.114-7.328 15.211-11.644 24.818-11.644 9.579 0 18.678 4.304 24.79 11.607a57.006 57.006 0 0 0-.237 4.944c0 35.08 32.136 63.62 71.636 63.62s71.637-28.54 71.637-63.62c0-1.312-.059-2.612-.148-3.905l13.719-9.146a23.493 23.493 0 0 0 10.479-19.583zM82.88 206.388a8.518 8.518 0 0 1-3.8-7.101v-15.47c0-.285.232-.517.517-.517h34.039c-10.089 7.562-17.796 17.547-21.98 28.938l-8.776-5.85zm76.887 74.151c-31.229 0-56.636-21.811-56.636-48.62 0-26.809 25.407-48.619 56.636-48.619s56.636 21.811 56.636 48.619c0 26.81-25.407 48.62-56.636 48.62zm192.408 0c-31.229 0-56.636-21.811-56.636-48.62 0-26.809 25.407-48.619 56.636-48.619s56.637 21.811 56.637 48.619c0 26.81-25.408 48.62-56.637 48.62zm80.688-81.252a8.518 8.518 0 0 1-3.8 7.101l-8.776 5.851c-4.184-11.391-11.891-21.376-21.98-28.938h34.039c.285 0 .517.232.517.517v15.469zm-249.045-48.055a7.5 7.5 0 0 0 0-15h-48.103a7.5 7.5 0 0 0 0 15h48.103zm192.408 0a7.5 7.5 0 0 0 0-15h-48.102a7.5 7.5 0 0 0 0 15h48.102z"/></svg>