<svg xmlns="http://www.w3.org/2000/svg" viewBox="0 0 511.998 511.998" style="enable-background:new 0 0 511.998 511.998" xml:space="preserve"><path style="fill:#5a4650" d="M489.929 13.765c6.426-5.455 16.046.274 14.056 8.464-6.211 25.567-24.054 73.86-49.417 117.584L393.91 78.396c29.771-14.117 66.911-39.923 96.019-64.631z"/><path style="fill:#6e5a64" d="M495.087 17.678c1.058-2.022 1.309-4.064 1.008-5.949 4.934.293 9.289 4.742 7.89 10.501-6.211 25.567-24.054 73.86-49.417 117.584l-26.97-27.307c31.102-35.526 55.979-72.831 67.489-94.829zM21.824 13.765c-6.426-5.455-16.046.274-14.056 8.464 6.211 25.567 24.054 73.86 49.417 117.584l60.659-61.417c-29.772-14.117-66.911-39.923-96.02-64.631z"/><path style="fill:#5a4650" d="M16.666 17.678c-1.058-2.022-1.309-4.064-1.008-5.949-4.934.293-9.289 4.742-7.89 10.501 6.211 25.567 24.054 73.86 49.417 117.584l26.97-27.307C53.053 76.981 28.176 39.676 16.666 17.678z"/><path style="fill:#c864c8" d="m457.191 176.998.054.052c-2.609-5.299-2.234-11.525 1.075-16.417a379.334 379.334 0 0 0 3.831-5.778c3.416-5.256 3.404-12.129-.095-17.329a249.666 249.666 0 0 0-70.002-69.252c-4.472-2.938-10.194-3.239-15.123-1.157a486.96 486.96 0 0 1-14.448 5.832c-4.072 1.569-8.529 1.265-12.488-.569l.003.003c-28.63-13.256-60.498-20.704-94.122-20.704s-65.491 7.448-94.122 20.704l.003-.003c-3.959 1.834-8.416 2.138-12.488.569a486.436 486.436 0 0 1-14.448-5.832c-4.929-2.083-10.65-1.781-15.123 1.157a249.693 249.693 0 0 0-70.002 69.252c-3.499 5.2-3.511 12.073-.095 17.329a379.334 379.334 0 0 0 3.831 5.778c3.309 4.892 3.684 11.118 1.075 16.417l.054-.052c-14.721 29.87-23.024 63.469-23.024 99.02 0 123.898 100.439 224.338 224.338 224.338s224.338-100.44 224.338-224.338c.001-35.551-8.302-69.15-23.022-99.02z"/><path style="fill:#6e5a64" d="M255.876 359.477c-39.863 0-77.351-4.223-110.058-11.646-8.486-1.926-14.14 8.665-7.686 14.502 28.317 25.612 70.533 41.879 117.744 41.879s89.427-16.268 117.744-41.879c6.454-5.837.801-16.428-7.686-14.502-32.706 7.424-70.195 11.646-110.058 11.646z"/><path style="fill:#a54bbe" d="M287.925 468.308c-123.899 0-224.338-100.44-224.338-224.338 0-69.522 31.631-131.65 81.278-172.799-3.309-1.311-6.598-2.598-10.043-4.054-4.929-2.083-10.65-1.781-15.123 1.157a249.693 249.693 0 0 0-70.002 69.252c-3.499 5.2-3.511 12.073-.095 17.329a379.334 379.334 0 0 0 3.831 5.778c3.309 4.892 3.684 11.118 1.075 16.417l.054-.052c-14.721 29.87-23.024 63.469-23.024 99.02 0 123.898 100.439 224.338 224.338 224.338 70.112 0 132.693-32.18 173.831-82.555-38.646 31.559-87.996 50.507-141.782 50.507z"/><path style="fill:#5a4650" d="M161.375 379.377c29.766 3.025 61.521 4.664 94.502 4.664s64.736-1.639 94.502-4.664c8.49-5.056 16.294-10.76 23.242-17.044 6.454-5.837.801-16.428-7.685-14.502-32.708 7.424-70.196 11.647-110.058 11.647s-77.351-4.223-110.058-11.647c-8.486-1.926-14.14 8.665-7.685 14.502 6.945 6.284 14.75 11.988 23.24 17.044z"/><path style="fill:#fff" d="M175.756 353.399v33.572c0 5.838 7.3 8.481 11.037 3.996l27.742-33.22c-13.348-1.012-26.339-2.422-38.779-4.348zm160.241 0v33.572c0 5.838-7.3 8.481-11.037 3.996l-27.742-33.22c13.348-1.012 26.34-2.422 38.779-4.348z"/><path style="fill:#5a4650" d="M171.75 292.042c-11.062 0-20.03-8.968-20.03-20.03v-16.024c0-11.062 8.968-20.03 20.03-20.03 11.062 0 20.03 8.968 20.03 20.03v16.024c0 11.062-8.968 20.03-20.03 20.03z"/><path style="fill:#6e5a64" d="M191.78 255.988c0-12.372-11.217-22.124-24.036-19.641v15.635c0 13.275 10.761 24.036 24.036 24.036v-20.03z"/><path style="fill:#5a4650" d="M340.003 292.042c-11.062 0-20.03-8.968-20.03-20.03v-16.024c0-11.062 8.968-20.03 20.03-20.03 11.062 0 20.03 8.968 20.03 20.03v16.024c0 11.062-8.968 20.03-20.03 20.03z"/><path style="fill:#6e5a64" d="M360.033 255.988c0-12.372-11.217-22.124-24.036-19.641v15.635c0 13.275 10.761 24.036 24.036 24.036v-20.03z"/><path d="M504.68 6.461c-5.77-3.558-13.14-2.981-18.341 1.434-27.75 23.556-59.971 45.428-84.891 57.691a242.727 242.727 0 0 0-5.278-3.58c-6.474-4.251-14.757-4.924-22.16-1.796a479.148 479.148 0 0 1-14.224 5.741c-2.053.791-4.409.657-6.639-.375-30.646-14.197-63.372-21.395-97.271-21.395s-66.625 7.198-97.27 21.395c-2.229 1.032-4.586 1.167-6.639.375a477.669 477.669 0 0 1-14.226-5.742c-7.401-3.127-15.685-2.455-22.159 1.797a254.38 254.38 0 0 0-5.189 3.501C85.493 53.229 53.352 31.4 25.66 7.895 20.458 3.479 13.089 2.903 7.319 6.461 1.541 10.025-1.151 16.613.461 23.246c6.001 24.7 22.435 68.447 44.679 107.685-.554.804-1.118 1.598-1.664 2.409-5.192 7.716-5.256 17.766-.162 25.603a386.925 386.925 0 0 0 3.907 5.893c1.791 2.648 2 5.976.559 8.902-16.933 34.38-25.079 72.978-23.559 111.622 2.041 51.86 22.22 102.323 56.82 142.097a7.483 7.483 0 0 0 5.662 2.578 7.5 7.5 0 0 0 5.655-12.422c-32.367-37.206-51.242-84.383-53.149-132.842-1.422-36.156 6.194-72.258 22.027-104.405 3.793-7.703 3.184-16.873-1.591-23.933a366.847 366.847 0 0 1-3.755-5.663c-1.782-2.742-1.771-6.381.029-9.055 18.06-26.839 40.904-49.439 67.897-67.171 2.248-1.476 5.345-1.674 8.085-.517a496.222 496.222 0 0 0 14.671 5.922c5.875 2.264 12.388 1.994 18.337-.762 28.655-13.274 59.26-20.005 90.965-20.005s62.312 6.731 90.966 20.005c5.949 2.756 12.461 3.026 18.337.762a497.792 497.792 0 0 0 14.67-5.921c2.74-1.158 5.838-.959 8.086.517 9.214 6.053 18.258 12.968 26.881 20.553a7.5 7.5 0 0 0 9.907-11.263 264.823 264.823 0 0 0-9.872-8.262c24.842-13.182 55.015-34.017 81.195-56.241.183-.155.387-.331.759-.102.23.142.225.199.157.477-5.478 22.548-20.085 61.747-40.012 98.181a272.44 272.44 0 0 0-8.914-10.685 7.5 7.5 0 0 0-11.267 9.901c7.084 8.062 13.498 16.343 19.062 24.612 1.799 2.673 1.811 6.312.029 9.054a364.954 364.954 0 0 1-3.758 5.667c-4.773 7.057-5.382 16.224-1.59 23.923 14.731 29.909 22.201 62.094 22.201 95.66 0 58.47-22.924 113.288-64.548 154.359-41.617 41.063-96.757 63.273-155.269 62.458-50.542-.677-99.764-19.616-138.6-53.326a7.501 7.501 0 0 0-9.833 11.329c41.508 36.03 94.151 56.271 148.232 56.997 1.073.014 2.137.021 3.208.021 61.357 0 119.064-23.652 162.797-66.802 44.504-43.911 69.013-102.522 69.013-165.036 0-35.885-7.989-70.298-23.745-102.288-1.439-2.922-1.23-6.246.559-8.892a387.413 387.413 0 0 0 3.91-5.896c5.094-7.838 5.031-17.888-.162-25.603-.499-.741-1.013-1.482-1.524-2.223 22.298-39.286 38.776-83.132 44.786-107.871 1.615-6.633-1.077-13.222-6.855-16.786zM54.914 117.64C35.056 81.274 20.502 42.201 15.037 19.705c-.068-.278-.073-.335.157-.477.372-.228.577-.052.759.102C42.07 41.5 72.159 62.288 96.965 75.475a254.776 254.776 0 0 0-42.051 42.165z"/><path d="M171.75 243.458a7.5 7.5 0 0 0 0-15c-15.18 0-27.53 12.35-27.53 27.53v16.024c0 15.18 12.35 27.53 27.53 27.53s27.53-12.35 27.53-27.53v-12.018a7.5 7.5 0 0 0-15 0v12.018c0 6.909-5.621 12.53-12.53 12.53-6.909 0-12.53-5.621-12.53-12.53v-16.024c0-6.909 5.621-12.53 12.53-12.53zm168.253 0a7.5 7.5 0 0 0 0-15c-15.18 0-27.53 12.35-27.53 27.53v16.024c0 15.18 12.35 27.53 27.53 27.53s27.53-12.35 27.53-27.53v-12.018a7.5 7.5 0 0 0-15 0v12.018c0 6.909-5.621 12.53-12.53 12.53s-12.53-5.621-12.53-12.53v-16.024c0-6.909 5.622-12.53 12.53-12.53zm-132.232-15.965a7.5 7.5 0 0 0 3.055-14.353l-72.108-32.106a7.498 7.498 0 0 0-9.902 3.801 7.5 7.5 0 0 0 3.801 9.902l72.108 32.106a7.48 7.48 0 0 0 3.046.65zm175.109-42.658a7.5 7.5 0 0 0-9.902-3.801L300.87 213.14a7.5 7.5 0 0 0 6.101 13.703l72.108-32.106a7.5 7.5 0 0 0 3.801-9.902zM133.451 367.602a191.09 191.09 0 0 0 35.373 23.309c1.206 4.113 4.274 7.454 8.496 8.982 1.565.567 3.167.842 4.746.842 2.041 0 4.04-.467 5.868-1.349 21.608 8.18 44.383 12.327 67.767 12.327 23.461 0 46.306-4.173 67.974-12.405a13.472 13.472 0 0 0 6.013 1.427c1.579 0 3.182-.275 4.746-.841 4.294-1.555 7.394-4.986 8.555-9.197a191.204 191.204 0 0 0 34.961-23.094c5.457-4.542 7.113-11.737 4.121-17.903-3.28-6.761-11.044-10.321-18.883-8.653-34.465 7.324-70.628 11.038-107.486 11.038-36.861 0-73.024-3.714-107.487-11.039-7.84-1.664-15.603 1.894-18.883 8.655-2.994 6.165-1.338 13.359 4.119 17.901zm49.805 15.895v-21.201a528.425 528.425 0 0 0 16.072 1.914l-16.072 19.287zm145.242 0-16.102-19.322a526.865 526.865 0 0 0 16.102-1.927v21.249zm37.806-27.78c1.157-.245 1.806.063 2.095.316l-.046.039a176.215 176.215 0 0 1-24.856 17.289v-13.359a501.508 501.508 0 0 0 22.807-4.285zm-72.126 10.026 18.094 21.712c-18.142 6.138-37.122 9.256-56.572 9.256-19.348 0-38.236-3.087-56.296-9.163l18.152-21.782a553.843 553.843 0 0 0 76.622-.023zm-149.083-10.026a504.786 504.786 0 0 0 23.161 4.344v13.513a176.17 176.17 0 0 1-25.209-17.501l-.046-.039c.289-.254.937-.562 2.094-.317z"/></svg>