<svg xmlns="http://www.w3.org/2000/svg" viewBox="0 0 512 512" style="enable-background:new 0 0 512 512" xml:space="preserve"><circle style="fill:#ffe17d" cx="255.999" cy="256" r="248.499"/><path style="fill:#ffd164" d="M292.073 468.427c-137.242 0-248.499-111.257-248.499-248.499 0-59.433 20.891-113.97 55.695-156.732C43.284 108.761 7.501 178.192 7.501 256.001 7.501 393.242 118.757 504.5 256 504.5c77.81 0 147.241-35.784 192.805-91.768-42.761 34.803-97.3 55.695-156.732 55.695z"/><path style="fill:#7d5046" d="M340.168 256.001c-11.068 0-20.04-8.972-20.04-20.04v-16.032c0-11.068 8.972-20.04 20.04-20.04s20.04 8.972 20.04 20.04v16.032c.001 11.068-8.972 20.04-20.04 20.04z"/><path style="fill:#9c6846" d="M360.209 219.929c0-12.379-11.222-22.135-24.048-19.651v15.643c0 13.282 10.767 24.048 24.048 24.048v-20.04z"/><path style="fill:#7d5046" d="M171.831 256.001c-11.068 0-20.04-8.972-20.04-20.04v-16.032c0-11.068 8.972-20.04 20.04-20.04s20.04 8.972 20.04 20.04v16.032c0 11.068-8.972 20.04-20.04 20.04z"/><path style="fill:#9c6846" d="M191.871 219.929c0-12.379-11.222-22.135-24.048-19.651v15.643c0 13.282 10.767 24.048 24.048 24.048v-20.04z"/><path d="M171.821 207.382a7.5 7.5 0 0 0 0-15c-15.187 0-27.542 12.355-27.542 27.542v16.034c0 15.187 12.355 27.542 27.542 27.542s27.542-12.355 27.542-27.542v-12.026a7.5 7.5 0 0 0-15 0v12.026c0 6.916-5.626 12.542-12.542 12.542s-12.542-5.626-12.542-12.542v-16.034c-.001-6.915 5.626-12.542 12.542-12.542zm195.9 28.577v-12.026a7.5 7.5 0 0 0-15 0v12.026c0 6.916-5.626 12.542-12.542 12.542-6.916 0-12.543-5.626-12.543-12.542v-16.034c0-6.916 5.627-12.542 12.543-12.542a7.5 7.5 0 0 0 0-15c-15.187 0-27.543 12.355-27.543 27.542v16.034c0 15.187 12.356 27.542 27.543 27.542s27.542-12.355 27.542-27.542zM181.349 373.317c17.079-18.563 44.986-29.646 74.651-29.646s57.572 11.083 74.651 29.646a7.482 7.482 0 0 0 5.521 2.422 7.5 7.5 0 0 0 5.517-12.578c-19.87-21.596-51.904-34.49-85.689-34.49s-65.82 12.894-85.689 34.49a7.5 7.5 0 0 0 11.038 10.156z"/><path d="M15.108 248.714c1.833-61.604 26.857-119.542 70.459-163.145C129.17 41.966 187.109 16.943 248.712 15.11c61.336-1.824 120.401 19.43 166.327 59.852a7.5 7.5 0 1 0 9.91-11.26C376.159 20.759 313.405-1.826 248.267.117c-65.44 1.947-126.988 28.528-173.305 74.846C28.644 121.279 2.063 182.827.115 248.268-1.824 313.414 20.757 376.162 63.7 424.951a7.478 7.478 0 0 0 5.633 2.545 7.5 7.5 0 0 0 5.627-12.455c-40.422-45.925-61.677-104.995-59.852-166.327zM448.3 87.052a7.5 7.5 0 1 0-11.26 9.91c40.421 45.925 61.677 104.994 59.852 166.326-1.833 61.604-26.856 119.542-70.459 163.145s-101.541 68.625-163.145 70.459c-61.333 1.824-120.401-19.43-166.327-59.852a7.5 7.5 0 0 0-9.91 11.26C133.905 489.539 193.63 512 255.992 512c2.577 0 5.158-.038 7.742-.115 65.441-1.948 126.988-28.528 173.305-74.846 46.318-46.317 72.899-107.865 74.847-173.305 1.937-65.146-20.644-127.894-63.586-176.682z"/></svg>