<svg xmlns="http://www.w3.org/2000/svg" viewBox="-41 164.8 512.1 512.1" style="enable-background:new -41 164.8 512.1 512.1" xml:space="preserve"><circle cx="215" cy="420.8" r="256" style="fill:#7f00ff"/><path d="M283.4 284.2c-4.6 0-6.2-1.6-6.2-6.2 0-3.4-2.8-6.2-6.2-6.2H159.1c-3.4 0-6.2 2.8-6.2 6.2 0 4.6-1.6 6.2-6.2 6.2-9.5-.8-17.9 6.3-18.6 15.8-.1.9-.1 1.9 0 2.8v236.1c-.8 9.5 6.3 17.9 15.8 18.6.9.1 1.9.1 2.8 0 4.6 0 6.2 1.6 6.2 6.2 0 3.4 2.8 6.2 6.2 6.2H271c3.4 0 6.2-2.8 6.2-6.2 0-4.6 1.6-6.2 6.2-6.2 9.5.8 17.9-6.3 18.6-15.8.1-.9.1-1.9 0-2.8V302.8c.8-9.5-6.3-17.9-15.8-18.6-.9-.1-1.9-.1-2.8 0z" style="fill:#cfd8dc"/><path style="fill:#595b59" d="M128.1 309h174v223.7h-174z"/><path d="M258.8 370.4c-.5-1.1-1.5-2-2.7-2.4l-26.5-8.8c-2.3-.8-4.8.5-5.6 2.8-.1.2-.1.4-.1.5l-7.7 38.5-12.5-6.2c-2.2-1.1-4.8-.2-5.9 2l-.3.6-26.5 79.5c-.8 2.3.4 4.8 2.8 5.6 1.9.6 4-.1 5.1-1.8l33.2-49.8 14.2 7.1c1.1.6 2.4.6 3.5.2 1.1-.4 2.1-1.3 2.5-2.4l26.5-61.8c.6-1.2.6-2.5 0-3.6z" style="fill:#ffc107"/></svg>