<svg version="1.1" id="Capa_1" xmlns="http://www.w3.org/2000/svg" x="0" y="0" viewBox="-41 164.8 512.1 512.1" style="enable-background:new -41 164.8 512.1 512.1" xml:space="preserve"><style>.st3{fill:#fafafa}</style><circle cx="215" cy="420.8" r="256" style="fill:#7f00ff"/><path d="M283.4 284.2c-4.6 0-6.2-1.6-6.2-6.2 0-3.4-2.8-6.2-6.2-6.2H159.1c-3.4 0-6.2 2.8-6.2 6.2 0 4.6-1.6 6.2-6.2 6.2-9.5-.8-17.9 6.3-18.6 15.8-.1.9-.1 1.9 0 2.8v236.1c-.8 9.5 6.3 17.9 15.8 18.6.9.1 1.9.1 2.8 0 4.6 0 6.2 1.6 6.2 6.2 0 3.4 2.8 6.2 6.2 6.2H271c3.4 0 6.2-2.8 6.2-6.2 0-4.6 1.6-6.2 6.2-6.2 9.5.8 17.9-6.3 18.6-15.8.1-.9.1-1.9 0-2.8V302.8c.8-9.5-6.3-17.9-15.8-18.6-.9-.1-1.9-.1-2.8 0z" style="fill:#cfd8dc"/><path style="fill:#26dd26" d="M128.1 309h174v223.7h-174z"/><circle class="st3" cx="171.6" cy="489.2" r="18.6"/><circle cx="221.3" cy="427.1" r="31.1" style="fill:#ffe424"/><circle class="st3" cx="264.8" cy="371.1" r="12.4"/><circle class="st3" cx="196.4" cy="352.5" r="18.6"/></svg>