<svg xmlns="http://www.w3.org/2000/svg" viewBox="-41 164.8 512.1 512.1" style="enable-background:new -41 164.8 512.1 512.1" xml:space="preserve"><circle cx="215" cy="420.8" r="256" style="fill:#7f00ff"/><path d="M283.8 616.8c-5.6 8.4-15 13.4-25.1 13.3-7.7.6-15.4-2.3-20.8-7.8-6.3 5.4-14.5 8.3-22.8 7.8-8.3.4-16.5-2.4-22.8-7.8-5.4 5.6-13 8.5-20.8 7.8-10.1.1-19.5-4.9-25.1-13.3-10.4-20.4-11-44.4-1.6-65.2l.5-1.6V396c-.2-.4-.3-.9-.3-1.4-12.2-30.6-6.2-65.5 15.7-90.2 12.2-13.6 19.1-31.1 19.5-49.4 0-4.8 3.9-8.7 8.7-8.7h52.3c4.8 0 8.7 3.9 8.7 8.7.4 18.2 7.4 35.7 19.5 49.4 21.9 24.7 27.9 59.6 15.7 90.2-.1.5-.2.9-.3 1.4v154l.5 1.6c9.4 20.9 8.9 44.9-1.5 65.2z" style="fill:#f4f8f9"/><path d="M145.3 550V396c-.2-.4-.3-.9-.3-1.4h140.2c-.1.5-.2.9-.3 1.4v154l.5 1.6H144.8l.5-1.6z" style="fill:#ffc627"/><path d="M223.8 211.5h-17.4c-14.4 0-26.2 11.7-26.2 26.2v17.4c0 4.8 3.9 8.7 8.7 8.7h52.3c4.8 0 8.7-3.9 8.7-8.7v-17.4c0-14.5-11.7-26.2-26.1-26.2z" style="fill:#455a64"/></svg>