<svg xmlns="http://www.w3.org/2000/svg" data-name="Layer 2" viewBox="0 0 128 128" width="512" height="512"><path d="M117.732 68.7h-7.815V5.75a5.756 5.756 0 0 0-5.75-5.75h-8.783a5.76 5.76 0 0 0-5.739 5.392l-1.082 17.325q-1.308-.831-2.664-1.569L79.3 1.2A1.748 1.748 0 0 0 77.64 0H50.36a1.748 1.748 0 0 0-1.66 1.2l-6.6 19.948q-1.355.738-2.664 1.569L38.355 5.392A5.76 5.76 0 0 0 32.616 0h-8.783a5.756 5.756 0 0 0-5.75 5.75V68.7h-7.815a7.759 7.759 0 0 0-7.75 7.75v31.05a7.759 7.759 0 0 0 7.75 7.75h7.815v4a8.76 8.76 0 0 0 8.75 8.75h74.334a8.76 8.76 0 0 0 8.75-8.75v-4h7.815a7.759 7.759 0 0 0 7.75-7.75V76.448a7.759 7.759 0 0 0-7.75-7.748Zm0 3.5a4.254 4.254 0 0 1 4.25 4.25v4.885h-12.065V72.2Zm4.25 16.219h-12.065v-3.586h12.065ZM93.139 5.61a2.253 2.253 0 0 1 2.245-2.11h8.783a2.253 2.253 0 0 1 2.25 2.25v38.183a46.436 46.436 0 0 0-14.492-18.875ZM71.267 16.164a46.25 46.25 0 0 0-15.456.153L57.4 11.5h13.2l1.593 4.817c-.31-.055-.618-.104-.926-.153ZM41.87 25.33a42.3 42.3 0 0 1 44.614.227L82.4 53.1a3.268 3.268 0 0 1-3.214 2.774H48.813A3.268 3.268 0 0 1 45.6 53.1l-4.084-27.543c.118-.074.234-.157.354-.227Zm4.609-6.274L51.625 3.5h24.75l5.146 15.556a45.427 45.427 0 0 0-5.346-1.835L73.521 9.2A1.747 1.747 0 0 0 71.86 8H56.14a1.747 1.747 0 0 0-1.661 1.2l-2.654 8.021a45.427 45.427 0 0 0-5.346 1.835ZM21.583 5.75a2.253 2.253 0 0 1 2.25-2.25h8.783a2.253 2.253 0 0 1 2.245 2.11l1.214 19.448a46.427 46.427 0 0 0-14.492 18.875ZM6.018 84.833h12.065v3.584H6.018Zm4.25-12.633h7.815v9.135H6.018v-4.887a4.254 4.254 0 0 1 4.25-4.248Zm0 39.552a4.254 4.254 0 0 1-4.25-4.25V91.917h12.065v19.833Zm96.149 7.5a5.256 5.256 0 0 1-5.25 5.25H26.833a5.256 5.256 0 0 1-5.25-5.25V61.5a42.817 42.817 0 0 1 16.724-33.719l3.829 25.835a6.79 6.79 0 0 0 6.677 5.761h30.374a6.79 6.79 0 0 0 6.677-5.761l3.829-25.835A42.817 42.817 0 0 1 106.417 61.5v57.75Zm11.315-7.5h-7.815V91.917h12.065V107.5a4.254 4.254 0 0 1-4.25 4.25Z"/><path d="M91.477 70.042H36.523a5.757 5.757 0 0 0-5.75 5.75V109.5a5.757 5.757 0 0 0 5.75 5.75h54.954a5.757 5.757 0 0 0 5.75-5.75V75.792a5.757 5.757 0 0 0-5.75-5.75Zm-57.2 5.75a2.253 2.253 0 0 1 2.25-2.25h54.95a2.253 2.253 0 0 1 2.25 2.25v12.625H34.273ZM78 91.917h4.707v9.333H78Zm13.477 19.833H36.523a2.253 2.253 0 0 1-2.25-2.25V91.917H74.5V103a1.749 1.749 0 0 0 1.75 1.75h8.207a1.749 1.749 0 0 0 1.75-1.75V91.917h7.52V109.5a2.253 2.253 0 0 1-2.25 2.25Zm-30.81-64.503h6.666a9.667 9.667 0 1 0 0-19.334h-6.666a9.667 9.667 0 0 0 0 19.334Zm0-15.834h6.666a6.167 6.167 0 1 1 0 12.334h-6.666a6.167 6.167 0 0 1 0-12.334Z"/></svg>