<svg xmlns="http://www.w3.org/2000/svg" style="enable-background:new 0 0 512 512" xml:space="preserve" width="512" height="512"><path d="m303.614 90.958 12.273-14.899c5.535-6.718 8.031-15.551 6.838-24.234-3.732-27.298-38.109-36.607-55.657-15.311l-44.969 54.294H203.6a29.08 29.08 0 0 0-20.564 8.482c-4.271-4.061-10.037-6.567-16.393-6.567h-29.759c-11.761 0-21.326 9.565-21.326 21.326v106.672c0 11.761 9.565 21.326 21.326 21.326h29.759a23.583 23.583 0 0 0 14.889-5.264c5.344 6.186 13.255 10.107 22.068 10.107h88.745c29.257 0 53.061-23.803 53.061-53.061v-57.603c-.001-23.821-18.44-43.413-41.792-45.268zM174.372 218.285c0 4.261-3.469 7.72-7.73 7.72h-29.759a5.29 5.29 0 0 1-5.284-5.284V114.049a5.29 5.29 0 0 1 5.284-5.284h29.759c4.261 0 7.731 3.459 7.731 7.72l-.001 101.8zm154.99-24.455c0 20.414-16.604 37.018-37.018 37.018h-88.745c-7.269 0-13.185-5.916-13.185-13.185v-97.629c0-7.269 5.916-13.185 13.185-13.185h19.331a14.2 14.2 0 0 0 10.999-5.184l45.51-54.935c8.721-10.606 25.545-6.169 27.393 7.269.582 4.261-.632 8.583-3.329 11.861l-14.589 17.707c-3.002 3.002-4.472 9.623-1.795 15.19 2.396 4.993 7.329 8.091 12.864 8.091 16.193 0 29.378 13.185 29.378 29.378v57.604z" fill="#cfcfcf"/><path d="M323.988 1.04H136.973C61.443 1.04 0 62.482 0 138.012c0 48.789 26.029 93.728 68.241 118.363v38.332a7.516 7.516 0 0 0 7.52 7.52 7.51 7.51 0 0 0 7.52-7.52v-42.733a7.535 7.535 0 0 0-3.94-6.618c-39.665-21.447-64.3-62.586-64.3-107.344 0-67.228 54.695-121.933 121.933-121.933h187.015c93.931 0 152.415 102.287 105.469 182.935-2.096 3.579-.872 8.192 2.707 10.277 3.589 2.086 8.202.872 10.287-2.717C495.152 116.136 429.676 1.04 323.988 1.04z" fill="#cfcfcf"/><path d="M504.175 327.865c-1.544-3.85-5.926-5.725-9.776-4.181-3.73 1.484-5.605 5.625-4.331 9.385.01.01.01.03.02.05 22.013 64.103-12.053 134.047-76.332 156.113-63.973 21.969-133.997-11.894-156.113-76.332-31.082-90.51 48.872-179.513 140.983-160.224 32.396 6.758 61.473 26.53 79.28 54.905 2.206 3.509 6.848 4.572 10.367 2.366a7.51 7.51 0 0 0 2.366-10.367c-17.405-27.73-44.521-48.717-76.663-58.525a134.54 134.54 0 0 0 9.455-9.074c2.858-3.018 2.717-7.771-.301-10.628-3.018-2.858-7.771-2.717-10.628.301a121.059 121.059 0 0 1-17.246 15.09c-36.11-5.686-72.015 3.367-100.396 23.212H163.262a7.512 7.512 0 0 0-6.878 4.462l-40.818 92.014c-7.447 16.783-32.286 11.276-32.286-6.838v-24.806a7.516 7.516 0 0 0-7.52-7.52 7.523 7.523 0 0 0-7.52 7.52v24.806c0 34.038 46.96 44.702 61.072 12.944l38.833-87.542h108.668c-37.289 36.924-50.793 92.146-33.398 142.788 19.131 55.738 71.549 93.177 130.435 93.177 96.177-.001 161.411-95.92 130.325-183.096z" fill="#cfcfcf"/><circle cx="345.305" cy="318.403" r="12.481" fill="#cfcfcf"/><circle cx="402.416" cy="318.403" r="12.481" fill="#cfcfcf"/><path d="M441.125 338.274a7.52 7.52 0 0 0-7.52 7.52c0 32.942-26.8 59.742-59.743 59.742s-59.743-26.8-59.743-59.742c0-4.153-3.366-7.52-7.52-7.52s-7.52 3.367-7.52 7.52c0 41.235 33.548 74.782 74.783 74.782s74.783-33.547 74.783-74.782a7.52 7.52 0 0 0-7.52-7.52z" fill="#cfcfcf"/></svg>