<svg xmlns="http://www.w3.org/2000/svg" viewBox="-41 164.9 512 512" style="enable-background:new -41 164.9 512 512" xml:space="preserve"><circle cx="215" cy="420.9" r="256" style="fill:#7f00ff"/><path d="M213.7 503.1c-33 0-63.4-6.7-88-18v92.2c0 1 .4 2 1.2 2.7.7.6 1.5.9 2.4.9h170.9c1 .1 2.1-.2 2.9-.9.8-.7 1.2-1.7 1.2-2.7v-92.5c-1 .2-1.9.3-2.9.4-24.5 11.2-54.9 17.9-87.7 17.9z" style="fill:#e9e9eb"/><path d="M303.9 330.3c-9.9-39.9-45.9-69.5-88.9-69.5-43.2 0-79.4 29.9-89 70.2-.4 1.7-.8 5.3-5.6 6.2-33.3 7.8-58 37.7-58 73.3 0 36.4 25.9 66.8 60.2 73.8.7.1 2.8.7 3.1.8 24.6 11.3 55 18 88 18 31.8 0 61.2-6.2 85.3-16.7.8-.4 4.3-1.3 5.3-1.5 35.9-5.8 63.3-36.8 63.3-74.4 0-35.5-24.6-65.3-57.7-73.2-2.7-1-4.5-1.1-6-7z" style="fill:#f8f8f8"/></svg>