<svg xmlns="http://www.w3.org/2000/svg" viewBox="0 0 512 512" style="enable-background:new 0 0 512 512" xml:space="preserve"><path style="fill:#dbd9dc" d="M249.468 7.591C122.846 11.063 23.532 118.136 23.532 244.805v139.454c0 30.99 25.123 56.113 56.113 56.113h40.081c8.854 0 16.032 7.178 16.032 16.032v24.048c0 13.282 10.767 24.048 24.048 24.048h192.387c13.282 0 24.048-10.767 24.048-24.048v-24.048c0-8.854 7.178-16.032 16.032-16.032h40.081c30.99 0 56.113-25.123 56.113-56.113v-144.29C488.468 109.41 380.84 3.989 249.468 7.591z"/><path style="fill:#c9c6ca" d="M143.774 416.324c-22.136 0-40.081-17.945-40.081-40.081V244.805c0-115.298 82.294-214.329 192.558-233.804a234.689 234.689 0 0 0-65.212-2.183C112.06 21.417 23.532 125.161 23.532 244.805v139.454c0 30.99 25.123 56.113 56.113 56.113h40.081c8.854 0 16.032 7.178 16.032 16.032v24.048c0 13.282 10.767 24.048 24.048 24.048h24.048v-48.097c.001-22.134-17.944-40.079-40.08-40.079z"/><path style="fill:#867e88" d="m248.593 361.385-25.406 61.42c-2.711 6.554 3.799 13.141 10.385 10.507l16.475-6.59a16.03 16.03 0 0 1 11.908 0l16.475 6.59c6.585 2.634 13.096-3.953 10.385-10.507l-25.406-61.42c-2.733-6.603-12.085-6.603-14.816 0z"/><circle style="fill:#867e88" cx="151.79" cy="288.061" r="72.14"/><path style="fill:#6f6571" d="M151.79 247.985c34.327 0 62.997 23.996 70.296 56.113 1.173-5.163 1.849-10.514 1.849-16.032 0-39.845-32.3-72.145-72.145-72.145s-72.145 32.3-72.145 72.145c0 5.518.676 10.869 1.849 16.032 7.3-32.117 35.97-56.113 70.296-56.113z"/><circle style="fill:#867e88" cx="360.21" cy="288.061" r="72.14"/><path style="fill:#6f6571" d="M360.21 247.985c34.327 0 62.997 23.996 70.296 56.113 1.173-5.163 1.849-10.514 1.849-16.032 0-39.845-32.3-72.145-72.145-72.145s-72.145 32.3-72.145 72.145c0 5.518.676 10.869 1.849 16.032 7.299-32.117 35.969-56.113 70.296-56.113zM238.138 396.95c5.707-2.282 11.716-3.44 17.862-3.44s12.155 1.158 17.863 3.44l5.101 2.04-15.556-37.606c-2.731-6.603-12.084-6.603-14.815 0l-15.556 37.606 5.101-2.04z"/><path d="M476.447 145.015c-12.51-29.005-30.382-54.93-53.12-77.053C376.501 22.402 314.681-1.698 249.262.093 186.321 1.82 127.476 28.368 83.565 74.848c-43.549 46.099-67.533 106.457-67.533 169.957v139.454c0 35.077 28.537 63.613 63.613 63.613h40.081c4.705 0 8.532 3.828 8.532 8.532v24.048c0 17.396 14.153 31.548 31.549 31.548h192.387c17.396 0 31.549-14.152 31.549-31.548v-24.048c0-4.705 3.828-8.532 8.532-8.532h40.081c35.076 0 63.613-28.537 63.613-63.613v-144.29c-.001-32.974-6.569-64.92-19.522-94.954zm4.521 239.244c0 26.806-21.808 48.613-48.613 48.613h-40.081c-12.976 0-23.532 10.557-23.532 23.532v24.048c0 9.125-7.424 16.548-16.549 16.548h-8.533v-16.549a7.5 7.5 0 0 0-15 0v16.55h-25.08v-16.549a7.5 7.5 0 0 0-15 0v16.549h-25.081v-16.549a7.5 7.5 0 0 0-15 0v16.549h-25.081v-16.549a7.5 7.5 0 0 0-15 0v16.549h-25.081v-16.549a7.5 7.5 0 0 0-15 0v16.549h-8.531c-9.125 0-16.549-7.423-16.549-16.548v-24.048c0-12.976-10.557-23.532-23.532-23.532h-40.08c-26.805 0-48.613-21.808-48.613-48.613V244.805c0-59.653 22.529-116.354 63.437-159.655 41.155-43.564 96.274-68.446 155.205-70.062 2.134-.059 4.255-.087 6.38-.087 58.965 0 114.442 22.487 156.813 63.713 43.916 42.728 68.101 99.996 68.101 161.255v144.29z"/><path d="M270.338 358.518A15.47 15.47 0 0 0 256 348.933a15.47 15.47 0 0 0-14.338 9.585l-25.407 61.42a15.485 15.485 0 0 0 3.303 16.838 15.48 15.48 0 0 0 16.798 3.499l16.475-6.59a8.498 8.498 0 0 1 6.337 0l16.475 6.59a15.488 15.488 0 0 0 16.798-3.499 15.487 15.487 0 0 0 3.303-16.838l-25.406-61.42zm11.436 67.714c-.239.244-.394.182-.559.117l-16.476-6.591a23.507 23.507 0 0 0-8.739-1.69c-2.961 0-5.922.563-8.74 1.691l-16.475 6.59c-.165.064-.319.126-.559-.117-.241-.244-.177-.397-.11-.56l25.407-61.42c.067-.164.132-.318.477-.318s.409.154.477.318l25.407 61.42c.067.162.13.316-.11.56zM87.537 281.18c1.562-14.831 7.974-28.256 18.542-38.825 10.569-10.569 23.994-16.98 38.825-18.542 14.406-1.518 29.062 1.876 41.26 9.557a7.5 7.5 0 0 0 10.343-2.351 7.5 7.5 0 0 0-2.351-10.343c-15.032-9.465-33.083-13.647-50.823-11.781-18.024 1.898-35.021 10.014-47.86 22.854-12.839 12.839-20.955 29.836-22.853 47.86-1.868 17.741 2.315 35.791 11.781 50.823a7.495 7.495 0 0 0 10.343 2.351 7.5 7.5 0 0 0 2.351-10.343c-7.681-12.198-11.075-26.851-9.558-41.26zM219.18 245.7a7.5 7.5 0 0 0-12.694 7.992c7.68 12.197 11.075 26.851 9.557 41.26-1.562 14.831-7.974 28.256-18.542 38.825-10.569 10.568-23.994 16.98-38.825 18.542-14.412 1.518-29.062-1.876-41.26-9.557-3.505-2.208-8.136-1.154-10.343 2.351s-1.155 8.136 2.351 10.343c12.689 7.99 27.527 12.216 42.516 12.216 2.768 0 5.542-.144 8.308-.436 18.024-1.898 35.021-10.014 47.86-22.853s20.956-29.836 22.854-47.86c1.868-17.742-2.316-35.791-11.782-50.823zm76.742 35.48c1.562-14.831 7.974-28.256 18.542-38.825 10.569-10.569 23.994-16.98 38.825-18.542 14.407-1.518 29.062 1.876 41.26 9.557a7.5 7.5 0 0 0 10.343-2.351 7.5 7.5 0 0 0-2.351-10.343c-15.033-9.465-33.084-13.647-50.823-11.781-18.024 1.898-35.021 10.014-47.86 22.854-12.839 12.839-20.955 29.836-22.853 47.86-1.868 17.741 2.315 35.791 11.781 50.823a7.495 7.495 0 0 0 10.343 2.351 7.5 7.5 0 0 0 2.351-10.343c-7.682-12.198-11.076-26.851-9.558-41.26zm118.95-27.488c7.68 12.197 11.075 26.851 9.557 41.26-1.562 14.831-7.974 28.256-18.542 38.825-10.569 10.568-23.994 16.98-38.825 18.542-14.41 1.518-29.062-1.876-41.26-9.557-3.506-2.208-8.136-1.154-10.343 2.351s-1.155 8.136 2.351 10.343c12.689 7.99 27.527 12.216 42.516 12.216 2.768 0 5.542-.144 8.308-.436 18.024-1.898 35.021-10.014 47.86-22.853s20.956-29.836 22.854-47.86c1.868-17.742-2.316-35.791-11.781-50.823a7.501 7.501 0 0 0-12.695 7.992z"/></svg>