<svg xmlns="http://www.w3.org/2000/svg" viewBox="0 0 512 512" style="enable-background:new 0 0 512 512" xml:space="preserve"><circle style="fill:#bee86e" cx="255.999" cy="255.999" r="248.499"/><path style="fill:#afd755" d="M292.073 468.427c-137.242 0-248.499-111.257-248.499-248.499 0-59.433 20.891-113.97 55.695-156.732C43.285 108.761 7.501 178.191 7.501 256c0 137.241 111.256 248.499 248.499 248.499 77.81 0 147.241-35.784 192.805-91.768-42.761 34.804-97.3 55.696-156.732 55.696z"/><path style="fill:#5a4650" d="M171.831 256c-11.068 0-20.04-8.972-20.04-20.04v-8.35l40.081-11.69v20.04c-.001 11.068-8.973 20.04-20.041 20.04zm168.337 0c11.068 0 20.04-8.972 20.04-20.04v-8.35l-40.081-11.69v20.04c.001 11.068 8.973 20.04 20.041 20.04z"/><path style="fill:#6e5a64" d="m359.765 231.012.444-3.402-24.048-7.015v7.349c0 6.641 5.383 12.024 12.024 12.024 5.573 0 10.216-3.811 11.58-8.956zm-167.894-15.093-24.048 7.014v4.612c0 6.621 5.18 12.3 11.799 12.421 6.744.123 12.249-5.306 12.249-12.022v-12.025z"/><path d="M15.109 248.713c1.833-61.604 26.857-119.542 70.459-163.145C129.171 41.965 187.11 16.943 248.713 15.11c61.336-1.834 120.401 19.43 166.327 59.852a7.498 7.498 0 0 0 10.585-.675 7.499 7.499 0 0 0-.675-10.585C376.16 20.759 313.413-1.82 248.267.116c-65.44 1.948-126.988 28.529-173.305 74.847C28.644 121.279 2.063 182.827.115 248.267-1.824 313.414 20.757 376.16 63.7 424.95a7.478 7.478 0 0 0 5.633 2.545 7.5 7.5 0 0 0 5.627-12.455c-40.422-45.925-61.677-104.994-59.851-166.327zM448.3 87.05a7.5 7.5 0 0 0-11.26 9.91c40.421 45.926 61.677 104.994 59.852 166.327-1.833 61.603-26.856 119.542-70.459 163.145s-101.541 68.626-163.145 70.459c-61.333 1.824-120.401-19.43-166.327-59.851a7.5 7.5 0 0 0-9.91 11.26C133.904 489.539 193.63 512 255.992 512c2.576 0 5.158-.039 7.742-.116 65.441-1.948 126.988-28.529 173.305-74.846 46.318-46.317 72.899-107.865 74.847-173.305 1.937-65.145-20.644-127.892-63.586-176.683z"/><path d="M206.763 156.722a7.5 7.5 0 0 0-9.899-3.808l-72.153 32.068a7.5 7.5 0 0 0 6.091 13.707l72.153-32.068a7.5 7.5 0 0 0 3.808-9.899zM171.85 263.471c15.187 0 27.542-12.355 27.542-27.542v-20.042a7.5 7.5 0 0 0-9.6-7.2l-40.085 11.691a7.5 7.5 0 0 0-5.4 7.2v8.351c0 15.187 12.356 27.542 27.543 27.542zm-12.543-30.268 25.085-7.316v10.042c0 6.916-5.626 12.542-12.542 12.542s-12.542-5.626-12.542-12.542v-2.726h-.001zm224.99-33.865a7.501 7.501 0 0 0 3.049-14.355l-72.154-32.068c-3.787-1.683-8.217.022-9.899 3.808s.022 8.217 3.808 9.899l72.154 32.068c.99.44 2.024.648 3.042.648zm-16.547 36.591v-8.351a7.5 7.5 0 0 0-5.4-7.2l-40.085-11.691a7.5 7.5 0 0 0-9.6 7.2v20.042c0 15.187 12.356 27.542 27.543 27.542s27.542-12.355 27.542-27.542zm-40.086 0v-10.042l25.085 7.316v2.726c0 6.916-5.626 12.542-12.542 12.542-6.916 0-12.543-5.626-12.543-12.542zm3.02 75.215a7.5 7.5 0 0 0-5.006-14.14c-18.815 6.661-32.385 22.83-36.063 41.922-10.457-3.325-21.927-5.063-33.703-5.063-11.689 0-23.085 1.714-33.484 4.994-3.698-19.062-17.259-35.2-36.051-41.853a7.5 7.5 0 0 0-5.006 14.14c16.154 5.72 27.018 21.028 27.069 38.117 0 .067-.001.134.001.201-.035 17.105-10.904 32.432-27.07 38.155a7.5 7.5 0 1 0 5.006 14.14c20.565-7.281 34.862-25.921 36.825-47.322 9.889-3.654 21.098-5.572 32.71-5.572 11.711 0 23.003 1.948 32.95 5.66 1.995 21.363 16.28 39.963 36.816 47.234a7.488 7.488 0 0 0 2.503.432 7.5 7.5 0 0 0 2.503-14.572c-16.148-5.717-27.01-21.016-27.069-38.098.001-.038-.002-.075-.002-.113v-.026c0-17.137 10.879-32.503 27.071-38.236z"/></svg>