<svg xmlns="http://www.w3.org/2000/svg" viewBox="0 0 512.002 512.002" style="enable-background:new 0 0 512.002 512.002" xml:space="preserve"><circle style="fill:#ffe17d" cx="256" cy="256" r="248.5"/><path style="fill:#ffd164" d="M292.074 468.428c-137.243 0-248.5-111.258-248.5-248.5 0-59.433 20.891-113.971 55.695-156.733C43.285 108.76 7.502 178.19 7.502 256c0 137.242 111.257 248.5 248.5 248.5 77.81 0 147.242-35.784 192.806-91.769-42.762 34.805-97.3 55.697-156.734 55.697z"/><path style="fill:#9c6846" d="M272.034 336.162c-13.282 0-24.048 10.767-24.048 24.048v8.016c0 13.282 10.767 24.048 24.048 24.048 13.282 0 24.048-10.767 24.048-24.048v-8.016c0-13.282-10.767-24.048-24.048-24.048z"/><path style="fill:#7d5046" d="M272.034 336.162c-13.282 0-24.048 10.767-24.048 24.048v8.016c0 2.826.577 5.497 1.473 8.016 3.313-9.319 12.12-16.032 22.576-16.032s19.263 6.713 22.576 16.032c.895-2.519 1.473-5.19 1.473-8.016v-8.016c-.002-13.282-10.769-24.048-24.05-24.048z"/><path d="M167.804 263.514c14.473 0 28.292-6.865 37.913-18.834 2.595-3.229 2.082-7.949-1.147-10.544s-7.95-2.082-10.544 1.147c-6.759 8.409-16.316 13.232-26.221 13.232-9.904 0-19.461-4.823-26.22-13.232a7.499 7.499 0 0 0-10.544-1.147 7.5 7.5 0 0 0-1.147 10.544c9.62 11.97 23.438 18.834 37.91 18.834zm150.174-28.231a7.5 7.5 0 0 0-10.544-1.147 7.5 7.5 0 0 0-1.147 10.544c9.621 11.97 23.439 18.834 37.912 18.834s28.291-6.865 37.912-18.834c2.595-3.229 2.082-7.949-1.147-10.544s-7.95-2.082-10.544 1.147c-6.759 8.409-16.316 13.232-26.221 13.232s-19.462-4.823-26.221-13.232zM303.57 368.247v-8.017c0-17.396-14.153-31.55-31.55-31.55s-31.55 14.153-31.55 31.55v8.017c0 17.396 14.153 31.55 31.55 31.55s31.55-14.154 31.55-31.55zm-48.099 0v-8.017c0-9.125 7.424-16.55 16.55-16.55s16.55 7.424 16.55 16.55v8.017c0 9.125-7.424 16.55-16.55 16.55s-16.55-7.425-16.55-16.55zm95.311-292.136a7.502 7.502 0 0 0-6.613-3.961h-32.066a7.5 7.5 0 0 0 0 15h18.053l-24.293 36.439a7.503 7.503 0 0 0-.373 7.699 7.502 7.502 0 0 0 6.613 3.961h32.066a7.5 7.5 0 0 0 0-15h-18.053L350.41 83.81a7.5 7.5 0 0 0 .372-7.699zM472.435 15h18.053l-24.293 36.44a7.503 7.503 0 0 0-.373 7.699 7.502 7.502 0 0 0 6.613 3.961h32.066a7.5 7.5 0 0 0 0-15h-18.053l24.293-36.439A7.5 7.5 0 0 0 504.502 0h-32.066a7.5 7.5 0 0 0-.001 15z"/><path d="M426.41 74.985a7.5 7.5 0 0 0 0 10.606 245.678 245.678 0 0 1 9.975 10.608H390.25l56.359-84.539A7.5 7.5 0 0 0 440.369 0h-64.133a7.5 7.5 0 0 0 0 15h50.119l-21.7 32.55C356.749 13.314 298.194-3.352 239.012.56 177.126 4.648 118.863 31.079 74.958 74.985 28.643 121.3 2.063 182.845.115 248.282c-1.939 65.143 20.642 127.887 63.582 176.674a7.478 7.478 0 0 0 5.633 2.545 7.5 7.5 0 0 0 5.627-12.455c-40.419-45.923-61.673-104.989-59.848-166.318 1.833-61.6 26.855-119.536 70.455-163.136 41.333-41.333 96.18-66.216 154.437-70.064 55.88-3.688 111.168 12.091 156.332 44.506L369.996 99.54a7.503 7.503 0 0 0-.373 7.699 7.502 7.502 0 0 0 6.613 3.961h72.445c31.348 41.533 48.321 91.866 48.321 144.815 0 64.377-25.07 124.901-70.591 170.423-43.6 43.6-101.537 68.622-163.136 70.455-61.338 1.827-120.395-19.429-166.318-59.848a7.5 7.5 0 0 0-9.91 11.26c46.852 41.236 106.575 63.697 168.933 63.697 2.576 0 5.157-.039 7.741-.115 65.437-1.948 126.981-28.527 173.296-74.842 48.354-48.355 74.985-112.646 74.985-181.029 0-68.384-26.63-132.675-74.985-181.03a7.5 7.5 0 0 0-10.607-.001z"/></svg>