<svg xmlns="http://www.w3.org/2000/svg" viewBox="-41 164.8 512.1 512.1" style="enable-background:new -41 164.8 512.1 512.1" xml:space="preserve"><circle cx="215" cy="420.8" r="256" style="fill:#7f00ff"/><path d="M317.6 276.6c-32.3 0-58.4 26.2-58.4 58.4 0 3.6 2.9 6.5 6.5 6.5h38.4l-23.9 29.9c-2.2 2.8-1.8 6.9 1 9.1 10.3 8.4 23.1 13 36.4 13 32.3 0 58.4-26.2 58.4-58.4s-26.1-58.5-58.4-58.5z" style="fill:#8bc34a"/><path d="M322.7 339.1c2.2-2.8 1.8-6.9-1-9.1-1.2-.9-2.6-1.4-4.1-1.4H109.9c-3.6 0-6.5 2.9-6.5 6.5 0 1.5.5 2.9 1.4 4.1l102.5 128.1v95.1h-45.4c-3.6 0-6.5 2.9-6.5 6.5s2.9 6.5 6.5 6.5h110.4c3.6 0 6.5-2.9 6.5-6.5s-2.9-6.5-6.5-6.5h-51.9v-95.1l102.3-128.2z" style="fill:#fafafa"/><path style="fill:#f44336" d="m273 380.4-59.2 74.1-59.3-74.1z"/></svg>