<svg xmlns="http://www.w3.org/2000/svg" width="72" height="72" fill="none"><path d="M36 72c19.882 0 36-16.118 36-36S55.882 0 36 0 0 16.118 0 36s16.118 36 36 36Z" fill="#FCE5EB"/><path d="M35.999 57.948s8.082-2.92 13.029-10.413c3.58-5.434 4.884-14.008 4.884-19.596 0 0-11.27-3.604-17.913-13.437-6.64 9.834-17.91 13.437-17.91 13.437 0 5.588 1.304 14.162 4.883 19.596C27.918 55.029 36 57.948 36 57.948Z" fill="#F7B7CA"/><path d="M49.028 47.535c3.58-5.434 4.884-14.008 4.884-19.596 0 0-11.27-3.604-17.913-13.437v43.446s8.083-2.92 13.029-10.413Z" fill="#EF7398"/><path d="m21.566 29.712-.002-.165s9.082-2.904 14.435-10.83V14.5c-6.64 9.834-17.91 13.437-17.91 13.437s2.284 1.476 3.475 1.774h.002Z" fill="#EF7398"/><path d="M50.434 29.712c.002-.055.002-.113.002-.165 0 0-9.08-2.904-14.437-10.83V14.5c6.643 9.834 17.913 13.437 17.913 13.437s-2.283 1.476-3.476 1.774h-.002Z" fill="#F7B7CA"/><path d="M25.503 45.34c-2.854-4.327-3.911-11.12-3.937-15.624l-.002-.002c-1.191-.298-3.475-1.774-3.475-1.774 0 5.588 1.304 14.162 4.883 19.596C27.918 55.03 36 57.949 36 57.949v-4.213c0-.001-6.513-2.356-10.496-8.395Z" fill="#EF7398"/><path d="M46.5 45.34c2.852-4.327 3.908-11.12 3.935-15.624l.002-.002c1.192-.298 3.476-1.774 3.476-1.774 0 5.588-1.304 14.162-4.884 19.596C44.083 55.03 36 57.949 36 57.949v-4.213c-.001-.001 6.516-2.356 10.5-8.395Z" fill="#F7B7CA"/></svg>