<svg xmlns="http://www.w3.org/2000/svg" viewBox="0 -36 512 512" width="512" height="512"><path d="M442 180c-5.52 0-10 4.48-10 10s4.48 10 10 10 10-4.48 10-10-4.48-10-10-10zM276 80c5.52 0 10-4.48 10-10s-4.48-10-10-10-10 4.48-10 10 4.48 10 10 10zm0 0" fill="#cfcfcf"/><path d="M482 120H346V30c0-16.543-13.457-30-30-30H30C13.457 0 0 13.457 0 30v200c0 16.543 13.457 30 30 30h30v50c0 8.957 10.824 13.316 17.07 7.07L134.14 260H166v90c0 16.543 13.457 30 30 30h181.86l57.07 57.07c6.254 6.254 17.07 1.868 17.07-7.07v-50h30c16.543 0 30-13.457 30-30V150c0-16.543-13.457-30-30-30zM70 139.988h97.719a29.893 29.893 0 0 0-1.719 10V180H70c-5.523 0-10 4.477-10 10s4.477 10 10 10h96v40h-36a10 10 0 0 0-7.07 2.93L80 285.855V250c0-5.523-4.477-10-10-10H30c-5.516 0-10-4.484-10-10V30c0-5.516 4.484-10 10-10h286c5.516 0 10 4.484 10 10v90H70c-5.523 0-10 4.477-10 10s4.477 9.988 10 9.988zM492 350c0 5.516-4.484 10-10 10h-40c-5.523 0-10 4.477-10 10v35.855l-42.93-42.925A10 10 0 0 0 382 360H196c-5.516 0-10-4.488-10-10V150c0-5.516 4.484-10 10-10h286c5.516 0 10 4.484 10 10zm0 0" fill="#cfcfcf"/><path d="M70 80h166c5.523 0 10-4.477 10-10s-4.477-10-10-10H70c-5.523 0-10 4.477-10 10s4.477 10 10 10zm166 120h166c5.523 0 10-4.477 10-10s-4.477-10-10-10H236c-5.523 0-10 4.477-10 10s4.477 10 10 10zm206 40H236c-5.523 0-10 4.477-10 10s4.477 10 10 10h206c5.523 0 10-4.477 10-10s-4.477-10-10-10zm0 60H236c-5.523 0-10 4.477-10 10s4.477 10 10 10h206c5.523 0 10-4.477 10-10s-4.477-10-10-10zm0 0" fill="#cfcfcf"/></svg>