<svg version="1.0" xmlns="http://www.w3.org/2000/svg" width="300" height="300" xml:space="preserve"><path fill="#C41230" d="M151.147 4.931c-3.52 0-10.388.368-10.668.385 1.331.355-102.726 53.74-102.726 53.18-.032.181-.081.331-.176.449-20.628 25.234-32.872 57.29-32.872 92.426 0 28.958 8.437 55.93 22.945 78.657.097-.054 18.315-2.534 45.12-6.147-2.089 8.76-6.482 29.4-7.331 35.492a989.912 989.912 0 0 0-1.302 9.778c24.333 18 54.419 28.654 87.006 28.654 11.382 0 22.439-1.344 33.08-3.795-.194-1.154-.37-2.309-.528-3.448l-1.923-13.5c-.579-3.693-3.605-28.793-3.605-28.793l-.01-.074 3.219-1.236s4.233.175 4.127.188c0 0 4.291 25.243 5.037 29.623l.807 4.635c.311 1.867.575 3.717.96 5.635.269 1.595.51 3.124.746 4.648a147.61 147.61 0 0 0 10.246-3.484c-.51-2.869-1.065-5.826-1.112-6.262l-1.729-10.27c-2.284-10.595-3.74-18.454-4.806-23.682-.153-.751-.436-2.086-.436-2.086l3.305-1.322 4.36.34s5.562 24.34 6.951 31.699l1.586 8.193c2.984-1.348 5.937-2.775 8.805-4.318l-.917-4.204c-.098-.407-.204-.895-.329-1.441-1.868-8.221-6.827-31.124-6.827-31.124l3.976-1.562 3.885.547h.019s4.991 21.114 8.23 33.131c5.562-3.453 10.891-7.243 15.915-11.387-3.713-8.791 46.373-69.416 46.705-69.187 4.347-13.857 6.701-28.604 6.701-43.899C297.58 70.496 232.018 4.931 151.147 4.931z"/><path fill="#FFF1E2" d="M187.834 77.833s-18.29-34.49-25.751-39.667c-7.452-5.177-19.735-8.409-28.25-7.333-10.781 1.361-35.439 14.41-37.078 14.841.012.126-9.186 11.473-11.589 23.159-.534 2.597-10 44-10 44l18 52 64.146 30.604 23.521-25.604s3.001-25.333 9.334-44.333 4.333-29.333 4.333-29.333l-6.666-18.334z"/><path fill="#FFF" d="M114.01 210.61zm-4.739-99.269c-1.018.58-1.771.716-2.241.966-.471.257-1.214.809-1.031 1.796.195.992.466 1.314.561 2.079.09.757-.275 2.129-1.154 3.687-.867 1.562-2.252 2.69-3.04 3.147-.774.463-1.249.588-1.689.82-.1.046-.19.285-.28.765l-.009.009a.756.756 0 0 1 .204-.118c.169-.072.517-.081.83-.139.303-.056.526-.127.637-.142.118-.014.82-.113.938-.139.118-.023 2.245-.468 3.563-1.075 1.31-.61 3.613-1.72 4.931-3.314.969-1.167 2.136-3.292 2.25-5.401.028-.436.023-.707.023-.707s.005 0 .005-.005c.014 0 .028-.004.042-.004a.93.93 0 0 1-.563-.208c-.352-.276-.637-.48-1.719-1.636-.697-.746-.649-1.293-.273-1.918-.009.014-.025.028-.035.042-.319.3-.945.916-1.95 1.495m53.778-6.893s-.594.051-.798.141c-.162.067-.468.181-.677.461-.208.285-.255.783.181 1.318.445.533 1.057 1.529 1.006 2.382-.032.375.023 1.601-.375 2.484-.445 1.001-.959 1.988-1.312 2.433-.204.262-1.145 1.304-1.284 2.042-.037.155 0 .327.074.489 0 0 .01-.009.01.004-.005.005 0 .014-.005.023a.457.457 0 0 1 .088-.167c.236-.264.714-.531 1.548-.788 1.107-.35 1.891-.767 2.503-1.233-.074.086-.093.186-.14.285.065-.153.135-.304.273-.424.329-.283 4.669-3.196 4.78-7.899.042-1.766-2.249-1.999-3.203-2.031-.709-.03-2.045.62-2.61.483-.009-.004-.027-.019-.046-.023.009 0 .009.004.009.004 0 .011-.018.011-.022.016m-46.216 32.468s17.25 5.334 25.5-4.25c8.25-9.583 22.5 5.084 23.416 9.417.918 4.333-21.416 16.333-28.166 16.583s-33.5-3.333-33.5-6.083 12.75-15.667 12.75-15.667zm70.792-68.541c-2.743-29.092-16.129-43.673-25.75-50.75-10.111-6.662-34.164-12.53-45.5-12C103 6.25 72.112 20.839 70.917 21.917c-1.138 1.039-21.854 35.677-19.292 41.865s6.193 35.413 7.375 37.76c.361.703 6.269 19.743 10.167 19.042 3.929-.707 7.592-18.072 7.417-19.417-.5-3.833-7.457-21.106-6.917-23.542.547-2.429 19.128-31.52 20.458-32.542.938-.714 32.811-4.678 32.996-4.37-.004-.009-.004-.019-.016-.028l-.004-.005c2.227-1.942 7.394-7.061 12.012-6.877 4.613.19 17.801 1.838 25.253 7.021 7.461 5.177 9.765 10.245 10.399 11.663-.005 0-.014.007-.019.007.25.037 10.629 23.631 13.671 23.715 2.028.055 3.542-4.337 3.208-7.834zm-12.912 19.343c-1.107.129-4.134.405-4.468.447-.593.077-.579.413-.542.665.032.26.125 1.256.162 1.685.037.426.482.676.937.639.459-.032 3.355-.294 3.786-.361.422-.069.839-.426.834-.767-.009-.343-.004-1.249-.009-1.615-.01-.369-.283-.74-.7-.693M54.274 226.835c.575.125 1.187.265 1.78.403-1.323-.306-2.762-.621-3.587-.825-.408-.102-1.05-.162-1.793-.148-1.24.028-2.771.27-4.007.891-1.562.778-11.493 5.812-15.655 7.915a147.545 147.545 0 0 0 15.908 19.14c.364-1.501 6.873-8.331 7.789-12.334 1.254-5.485-1.867-12.725-.435-15.042m165.741 15.882-7.847 1.011s5.645 26.063 7.156 32.565l.912 4.204c2.73-1.47 5.399-3.022 8.022-4.653-3.244-12.017-8.235-33.127-8.235-33.127h-.008z"/><path d="m172.609 223.619-.788-2.248h-.903v3.151h.574v-2.535l.876 2.535h.505l.867-2.535v2.535h.579v-3.151h-.904zm-4.903-1.72h1.028v2.623h.621v-2.623h1.03v-.528h-2.679z" fill="none"/><path fill="#FFF" d="M265.487 138.438c-3.963 2.994-6.159 7.038-6.146 11.085.019 5.998 4.871 11.776 16.113 11.739 2.79-.019 5.251-.301 7.489-.681a46.096 46.096 0 0 0 1.9-.348l1.307-5.585c-2.178.728-4.931 1.33-7.137 1.34-5.987.019-10.001-3.531-10.01-8.185-.01-2.481 1.01-4.66 2.854-6.254 1.974-1.708 4.885-2.741 8.527-2.741 2.883 0 4.569.797 5.719 1.935.231.223.444.457.63.702h.937l1.835-6.59c-1.891-.624-4.694-1.149-7.651-1.182-6.885-.093-12.479 1.827-16.367 4.765m-9.376.916c.807 0 1.479.294 1.928.679.385.327.617.716.617 1.052h.922l1.789-7.156h-24.294l-.356 1.4-.084.34s2.66.299 1.845 2.957l-6.066 22.034 10.316.019h1.808l.459-1.891s-2.267-.547-1.674-2.642c.028-.13.881-3.263 1.391-5.144.228-.812.39-1.396.39-1.396l5.552-.004c.908 0 1.604.167 2.141.375 1.112.426 1.539 1.072 1.539 1.072l1.612-6.548h-9.361l1.011-3.74.38-1.395 8.135-.012zm-29.52 17.372c-.719-.769-6.961-10.492-6.961-10.492l11.039-8.835.366-.294a7.594 7.594 0 0 1 1.367-.917c1.172-.603 1.928-.517 1.928-.517l.444-1.761-14.19.021-.352 1.395-.084.345c.964.067 2.309.929 1.21 1.956-.144.123-11.405 8.727-11.405 8.727l.088-.304 2.341-8.481c.495-1.694 2.316-1.898 2.316-1.898l.445-1.745-13.546.004-.348 1.395-.089.345c.649.167 2.498.526 1.858 2.957-4.522 16.338-4.004 14.721-4.31 15.611-1.011 3.874-2.53 4.407-3.443 4.505-.199.019-.371.019-.496.027l-.186.732-.287 1.158h14.168l.473-1.918s-2.248-.445-1.821-2.067c.218-.815.787-2.883 1.288-4.708.486-1.771.917-3.323.917-3.323 2.457 3.939 3.022 4.426 5.988 8.495 2.729 3.763 5.645 3.587 12.688 3.54.575-.004 1.168-.009 1.808-.009l.468-1.882c-1.787.01-2.969-1.293-3.682-2.062m66.808-22.335a1.739 1.739 0 0 0-1.27-.517c-.491 0-.908.172-1.261.517a1.732 1.732 0 0 0-.519 1.263c0 .498.176.92.519 1.272.344.346.77.526 1.261.526.501 0 .918-.181 1.27-.526.348-.352.524-.774.524-1.272a1.698 1.698 0 0 0-.524-1.263m-.175 2.359a1.483 1.483 0 0 1-1.094.457c-.426 0-.788-.153-1.084-.457a1.501 1.501 0 0 1-.45-1.096c0-.422.153-.788.45-1.087a1.468 1.468 0 0 1 1.084-.456c.427 0 .788.153 1.094.456.297.299.445.665.445 1.087 0 .43-.148.797-.445 1.096"/><path fill="#FFF" d="M292.941 135.231c0-.246-.107-.412-.302-.498a1.75 1.75 0 0 0-.537-.065h-.687v1.963h.339v-.776h.273c.189 0 .314.023.394.065.116.076.181.225.176.452v.151l.015.067v.023s0 .009.009.019h.32l-.005-.028c-.019-.014-.019-.046-.028-.1v-.29c0-.1-.037-.209-.11-.309a.474.474 0 0 0-.334-.19.662.662 0 0 0 .282-.095.44.44 0 0 0 .195-.389m-.546.344a.938.938 0 0 1-.32.037h-.319v-.707h.292c.194-.004.338.023.426.072.084.046.13.146.13.29a.314.314 0 0 1-.209.308M273.5 189.501c-18.667-5.667-57-4.333-57-4.333l31.333 73.833s2.903-1.455 3.264-.661c16.999-15.892 30.198-35.764 38.113-58.147-.624-.479 2.957-5.025-15.71-10.692z"/><path fill="none" d="M174.319 221.751v-.38h-.311z"/><path fill="none" d="M174.319 221.751v-.38h-.311z"/><path fill="#FFF" d="M209.842 276.622c-1.399-7.359-6.966-31.699-6.966-31.699s7.391-1.943 9.124-6.173c1.734-4.229-2.189-10.745-2.375-13.313-.801-7.665-3.813-39.063-8.75-45.563-2.875-3.785-16.095-11.253-17.125-11.208-4.75.208-14.25 20.896-22.188 22.771-5.291 1.25-9.029-3.897-8.172-3.508-.015-.01-.033-.019-.042-.028 0 0 .009-.593-.876-3.374-.885-2.79-2.739-5.719-3.082-6.381-.333-.663-1.339-2.109-1.374-2.275-.028-.163-.394-1.094-.653-2.79-.494-3.272-.267-5.464-.248-5.663.009-.2.1-.793.127-.913.021-.126-.028-.339-.178-.376-.158-.027-.58-.13-1.022.324-.92.928-.962 1.104-.978 1.261-.032.148.063.427.035.751-.1 1.029-.28 1.816-.741 2.567-.459.76-.758 1.02-1.409.959-.661-.06-1.21-.584-1.291-1.941-.085-1.357-.352-1.821-.625-2.141-.271-.334-.888-.487-1.099-.474-.208 0-.382.186-1.812.538-1.418.361-3.672.482-4.004.496-.338.019-1.576.144-1.585.148.259.968-5.198-.519-6.116.216-1.875 1.5-2.751 11.24-3.667 16.291l-.002.014L92 188.25l-10.75 25s3.25 49.5 3.25 50.25 68-14.75 68-14.75l25.656-.555s.005.019.01.069c.181 1.479 3.026 25.104 3.605 28.803l1.923 13.49c.158 1.145.334 2.304.528 3.448 2.976-.686 5.923-1.45 8.829-2.322-.236-1.52-.478-3.054-.746-4.639-.381-1.923-.645-3.772-.955-5.64l-.815-4.635c-.742-4.375-5.042-29.613-5.042-29.613l4.507-2.845 5.216 1.593c.139.64.278 1.335.436 2.086 1.07 5.236 2.53 13.087 4.806 23.672l1.729 10.279c.047.436.603 3.393 1.117 6.266a150.464 150.464 0 0 0 8.11-3.393l-1.572-8.192z"/><path d="M158.875 89.083c-5.667.833-13.917 5.458-13.542 8.833.232 2.092 12.05 2.412 17.375 2.792s6.204-4.739 5.918-7.521-3.787-4.98-9.751-4.104zm38.672 90.855c-2.813-.293-1.506 4.266-1.539 4.729v.009a222.226 222.226 0 0 1 3.518 15.567c.01.478.047.898.106 1.237.403 2.113 1.237 8.939 2.841 24.358.371 5.135.695 10.492.909 14.997.147-.01 9.618.539 9.618.539s-.375-13.25-3.313-29.875-7.343-31.061-12.14-31.561zm-25.54-41.75c.426-2.345-.061-3.504-.83-4.875-.755-1.367-2.215-2.646-4.102-3.886-1.825-1.214-5.95-4.854-6.349-5.198-.39-.336-2.317-2.157-2.762-2.519-.464-.357-1.363-1.105-3.337-2.106-4.783-2.412-8.629-.607-8.778-.524-.146.082-.857.656-1.536 1.302-.67.635-.167 1.863.09 2.311 0 0 25.383 18.607 25.434 19.041l.019.014s1.798-1.644 2.151-3.56m-10.502-22.917c-.834.257-1.312.523-1.548.788-.046.053-.064.111-.083.167-.019.044-.019.09-.019.134v.102c.009.044.027.081.037.121.022.046.046.095.074.141.019.03.037.063.064.095.037.058.088.113.139.171.023.028.047.051.074.077a3.877 3.877 0 0 0 .274.25c.089.077.181.148.273.225.019.009.028.019.047.033.111.081.223.155.334.231.004.005.009.005.014.009l.361.234c.125.074.301.113.515.118a3.46 3.46 0 0 0 .723-.067c.89-.176 2.03-.625 2.994-1.087 0 .005-.01 0-.019.005-.056.019-1.821-2.894-1.752-2.98-.611.466-1.39.883-2.502 1.233m-34.084 17.407c.07.028.132.069.204.097a.096.096 0 0 1-.019-.023c-.362-.375-.389-.459-.515-.969-.137-.531-.484-1.182-.63-1.55-.157-.371-.855-1.629-1.124-2.444-.267-.816-.389-1.314-.443-2.132-.208-.617-.366-1.845-.271-2.955.081-.982.299-2.113.922-5.292.422-2.088-.239-4.493-.262-6.72-.019-1.717-.19-5.937-.142-10.184v-.014c-.294.1-38.097-8.01-37.831-8.05.005 0 .014-.005.023-.005.299-3.13.118-7.341-.051-10.534.978-9.591 2.454-20.693 5.842-28.094 2.619-5.691 2.269-3.816 3.564-6.498.072-.144.167-.313.181-.512.014-.134-.095-.887-.118-1.126v-.009c-.077.023-9.29-2.557-20.753 23.752C71.198 80.438 77.583 108 77.583 108l9.979 3.313 6.5-3.531 15.375-3.156 6.281 3.063s-1.934 5.881-1.95 5.881c0 .004-.005.004-.005.004s.005.276-.027.707c-.109 2.113-1.277 4.238-2.25 5.406-1.314 1.59-3.615 2.7-4.924 3.313-1.321.603-3.446 1.052-3.571 1.073-.113.027-.82.123-.934.141-.114.009-.332.081-.635.141-.315.054-.66.063-.832.135a.602.602 0 0 0-.204.123.482.482 0 0 0-.18.309.78.78 0 0 0-.005.276c.063.313.403.749.443.825.141.271.957 1.045 2.292.746a41.792 41.792 0 0 0 4.062-1.124c1.182-.385 2.749-1.063 2.989-1.272.243-.202.892-.698.997-.755 0-.005.004-.005.004-.005.134-.123.262-.239.389-.348.054-.046.109-.104.163-.146l.036-.031c.207 2.477-2.763 9.914-2.763 9.914s-6.922 2.463-6.484 2.137c0 0-.007 0-.007.004-.563.276-1.391.575-2.229-.081 0 0-.815-.952-1.812-2.215a61.011 61.011 0 0 1-1.856-2.458 15.837 15.837 0 0 1-.945-1.476c-.431-.734-.603-1.205-.679-1.499a.222.222 0 0 1-.019-.067c-.185-.489-.34-1.281-.34-1.281-1.249-.155-2.563-.44-3.777-.883.009.004.009.016.019.025.1.09-8.573 1.982-8.573 1.982l8.974 36.563s16.75 26.333 27.25 21.25c1.566-.758 4.29-6.095 3.167-7.917-1.154-1.867-18.917-31.333-18.917-31.333s24.597-13.181 24.836-13.075zm34.047 99.38c3.281 2.179 4.422 2.688 8.009 4.189 1.14.538 4.152-.074 5.44-2.002-.023.01-.046.037-.064.052-.01.004-.01.004-.019.004-.084.051-17.861-13.898-20.178-14.723-.825-.292-5.365 1.374-4.781 2.213.524.755 2.718 3.042 2.77 3.13 3.099 2.41 6.997 5.626 8.823 7.137m-37.801-25.725-29.729-17.021s.867 8.433.862 8.566a.081.081 0 0 1 .009.01c2.169 1.941 5.566 4.264 6.102 4.63.199.13 1.58 1.043 1.875 1.372.366.398 4.034 3.007 4.314 3.202.267.181 4.229 2.368 6.629 3.647.086-.047-1.67 1.39-1.643 1.344-.844.056-1.456.444-2.387.741-4.167 2.341-1.694 7.211-1.3 10.604.797 2.859 1.803 7.823 5.51 8.286 2.823.339 9.283-1.427 12.698-2.127.484-.857 5.434-1.163 5.374-1.094.874-.26 2.046-.672 2.401-.607.213.037-.774 1.085-1.346 2.155-.575 1.08-4.129 11.572-7.438 17.161-1.11 2.289-.584 1.344-1.26 3.008v.005l6.705 1.535 10.833-27.501-18.209-17.916zm-33.724 21.378c1.154 2.141 4.479 6.632 4.641 6.887.162.25.878 1.02 1.722 1.965.846.94 1.571 1.761 1.775 2.002.204.232 1.789 1.877 2.199 2.253.408.375.88 1.14 1.223 1.459 1.173 1.053 5.492 4.807 5.909 5.117.417.319 2.477 1.7 2.848 1.751 3.71.469 5.531-1.562 5.907-2.164.38-.588.452-.843.218-1.724-.005.064-14.322-10.694-23.822-31.382-.368-.801-3.663-4.791-6.688-2.375-2.484 1.984-.687 6.738-.687 6.738v.027c.943 1.948 3.768 7.62 4.755 9.446m-28.11 2.039c.958-3.584-6.987-2.785-7.559-2.915-2.477 4.009-5.107 17.625-6.446 24.002-.232.718-.544 1.872-.911 3.364a147.586 147.586 0 0 0 5.605 5.418c1.382-5.381 9.057-28.916 9.311-29.869z" fill="#F5D4B7"/><path fill="#C41230" d="M292.612 136.589c0 .009.004.019.004.023 0 0 0 .009.005.019-.005-.009-.005-.019-.005-.019 0-.004-.004-.013-.004-.023"/><path d="M274.557 187.911c-4.431-.982-14.923-3.087-29.067-4.385-14.135-1.288-25.707-2.391-27.296-2.563-1.456-.144-1.984-1.479-3.305-2.142-4.792-2.404-13.848-4.634-19.524-6.631-1.404-.487-2.327-1.729-4.264-4.093-1.178-1.441-1.975-2.09-2.984-3.003a55.644 55.644 0 0 0-2.271-1.933c-.343-.278-.584-1.075-.287-2.623.297-1.553 1.224-7.614 1.149-14.67-.019-1.894.815-3.107 1.701-3.55.477-.241 3.582-1.622 3.373-4.674-.218-3.089-1.172-7.398 1.312-13.463 2.405-5.876 5.408-16.364 5.771-23.283.385-7.35-1.46-12.091-4.361-14.658-1.131-.992-2.466-2.491-1.376-5.691 1.163-3.443 3.276-12.846 1.2-19.066-.464-1.381-.992-1.39-1.308-1.557-.319-.162-1.825-1.316-2.391-3.854-.761-3.346-3.207-15.238-12.43-27.327-4.885-6.418-10.104-10.235-12.188-11.773-1.428-.929-3.935-2.676-6.934-4.271-4.291-2.269-7.697-4-14.547-6.217a99.17 99.17 0 0 0-4.053-1.17h-.023s-5.837-1.562-12.149-2.299c-1.078-.1-2.553-.236-4.227-.35-6.498-.38-8.87.019-12.249.359-.361.035-.728.09-1.091.139-.674.09-1.372.194-2.1.308-10.04 1.719-20.254 6.428-25.222 8.797-2.804 1.332-5.286 2.718-7.568 4.018-.063.04-.144.086-.186.111-.588.359-1.508.872-2.407 1.365-1.404.792-2.746 1.534-4.046 2.169-4.021 1.956-7.557 2.957-10.143 3.854-.47.176-.864.325-1.168.429-1.865.726-3.052 1.476-3.27 2.713-.398 2.22 2.215 4.28 1.282 7.821-2.296 8.708-12.126 17.066-13.702 18.03-4.565 2.786-4.28 4.725-4.456 5.717 0 .922.19 1.946.714 3.052 1.522 3.223 4.335 5.985 5.712 8.898 1.381 2.915 2.168 8.024 1.135 13.996-.987 5.775-1.295 7.056-1.808 8.115-.51 1.063-1.539 3.128-.12 5.584 1.425 2.463 4.428 4.975 6.312 6.421 1.001.774 1.52 1.476.778 2.871-1.224 2.283-.911 7.666.248 10.678 1.75 4.595 3.805 8.975 5.712 11.79 1.909 2.813 5.315 7.601 7.318 9.333 1.995 1.743 2.269 4.764 2.231 6.639-.042 1.865-.304 7.153 5.13 10.462 2.677 1.646 2.917 1.232 3.9 2.039.982.793 1.444 1.205 2.123 3.346.679 2.132 3.768 9.612 8.02 14.877 1.242 1.529 1.93 2.613 2.079 2.864.15.25.38.528-.158 1.788-.535 1.261-2.681 8.439-4.394 15.859-.313 1.362-.774 3.151-2.481 3.99-1.71.825-5.529 2.934-6.919 3.703-1.399.769-2.088 1.187-3.698 3.188-.716.89-1.237 1.413-1.689 1.955-.26.315-.375.515-1.736 1.224-1.177.612-18.66 6.762-37.198 18.103-.459.277-.888.523-1.314.76a139.762 139.762 0 0 0 3.365 5.042c4.162-2.104 14.091-7.137 15.652-7.915 1.233-.621 2.765-.862 4.004-.891.746-.014 1.386.047 1.793.148.832.204 2.264.52 3.594.825.123.027.246.056.373.083.082.019.163.037.248.061.549.135 1.057.255 1.467.366.023.009.042.009.065.019.199.056.38.106.519.148 1.18.389 1.808 2.604 1.17 4.62-.114.38-.482 1.659-1.02 3.55-.267.95-.575 2.044-.911 3.258-.338 1.215-.707 2.55-1.096 3.968a1021.416 1021.416 0 0 0-4.352 16.309c3.7 3.373 7.582 6.548 11.616 9.532.452-3.494.927-7.132 1.295-9.778.964-6.905 6.479-32.478 8.036-38.294 1.133-4.231 1.722-6.159 3.211-6.826.447-.195.955-.491 1.249-.635.294-.135.938-.292.739.829-.227 1.33-1.376 6.757-3.065 24.367-1.173 12.217-1.201 23.038-.779 29.545.181 2.771.229 6.688 4.468 4.991 4.954-1.979 21.842-8.036 30.865-10.816 14.527-4.481 41.754-10.465 67.998-14.339l7.337-1.043s4.296 25.243 5.037 29.618l.815 4.63-.807-4.63c-.746-4.375-5.037-29.618-5.037-29.618 1.029-.14 2.063-.273 3.082-.403 2.35-.297 4.556-.574 6.632-.844l7.665-.982c3.587-.459 6.664-.853 9.273-1.195 0 0 4.954 22.903 6.817 31.129.13.542.241 1.029.334 1.437l.917 4.204h.014l-.912-4.204c-1.512-6.507-7.156-32.565-7.156-32.565l7.847-1.011c2.321-.296 5.278-.667 6.159-.709 1.844-.078 2.65-1.121 1.241-1.543-1.015-.297-3.364-.533-4.551-.561-.454-.005-1.279-.015-1.771-.023-1.816-.032-2.335-.39-2.734-3.068-1.131-7.851-5.505-27.314-8.647-37.575-3.04-9.899-3.791-12.749-4.523-14.928-.64-1.877.599-1.992 1.196-1.965 2.215.106 5.283 1.256 6.163 3.151 1.947 4.222 15.266 39.109 20.614 52.114 3.374 8.193 7.304 18.056 11.016 26.842 2.378-1.955 4.672-4.013 6.919-6.117-6.909-15.191-22.291-49.606-30.401-67.022a25.468 25.468 0 0 1-.885-2.238 1.627 1.627 0 0 1-.098-.533c.01-1.112 1.479-1.266 2.206-1.195 2.864.287 28.872 2.002 35.973 2.679 4.685.444 9.361 1.158 12.484 1.715.724.134 1.362.255 1.9.361.667.134 1.168.24 1.492.329 2.317.603 6.404 2.22 10.187 4.249 1.566.835 3.346 2.049 5.255 3.514.575-1.632 1.149-3.268 1.669-4.922a46.397 46.397 0 0 0-4.394-2.716c-4.324-2.303-7.971-3.768-11.924-4.648M62.776 101.66c-.707.304-1.346.385-1.835-.579-1.186-2.345-2.087-6.521-2.431-9.234-.354-2.711-.896-10.803-.725-15.224.19-4.424-.674-6.896-2.255-9.012-1.585-2.113-2.604-3.58-2.994-4.292-.489-.888-.162-1.495.774-2.173.454-.318 1.381-.127 2.097-.276 1.418-.285 6.154-2.002 9.681-4.769 3.52-2.767 9.13-8.119 12.937-10.179 3.795-2.06 5.48-2.999 9.922-3.532.788-.092 1.969.329.635 1.344-1.333 1.015-5.608 2.53-10.592 10.052-3.061 4.602-3.56 7.26-4.53 9.325-.973 2.064-1.905 2.648-3.446 4.319-.75.797-2.278 2.472-2.829 4.901-.535 2.431-2.748 10.995-1.448 23.948.153 1.508.774 3.515-.64 4.245-.872.453-1.621.837-2.321 1.136m6.104 17.453c-.753-.535-3.831-4.702-5.33-9.333-.165-.489-.345-1.733.466-2.088.665-.285 1.548-.797 2.007-1.015.465-.234 1.624-.538 1.784 1.133.162 1.675.308 3.649 2.217 8.59.345.883.417 1.159.507 1.513.247 1.026-.954 1.696-1.651 1.2m6.27-15.736c-.204.035-2.317.29-3.455.503-.707.13-1.435.394-1.516-.287a22.315 22.315 0 0 0-.389-2.072c-.06-.287.077-.559.419-.64.839-.194 4.081-.739 4.394-.755.313-.004.63.102.765.751.123.651.28 1.344.317 1.626.038.29.119.774-.535.874m1.152-10.578c-.195-.987-.468-2.677-.38-3.729.03-.419.157-1.467.66-2.032.711-.806 1.657-1.539 2.269-2.035 1.115-.913.883-3.276.964-4.632.246-3.939-.104-16.378 7.967-28.279.311-.452.628-.869.941-1.263.095-.118.19-.227.285-.343a14.5 14.5 0 0 1 .702-.779 14.911 14.911 0 0 1 1.168-1.105c.042-.033.079-.07.118-.104.327-.264.656-.503.982-.73.118-.077.236-.153.354-.222.225-.148.452-.281.679-.41.129-.07.257-.142.389-.209.248-.127.503-.246.755-.359.095-.04.19-.086.285-.13.327-.137.663-.259.996-.373.142-.049.281-.09.422-.134.223-.07.447-.137.67-.199.076-.019.146-.046.222-.065v.009c1.643-.438 3.328-.684 5.031-.973 4.804-.816 10.406-.053 13.287.864 2.29.725 3.45 1.281 4.215.558.769-.72 2.776-2.994 3.626-3.8.118-.114.209-.239.273-.362.026-.042.04-.085.058-.127.032-.081.058-.167.072-.252.005-.046.014-.095.014-.146 0-.081-.009-.162-.023-.248-.009-.042-.009-.09-.03-.132a1.172 1.172 0 0 0-.155-.341c-.186-.311-.484-.588-.851-.809-.934-.549-10.312-7.431-22.954-7.739-12.353-.309-22.379 4.062-25.038 4.977-.538.181-.815.276-1.13.28-.313.009-1.391-.359-.992-1.138.438-.832 1.534-2.113 2.672-3.151 1.196-1.077 7.04-6.579 12.814-9.127 1.068-.468 1.328-.663 2.012-.929.874-.331 1.39-2.301-.54-2.306-1.979-.014-2.767.208-3.812.371-1.047.174-1.622-.294-.961-1.191.653-.894 1.944-1.886 4.275-3.151 5.058-2.757 14.313-5.663 18.688-6.62 5.705-1.249 6.402-1.33 10.188-1.562 3.541-.204 6.373.046 7.712.1 11.343.431 24.407 4.185 34.519 10.844 9.616 7.075 23.455 18.862 26.198 47.959.329 3.492.098 5.471-.037 6.345-.12.874-1.112 2.481-1.983.656-2.869-6.013-7.304-13.882-12.309-21.341-.297-.443-.599-.656-.844-.688a.452.452 0 0 0-.278.033c-.022.014-.037.037-.06.053a.53.53 0 0 0-.135.146c-.019.044-.042.09-.056.137a.962.962 0 0 0-.046.204 1.15 1.15 0 0 0-.019.186c0 .148.009.311.051.489.125.528 1.719 8.418 1.779 9.517.069 1.096-.468 3.786 3.619 8.75 1.669 2.037 3.151 3.777 3.912 6.782.75 2.994 1.005 4.275 1.01 4.593.01.313.371 1.205-1.075 1.214-1.437.004-6.924-.394-9.273-.341-2.35.056-18.569 1.647-24.602 2.929-6.036 1.284-9.283 2.804-12.381 6.06-.746.783-1.789 1.513-2.027 1.58-.223.063-1.01.046-2.549-.058-1.532-.1-4.189.276-5.584.906-1.404.628-2.405 1.212-4.095.523-2.417-.978-6.564-5.443-17.328-4.917-6.481.317-9.8.494-14.297 1.159-.262.042-.533.081-.802.123-.171.028-.348.055-.523.085-.095.014-.195.028-.294.046-1.831.299-3.9.684-6.453 1.182-.353.067-.702.139-1.068.208-.996.199-1.684-.247-1.869-1.287m99.125-2.776c0 .343-.417.698-.844.77-.422.067-3.318.332-3.781.366-.454.032-.899-.218-.937-.646-.037-.422-.13-1.423-.157-1.685-.047-.246-.056-.589.533-.665.343-.042 3.364-.313 4.477-.445.417-.049.69.327.7.692 0 .366 0 1.273.009 1.613m-13.546 3.251c-.895-.63-2.471-1.622-3.425-1.97-.658-.236-.427-1.059.51-1.191 3.263-.475 5.357-.475 6.979.538 1.186.735 1.974 2.162 1.612 3.42-.427 1.444-.992 1.131-1.701 1.119-.709-.013-3.09-1.283-3.975-1.916m1.886 6.366c-.574.387-2.451.042-3.133-.225-1.399-.549-2.392-.929-4.338-2.164-1.27-.806-3.48-1.205-5.413-.621-1.274.385-2.298.707-3.42 1.14-1.124.431-1.353-.593-1.059-1.031.29-.436 2.069-2.519 4.428-3.406.496-.19 1.506-.294 2.002-.304 1.521-.044 3.406.698 4.834 1.74 1.441 1.05 3.726 2.762 5.228 3.404.704.303 2.233.526.871 1.467m-46.914 50.653c-5.693 1.993-7.288-.009-7.795-.603-.505-.593.118-1.172.721-1.453 1.353-.63 3.166-2.002 4.081-2.895.92-.892 2.707-3.997 3.997-5.088.612-.521 3.918-1.645 6.405-.459 2.957 1.409 7.561 1.555 10.388 1.187 2.825-.38 3.902-2.445 4.514-3.664.612-1.23 2.111-1.68 2.899-2.004 2.169-.887 5.04-3.863 5.334-4.166.294-.313 1.189-.753 2.612.081 2.59 1.522 3.907 3.536 6.312 6.268 2.405 2.734 5.251 3.161 6.085 3.214s1.354 1.02 1.391 1.286c.046.266-.649 1.191-1.168 1.58-.52.389-.807 1.078-5.413 1.187-23.107.57-33.505 3.129-40.363 5.529m31.342 2.781c-1.372.709-5.45 2.247-7.48 2.637-2.037.39-8.5 1.701-9.591 1.789-1.358.106-3.26-.302-4.913-1.432-.332-.228-.783-1.117.422-1.294 2.236-.333 5.846-2.011 18.978-2.679 1.411-.073 2.074-.102 2.412-.11.339-.009 1.553.38.172 1.089m-30.424 29.155c-4.586.755-16.795-2.827-24.734-22.417-2.046-5.038.199-10.052 2.167-11.067 1.168-.593 1.8-.834 2.199-.934.431-.109 2.509-.38 2.746 1.958.186 1.891 3.858 17.416 8.794 22.551 1.216 1.274 2.178 1.196 2.493-.12.269-1.205.802-2.79.957-3.393.109-.436 1.3-1.752 1.974-.074 1.453 3.56 3.205 8.222 4.356 10.089 1.126 1.823.764 3.124-.952 3.407m.905-51.222c.431.598.698 1.685.665 2.165-.044.554-1.937 1.559-3.907-.651-1.97-2.215-1.585-5.276-.77-6.576 1.3-2.074 3.854-1.041 3.608-.301-.854 2.562-.034 4.761.404 5.363m-14.635-28.687c-1.472-.048-3.057-.229-5.747.767-3.01 1.112-4.945 2.563-6.345 3.422-1.439.897-2.961 1.282-3.471 1.319-.507.044-2.356-.199-1.082-1.537.338-.366 1.149-.642 2.38-1.539.88-.648 1.532-1.11 2.533-1.953 1.784-1.52 5.42-3.717 7.005-3.912 1.163-.139 3.218.081 4.442 1.082 1.272 1.045 1.761 2.398.285 2.351m-25.327 2.61c.155-.964 1.209-3.506 3.43-4.243.299-.09 1.406-.45 2.331-.688a48.489 48.489 0 0 1 2.862-.625c1.608-.28 1.946.943.934 1.74-.663.528-1.722 1.216-2.658 1.974-1.423 1.164-2.79 2.458-3.847 3.337-1.287 1.072-3.372.484-3.052-1.495m7.545 27.681a.066.066 0 0 1-.009-.009l-.023-.035a22.087 22.087 0 0 1-1.117-1.745c-.074-.132-.146-.267-.222-.399-.346-.642-.67-1.291-.925-1.974-.498-1.323.336-1.518.892-1.23.554.297 2.178 1.244 3.914 1.61 1.059.218 1.689-.29 1.937-1.054.037-.114.085-.255.137-.408.03-.067.053-.139.076-.213l.044-.139c.023-.083.042-.164.06-.25.014-.044.019-.09.028-.134.021-.088.03-.174.04-.264.004-.044.004-.086.009-.135 0-.088-.009-.174-.019-.264-.005-.039-.009-.081-.019-.118a1.335 1.335 0 0 0-.1-.275c-.017-.028-.026-.058-.04-.081-.06-.104-.142-.2-.241-.29a1.657 1.657 0 0 0-.498-.299c-1.511-.607-5.795-1.96-9.012-7.943a1.437 1.437 0 0 1 .288-1.819c.315-.25 1.434-.964 1.97-1.295.542-.332 1.276-.294 2.041.234.735.526 2.332 1.689 3.613 1.576 1.191-.116 1.309-.604 1.522-.913.839-1.224 3.112-5.67 9.069-5.742 2.458-.032 4.76.195 5.584.144.815-.053 3.722-.315 5.434-1.48 1.685-1.159 2.405-.325 1.43.943-.144.19-.276.357-.399.524-.048.06-.085.113-.129.169a7.175 7.175 0 0 0-.346.503c-.371.628-.417 1.172.276 1.918 1.087 1.156 1.37 1.363 1.722 1.636a.923.923 0 0 0 .565.204c.09 0 .19-.019.29-.046.042-.014.083-.014.132-.032.15-.067.308-.158.484-.306.621-.549 1.038-.876 1.58-1.576.403-.517.744.004.644.813-.079.63.204 4.674-4.203 9.646-.144.167-.479.443-.897.797-.1.081-.194.162-.303.257-.053.046-.109.1-.163.146-.137.12-.275.248-.417.38-.113.104-.227.229-.343.343-.118.118-.232.227-.35.354-.072.077-.144.167-.218.253-.148.167-.299.336-.447.521-.046.063-.09.127-.132.186a9.108 9.108 0 0 0-.475.669 8.727 8.727 0 0 0-.512.938c-1.226 2.616-1.068 3.479-1.2 4.433-.121.945-.855 1.321-1.68 1.703-.498.229-1.819.992-3.281 2.099l.007-.007c-.438.329-.883.695-1.326 1.073-.085.077-.167.148-.246.225-.442.389-.878.802-1.281 1.232a8.426 8.426 0 0 1-.818.751c-.095.074-.183.132-.278.199a7.094 7.094 0 0 1-.593.389 3.46 3.46 0 0 1-.319.165c-.2.1-.399.181-.603.252-.109.037-.213.082-.322.109-.053.014-.104.037-.153.053-.127.028-.255.032-.382.051-.158.028-.315.058-.475.067-.176.009-.357 0-.538-.009-.155-.017-.313-.017-.463-.035-.186-.028-.371-.086-.552-.137-.155-.04-.308-.072-.465-.127-.174-.067-.346-.163-.521-.248-.167-.081-.327-.146-.489-.246-.014-.012-.032-.016-.046-.025a9.027 9.027 0 0 1-.893-.649 42.778 42.778 0 0 1-2.458-2.283c-.023-.025-.044-.048-.067-.067a1 1 0 0 1-.067-.077 28.226 28.226 0 0 1-1.281-1.386c-.037-.045-1.015-1.222-1.432-1.801m52.966 92.912c-.271 1.409-1.42 6.154-5.638 15.919-.285.658-.561 1.293-.832 1.905-.065.144-.132.282-.195.426-.104.236-.213.473-.317.695-.009.019-.014.037-.023.056-.153.339-.308.658-.466.974 0 0-.009.009-.009.019a2.245 2.245 0 0 1-.067.12c-.056.111-.114.218-.169.324-.076.14-.148.292-.229.427 0 .014-.005.019-.009.027a135.423 135.423 0 0 0-.237.408c-.009.019-.023.037-.033.056v.009c-.053.079-.1.158-.148.232-.014.027-.028.056-.042.078-.009.01-.016.023-.03.037-.065.106-.132.204-.199.315-.014.014-.028.027-.037.042-.076.111-.153.218-.227.324-.004 0-.016.019-.03.027a5.928 5.928 0 0 1-.199.26c-.019.019-.032.037-.046.047-.076.102-.157.181-.227.269-.011 0-.021.014-.03.027-.042.042-.09.084-.132.13h-.004a.54.54 0 0 1-.077.074c-.014.014-.037.028-.051.047-.081.073-.158.144-.239.199-.009.009-.014.014-.028.019-.072.06-.148.11-.223.157-.021.014-.039.027-.058.037-.014.009-.028.014-.037.019-.016.014-.03.023-.044.023-.056.037-.114.069-.172.102 0 0-.009 0-.019.005a1.363 1.363 0 0 1-.241.097.624.624 0 0 1-.063.028c-.09.027-.176.051-.271.074-.876.189-1.813.324-2.361.417-.081.009-.642.102-.688.12-.229.033-.475.07-.741.116v-.005c-6.331 1.066-23.552 4.032-31.54 5.645-5.299 1.057-4.778-1.612-6.108-6.428-.559-2.025-2.528-19.941-1.504-31.185.343-3.735.507-4.829 1.177-5.241.669-.413 1.694-1.08 2.002-1.168.299-.079 1.212-.32 1.638.449.417.76 8.152 16.452 13.206 22.134 4.486 5.065 7.638 8.74 11.419 11.206.25.167.465.269.66.334.019.009.042.022.065.027.09.028.171.042.248.051.076.01.146.005.213 0 .019-.004.037-.004.056-.009a.59.59 0 0 0 .301-.167c.009-.009.019-.023.033-.037a.772.772 0 0 0 .15-.319c.005-.019.005-.042.005-.061.104-.584-.174-1.469-.73-2.071-.834-.899-4.289-4.454-8.84-10.928-5.886-8.356-9.876-20.688-10.949-24.637-.702-2.586-1.096-6.664-1.031-9.918h-.009c.005-.144.009-.269.017-.407l.014-.311a16.788 16.788 0 0 1 .114-1.526c.014-.12.032-.227.046-.343.03-.194.058-.38.086-.552a5.12 5.12 0 0 1 .063-.292 4.99 4.99 0 0 1 .181-.681c.916-2.618 1.68-2.336 2.491-1.46.811.885 8.12 7.517 20.169 12.916 2.558 1.145 4.085 1.673 4.433 2.049.345.365.897 1.14-.199 1.399-1.082.255-4.296.37-7.661 1.7-.195.079-.375.158-.54.232-1.177.528-1.729 1.057-1.979 1.626a2.13 2.13 0 0 0-.113.344c-.021.078-.04.171-.049.255-.014.129-.019.259-.014.389 0 .084-.005.172.004.26.009.167.028.334.046.51.04.297.081.603.111.94.178 1.826.494 3.129.725 5.571.227 2.451.086 4.666 1.282 5.7 1.191 1.02 2.817 1.626 7.16.783 4.12-.802 5.492-1.154 5.98-1.168.479-.014 1.636-.209.929 1.14-.067.13-.155.287-.259.478-.95 1.691-3.251 5.501-4.035 8.041-.869 2.799-1.045 3.573-1.121 4.05-.07.482.262 1.409 1.117.371.853-1.038 2.542-4.908 6.785-9.834a81.87 81.87 0 0 1 1.581-1.771c.004 0 .009-.01.019-.019.384-.412.741-.788 1.082-1.131.095-.098.185-.186.276-.273.29-.282.561-.542.815-.788.067-.056.139-.125.199-.181a20.308 20.308 0 0 1 1.652-1.362c.048-.027.09-.056.134-.088.183-.135.364-.255.531-.357a1.9 1.9 0 0 0 .141-.093c.167-.102.325-.189.471-.269.023-.019.058-.037.085-.051.019-.005.033-.019.046-.027.171-.079.315-.163.461-.228 1.187-.588 1.509.222 1.15 2.099m7.024 21.56c-.679.157-3.617.603-4.071.611-.447.01-.827-.408-.637-.728.19-.315 2.211-2.947 3.323-7.526.186-.746.654-1.265.957-.194.234.783 1.14 4.676 1.349 6.141.031.255.188 1.436-.921 1.696m1.232-37.345c-1.93.724-4.076-1.445-5.814-2.604-3.904-2.669-7.496-5.241-10.443-8.842-4.514-5.511-4.092-9.353-2.781-16.471.911-5.057-.742-9.812-1.101-10.483-.357-.672.046-1.353 1.114-.853 1.068.501 2.088 2.058 3.184 3.393 1.087 1.335 1.328.385 1.418-.52.208-2.095-.264-3.772-.526-4.745h-.005a1.803 1.803 0 0 1-.037-.157c-.153-.58-.693-1.873-1.829-2.109-1.522-.319-3.017-.454-3.83-1.038-.378-.273-.807-.829-.382-1.237.776-.751 1.902-1.747 2.971-2.113 1.455-.5 2.854-1.261 4.697-1.251 12.438.079 15.792-2.799 20.547-4.773.932-.39 1.492-.565 2.289-.315.802.241 2.976 1.057 3.526 2.025.552.969.649 5.01 1.711 7.925 1.047 2.924 2.831-.106 3.221-1.357.375-1.257.523-4.245.542-5.001s.241-3.944 1.242-5.019c1.988-2.123 2.456-4.635 2.697-5.617.213-.881.38-3.344-.056-6.843a26.344 26.344 0 0 0-.186-1.346c-.672-4.22-1.521-4.577-2.665-5.344-1.149-.765-2.35-.433-5.273-2.435-2.614-1.798-4.987-4.94-6.966-6.857-1.97-1.914-5.088-3.839-8.376-4.178a5.955 5.955 0 0 0-.556-.023h-.037a2.889 2.889 0 0 0-.403.044c-.023.004-.037.014-.063.019a1.431 1.431 0 0 0-.28.079c-.023.016-.042.03-.07.04-.063.037-.125.072-.176.113-.023.023-.042.046-.067.072a.592.592 0 0 0-.1.123c-.023.032-.037.072-.056.109-.014.04-.035.072-.044.109a1.018 1.018 0 0 0-.037.176c0 .023-.004.042-.004.067-.005.081-.005.165.004.25h-.004c.067.813.653 1.805.802 2.213.208.554.734 2.248-.2 3.235-.94.987-6.435 5.904-11.583 5.781-2.326-.053-4.266-.531-5.895-1.226a.103.103 0 0 1 .019.025c-.069-.03-.127-.067-.199-.1a13.498 13.498 0 0 1-1.11-.552c-.056-.032-.123-.06-.186-.095a13.557 13.557 0 0 1-1.101-.711l-.304-.227a12.178 12.178 0 0 1-.746-.612c-.069-.063-.15-.125-.218-.186-.28-.267-.54-.528-.783-.788-.06-.072-.113-.139-.174-.204a17.81 17.81 0 0 1-.519-.637c-.051-.067-.1-.127-.146-.195a13.115 13.115 0 0 1-.502-.753c-.019-.03-.03-.053-.049-.081-.127-.22-.236-.429-.332-.619-.023-.051-.048-.097-.072-.151a5.425 5.425 0 0 1-.231-.57c-.751-2.259 1.114-7.598 1.047-11.421-.023-1.675-.369-4.889-.626-7.119-.255-2.231.92-5.234 1.467-5.962a2.41 2.41 0 0 1 .521-.463c.053-.04.114-.072.171-.109.199-.13.426-.253.684-.366l.114-.058c.252-.104.521-.213.815-.308v.014c.48-.165.997-.318 1.562-.445 1.833-.408 3.976.499 4.528 2.012 1.916 5.278 4.039 6.393 4.75 6.738.721.352 1.856-.693 2.301-1.078.447-.373 1.524-1.789 1.045-2.41-.737-.943-1.14-1.522-1.354-2.111-.361-.996.941-1.017 1.249-.878 3.923 1.662 5.802 2.011 9.6 1.884 3.791-.118 9.687-2.616 10.418-2.63.594-.014 1.771.352 2.211.964.074.104.172.252.265.398.38.565.89 1.323 1.344 1.481.019.004.032.014.051.019.561.139 1.9.037 2.609.067.959.033 2.623-.299 2.576 1.462-.106 4.702-3.823 7.635-4.161 7.92-.13.118-.204.269-.27.422-.019.042-.055.086-.064.132a1.208 1.208 0 0 0-.037.253c0 .085.01.162.028.227.088.28.491 1.295.662 1.571.061.1.135.195.231.285.023.023.061.042.089.067.074.056.147.109.231.146.042.023.098.028.148.044a.883.883 0 0 0 .255.032c.056 0 .125-.019.181-.032.139-.03.269-.058.417-.148 3.151-1.884 4.431-4.111 5.802-6.91 1.367-2.786 2.086-11.987 2.165-13.496.078-1.52.556-2.454 1.302-3.065.741-.614 4.421-2.971 4.94-3.091.528-.123 1.131-.174 1.724 1.198.603 1.381 1.919 9.864 2.169 11.168.283 1.386 1.001 1.221 1.363.955.787-.575 1.357-1.282 2.058-2.486.723-1.205.194-2.867-.51-3.641-.695-.778-1.794-2.021-1.326-3.255 1.066-2.804 3.305-2.663 3.907-2.563.589.1 2.859 1.122 3.268 7.232.593 9.051-3.097 18.41-3.977 20.783-1.946 5.276-2.354 8.868-2.655 10.578-.292 1.703-1.585 1.395-1.896 1.119-.315-.275-.719-1.594-.918-1.789-.204-.195-.714-.095-1.048 1.358-.333 1.45-1.445 3.464-2.095 4.56-.436.711-.356 1.731-.25 2.523.195 1.539.996 7.427.751 14.121-.445 11.91-4.426 19.413-7.396 23.339-6.988 9.241-13.542 13.102-14.329 13.652-1.011.705-2.702.594-3.268.408-.575-.162-1.08-.756-2.155-1.524-.088-.069-.176-.106-.25-.144-.853-.395-.982.806-.974 1.121.01.334.528 1.571.82 2.771.557 2.262-.699 4.996-1.992 7.155-1.845 3.05-3.905 6.405-3.474 10.089-.005.328-.005.568-.281.674m59.218 3.523c1.053 6.053 2.239 13.431 3.578 22.473.069.477.12.885.157 1.265a9.48 9.48 0 0 1 .075 1.094c0 .028-.004.051-.004.074 0 .12 0 .25-.01.353a3.664 3.664 0 0 1-.051.278c0 .036-.01.073-.01.106a1.63 1.63 0 0 1-.194.477c-.009.019-.027.037-.046.065a1.325 1.325 0 0 1-.265.269l-.098.074a1.898 1.898 0 0 1-.436.204c-.041.019-.102.027-.157.046-.13.042-.273.079-.427.121-.097.019-.194.037-.292.064-.203.042-.421.084-.653.13-.426.088-1.052.176-1.487.213-.751.074-1.627.148-2.581.232-9.223.843-27.273 2.674-41.733 4.495-.273.027-.551.056-.848.102-1.126.158-1.779-.022-1.868-1.126-.069-1.015-1.761-11.053-6.872-19.604a39.532 39.532 0 0 0-1.488-2.321c-.583-.839.283-1.479 1.108-1.187 2.316.815 8.73 3.749 17.879 10.297 2.336 1.669 2.943 2.188 3.467 2.633.069.061.176.12.273.167.037.019.079.027.125.046.064.023.144.047.223.065.042.009.083.019.125.022.088.01.176.015.255.01h.098a.76.76 0 0 0 .292-.098c.213-.134.311-.394.144-.843-.57-1.604-3.629-4.755-11.456-12.018-1.117-1.033-1.136-1.469.022-1.59 1.154-.11 4.292.033 5.96-.037 1.673-.073 5.408-.176 4.676-5.065-.561-3.786-1.001-7.702-1.07-8.874-.064-1.168-.269-3.351-3.003-3.661-2.716-.311-7.271.319-11.358 1.751-1.127.39-1.525-.129-.691-.89.83-.755 8.004-5.422 14.117-12.443 6.72-7.729 9.676-13.416 11.354-18.588.302-.918.69-.607 1.066-.395.371.218 2.892 2.257 3.786 7.271.876 5.023 2.614 11.994-.449 30.3-1.683 10.028-3.74 15.951-4.218 17.365-.481 1.399.343 2.188 1.27.932 2.16-2.948 5.015-11.123 7.425-20.521a126.52 126.52 0 0 0 3.597-22.319v-.005c.037-.468.069-.908.092-1.33l.015-.171c.019-.412.041-.807.069-1.163 0-.218.027-.39.064-.547.01-.047.028-.084.042-.125.023-.07.042-.148.069-.204 0-.01.01-.01.01-.019a1.09 1.09 0 0 1 .152-.218c.015-.019.028-.037.042-.047.046-.041.088-.06.13-.083.032-.014.064-.037.093-.047.027-.004.046-.004.074-.009a.8.8 0 0 1 .148-.019c.019 0 .037 0 .06.009h.07c.018 0 .027.015.036.015.186.032.357.106.487.162.478.186 2.591.797 3.693 5.867.046.204.093.426.148.648.009.074.027.157.046.231.052.204.098.408.148.631l.01.037c.913 3.983 2.567 10.88 4.995 24.973"/><path d="M167.706 221.899h1.028v2.623h.621v-2.623h1.025v-.528h-2.674zm4.903 1.724-.793-2.252h-.894v3.151h.575v-2.535l.876 2.535h.505l.862-2.535v2.535h.574v-3.151h-.894z"/></svg>