<svg version="1.1" id="Layer_1" xmlns="http://www.w3.org/2000/svg" x="0" y="0" viewBox="-49 141 512 512" style="enable-background:new -49 141 512 512" xml:space="preserve"><style>.st2{fill:#1ae5be}</style><path d="M31 379.9c0-4.9 2.5-9.4 6.7-11.9L81 341.7v-24.9L19.7 354c-4.1 2.6-6.7 7.1-6.7 11.9v11.2l18 11v-8.2zm2 180.6V403.4l-20-12.2v169.3c0 21.2 17.2 38.4 38.4 38.5h20c-21.2-.1-38.4-17.3-38.4-38.5z" style="fill:#d4e1f4"/><path d="M413 560.5V365.9c0-9-4.7-17.4-12.4-22.2l-65.3-40.3-.6-.3-1.6-.7v-17.7c0-1.5-.5-2.9-1.5-4l-85.5-95.4c0-.1-.1-.1-.2-.1-1.1-1.3-2.8-2-4.5-2-.3 0-.5 0-.8.1H118.8C97.9 183.1 81 200 81 220.8v81.9l-67.6 40.9C5.7 348.4 1 356.8 1 365.9v194.6c0 27.8 22.6 50.4 50.4 50.4h311.1c27.9 0 50.5-22.6 50.5-50.4zm-18.7-206.6c4.1 2.6 6.7 7.1 6.7 11.9V377l-68 41.6V316.1l61.3 37.8zm-147-149.1 57.5 64.1H273c-14.2 0-25.7-11.5-25.7-25.7v-38.4zm-128.6-9.7h116.6v48c0 20.8 16.9 37.7 37.7 37.7h42.5l5.5 6.1v139l-114 69.7L93 426V220.8c0-14.2 11.5-25.7 25.7-25.7zM19.7 354 81 316.8v101.8L13 377v-11.2c0-4.8 2.5-9.3 6.7-11.8zM13 560.5V391.1l69.8 42.6c.7.7 1.5 1.1 2.4 1.4l118.7 72.6c1.9 1.2 4.3 1.2 6.3 0l118.7-72.6c.9-.3 1.7-.8 2.4-1.4l69.8-42.6v169.3c0 21.2-17.2 38.4-38.4 38.5H51.4c-21.2 0-38.4-17.2-38.4-38.4z" style="fill:#7f00ff"/><path class="st2" d="M192.2 385.5c2.1 2.5 5.8 2.8 8.3.8l35.9-29.2c2.6-2.1 3-5.9.9-8.4-2.1-2.6-5.9-3-8.4-.9l-31.3 25.5-11.6-13.6c-2.2-2.5-5.9-2.8-8.5-.7s-2.8 5.9-.7 8.5l15.4 18z"/><path class="st2" d="M207 442.3c41.6 0 75.3-33.7 75.3-75.3s-33.7-75.3-75.3-75.3-75.3 33.7-75.3 75.3c0 41.6 33.7 75.3 75.3 75.3zm0-138.6c35 0 63.3 28.3 63.3 63.3S242 430.3 207 430.3 143.7 402 143.7 367c0-34.9 28.4-63.3 63.3-63.3zM316.8 367c0-3.3-2.7-6-6-6h-13.2c-3.3 0-6 2.7-6 6s2.7 6 6 6h13.2c3.3 0 6-2.7 6-6zm-218.6 0c0 3.3 2.7 6 6 6h13.2c3.3 0 6-2.7 6-6s-2.7-6-6-6h-13.2c-3.3 0-6 2.7-6 6zM284 404.7l18.5 6.4c3.1 1.1 6.5-.6 7.6-3.7 1.1-3.1-.6-6.5-3.7-7.6l-18.5-6.4c-3.1-1.1-6.5.6-7.6 3.8-1.1 3 .6 6.4 3.7 7.5zm-156.9-64.1c3.1 1.1 6.6-.5 7.7-3.7 1.1-3.1-.5-6.6-3.7-7.7h-.1l-18.5-6.4c-3.1-1.1-6.5.6-7.6 3.7-1.1 3.1.6 6.5 3.7 7.6l18.5 6.5zm159.8 3.2c.6 0 1.2-.1 1.8-.3l18.7-5.8c3.2-1 4.9-4.3 3.9-7.5s-4.3-4.9-7.5-3.9l-18.7 5.8c-3.2 1-4.9 4.3-4 7.5.8 2.5 3.1 4.2 5.8 4.2zM109.5 408c.6 0 1.2-.1 1.8-.3l18.7-5.8c3.2-1 4.9-4.3 3.9-7.5-1-3.2-4.3-4.9-7.5-3.9l-18.7 5.8c-3.2 1-4.9 4.3-4 7.5.8 2.5 3.2 4.2 5.8 4.2z"/></svg>