<svg version="1.1" id="Layer_1" xmlns="http://www.w3.org/2000/svg" x="0" y="0" viewBox="-49 141 512 512" style="enable-background:new -49 141 512 512" xml:space="preserve"><style>.st0{fill:#d4e1f4}.st2{fill:#1ce589}</style><path class="st0" d="M204.2 162c-52.6-5.5-99.7 32.7-105.2 85.3-.3 3.3-.5 6.6-.5 10v47.8c1.1 0 2.2-.3 3.2-.8 2.1-1.1 3.5-3.3 3.5-5.6l1.7-37.3c.2-3.9 3.4-6.9 7.3-6.7.1 0 1.6.1 4.2.1 1.4-48.1 38-87.7 85.8-92.8z"/><path class="st0" d="M126.9 373.1c0-.2-.1-.4-.2-.7l-5.1-17.7c-.5-2.9-2.8-5.2-5.7-5.7-10.3-1.8-17.1-11.6-15.3-21.9.1-.4.2-.8.2-1.2 1-4.3 4.3-7.8 8.6-9 10.3 4.9 22.7.6 27.7-9.8 1.2-2.5 1.9-5.2 2-8l1.4-30.5h8.3c-.3-.3-.7-.6-1-.9-11.7.8-21.3.9-27.3.9l-1.4 30.5c-.5 11.4-10.1 20.3-21.6 19.8-2.8-.1-5.6-.8-8.1-2-4.3 1.2-7.6 4.6-8.6 9-2.5 10.1 3.7 20.3 13.8 22.8.4.1.8.2 1.2.2 2.9.5 5.2 2.8 5.7 5.7l5.1 17.7c.1.2.1.4.2.7 8.5 45.8 51 77.1 97.2 71.8-38.6-4.3-69.9-33.4-77.1-71.7zm87.2 86.4c6.3 0 12.5-.6 18.7-1.7v-5.9c-9.2 3.7-18.8 6.1-28.7 7.1 3.3.3 6.7.4 10 .5zm-38.7 18.6v-20.3c-6.8-1.3-13.5-3.2-20-5.9v26.2c15.2 7.2 32 10.1 48.7 8.2-9.9-1.1-19.6-3.9-28.7-8.2zm38.7 22.7c13 0 25.9-2.4 38-7.2l-11.6-3.8c-11.4 5.7-23.7 9.2-36.4 10.5 3.4.3 6.7.5 10 .5zM63.5 546.9c.1-.6.3-1.2.4-1.8 4.1-14.9 15.7-26.8 30.9-31.7l61.2-19.8c-2.9-1.1-5.7-2.4-8.4-3.8l-72.8 23.6c-15.3 5-26.9 16.8-30.9 31.7-.2.6-.3 1.2-.4 1.8-.7 3.3-1.1 6.6-1 9.9v44.6h20v-44.6c-.1-3.3.3-6.6 1-9.9zm221 2.6c.1-41.9 31.4-77.3 73-82.4-45.5-5.6-86.9 26.7-92.5 72.2-5.6 45.5 26.7 86.9 72.2 92.5 6.7.8 13.6.8 20.3 0-41.7-5-73-40.4-73-82.3z"/><path d="M35.5 615.5h244v-14h-237v-44.6c0-3.3.3-6.7 1-9.9.1-.6.3-1.2.4-1.8 4.1-14.9 15.7-26.8 30.9-31.7l72.8-23.6c29.2 14.6 63.6 14.6 92.9 0l33.8 11 4.3-13.3-31.8-10.3V445c25.2-15 42.7-40.1 48.2-68.8l4.2-14.3c16.4-5.3 25.8-22.4 21.8-39.1-2.1-8.8-8.5-15.8-17.1-18.7v-46.7c0-60.6-49.1-109.8-109.8-109.8s-109.7 49-109.7 109.7V304c-8.5 2.9-15 10-17.1 18.7-4.1 16.7 5.4 33.7 21.8 39.1l4.2 14.3c5.5 28.8 23.1 53.8 48.2 68.8v32.3l-70.8 23c-19.8 6.4-34.8 21.9-40.1 41.3-.2.8-.4 1.5-.6 2.3-1 4.3-1.5 8.7-1.4 13.1v51.6c-.1 3.8 3 7 6.9 7zM203 259.3c8.9 9.5 37 34.7 86.9 39.9v3.6c-19.3-.5-76.5-4.7-121.9-36.9l.6-.1c11.6-1.5 23.1-3.7 34.4-6.5zm-104.6-2c0-52.9 42.9-95.8 95.8-95.8s95.8 42.9 95.8 95.8V285c-36.7-4.2-60.2-20.4-71.3-30.2 18.7-6.1 34.7-14.2 47.7-24.2 3.1-2.4 3.6-6.7 1.3-9.8-2.4-3.1-6.7-3.6-9.8-1.3-26.6 20.4-64 28.8-90.7 32.4-17.5 2.3-35.2 3.3-52.9 2.7-3.9-.2-7.2 2.8-7.4 6.6l-1.7 37.3c-.1 2.4-1.4 4.5-3.5 5.6-1 .5-2.1.8-3.2.8l-.1-47.6zm8.5 115.8c0-.2-.1-.4-.2-.7l-5.1-17.7c-.5-2.9-2.8-5.2-5.7-5.7-10.3-1.8-17.1-11.6-15.3-21.9.1-.4.2-.8.2-1.2 1-4.3 4.3-7.8 8.6-9 10.3 4.9 22.7.6 27.7-9.8 1.2-2.5 1.9-5.2 2-8l1.4-30.5c6 .1 15.6-.1 27.3-.9 31.2 26.8 69.5 38.6 96.5 43.9 29.8 5.8 51.9 5 52.9 5h.5c4.8.9 8.6 4.5 9.7 9.3 2.5 10.1-3.7 20.3-13.8 22.8-.4.1-.8.2-1.2.2-2.9.5-5.2 2.8-5.7 5.7l-5.1 17.7c-.1.2-.1.4-.2.7-9.1 48.2-55.5 79.9-103.6 70.8-36-6.6-64.1-34.8-70.9-70.7zm87.2 86.4c13.3 0 26.4-2.6 38.7-7.6v26.2a89.726 89.726 0 0 1-77.4 0v-26.2c12.3 5 25.5 7.6 38.7 7.6z" style="fill:#7f00ff"/><path class="st2" d="M347.5 646.5c53.6 0 97-43.4 97-97s-43.4-97-97-97-97 43.4-97 97c0 53.5 43.4 96.9 97 97zm0-180c45.8 0 83 37.2 83 83s-37.2 83-83 83-83-37.2-83-83 37.2-82.9 83-83z"/><path class="st2" d="M331.9 578.5c1.3 1.3 3.1 2.1 5 2.1s3.6-.7 5-2l48.1-48.1c2.7-2.7 2.7-7.2 0-9.9s-7.2-2.7-9.9 0l-43.2 43.2-22-22.2c-2.7-2.8-7.1-2.8-9.9-.1-2.8 2.7-2.8 7.1-.1 9.9l.1.1 26.9 27z"/></svg>