<svg version="1.1" id="Capa_1" xmlns="http://www.w3.org/2000/svg" x="0" y="0" viewBox="-41 164.9 512 512" style="enable-background:new -41 164.9 512 512" xml:space="preserve"><style>.st3{fill:#ffaf37}.st4{fill:#ff9b32}.st5{fill:#ffc364}.st9{fill:#878c8b}.st10{fill:#ffaf82}.st11{fill:#ff9b69}.st12{fill:#ea4c67}.st13{fill:#cc425f}.st19{fill:#fafafa}</style><path d="M467 420.9c0 139.4-112.8 254-254 254-140.8 0-254-114.3-254-254 0-140.3 113.7-254 254-254 140.5 0 254 114 254 254z" style="fill:#7657e5"/><path d="M424.1 451.3H102.3c-25.8 0-46.9-21.1-46.9-46.9v-185c0-25.8 21.1-46.9 46.9-46.9h321.8c25.8 0 46.9 21.1 46.9 46.9v185.1c0 25.7-21.1 46.8-46.9 46.8z" style="fill:#5a5a5a"/><path d="M424.1 420H102.2c-9.1 0-16.5-7.4-16.5-16.5V220.2c0-9.1 7.4-16.5 16.5-16.5h321.9c9.1 0 16.5 7.4 16.5 16.5v183.2c.1 9.1-7.4 16.6-16.5 16.6z" style="fill:#1e8ce6"/><circle class="st3" cx="46.1" cy="442.8" r="27.2"/><circle class="st3" cx="116.3" cy="433" r="35.1"/><circle class="st4" cx="93.2" cy="455.7" r="34.8"/><circle class="st5" cx="76.5" cy="402.6" r="30.4"/><circle class="st3" cx="201.5" cy="437.7" r="35.1"/><circle class="st4" cx="149.3" cy="461.2" r="34.8"/><circle class="st5" cx="149.3" cy="420.9" r="32.7"/><path d="m235.7 449.6-44.6 224.3c-14.3-1.2-28.2-3.6-41.7-7.1-24-6.2-46.5-15.7-67.2-28.2C61.3 626 42.4 610.5 26 592.7L-2.4 449.6c0-10.2 11.7-16.3 19.9-10.2 12.4 9.3 18.5 25.2 39.6 25.2 3.4 0 6.3-.4 9-1.1 21.1-5.6 24.1-30.5 50.5-30.5 26.1 0 29.3 24.3 49.8 30.3 2.9.8 6.1 1.3 9.8 1.3 21.1 0 27.3-15.9 39.7-25.2 2.3-1.7 4.8-2.5 7.3-2.5 6.4.1 12.5 5.3 12.5 12.7z" style="fill:#ff4046"/><path d="m166.4 463.3-17 203.6c-24-6.2-46.5-15.7-67.2-28.2L66.1 463.5c21.1-5.6 24.1-30.5 50.5-30.5 26.1 0 29.3 24.3 49.8 30.3z" style="fill:#ff5a5f"/><circle cx="114.5" cy="370" r="32.6" style="fill:#ffd791"/><path class="st9" d="M440.7 340.2v39.7c0 22-18 40.1-40.1 40.1h-18.2l5.2-98.1 5 1.5 6.7 2 19 5.8 18.1 5.5c1.9.6 3.4 1.9 4.3 3.5z"/><path class="st10" d="m354.9 305.8 30.6 5.9.7-43-24.7-3z"/><path class="st11" d="m378 267.7-.7 40.5 8.2 3.5.7-43z"/><path class="st12" d="M399.3 325.5c0 .3 0 .5-.1.8l-.4 5.3-6.5 88.4h-85c12-48 31.8-118 48.4-119.4 3.2-.3 5.8-.5 8.1-.6 8-.6 11.4-.6 22.6-1.5h.1l.1.1c8.5 5.8 13.6 15.9 12.7 26.9z"/><path class="st13" d="m399.2 326.3-6.9 93.7h-32.6l1.2-16.1 5.7-77.6c1.1-10.1-3-19.6-10-25.8 14.1-1.2 15.9-.9 29.9-2.1 8.7 6.1 13.9 16.6 12.7 27.9z"/><path class="st10" d="M339 226.8c-4.2 4.5-8 14.6-5.6 24.2.6 2.2-3.1 9.2-5.1 13.1-1.1 2.2-.1 4.9 2.2 5.8 1.4.5 3.8.4 3.8.4s5.7 24.2 5.8 24.3c9.9 9.2 22.5-8 34.1-19.8 3.5-3.6 8.6-1.8 11.4-4.8 12-12.9 13.8-34.5.9-46.5-12.8-11.8-35.5-9.5-47.5 3.3z"/><path class="st11" d="M341.3 295.7c9.7 6.8 21.8-9.5 32.9-20.8 3.5-3.6 8.6-1.8 11.4-4.8 9.5-10.2 12.6-25.9 7.1-37.9 1.2 11.7-2.9 24.2-11.2 33.2-3.3 3.5-9.2 1.4-13.3 5.6-8.8 9-18.2 20.7-26.9 24.7z"/><path d="M349.9 241.4c.1 2.9.7 5.7 1.5 8.3.4 1.3 2.1 1.6 2.9.5 1.4-2 3.3-3.1 5.1-2.6 2.1.5 4.5 3.6 3.9 9-.1 1 .2 2 .9 2.7 3.5 3.6 9.8 10.1 13.9 11.1 5.3 1.3 2.7 1.2 7.1 1.2 11.6-3 15.9-18.8 15.2-32.7-.8-15.7-12.7-27.9-26.7-27.2-13.9.7-24.6 14-23.8 29.7z" style="fill:#aa6432"/><path d="M383 241.8c3 10.1 1.9 20.5-2.2 29.3 1.8.6 1.1.5 4.5.4 11.6-3 15.9-18.8 15.2-32.7-.8-15.7-12.7-27.9-26.7-27.2-4.6.2-8.8 1.8-12.4 4.4 10.1 5.1 18.2 14.1 21.6 25.8z" style="fill:#965028"/><path class="st12" d="m332.8 238.9 68.2 7.8c1.9.3 1.7-1.4 1.9-3.3 1.2-14-2.2-31.2-20.3-33.7-38.3-8.1-44.4 9.6-49.5 21.8-.3.8-24.8-1.6-25-.8-.1.3-1.3 4.4 3.1 5.2 8.1 1.3 21.6 3 21.6 3z"/><path d="M284 365.2 274 420h-13.5l9.3-57.3c.6-4 3.8-6.8 7.4-6.8.4 0 .8 0 1.1.1 4 .7 6.5 4.8 5.7 9.2z" style="fill:#80391b"/><path class="st9" d="m420 334.3-14.6 8c-2.3-4.2-4.5-7.7-6.6-10.8-2.2-3.2-4.3-5.9-6.2-8.1-7.8-8.9-13.4-10.2-15.9-10.2h-.1c-6.2 0-10.8 6.5-13.1 10.4-8.4 14.8-10.4 33.1-5.5 50.3 5 17.1 12.7 32.9 20.4 46h-19.2c-6.6-12.3-12.8-26.3-17.2-41.4-6.2-21.4-3.7-44.4 7-63.1 4.1-7.1 9.1-12.4 14.7-15.5 4-2.2 8.3-3.4 12.8-3.4h.2c3.2 0 6.4.6 9.6 1.8.1 0 .1 0 .2.1 10.8 4.2 21.4 15.1 31.6 32.7.7 1.2 1.3 2.2 1.9 3.2z"/><path d="M387.2 338.9 364.8 420h-2.5l-22.8-14.8 20.7-74.3c1.6-5.5 6.9-9.1 12.9-9.1 1.4 0 2.9.2 4.3.6 7.3 2.3 11.7 9.6 9.8 16.5z" style="fill:#fa875a"/><path class="st12" d="m345.1 362.4 37.5 10.9c1.6.5 3.4-.5 3.8-2.1l11.6-39.8c3.3-11.4-3.2-23.4-14.7-26.7l-2.1-.6c-11.4-3.3-23.4 3.2-26.7 14.7L343 358.6c-.5 1.6.5 3.3 2.1 3.8z"/><path class="st10" d="M366.8 416.8c0 1.1-.1 2.1-.3 3.2h-51.4l-54-23.8c-5.6-2.5-8.2-8.9-5.9-14.6l.8-1.9c2.2-5.5 8.3-8.3 13.9-6.5l85.9 27.8c1.9.7 3.6 1.8 5.1 3 3.7 3.1 5.9 7.9 5.9 12.8z"/><path class="st13" d="M386.2 227.1c1.8 6.1 2.5 12.2 2.3 18.2l12.5 1.4c1.9.3 1.7-1.4 1.9-3.3 1.2-14-2.2-31.2-20.3-33.7-1.9-.4-3.8-.7-5.5-1 4 5.3 7.1 11.5 9.1 18.4z"/><circle cx="340.6" cy="251.6" r="2.6" style="fill:#d27950"/><path class="st19" d="m256.4 293.9 12.8 7.4c.8.5.8 1.7 0 2.1l-12.8 7.4c-.8.5-1.9-.1-1.9-1.1V295c.1-1 1.1-1.6 1.9-1.1z"/><path class="st19" d="M260.5 326.5c-13.3 0-24.1-10.8-24.1-24.1s10.8-24.1 24.1-24.1 24.1 10.8 24.1 24.1-10.8 24.1-24.1 24.1zm0-45.8c-11.9 0-21.7 9.7-21.7 21.7s9.7 21.7 21.7 21.7c11.9 0 21.7-9.7 21.7-21.7s-9.8-21.7-21.7-21.7z"/></svg>