<svg version="1.1" id="Calque_1" xmlns="http://www.w3.org/2000/svg" x="0" y="0" viewBox="-41 164.9 512 512" style="enable-background:new -41 164.9 512 512" xml:space="preserve"><style>.st0{fill:#7f00ff}.st1{fill:#ffe955}.st2{fill:#ffd112}.st3{fill:#ff9f00}.st4{fill:#ff3445}.st5{fill:#ba0d5c}</style><path class="st0" d="M471 420.9c0 141.4-114.6 256-256 256s-256-114.6-256-256 114.6-256 256-256 256 114.6 256 256z"/><path class="st0" d="M471 420.9c0 26.1-3.9 51.2-11.1 74.9-32 104.8-129.5 181.1-244.9 181.1-104.6 0-194.5-62.7-234.2-152.6-14-31.6-21.8-66.6-21.8-103.4 0-46.2 12.3-89.6 33.7-127 44.1 77.1 127.2 129 222.3 129s178.2-51.9 222.3-129c21.5 37.4 33.7 80.8 33.7 127z"/><path class="st0" d="M-10.3 542.6c7.2 13.2 15.4 25.7 24.7 37.4 46.9 59 119.3 96.9 200.5 96.9S368.6 639 415.5 580c9.3-11.7 17.6-24.2 24.7-37.4H-10.3z"/><path class="st1" d="m275.4 237.4-10.8 18.5-5.4 9.2-43.8 74.8-.1.1-.4-.7L171 265l-5.4-9.2-10.9-18.4c-8.6-14.4 1.3-33.1 18-33.6h.8c4.9 0 9.5 1.5 13.3 4 4.5 2.9 10.3 2.9 14.8 0 3.8-2.5 8.4-4 13.3-4s9.5 1.5 13.3 4c4.5 2.9 10.3 2.9 14.8 0 3.8-2.5 8.4-4 13.3-4h.9c16.8.7 26.7 19.1 18.2 33.6z"/><path class="st2" d="m275.4 237.4-10.8 18.5-5.4 9.2-43.8 74.8-.1.1-.4-.7V203.8c4.9 0 9.5 1.5 13.3 4 4.5 2.9 10.3 2.9 14.8 0 3.8-2.5 8.4-4 13.3-4h.9c16.8.7 26.7 19.1 18.2 33.6z"/><path class="st2" d="m264.6 255.8-5.4 9.2-43.8 74.8-.4-.5-44-74.3-5.4-9.2h99z"/><path class="st3" d="m264.6 255.8-5.4 9.2-43.8 74.8-.1.1-.4-.7v-83.4h49.7z"/><path class="st1" d="m154.7 604.4 10.8-18.5 5.4-9.2 43.8-74.8.1-.1.4.7 44 74.3 5.4 9.2 10.9 18.4c8.6 14.4-1.3 33.1-18 33.6h-.8c-4.9 0-9.5-1.5-13.3-4-4.5-2.9-10.3-2.9-14.8 0-3.8 2.5-8.4 4-13.3 4s-9.5-1.5-13.3-4c-4.5-2.9-10.3-2.9-14.8 0-3.8 2.5-8.4 4-13.3 4h-.9c-16.9-.7-26.8-19.2-18.3-33.6z"/><path class="st2" d="m154.7 604.4 10.8-18.5 5.4-9.2 43.8-74.8.1-.1.4.7v135.4c-4.9 0-9.5-1.5-13.3-4-4.5-2.9-10.3-2.9-14.8 0-3.8 2.5-8.4 4-13.3 4h-.9c-16.8-.6-26.7-19.1-18.2-33.5z"/><path class="st2" d="m165.5 585.9 5.4-9.2 43.8-74.8.4.5 44 74.3 5.4 9.2h-99z"/><path class="st3" d="m165.5 585.9 5.4-9.2 43.8-74.8.1-.1.4.7v83.4h-49.7z"/><path class="st1" d="M257.4 637.9h-.9c-4.9 0-9.5-1.5-13.3-4-4.5-2.9-10.3-2.9-14.8 0-3.8 2.5-8.4 4-13.3 4s-9.5-1.5-13.3-4c-4.5-2.9-10.3-2.9-14.8 0-3.8 2.5-8.4 4-13.3 4h-.8c-16.8-.6-26.6-19.2-18-33.6l10.9-18.4 5.4-9.2 44-74.3.4-.7.1.1 43.8 74.8 5.4 9.2 10.8 18.5c8.2 14.5-1.6 33-18.3 33.6z"/><path class="st2" d="M257.4 637.9h-.9c-4.9 0-9.5-1.5-13.3-4-4.5-2.9-10.3-2.9-14.8 0-3.8 2.5-8.4 4-13.3 4V502.5l.4-.7.1.1 43.8 74.8 5.4 9.2 10.8 18.5c8.3 14.4-1.5 32.9-18.2 33.5z"/><path class="st2" d="m165.6 585.9 5.4-9.2 44-74.3.4-.5 43.8 74.8 5.4 9.2h-99z"/><path class="st3" d="M215.1 585.9v-83.4l.4-.7.1.1 43.8 74.8 5.4 9.2h-49.7z"/><path class="st1" d="M277.5 609.1c-20 5-41 7.7-62.5 7.7s-42.5-2.7-62.5-7.7c.5-1.7 1.2-3.3 2.2-4.9l10.9-18.4 5.4-9.2 44-74.3.4-.7.1.1 43.8 74.8 5.4 9.2 10.8 18.5c.8 1.7 1.5 3.3 2 4.9z"/><path class="st2" d="M277.5 609.1c-20 5-41 7.7-62.5 7.7V502.4l.4-.7.1.1 43.8 74.8 5.4 9.2 10.8 18.5c.8 1.6 1.5 3.2 2 4.8z"/><path class="st2" d="M264.6 585.8h-99.1l5.4-9.2 44-74.3.4-.5 43.8 74.8 5.5 9.2z"/><path class="st3" d="M264.6 585.8H215v-83.4l.4-.7.1.1 43.8 74.8 5.3 9.2z"/><path class="st4" d="M252.7 301.5v122.3h-75.4V301.5c0-6.2 5-11.1 11.1-11.1h53.1c6.2 0 11.2 5 11.2 11.1z"/><path class="st5" d="M252.7 301.5v122.3H215V290.4h26.6c6.1 0 11.1 5 11.1 11.1z"/><path class="st4" d="M252.7 423.8v116.4c0 6.2-5 11.1-11.1 11.1h-53.1c-6.2 0-11.1-5-11.1-11.1V423.8h75.3z"/><path class="st5" d="M252.7 423.8v116.4c0 6.2-5 11.1-11.1 11.1H215V423.8h37.7z"/><path d="M300.9 355v132.7c0 23.8-19.3 43.2-43.2 43.2h-85.4c-23.9 0-43.2-19.3-43.2-43.2V355c0-23.8 19.3-43.2 43.2-43.2h85.4c23.9.1 43.2 19.4 43.2 43.2z" style="fill:#fff"/><path d="M300.9 355v132.7c0 23.8-19.3 43.2-43.2 43.2h-48.3c-23.9 0-43.2-19.3-43.2-43.2V355c0-23.8 19.3-43.2 43.2-43.2h48.3c23.9.1 43.2 19.4 43.2 43.2z" style="fill:#ebf0f3"/><path d="M300.9 355v132.7c0 23.8-19.3 43.2-43.2 43.2H215v-219h42.7c23.9 0 43.2 19.3 43.2 43.1z" style="fill:#c7d9ff"/><path class="st1" d="M300.9 355v58.5l-77.1-52-8.8-5.9-40-27-19.7-13.3c5.2-2.2 11-3.5 17-3.5h72l56.3 37.9c.1.4.1.9.1 1.3 0 .3.1.6.1 1 0 .2 0 .5.1.7v2.3zm-31 174.1c-1 .3-2 .5-3 .8l-1.5.3c-.4.1-.8.1-1.2.2-.2 0-.4.1-.6.1-.4.1-.8.1-1.2.1-.4 0-.7.1-1.1.1h-.3c-.3 0-.6.1-.9.1h-81.7l-47.8-32.3c-.9-3.5-1.4-7.1-1.4-10.9v-53.5l36.9 24.8 49 33 54.8 37.2zm31-79.1v40.3c0 .3 0 .5-.1.8-.1 1.4-.3 2.7-.5 4.1-.1.4-.2.9-.3 1.3l-.3 1.5c-.1.3-.2.7-.3 1-.4 1.5-.9 2.9-1.4 4.4-.2.4-.3.8-.5 1.2-.2.4-.4.9-.6 1.3-.2.5-.4.9-.6 1.4-.2.4-.4.8-.6 1.1-.2.4-.4.8-.7 1.2l-80-53.9-49-33-36.4-24.5-.5-.3V355c0-.8 0-1.5.1-2.2 0-.6.1-1.1.1-1.7 0-.3 0-.5.1-.7.1-.8.2-1.7.3-2.5.1-.4.1-.8.2-1.2.1-.4.2-.8.2-1.1.7-3 1.7-5.9 2.9-8.7l32.9 22.2 49 33 86 57.9z"/><path class="st2" d="m215 492.1 54.9 37c-1 .3-2 .5-3 .8l-1.5.3c-.4.1-.8.1-1.2.2-.2 0-.4.1-.6.1-.4.1-.8.1-1.2.1-.4 0-.7.1-1.1.1h-.3c-.3 0-.6.1-.9.1h-50.9c-23.9 0-43.2-19.3-43.2-43.2v-28.7l49 33.2zM300.9 355v58.5l-77.1-52-8.8-5.9-40-27c7.9-10.2 20.3-16.8 34.2-16.8h35.1l56.3 37.9c.1.4.1.9.1 1.3 0 .3.1.6.1 1 0 .2 0 .5.1.7v2.3zM215 392.1l85.9 57.9v40.3c0 .3 0 .5-.1.8-.1 1.4-.3 2.7-.5 4.1-.1.4-.2.9-.3 1.3l-.3 1.5c-.1.3-.2.7-.3 1-.4 1.5-.9 2.9-1.4 4.4-.2.4-.3.8-.5 1.2-.2.4-.4.9-.6 1.3-.2.5-.4.9-.6 1.4-.2.4-.4.8-.6 1.1-.2.4-.4.8-.7 1.2l-80-53.9-49-33v-63.5l49 32.9z"/><path class="st3" d="m215 492.1 54.9 37c-1 .3-2 .5-3 .8l-1.5.3c-.4.1-.8.1-1.2.2-.2 0-.4.1-.6.1-.4.1-.8.1-1.2.1-.4 0-.7.1-1.1.1h-.3c-.3 0-.6.1-.9.1H215v-38.7zM300.9 355v58.5l-77.1-52-8.8-5.9v-43.8h29.3l56.3 37.9c.1.4.1.9.1 1.3 0 .3.1.6.1 1 0 .2 0 .5.1.7v2.3zM215 392.1l85.9 57.9v40.3c0 .3 0 .5-.1.8-.1 1.4-.3 2.7-.5 4.1-.1.4-.2.9-.3 1.3l-.3 1.5c-.1.3-.2.7-.3 1-.4 1.5-.9 2.9-1.4 4.4-.2.4-.3.8-.5 1.2-.2.4-.4.9-.6 1.3-.2.5-.4.9-.6 1.4-.2.4-.4.8-.6 1.1-.2.4-.4.8-.7 1.2l-80-53.9v-63.6z"/></svg>