<svg version="1.1" id="Layer_1" xmlns="http://www.w3.org/2000/svg" x="0" y="0" viewBox="-41 164.9 512 512" style="enable-background:new -41 164.9 512 512" xml:space="preserve"><style>.st4{fill:#df5a49}</style><path id="bg_7_" d="M471 420.9c0 141.4-114.6 256-256 256s-256-114.6-256-256 114.6-256 256-256 256 114.6 256 256z" style="fill:#7f00ff"/><path d="M343.8 583.6c4.6 7.1 2.6 16.7-4.5 21.3-7.1 4.6-16.7 2.6-21.3-4.5l-97.3-149.6c-4.6-7.1-2.6-16.7 4.5-21.3 7.1-4.6 16.7-2.6 21.3 4.5l97.3 149.6z" style="fill:#af8f2c"/><path d="M347.2 444.1 208.8 248.9c-9.6-14.7-29.3-18.9-44-9.3l-57.4 37.3c18 9.4 30.5 30 30.5 53.9 0 28.6-17.9 52.5-41.6 58.2L190 546.4c9.6 14.7 29.3 18.9 44 9.3l103.9-67.6c14.7-9.6 18.9-29.2 9.3-44z" style="fill:#25ef84"/><path d="M208.8 248.9c-9.6-14.7-29.3-18.9-44-9.3l-63.3 41.1c1.3 3.2 2.1 6.8 2.1 10.6 0 12.2-7.8 22.4-18.6 26 3.6 4.6 5.7 10.5 5.7 16.8 0 10-5.3 18.6-13.1 23.4l23.3 39.2L246.5 302l-37.7-53.1z" style="fill:#b73b32"/><path class="st4" d="M246.7 376.4c2.5 3.8 1.4 8.8-2.4 11.3s-8.8 1.4-11.3-2.4l-38.5-59.2c-2.5-3.8-1.4-8.8 2.4-11.3s8.8-1.4 11.3 2.4l38.5 59.2z"/><path class="st4" d="M242.8 346c2.5 3.8 1.4 8.8-2.4 11.3s-8.8 1.4-11.3-2.4l-38.5-59.2c-2.5-3.8-1.4-8.8 2.4-11.3s8.8-1.4 11.3 2.4l38.5 59.2z"/><path d="M195.8 528.5c-2.3 0-4.6-1.2-5.9-3.3l-70.6-118.7c-1.9-3.2-.9-7.4 2.4-9.4 3.2-1.9 7.4-.9 9.4 2.4l70.6 118.7c1.9 3.2.9 7.4-2.4 9.4-1.2.6-2.4.9-3.5.9z" style="fill:#f4e4b8"/><path class="st4" d="M208.8 248.9c-9.6-14.7-29.3-18.9-44-9.3l-50.5 32.9c5.5 6.8 8.8 15.4 8.8 24.8 0 13.4-6.7 25.2-16.9 32.3.5 2.5.8 5.1.8 7.8 0 15-8.4 28.1-20.8 34.7l14.7 24.8 145.6-94.7-37.7-53.3z"/></svg>