<svg xmlns="http://www.w3.org/2000/svg" viewBox="0 0 800 800" style="enable-background:new 0 0 800 800" xml:space="preserve"><style>.st0{fill:#9dbf9f}.st1{fill:#fcbf60}.st2{fill:#bd8864}.st3{fill:#f9f8f7}.st4{fill:#d8d0bb}</style><g id="BACKGROUND"><path id="XMLID_1_" class="st0" d="M0 0h800v800H0z"/></g><g id="OBJECTS"><path id="XMLID_24_" class="st1" d="M800 222.1v93.6H648.8c-31.1 0-56.3 25.2-56.3 56.3v108.1c0 25.8-20.9 46.8-46.8 46.8H255.4V356.6h125c36.7 0 66.4-29.7 66.4-66.4v-68.1H800z"/><path id="XMLID_25_" class="st2" d="M446.9 222.1v68.1c0 36.7-29.7 66.4-66.4 66.4h-125V222.1h191.4z"/><path id="XMLID_26_" class="st0" d="M255.4 356.6v170.3h-84.8c-25.6 0-46.3-20.7-46.3-46.3V222.1h131.1v134.5z"/><path id="XMLID_27_" class="st1" d="M124.4 133.9v88.2H0V92.7h83.2c22.7 0 41.2 18.5 41.2 41.2z"/><path id="XMLID_28_" class="st2" d="M255.4 0v222.1h-131v-88.2c0-22.7-18.4-41.2-41.2-41.2H0V0h255.4z"/><path id="XMLID_29_" class="st0" d="M647 0v36.3c0 26.5-21.5 48-48 48h-95.9c-31.1 0-56.3 25.2-56.3 56.3v81.6H255.4V0H647z"/><path id="XMLID_30_" class="st0" d="M800 0v222.1H446.9v-81.6c0-31.1 25.2-56.3 56.3-56.3h95.9c26.5 0 48-21.5 48-48V0H800z"/><g id="XMLID_31_"><path id="XMLID_32_" class="st3" d="M245.4 0h20v526.9h-20z"/></g><g id="XMLID_33_"><path id="XMLID_34_" class="st3" d="M0 212.1h800v20H0z"/></g><g id="XMLID_35_"><path id="XMLID_36_" class="st3" d="M380.5 366.6h-125v-20h125c31.1 0 56.4-25.3 56.4-56.4V140.6c0-36.6 29.8-66.3 66.3-66.3h95.9c20.9 0 38-17 38-38V0h20v36.3c0 32-26 58-58 58h-95.9c-25.5 0-46.3 20.8-46.3 46.3v149.7c0 42.1-34.3 76.3-76.4 76.3z"/></g><g id="XMLID_37_"><path id="XMLID_38_" class="st3" d="M545.8 536.9H170.6c-31 0-56.3-25.3-56.3-56.3V133.9c0-17.2-14-31.2-31.2-31.2H0v-20h83.2c28.2 0 51.2 23 51.2 51.2v346.7c0 20 16.3 36.3 36.3 36.3h375.1c20.3 0 36.8-16.5 36.8-36.8V372c0-36.5 29.7-66.3 66.3-66.3H800v20H648.8c-25.5 0-46.3 20.8-46.3 46.3v108.1c0 31.3-25.4 56.8-56.7 56.8z"/></g><circle class="st3" cx="475.1" cy="427.1" r="43.4"/><g id="XMLID_39_"><path id="XMLID_40_" class="st3" d="M701.2 222.1h10v93.6h-10z"/></g><g id="XMLID_41_"><path id="XMLID_42_" class="st3" d="M364.9 222.1h-10V73.8c0-15.7-12.8-28.5-28.5-28.5h-71v-10h71c21.2 0 38.5 17.3 38.5 38.5v148.3z"/></g><g id="XMLID_43_"><path id="XMLID_44_" class="st3" d="M124.4 430.6h131.1v10H124.4z"/></g><g id="XMLID_45_"><path id="XMLID_46_" class="st3" d="M501.8 417.1h90.8v20h-90.8z"/></g><g id="XMLID_47_"><path id="XMLID_48_" class="st4" d="M475.1 465.1c-20.9 0-38-17-38-38 0-20.9 17-38 38-38 20.9 0 38 17 38 38-.1 21-17.1 38-38 38zm0-72.9c-19.3 0-35 15.7-35 35s15.7 35 35 35 35-15.7 35-35c-.1-19.3-15.7-35-35-35z"/></g><g id="XMLID_51_"><path id="XMLID_52_" class="st4" d="M475.1 456.1c-16 0-29-13-29-29s13-29 29-29 29 13 29 29-13 29-29 29zm0-55.9c-14.9 0-27 12.1-27 27s12.1 27 27 27 27-12.1 27-27-12.1-27-27-27z"/></g><g id="XMLID_55_"><path id="XMLID_56_" class="st4" d="M475.1 447.9c-11.5 0-20.8-9.3-20.8-20.8s9.3-20.8 20.8-20.8 20.8 9.3 20.8 20.8-9.4 20.8-20.8 20.8zm0-40.5c-10.9 0-19.8 8.9-19.8 19.8s8.9 19.8 19.8 19.8 19.8-8.9 19.8-19.8c0-11-8.9-19.8-19.8-19.8z"/></g><circle cx="475.1" cy="427.1" r="14.1" style="fill:#fc8b60"/><g id="XMLID_4_"><path id="XMLID_60_" d="M580.8 182.8c0 15.4-3.3 29.9-9.2 43.1-.7 1.7-1.6 3.4-2.4 5.1-4.6 9.6-94.1 196.1-94.1 196.1V246.7c35.3 0 63.9-28.6 63.9-63.9s-28.6-63.9-63.9-63.9V77.1c58.3 0 105.7 47.3 105.7 105.7z" style="fill:#e25050"/><path id="XMLID_61_" d="M475.1 246.7v180.4L381 231c-.9-1.7-1.7-3.4-2.5-5.1-5.9-13.2-9.2-27.7-9.2-43.1 0-58.4 47.3-105.7 105.7-105.7V119c-35.3 0-63.9 28.6-63.9 63.9.1 35.2 28.7 63.8 64 63.8z" style="fill:#fc6460"/><g id="XMLID_62_"><path id="XMLID_63_" class="st3" d="M475.1 119c-35.3 0-63.9 28.6-63.9 63.9s28.6 63.9 63.9 63.9V119z"/><path id="XMLID_64_" class="st4" d="M539 182.8c0-35.3-28.6-63.8-63.9-63.9v127.8c35.3 0 63.9-28.6 63.9-63.9z"/></g></g></g></svg>