<svg xmlns="http://www.w3.org/2000/svg" xmlns:xlink="http://www.w3.org/1999/xlink" viewBox="0 0 1920 1076.5" style="enable-background:new 0 0 1920 1076.5" xml:space="preserve"><style>.st2{fill:#f3f2f2}.st4{fill:#5eb1d3}.st8{opacity:5.000000e-002}.st9{fill:#d64e71}.st10{fill:#fde5d7}.st13{fill:#d66994}.st14{fill:#f4a5c5}.st15{fill:#c6daf0}.st16{opacity:4.000000e-002}.st17{fill:#b3c0d2}.st18{opacity:.5;fill:#fff}.st19{fill:gray}.st20{fill:#a25667}.st21{fill:#fdd3a2}.st22{opacity:.5}.st23{fill:#f17c95}.st24{opacity:.2}.st25,.st26{fill:#d31c5b}.st26{opacity:.2}.st27{opacity:.1;fill:#1a1a1a}.st28{fill:#bc425b}.st30{fill:#00a99d}.st31{fill:#f2f2f2}.st32{fill:#fbb03b}.st34{fill:#a5cfed}.st35{fill:#91caec}.st38{opacity:.1}.st40{fill:#fbb26c}.st41{fill:#fff}.st43{fill:#d5d6d5}.st44{fill:#b1904b}.st46{fill:#c28b55}.st47{fill:#393e70}</style><g id="Lamp"><defs><path id="SVGID_1_" d="M.1 0h1919.7v1076.5H.1z"/></defs><clipPath id="SVGID_2_"><use xlink:href="#SVGID_1_" style="overflow:visible"/></clipPath><g style="clip-path:url(#SVGID_2_)"><path style="fill:#7f00ff" d="M.1-222.9H1920v1298.3H.1z"/><path class="st2" d="M383 547.2h-.8c-2.5-12.2-13.2-21.3-26.1-21.3-7.6 0-14.5 3.2-19.3 8.3-13.3 2.4-23.9 12.6-26.9 25.7h-.8c-11.2 0-20.4 9.1-20.4 20.4 0 11.2 9.1 20.4 20.4 20.4 5.5 0 10.5-2.2 14.2-5.8 5.5 3.9 12.2 6.2 19.5 6.2 8.1 0 15.6-2.9 21.4-7.7 4.9 4.8 11.5 7.7 18.8 7.7 14.9 0 26.9-12 26.9-26.9s-12-27-26.9-27zM149.8 304.8h-.8c-2.5-12.2-13.2-21.3-26.1-21.3-7.6 0-14.5 3.2-19.3 8.3-13.3 2.4-23.9 12.6-26.9 25.7h-.8c-11.2 0-20.4 9.1-20.4 20.4 0 11.2 9.1 20.4 20.4 20.4 5.5 0 10.5-2.2 14.2-5.8 5.5 3.9 12.2 6.2 19.5 6.2 8.1 0 15.6-2.9 21.4-7.7 4.9 4.8 11.5 7.7 18.8 7.7 14.9 0 26.9-12 26.9-26.9 0-14.9-12.1-27-26.9-27zm794.9 189.6h-1c-3.2-15.6-17-27.4-33.5-27.4-9.8 0-18.6 4.1-24.8 10.7-17.1 3.1-30.7 16.2-34.5 33-.4 0-.7-.1-1.1-.1-14.4 0-26.1 11.7-26.1 26.1 0 14.4 11.7 26.1 26.1 26.1 7.1 0 13.5-2.8 18.2-7.4 7.1 5 15.7 8 25.1 8 10.4 0 20-3.7 27.5-9.9 6.2 6.1 14.8 9.9 24.2 9.9 19.1 0 34.5-15.5 34.5-34.5s-15.5-34.5-34.6-34.5zm870.4-236.5h-.9c-3-14.6-15.9-25.7-31.4-25.7-9.1 0-17.4 3.8-23.2 10-5.1.9-9.8 2.8-14.1 5.4-2.7-1-5.6-1.6-8.6-1.6-7 0-13.3 2.9-17.7 7.6-12.2 2.2-21.9 11.5-24.6 23.5h-.8c-10.3 0-18.7 8.4-18.7 18.7 0 10.3 8.4 18.7 18.7 18.7 4.4 0 8.4-1.5 11.6-4.1 4.3 7 12 11.6 20.8 11.6 6.6 0 12.6-2.6 17-6.9 6.6 4.7 14.7 7.5 23.5 7.5 9.8 0 18.7-3.5 25.7-9.2 5.8 5.7 13.8 9.2 22.6 9.2 17.9 0 32.3-14.5 32.3-32.3.2-17.9-14.3-32.4-32.2-32.4zm89.3 280.2v-.4c0-14.9-12-26.9-26.9-26.9h-.8c-2.5-12.2-13.2-21.3-26.1-21.3-7.6 0-14.5 3.2-19.3 8.3-13.3 2.4-23.9 12.6-26.9 25.7h-.8c-9.3 0-17.1 6.2-19.5 14.7h120.3z"/><path d="M599.1 282.4v-.4c0-14.9-12-26.9-26.9-26.9h-.8c-2.5-12.2-13.2-21.3-26.1-21.3-7.6 0-14.5 3.2-19.3 8.3-13.3 2.4-23.9 12.6-26.9 25.7h-.8c-9.3 0-17.1 6.2-19.5 14.7h120.3z" style="fill:#dcdcdd"/><path class="st2" d="M862.1 335.1v-.8c0-30.9-25.1-56-56-56h-1.6c-5.1-25.4-27.5-44.5-54.4-44.5-15.8 0-30.1 6.6-40.2 17.3-27.7 5-49.8 26.2-55.9 53.5-.6 0-1.2-.1-1.7-.1-19.3 0-35.6 12.9-40.7 30.6h250.5z"/><path class="st4" d="M1443.5 878.5h11v21.6h-11z"/><path d="M1913.4 967.3h-9.2v-46.5h-48.7V667.2h-32v119.3h-83.3v-36.7h-48.7v36.7h-19V549h-43.1v93.2h-74.8v63.3h-26v-155h-24.9v106.9h-20.1v-59.5H1448v22.9h3.5v15.3h-3.5v51.5h3.9v15.3h-3.9v2.5h-28.3V817h-38.5V516.2h-113.5V622h-35V396h-33.6v421H1172V458.1h-74.6v115.5h-83.3V465.2h6.2c6.9 0 12.4-6.9 12.4-15.4v-10.1c0-8.5-5.6-15.4-12.4-15.4h-7.7c0-15.7-10.3-28.4-23-28.4s-23 12.7-23 28.4h-7.7c-6.9 0-12.4 6.9-12.4 15.4v10.1c0 8.5 5.6 15.4 12.4 15.4h7.7V817h-68.9V686h-43.1v256.7h-35.1V530.5h-126v321.8h-19.8v90.4h-28.6V705.5h15.6v-26.6h-15.6v-19.5H633V622h-44.2v37.3h-11.5v19.5h-15.1v26.6h15.1v237.1H537V622h-17.1v-26h-66.3v26H442v320.6h-7.7V676.2h-23.9v266.5h-20.1V749.5h-47.6v193.1h-19.4V709.9h-31.6v-63H213v257.2h-7.4V737.5h-61.4v166.6H131v50.7h-17.1V818.1H63.7v48.1H48.2V763.4H33.3v191.4h-12V791.7H.1v13.6h2.1v9.2H.1v30.7h5.7v9.2H.1v54h7.2v4.3H.1v52.8h3.8v12.9H.1v104h137.2v15.2h1613.1v-12.1h162.9V967.3zM50.9 885.5H66v9.2H50.9v-9.2zm-.4 41.8h15.1v9.2H50.5v-9.2zm21.9 84.8H62v-12.9h10.4v12.9zm3.3-166.9h15.1v9.2H75.7v-9.2zm22.7 67.7H83.3v-9.2h15.1v9.2zm147.1-219.3H256v13h-10.5v-13zm0 66.4H256v13h-10.5v-13zm0 66.3H256v13h-10.5v-13zm0 66.4H256v13h-10.5v-13zM222 664.6h10.5v13H222v-13zm0 66.4h10.5v13H222v-13zm0 66.3h10.5v13H222v-13zm0 66.4h1.9v13H222v-13zm-9 49.2v14.4h-7.4v-14.4h7.4zM179.9 937v-7.8h6.4v7.8h-6.4zm0-190.3h15v18.6h-15v-18.6zm0 34.3h15v18.6h-15V781zm0 34.4h15V834h-15v-18.6zm0 34.3h15v18.6h-15v-18.6zm0 34.3h15v18.6h-15V884zm-27.7-137.3h15v18.6h-15v-18.6zm0 34.3h15v18.6h-15V781zm0 34.4h15V834h-15v-18.6zm0 34.3h15v18.6h-15v-18.6zm-18.6 63.2h10.6v14.4h-10.6v-14.4zm.6 92.7V960h3.1v45.6h-3.1zm145.3-70.9H269v-13h10.5v13zm0-66.3H269v-13h10.5v13zm0-66.4H269v-13h10.5v13zm0-66.3H269v-13h10.5v13zm23.4 161.7h-10.5v-13h10.5v13zm0-66.4h-10.5v-13h10.5v13zm0-66.3h-10.5v-13h10.5v13zm79 159.1h-33.5v-9.2h33.5v9.2zm0-20.3h-33.5v-9.2h33.5v9.2zm0-20.3h-33.5V874h33.5v9.2zm0-20.3h-33.5v-9.2h33.5v9.2zm0-20.3h-33.5v-9.2h33.5v9.2zm0-20.3h-33.5V813h33.5v9.3zm0-20.4h-33.5v-9.2h33.5v9.2zm0-20.3h-33.5v-9.2h33.5v9.2zm89.9-5h-16.3v-20.1h16.3v20.1zm0-112h-16.3v-20.1h16.3v20.1zm28 163.5h-16.3V808h16.3v20.1zm8.2-118.8h-16.3v-20.1H508v20.1zm16.2-44.7H508v-20.1h16.3v20.1zm187.1-88.8h16.3v20.1h-16.3v-20.1zm0 123.5h16.3v20.1h-16.3v-20.1zm24.4 189.4h-16.3v-20.1h16.3v20.1zm15.6-112.1H735v-20.1h16.3v20.1zm38.2-101.9h-16.3v-20.1h16.3v20.1zm0-68.7h-16.3v-20.1h16.3V606zm111.1 337h-22.9v-28.3h22.9V943zm66.1-38h-22.9v-28.3h22.9V905zm102.2 14.2H1046v-28.3h22.9v28.3zm28.5-102.2h-83.3V596h83.3v221zm15.1-328.8h16.3v20.1h-16.3v-20.1zm8.2 196.5h-16.3v-20.1h16.3v20.1zm0-108.9h16.3v20.1h-16.3v-20.1zm27.7 292.7h-22.9v-28.3h22.9v28.3zm7.4-144.4h-16.3v-9.4h16.3v9.4zm96.1-59.5h33.2v20.1h-33.2v-20.1zm-.9 91.8h33.2v20.1H1251v-20.1zm48.1 186.6h-22.9v-28.3h22.9V943zm7.3-367.2h33.2v20.1h-33.2v-20.1zm49.9 148.9H1323v-20.1h33.2v20.1zm316.6 157v-1.5h17.4v1.5h-17.4zm18.5-80.5v24.2h-18.9v-24.2h18.9zm-40.4 70.3h-12v-8.7h12v8.7zm-76.2-183.9h25.3v15.3h-25.3v-15.3zm-25.1 73.1v9.9h-16.4v-9.9h16.4zm-116-36h14.2v31.7h-14.2v-31.7zm1.4 103.8h12.9v60.7h6.4v21.6h-6.4v17.9h-12.9V828.5zm315.4 124.1h-.1v-10h-12.3v-14.2h12.4v24.2zm9.8-99.8h-19.5v-24.2h19.5v24.2zm51.8-27.5h-19.5v-24.2h19.5v24.2zm25.4 105.2H1818v-24.2h19.5v24.2z" style="fill:#6518d3"/><path class="st4" d="M6.5 897.6h.2v4.3h-.2z"/><path style="fill:#4d4d4d" d="M-.1 1075.8h1919.8v30H-.1z"/><path style="fill:#f5d8e5" d="M228.4 809.1h577.2v266.1H228.4z"/><path class="st8" d="M785.8 810.5H228.7V871h.9c11.4 0 20.6-5.4 20.6-12 0 6.6 9.2 12 20.6 12 11.4 0 20.6-5.4 20.6-12 0 6.6 9.2 12 20.6 12 11.4 0 20.6-5.4 20.6-12 0 6.6 9.2 12 20.6 12 11.4 0 20.6-5.4 20.6-12 0 6.6 9.2 12 20.6 12 11.4 0 20.6-5.4 20.6-12 0 6.6 9.2 12 20.6 12 11.4 0 20.6-5.4 20.6-12 0 6.6 9.2 12 20.6 12 11.4 0 20.6-5.4 20.6-12 0 6.6 9.2 12 20.6 12 11.4 0 20.6-5.4 20.6-12 0 6.6 9.2 12 20.6 12 11.4 0 20.6-5.4 20.6-12 0 6.6 9.2 12 20.6 12 11.4 0 20.6-5.4 20.6-12 0 6.6 9.2 12 20.6 12 11.4 0 20.6-5.4 20.6-12 0 6.6 9.2 12 20.6 12 11.4 0 20.6-5.4 20.6-12 0 6.6 9.2 12 20.6 12 11.4 0 20.6-5.4 20.6-12 0 6.6 9.2 12 20.6 12 11.4 0 20.6-5.4 20.6-12 0 6.6 9.2 12 20.6 12v-60.5h-20.6z"/><path class="st9" d="M209.5 759v83.1c0 11.4 9.2 20.6 20.6 20.6 11.4 0 20.6-9.2 20.6-20.6V759h-41.2z"/><path class="st10" d="M250.6 759v83.1c0 11.4 9.2 20.6 20.6 20.6 11.4 0 20.6-9.2 20.6-20.6V759h-41.2z"/><path class="st9" d="M291.8 759v83.1c0 11.4 9.2 20.6 20.6 20.6 11.4 0 20.6-9.2 20.6-20.6V759h-41.2z"/><path class="st10" d="M332.9 759v83.1c0 11.4 9.2 20.6 20.6 20.6 11.4 0 20.6-9.2 20.6-20.6V759h-41.2z"/><path class="st9" d="M374.1 759v83.1c0 11.4 9.2 20.6 20.6 20.6 11.4 0 20.6-9.2 20.6-20.6V759h-41.2z"/><path class="st10" d="M415.3 759v83.1c0 11.4 9.2 20.6 20.6 20.6 11.4 0 20.6-9.2 20.6-20.6V759h-41.2z"/><path class="st9" d="M456.4 759v83.1c0 11.4 9.2 20.6 20.6 20.6 11.4 0 20.6-9.2 20.6-20.6V759h-41.2z"/><path class="st10" d="M497.6 759v83.1c0 11.4 9.2 20.6 20.6 20.6 11.4 0 20.6-9.2 20.6-20.6V759h-41.2z"/><path class="st9" d="M538.8 759v83.1c0 11.4 9.2 20.6 20.6 20.6 11.4 0 20.6-9.2 20.6-20.6V759h-41.2z"/><path class="st10" d="M579.9 759v83.1c0 11.4 9.2 20.6 20.6 20.6 11.4 0 20.6-9.2 20.6-20.6V759h-41.2z"/><path class="st9" d="M621.1 759v83.1c0 11.4 9.2 20.6 20.6 20.6 11.4 0 20.6-9.2 20.6-20.6V759h-41.2z"/><path class="st10" d="M662.3 759v83.1c0 11.4 9.2 20.6 20.6 20.6 11.4 0 20.6-9.2 20.6-20.6V759h-41.2z"/><path class="st9" d="M703.4 759v83.1c0 11.4 9.2 20.6 20.6 20.6 11.4 0 20.6-9.2 20.6-20.6V759h-41.2z"/><path class="st10" d="M744.6 759v83.1c0 11.4 9.2 20.6 20.6 20.6 11.4 0 20.6-9.2 20.6-20.6V759h-41.2z"/><path class="st9" d="M785.8 759v83.1c0 11.4 9.2 20.6 20.6 20.6 11.4 0 20.6-9.2 20.6-20.6V759h-41.2z"/><path style="opacity:.3" d="M393.9 778.9v41h252.2v-41z"/><path style="fill:#d3d3d5" d="M392 776.9h252.1v41H392z"/><path class="st2" d="M397.8 781.3h240.4v32.3H397.8z"/><path class="st9" d="M435.9 804.9c-.6.2-1.4.6-2.1.6-.4 0-.8-.1-.8-.6 0-.6 1.3-2.1 1.7-2.7.2-.3.4-.6.8-.8 1.1-.3 2.3-.3 3.5-.5l7.8-9.3c1-1.2 4.9-5.2 6.3-5.2.9 0 1.3 1 1.3 1.7 0 1.7-2.2 4.9-3.1 6.4.2 0 .5.1.5.4 0 .5-1.1 1.3-1.5 1.6-.5.3-1.8 1.4-2.3 1.4-.5 0-.6-.4-.6-.8 0-2 2.3-4.9 3.6-6.4.2-.2.2-.5.1-.5-.3 0-1.5 1.1-4.5 4.5l-5.4 6.1c4.5.9 6.8 1.3 10.8 2.3l-1.4 1.4c-1.7 1.7-1.6 1.8-6.9.7-2.4-.5-4.8-.8-7.2-.8l-.6.5z"/><path class="st9" d="M457.6 803.6c-.5.4-2.2 1.8-2.8 1.8-.8 0-2.3-1.8-2.4-3.2-.1-3.4 6.9-6.8 10-6.9 1.2 0 1.7 1 1.7 1.3 0 .3-.7.6-.9.7.5.2.8.5.8 1.1 0 .9-2.3 2.7-2.3 4 0 .5.4.6.8.6 1.1 0 2.7-1.4 3.8-2.1l.2 1c-1.2 1.3-4.8 4.2-6.1 4.2-.9 0-1.3-.6-1.3-1.4 0-.9.6-2.3 1-3l-.1-.1-2.4 2zm-3.3-.7c0 .1.1.6.5.5.5-.1 1.4 0 6.7-5.4l-.1-.1c-6.3 2.1-7.1 3.7-7.1 5zm19.3-15.9c.4 0 1.4 0 1.4.6 0 .7-.8 2.4-1.3 3-1.6 2-2.2 1.8-2.8 1.8.4-.6.9-1.2 1.2-1.8-.5-.2-1-.3-1-.9.1-1.1 1.4-2.7 2.5-2.7zm9.6 7.2c-1.3 2.6-1.5 3.5-4.4 3.4-.9 1.2-2.4 3.4-2.4 5 0 .6.2.9.8.9.9 0 1.8-.8 4.6-2.8l.1 1.2c-1.6 1.5-4.5 4.3-6.8 4.3-1 0-1.7-.7-1.7-1.8 0-.9.3-1.9.7-2.7l-.1-.1-1.4 1.1-.3-1c1.6-1.2 3.1-2.6 4.1-4.3-1.6 0-1.1-.1-2.6.1l.3-.5c1.5-2.4 1.7-2.8 4.5-2.9.8-1.1 1.4-2.4 3-2.4.3 0 .9.1.9.5 0 .5-.8 1.4-1 1.7l1.7.3z"/><path class="st9" d="M486.1 803.6c-.5.4-2.2 1.8-2.8 1.8-.8 0-2.3-1.8-2.4-3.2-.1-3.4 6.9-6.8 10-6.9 1.2 0 1.7 1 1.7 1.3 0 .3-.7.6-.9.7.5.2.8.5.8 1.1 0 .9-2.3 2.7-2.3 4 0 .5.4.6.8.6 1.1 0 2.7-1.4 3.8-2.1l.2 1c-1.2 1.3-4.8 4.2-6.1 4.2-.9 0-1.3-.6-1.3-1.4 0-.9.6-2.3 1-3l-.1-.1-2.4 2zm-3.3-.7c0 .1.1.6.5.5.5-.1 1.4 0 6.7-5.4-6.4 2-7.2 3.6-7.2 4.9z"/><path class="st9" d="M496.4 802.1c1.3-1 6.2-5.3 7.7-5.3.6 0 1.3.7 1.3 1.3 0 .5-1.1 1.7-1.4 2.1-1.7 2-1.6 2.1-1.6 2.4 0 .3.3.6.6.6.9 0 2.8-1.4 3.6-2l.1 1.1c-1.2.9-4.5 3.6-6 3.6-.8 0-1.2-.7-1.2-1.4 0-1.7 1.9-3.7 2.8-5l-.1-.1c-4.6 3.1-5.9 6-6.8 6-.9 0-1.1-2.1-1.1-2.7 0-1.9.7-3.1 1.6-4.7 3.2-5.2 8.5-9.9 9.4-9.9.4 0 1.2.2 1.2.7 0 1.8-8.5 10.7-10.3 12.4v.9z"/><path class="st9" d="M512.6 804.7c-.6 4.3-4.8 7-6.6 7.2-.7.1-1.2-.6-1.2-1.3 0-1.5 1.3-2.6 2.4-3.5l3.5-2.8c-.3-1.1-.7-1.3-1.7-1.6-.4-.1-1-.2-1-.7.1-.9 1.9-1.6 4.9-4.1l-.1-.1-3.3.6-3.1 3.3-.3-.9 1.9-2.3c-.4-.1-.7-.2-.7-.7 0-1 2.1-2.9 2.9-2.9.5 0 .7.5.7.9 2.1-.3 3-.8 3.6-.8.5 0 .9 1.8.9 2.1 0 .4-.5.8-.8 1l-3.4 2.5c.7.5 1.2 1.2 1.4 2.1l4.2-3.3.1 1.2-4.3 4.1zm-5 3.7c-.8.6-1.3 1.2-1.5 2.2 1.8-.5 4.2-2.7 4.5-4.6l-3 2.4z"/><path class="st9" d="M520.9 803.6c-.5.4-2.2 1.8-2.8 1.8-.8 0-2.3-1.8-2.4-3.2-.1-3.4 6.9-6.8 10-6.9 1.2 0 1.7 1 1.7 1.3 0 .3-.7.6-.9.7.5.2.8.5.8 1.1 0 .9-2.3 2.7-2.3 4 0 .5.4.6.8.6 1.1 0 2.7-1.4 3.8-2.1l.2 1c-1.2 1.3-4.8 4.2-6.1 4.2-.9 0-1.3-.6-1.3-1.4 0-.9.6-2.3 1-3l-.1-.1-2.4 2zm-3.3-.7c0 .1.1.6.5.5.5-.1 1.4 0 6.7-5.4l-.1-.1c-6.3 2.1-7.1 3.7-7.1 5z"/><path class="st9" d="m542.2 800.1.2 1.2c-1.4 1.3-4.2 4.6-6.1 4.6-1 0-1.5-.9-1.5-1.8 0-1.6 1.5-3.4 2.3-4.6l-.1-.1c-1.6 1.2-2.9 2.6-4.1 4.1-.4.5-1.4 1.8-2.1 1.8-1.2 0-1.5-1.7-1.5-2.6-.1-1.9 1.6-4.6 3.2-5.9.3-.3.6-.3 1-.3 1.6.1 1.5.4 1.5.6 0 1-3.4 3.8-3.4 4.4 0 .2.1.3.3.3.2 0 .4-.2.5-.4 2.1-2.7 7.1-6 7.9-6 .1 0 .3.1.4.5.2.4.3.9.4 1.5 0 1-3.3 3.1-3.3 4.9 0 .2.2.5.5.5.6 0 1.8-.9 2.3-1.3l1.6-1.4zm20.2-4.9c.2-.2 1.1-1 1.4-1 .3 0 .4.2.3.6l.1.1c2.6-2.3 4.3-4.7 4.3-5.6 0-.5-.3-.6-.7-.5-.5.1-3.5.2-9.6 7.3-1.9 2.2-3.2 5.2-3.2 7.2 0 1.9.9 3 2.8 3 3.4 0 9.3-4.4 11.8-6.7.1 1.4-.3 1.7-1.4 2.7-5.2 5-9.7 6.7-12.2 6.7-3 0-5.1-1.9-5.1-4.9 0-3.9 3.3-8.2 6.1-10.8 2.3-2.2 7.9-6.5 11.1-6.5 1.6 0 2.7.9 2.7 2.6.2 3.6-6.7 10.5-10.1 11-.8.1-1.5-.4-1.5-1.3 0-.8.7-1.6 1.3-2.1l1.9-1.8z"/><path class="st9" d="M574.6 803.6c-.5.4-2.2 1.8-2.8 1.8-.8 0-2.3-1.8-2.4-3.2-.1-3.4 6.9-6.8 10-6.9 1.2 0 1.7 1 1.7 1.3 0 .3-.7.6-.9.7.5.2.8.5.8 1.1 0 .9-2.3 2.7-2.3 4 0 .5.4.6.8.6 1.1 0 2.7-1.4 3.8-2.1l.2 1c-1.2 1.3-4.8 4.2-6.1 4.2-.9 0-1.3-.6-1.3-1.4 0-.9.6-2.3 1-3l-.1-.1-2.4 2zm-3.2-.7c0 .1.1.6.5.5.5-.1 1.4 0 6.7-5.4l-.1-.1c-6.3 2.1-7.1 3.7-7.1 5z"/><path class="st9" d="M586.7 800.8c.8.5 1 1.3 1.4 2.1l3.6-2.3.3 1c-1.1 1-2.1 1.9-3.5 2.6.1.5.1 1 0 1.5-.2 3.2-4 6.2-5.9 6.4-1.2.2-1.6-2.3-1.6-3.2 0-1.7 1.2-3.9 1.9-5.4-.4-.5-.8-.9-.8-1.5 0-1.1.7-1.4 1.5-1.8 1.6-.9 2.4-2.1 3.3-3.7.7-1.3 4.2-7.7 5.5-7.7.6 0 .6.8.6 1.2 0 1-.8 2.9-1.4 3.8l-4.9 7zm-.1 3.9c-.9.1-1.3 0-1.9-.2-.7 1.2-1.1 2.1-1.2 3-.1.9.1 1.6.5 2.4 1.6-1.1 2.8-3.2 2.6-5.2z"/><path class="st9" d="M601.6 801.4c-1.6 1.9-4.6 4.4-7.3 4.4-2 0-2.9-1.7-2.9-3.5-.1-3.5 3.8-7.1 7.3-7.1.9 0 1.9.2 1.9 1.3 0 1.3-1.3 3.3-6.5 5l-.1.6c-.1 1 .8 1.4 1.7 1.4 1.9 0 4.2-2 5.6-3.1l.3 1zm-3.3-4.3c0-.2-.1-.3-.3-.3-1.3.3-2.9 1.6-3.6 3.4 2.3-.8 3.9-2.6 3.9-3.1zm-179.4.9 3.1-11.6h-6.7l3 11.6v8.1h-1.2v.6h3.1v-.6h-1.3z"/><path class="st13" d="M621.5 803.2c.7.1 1.5 0 2.3-.3 1.7-.7 2.6-2.2 2-3.4-.4-.9-1.5-1.4-2.8-1.2 0-.2 0-.3-.1-.5h-15c-.1.4-.1.7-.1 1.1 0 3.1 2 5.7 4.4 5.7h-5.7v.6h18v-.6h-5.8c1 0 2-.5 2.8-1.4zm3.7-3.5c.5 1-.3 2.2-1.6 2.8-.6.2-1.2.3-1.7.2.7-1 1.1-2.3 1.1-3.8v-.2c1 0 1.8.3 2.2 1zm-10.6-4.6s-1.4-2.9.4-4.3c.7-.6.2-2.2 0-3.4.6 2.9-3.1 3.1-.4 7.7z"/><path class="st13" d="M615.3 796.5s.9-1.1-.4-2.1c-.5-.4-.2-1.7 0-2.6-.4 2.3 2.4 1.3.4 4.7z"/><path class="st8" d="M392 805.4v-28.5h252.1z"/><path class="st14" d="M250.6 872.9h102.9v201.8H250.6z"/><path class="st15" d="M255.7 877.8h93.6v93.6h-93.6zm0 99h93.6v93.6h-93.6z"/><path class="st9" d="M319.1 942.9h-33.2c-1.7 0-2.2-.7-2.4-1.2-.2-.4-.3-1.3.9-2.5l15.2-15.2c.8-.8 1.8-1.2 2.9-1.2 1.1 0 2.2.4 2.9 1.2l15.2 15.2c1.2 1.2 1 2.1.9 2.5-.2.5-.8 1.2-2.4 1.2zm-16.6-18.6c-.7 0-1.4.3-1.9.8l-15.2 15.2c-.5.5-.6.8-.5.9 0 .1.3.3 1 .3h33.2c.7 0 1-.2 1-.3 0-.1-.1-.4-.5-.9l-15.2-15.2c-.5-.5-1.2-.8-1.9-.8z"/><path class="st10" d="M276.4 939.3h52.3V955h-52.3z"/><path class="st9" d="M294.8 947.2c0 1.3-.3 2.4-1 3.1-.7.8-1.6 1.1-2.8 1.1-1.2 0-2.2-.4-2.8-1.1-.7-.7-1-1.8-1-3.2 0-1.3.3-2.4 1-3.1.7-.7 1.6-1.1 2.8-1.1 1.2 0 2.1.4 2.8 1.1.7.9 1 1.9 1 3.2zm-6.6 0c0 1.1.2 2 .7 2.5.5.6 1.2.9 2.1.9.9 0 1.6-.3 2.1-.9.5-.6.7-1.4.7-2.6 0-1.1-.2-2-.7-2.5-.5-.6-1.2-.9-2.1-.9-.9 0-1.6.3-2.1.9-.4.7-.7 1.5-.7 2.6zm13.7-1.7c0 .8-.3 1.5-.9 1.9-.6.5-1.4.7-2.5.7h-1v3.3h-1v-8.3h2.1c2.3 0 3.3.8 3.3 2.4zm-4.3 1.8h.9c.9 0 1.5-.1 1.9-.4.4-.3.6-.7.6-1.3 0-.5-.2-1-.5-1.2-.4-.3-.9-.4-1.7-.4h-1.1v3.3zm10.7 4.1h-4.6v-8.3h4.6v.9h-3.7v2.7h3.4v.8h-3.4v3h3.7v.9zm8.3 0h-1.1l-4.5-6.9c.1.8.1 1.6.1 2.2v4.7h-.9v-8.3h1.1l4.5 6.9c0-.1 0-.4-.1-1v-5.9h.9v8.3z"/><circle class="st10" cx="302.5" cy="925.7" r="1.8"/><path class="st16" d="M250.6 953.5v-80.6h102.9z"/><path class="st14" d="M362.9 873.3h417.5v140.2H362.9z"/><path class="st15" d="M367.9 879.1h404.4v128.4H367.9z"/><path class="st17" d="M403.7 965.1c-2.9.4-5.1 2.5-5.1 5v37.4h3v-38c.1-1.7.9-3.3 2.1-4.4zm228 0c1.3 1.1 2.1 2.6 2.1 4.4v38h3v-37.4c0-2.5-2.2-4.6-5.1-5zm-92.8-3.2c.3.6.7 1.8 1.1 3.3.6-.7 1.1-1.4 1.6-2.1 1.8-2.5 3.1-3.8 1.6-5-.7-.5-3 0-4.8.6v1.8c0 .1 0 .2.1.3v.2c0 .1 0 .2.1.3v.1c.2.2.2.4.3.5zm-127.8 3.2c1.3 1.1 2.1 2.6 2.1 4.4v38h3v-37.4c0-2.5-2.2-4.6-5.1-5zm149.5 11.2c1.1-.5 1.7-1.6 1.3-2.5-.3-.6-1-1-1.8-.9v.2c0 1.3-.4 2.5-.9 3.4.4.1.9 0 1.4-.2zm-79.2-3.4c-.8-.1-1.5.3-1.8.9-.4.9.2 2 1.3 2.5.5.2 1 .3 1.4.2-.6-.9-.9-2.1-.9-3.4v-.2zm143-7.8c-2.9.4-5.1 2.5-5.1 5v37.4h3v-38c0-1.7.8-3.3 2.1-4.4z"/><path class="st17" d="m580.1 1005.2 2.5-1.5v-25.2h-21.2v-.5h-4.8c.9 0 1.7-.5 2.4-1.2.6.1 1.2 0 1.9-.2 1.4-.6 2.1-2 1.6-3.1-.3-.8-1.3-1.2-2.3-1.1v-.4h-12.4c0 .3-.1.7-.1 1 0 2.8 1.6 5 3.6 5h-4.7v.5h-7.8c2.4-3.6 2.4-8 1.7-11.4.5-1.2 1.3-2.3 2.1-3.4 1.6-2.4 3.2-4.6 1.1-6.2-1-.8-3.6-.1-5.2.4v-1c0-.6.1-1 .1-1.3.2 0 .4-.2.4-.4s-.2-.4-.4-.4h-.2l-.2-.2s-.1 0-.1-.1l-.1-.1c-.1 0-.1-.1-.2-.1h-.1c-.1 0-.2-.1-.3-.1h-.1c-.1 0-.2-.1-.3-.1-.1 0-.3-.1-.4-.1-.3-.1-.6-.1-.9-.1h-.3c0-.2-.4-.4-.8-.4s-.8.2-.8.4c-1.5.1-2.7.5-3.3 1h-.2c-.2 0-.4.2-.4.4v.1h-2.4.4c1.1.2 4.1 1.1 2.1 6.4-.8 2.1-4 10.7.2 16.8h-4.9l-3.7-7.5v-6h-13.5v13.5H495v-.5h-4.7c2 0 3.6-2.3 3.6-5 0-.3 0-.7-.1-1h-12.3v.4c-1-.1-1.9.3-2.3 1.1-.5 1.1.3 2.4 1.6 3.1.6.3 1.3.4 1.9.2.6.8 1.5 1.2 2.4 1.2h-4.8v.5H453v28.8h127.2l-.1-2.2zm-20-32.1v-.2c.8-.1 1.5.3 1.8.9.4.9-.2 2-1.3 2.5-.5.2-1 .3-1.4.2.5-.9.9-2.1.9-3.4zm-79.1 3.2c-1.1-.5-1.7-1.6-1.3-2.5.3-.6 1-1 1.8-.9v.2c0 1.3.4 2.5.9 3.4-.5.1-.9 0-1.4-.2zm57.6-15.2v-.2c0-.1 0-.2-.1-.3v-1.8c1.8-.6 4.1-1.1 4.8-.6 1.5 1.2.2 2.5-1.6 5-.5.7-1.1 1.4-1.6 2.1-.4-1.5-.9-2.7-1.1-3.3-.1-.1-.1-.3-.1-.4v-.1c-.2-.2-.3-.3-.3-.4z"/><path class="st17" d="M553.1 969.7s-1.1-2.6.3-3.9c.6-.5.2-2 0-3.1.5 2.7-2.5 2.9-.3 7zm.8.8c-.1.1-.1.3-.2.4 0 .1.2-.1.2-.4z"/><path class="st17" d="M553.4 966.8c-.1.8-.4 1.9 0 2.3.6.5.6 1.1.5 1.4 1.2-2.5-.8-1.8-.5-3.7zm-65 2.9c2.2-4-.8-4.3-.3-6.9-.2 1.1-.6 2.5 0 3.1 1.4 1.2.3 3.8.3 3.8zm-.8.8c.1.3.2.4.2.4-.1-.1-.1-.2-.2-.4z"/><path class="st17" d="M488.1 969.1c.5-.4.1-1.5 0-2.3.4 1.9-1.7 1.2-.5 3.8-.1-.4-.1-1 .5-1.5zm131.2 1c0-2.5 2.2-4.6 5.1-5-1.3 1.1-2.1 2.6-2.1 4.4v38h11.5v-38c0-1.8-.8-3.4-2.1-4.4 2.9.4 5.1 2.5 5.1 5v37.4h2.5v-37.4c0-3.9-3.9-7.1-8.6-7.1h-5.2c-4.8 0-8.6 3.2-8.6 7.1v37.4h2.5v-37.4zm-220.6 0c0-2.5 2.2-4.6 5.1-5-1.3 1.1-2.1 2.6-2.1 4.4v38h11.5v-38c0-1.8-.8-3.4-2.1-4.4 2.9.4 5.1 2.5 5.1 5v37.4h2.5v-37.4c0-3.9-3.9-7.1-8.6-7.1h-5.2c-4.8 0-8.6 3.2-8.6 7.1v37.4h2.5v-37.4z"/><path class="st18" d="M772.3 879.1H524.4l-156.5 53.3v75.1h30.2L772.3 880zm-314.5 128.4 314.5-107.2v-10.6l-345.8 117.8zm251.3 0 63.2-21.5v-10.7l-94.5 32.2z"/><path class="st19" d="M523.6 1074.9h-2.3c-3.5-5.2-10.8-9.1-19.5-10.1v-12.3c0-1.5-.4-2.8-1.1-3.9.6 0 1.1-.6 1.1-1.4 0-.5-.2-.9-.4-1.1.3-.3.4-.7.4-1.1 0-.6-.3-1.2-.8-1.3.5-1 .8-2.1.8-3.4v-37c0-3.4-2.1-6.1-4.7-6.1s-4.7 2.7-4.7 6.1v37c0 1.2.3 2.4.8 3.4-.5.2-.8.7-.8 1.3 0 .5.2.9.4 1.1-.3.3-.4.7-.4 1.1 0 .8.5 1.4 1.1 1.4-.7 1.1-1.1 2.4-1.1 3.9v12.3c-8.7 1.1-15.9 4.9-19.4 10.1h-2.4c-.7 0-1.2.6-1.2 1.2 0 .7.6 1.2 1.2 1.2h6.9c.7 0 1.2-.6 1.2-1.2 0-.7-.5-1.2-1.2-1.2 4-4.1 11.3-6.8 19.7-6.8s15.7 2.8 19.7 6.8h-.1c-.7 0-1.2.6-1.2 1.2 0 .7.6 1.2 1.2 1.2h6.9c.7 0 1.2-.6 1.2-1.2-.1-.7-.6-1.2-1.3-1.2z"/><path class="st20" d="m560.1 1014.7-22.8 5V1000h21.1z"/><path class="st21" d="m533.2 1022.8-100.9-11.5v-30.5h129.4v25.1z"/><g class="st22"><path class="st23" d="M432.3 980.8v1.5l1-1.5z"/><path class="st23" d="m433.3 980.8-1 1.5v9.1l6.5-10.6zm16.6 0h-5.5l-12.1 19.7v4.9l1.9 1.1zm-7.5 30.7 18.7-30.7h-5.6l-17.2 28.2zm24.2-30.7L447 1013l5.2.5 20-32.7zm11.1 0-20.3 33.3 5.2.6 20.7-33.9zm11.2 0-21.1 34.5 5.2.6 21.4-35.1zm11.1 0-21.8 35.7 5.2.6 22.2-36.3zm11.1 0-22.5 36.9 5.2.6 22.9-37.5zm11.1 0-23.2 38.1 5.2.6 23.6-38.7zm11.2 0-24 39.3 5.2.5 24.3-39.8zm11.1 0-24.7 40.4 5.2.6 25.1-41zm11.1 0-25.4 41.6 3 .4 3.7-2.2 24.3-39.8zm6.1 8.3-16.1 26.4 8.7-5.2 7.4-12.1z"/></g><g class="st24"><path class="st25" d="m432.3 1011.3 3.6.4-3.6-2.2zm129.4-30.5h-3.3l3.3 2zm-3.3 0h-9.1l12.4 7.6v-5.6zm-27.3 0 30.6 18.7v-5.6l-21.5-13.1zm-18.2 0 44.9 27.5 3.9-2.4v-.8L522 980.8zm-18.3 0 54 32.9 4.6-2.7-49.4-30.2zm-18.2 0 62.9 38.4 4.6-2.7-58.4-35.7zm-18.2 0 67.3 41.1 7.7.9 1.5-.9-67.4-41.1zm-18.2 0 63.1 38.5 11.2 1.3-65.2-39.8zm-7.7 6.5 48.4 29.5 11.2 1.3-59.6-36.4zm0 11.1 26 15.8 11.2 1.3-37.2-22.6z"/><path class="st25" d="m432.3 1009.5 3.6 2.2 11.2 1.3-14.8-9z"/></g><path class="st26" d="M432.3 1002.4v8.9l100.9 11.5 28.5-16.9V997l-28.5 16.8z"/><path class="st26" d="M432.3 998.4v2l100.9 11.4 28.5-16.8v-1.9l-28.5 16.8z"/><path class="st19" d="M504.5 980.8h-4.6v-9.4z"/><path class="st9" d="M487.3 967.3h13.5v13.5h-13.5z"/><path class="st2" d="M488.2 968.3h11.6v11.6h-11.6z"/><path class="st9" d="M491.8 970.8h2c.9 0 1.6.1 2 .4.4.3.6.7.6 1.3 0 .4-.1.7-.3 1-.2.3-.5.4-.9.5.5.1.8.3 1.1.5.2.3.3.6.3 1.1 0 .6-.2 1.1-.6 1.4-.4.3-1 .5-1.8.5h-2.5v-6.7zm1.1 2.8h1.1c.5 0 .8-.1 1-.2.2-.1.3-.4.3-.8 0-.3-.1-.6-.3-.7-.2-.1-.6-.2-1.1-.2h-1v1.9zm0 .9v2.2h1.2c.5 0 .8-.1 1.1-.3.2-.2.4-.5.4-.8 0-.4-.1-.6-.4-.8-.2-.2-.6-.3-1.1-.3h-1.2z"/><path class="st27" d="M487.3 967.3h13.5v13.5z"/><path class="st2" d="M813.2 981.1c-.9-2.1-.2-6.5-.2-6.5h-11.2s5 0 2.5 6.5c-.8 2.1-4 10.7.2 16.8h8.6c4.1-6.1 1-14.7.1-16.8z"/><path class="st2" d="M813 974.1h-.2c-.5-.5-1.6-.8-3-.9 0-.2-.4-.4-.8-.4s-.8.2-.8.4c-1.5.1-2.7.5-3.3 1h-.2c-.2 0-.4.2-.4.4s.2.4.4.4h.1c.5.6 2.1 1.1 4.1 1.1 2 0 3.6-.5 4.1-1.1h.1c.2 0 .4-.2.4-.4 0-.3-.2-.5-.5-.5zm0 16.4c-1.9-3.1 1.2-5.6 2.9-8.1 1.8-2.5 3.1-3.8 1.6-5-.8-.6-3.9.3-5.7 1l-.2-.6c.5-.2 5-1.9 6.4-.9 2.1 1.6.6 3.9-1.1 6.2-1.7 2.5-3.7 5.3-2 8.1l-1.9-.7z"/><path d="M813.2 981.1c-.8-1.7-.4-5.1-.2-6.1.2 0 .4-.2.4-.4s-.2-.4-.4-.4h-.2c-.5-.4-1.5-.8-2.8-.9-.1 1.7-.2 4.1.4 5.6.9 2.4 4 12.1-.2 19.1h2.8c4.2-6.2 1.1-14.8.2-16.9zm-10.9-6.4h-.4.4z" class="st8"/><path class="st2" d="M833.2 996.1c.6.1 1.2 0 1.9-.2 1.4-.6 2.1-2 1.6-3.1-.3-.8-1.3-1.2-2.3-1.1v-.4H822c-.1.3-.1.7-.1 1 0 2.8 1.6 5 3.6 5h-4.7v.5h14.9v-.5h-4.8c.8.1 1.7-.4 2.3-1.2zm3-3c.4.9-.2 2-1.3 2.5-.5.2-1 .3-1.4.2.6-.9.9-2.1.9-3.4v-.2c.8-.1 1.5.2 1.8.9zm-8.7-4.2s-1.1-2.6.3-3.9c.6-.5.2-2 0-3.1.5 2.8-2.5 3-.3 7z"/><path class="st2" d="M828.1 990.2s.8-.9-.3-1.9c-.5-.4-.1-1.5 0-2.3-.4 2 1.9 1.1.3 4.2z"/><path class="st8" d="M833.2 996.1c.6.1 1.2 0 1.9-.2 1.4-.6 2.1-2 1.6-3.1-.3-.8-1.3-1.2-2.3-1.1v-.4h-4.5c.1 1.3.3 5.3-1.3 6.6h7.1v-.5h-4.8c.8 0 1.7-.5 2.3-1.3zm1.2-3.8v-.2c.8-.1 1.5.3 1.8.9.4.9-.2 2-1.3 2.5-.5.2-1 .3-1.4.2.6-.9.9-2.1.9-3.4z"/><path class="st2" d="M759.4 997.4h-4.8v.5h14.9v-.5h-4.7c2 0 3.6-2.3 3.6-5 0-.3 0-.7-.1-1h-12.4v.4c-1-.1-1.9.3-2.3 1.1-.5 1.1.3 2.4 1.6 3.1.6.3 1.3.4 1.9.2.5.7 1.4 1.2 2.3 1.2zm-3.6-5.2v.2c0 1.3.4 2.5.9 3.4-.4.1-.9 0-1.4-.2-1.1-.5-1.7-1.6-1.3-2.5.3-.7 1-1 1.8-.9zm6.9-3.3s1.1-2.6-.3-3.9c-.6-.5-.2-2 0-3.1-.5 2.8 2.5 3 .3 7z"/><path class="st2" d="M762.1 990.2s-.8-.9.3-1.9c.5-.4.1-1.5 0-2.3.4 2-1.9 1.1-.3 4.2z"/><path class="st8" d="M769.4 997.4h-4.7c2 0 3.6-2.3 3.6-5 0-.3 0-.7-.1-1h-4.5c0 1.7-.3 4.5-2.4 6.6h8.1v-.6z"/><path class="st19" d="M411 1074.3v-45c0-2.7-2.2-4.9-4.9-4.9h-25.4c-2.7 0-4.9 2.2-4.9 4.9v45h-2v-45c0-3.8 3.1-6.9 6.9-6.9h25.4c3.8 0 6.9 3.1 6.9 6.9v45h-2z"/><path class="st19" d="M420.6 1074.3v-45c0-2.7-2.2-4.9-4.9-4.9h-25.4c-2.7 0-4.9 2.2-4.9 4.9v45h-2v-45c0-3.8 3.1-6.9 6.9-6.9h25.4c3.8 0 6.9 3.1 6.9 6.9v45h-2zm-25.3-56.5v-45.5c0-2.8-2.8-5.1-6.2-5.1H384c-3.4 0-6.2 2.3-6.2 5.1v45.5h-2.5v-45.5c0-3.9 3.9-7.1 8.6-7.1h5.2c4.8 0 8.6 3.2 8.6 7.1v45.5h-2.4z"/><path class="st19" d="M412.9 1061.4h7.7v1.8h-7.7zm-37.1 0h7.7v1.8h-7.7zm14.6-44.3v-45.5c0-2.1-1.7-3.8-3.8-3.8-2.1 0-3.8 1.7-3.8 3.8v45.5h-2v-45.5c0-3.2 2.6-5.8 5.8-5.8 3.2 0 5.8 2.6 5.8 5.8v45.5h-2z"/><path class="st9" d="M381.8 1017.1v-45.5c0-2.6 2.1-4.8 4.8-4.8 2.6 0 4.8 2.1 4.8 4.8v45.5h-9.6z"/><path class="st28" d="M373 1019.4c0 1.7 1.4 3 3 3h43.5c1.7 0 3-1.4 3-3 0-1.7-1.4-3-3-3H376c-1.6 0-3 1.3-3 3z"/><path class="st19" d="M582.8 1074.3v-45c0-2.7 2.2-4.9 4.9-4.9h25.4c2.7 0 4.9 2.2 4.9 4.9v45h2v-45c0-3.8-3.1-6.9-6.9-6.9h-25.4c-3.8 0-6.9 3.1-6.9 6.9v45h2z"/><path class="st19" d="M573.2 1074.3v-45c0-2.7 2.2-4.9 4.9-4.9h25.4c2.7 0 4.9 2.2 4.9 4.9v45h2v-45c0-3.8-3.1-6.9-6.9-6.9h-25.4c-3.8 0-6.9 3.1-6.9 6.9v45h2zm25.2-56.5v-45.5c0-2.8 2.8-5.1 6.2-5.1h5.2c3.4 0 6.2 2.3 6.2 5.1v45.5h2.5v-45.5c0-3.9-3.9-7.1-8.6-7.1h-5.2c-4.8 0-8.6 3.2-8.6 7.1v45.5h2.3z"/><path class="st19" d="M573.2 1061.4h7.7v1.8h-7.7zm37.1 0h7.7v1.8h-7.7zm-6.9-44.3v-45.5c0-2.1 1.7-3.8 3.8-3.8 2.1 0 3.8 1.7 3.8 3.8v45.5h2v-45.5c0-3.2-2.6-5.8-5.8-5.8-3.2 0-5.8 2.6-5.8 5.8v45.5h2z"/><path class="st9" d="M612 1017.1v-45.5c0-2.6-2.1-4.8-4.8-4.8-2.6 0-4.8 2.1-4.8 4.8v45.5h9.6z"/><path class="st28" d="M620.8 1019.4c0 1.7-1.4 3-3 3h-43.5c-1.7 0-3-1.4-3-3 0-1.7 1.4-3 3-3h43.5c1.6 0 3 1.3 3 3z"/><path class="st19" d="M807.1 1074.9h-2.3c-3.5-5.2-10.8-9.1-19.5-10.1v-12.3c0-1.5-.4-2.8-1.1-3.9.6 0 1.1-.6 1.1-1.4 0-.5-.2-.9-.4-1.1.3-.3.4-.7.4-1.1 0-.6-.3-1.2-.8-1.3.5-1 .8-2.1.8-3.4v-37c0-3.4-2.1-6.1-4.7-6.1s-4.7 2.7-4.7 6.1v37c0 1.2.3 2.4.8 3.4-.5.2-.8.7-.8 1.3 0 .5.2.9.4 1.1-.3.3-.4.7-.4 1.1 0 .8.5 1.4 1.1 1.4-.7 1.1-1.1 2.4-1.1 3.9v12.3c-8.7 1.1-15.9 4.9-19.4 10.1H754c-.7 0-1.2.6-1.2 1.2 0 .7.6 1.2 1.2 1.2h6.9c.7 0 1.2-.6 1.2-1.2 0-.7-.6-1.2-1.2-1.2 4-4.1 11.3-6.8 19.7-6.8 8.4 0 15.7 2.8 19.7 6.8h-.1c-.7 0-1.2.6-1.2 1.2 0 .7.6 1.2 1.2 1.2h6.9c.7 0 1.2-.6 1.2-1.2 0-.7-.5-1.2-1.2-1.2z"/><path class="st20" d="m843.6 1014.7-22.8 5V1000h21.1z"/><path class="st21" d="m816.7 1022.8-100.9-11.5v-30.5h129.4v25.1z"/><g class="st22"><path class="st23" d="M715.8 980.8v1.5l.9-1.5zm.9 0-.9 1.5v9.1l6.5-10.6zm16.7 0h-5.5l-12.1 19.7v4.9l1.9 1.1zm-7.6 30.7 18.8-30.7H739l-17.2 28.2zm24.3-30.7-19.6 32.2 5.2.5 20-32.7zm11.1 0-20.3 33.3 5.2.6 20.7-33.9zm11.2 0-21.1 34.5 5.2.6 21.4-35.1zm11.1 0-21.8 35.7 5.2.6 22.1-36.3zm11.1 0-22.5 36.9 5.2.6 22.9-37.5zm11.1 0-23.2 38.1 5.2.6 23.6-38.7zm11.2 0-24 39.3 5.2.5 24.3-39.8zm11.1 0-24.7 40.4 5.2.6 25-41zm11.1 0-25.4 41.6 3 .4 3.7-2.2 24.3-39.8zm6.1 8.3-16.1 26.4 8.7-5.2 7.4-12.1z"/></g><g class="st24"><path class="st25" d="m715.8 1011.3 3.5.4-3.5-2.2zm129.4-30.5h-3.3l3.3 2zm-3.3 0h-9.1l12.4 7.6v-5.6zm-27.3 0 30.6 18.7v-5.6l-21.5-13.1zm-18.2 0 44.9 27.5 3.9-2.4v-.8l-39.7-24.3zm-18.3 0 53.9 32.9 4.7-2.7-49.4-30.2zm-18.2 0 62.9 38.4 4.6-2.7-58.4-35.7zm-18.2 0 67.3 41.1 7.7.9 1.4-.9-67.3-41.1zm-18.2 0 63 38.5 11.3 1.3-65.2-39.8zm-7.7 6.5 48.3 29.5 11.2 1.3-59.5-36.4zm0 11.1 25.9 15.8 11.2 1.3-37.1-22.6z"/><path class="st25" d="m715.8 1009.5 3.5 2.2 11.2 1.3-14.7-9z"/></g><path class="st26" d="M715.8 1002.4v8.9l100.9 11.5 28.5-16.9V997l-28.5 16.8z"/><path class="st26" d="M715.8 998.4v2l100.9 11.4 28.5-16.8v-1.9l-28.5 16.8z"/><path class="st19" d="M788 980.8h-4.6v-9.4z"/><path class="st9" d="M770.8 967.3h13.5v13.5h-13.5z"/><path class="st2" d="M771.7 968.3h11.6v11.6h-11.6z"/><path class="st9" d="M780 977.6h-4.9v-.8l3.4-5.1h-3.3v-1h4.7v.8l-3.4 5.1h3.5v1z"/><path class="st27" d="M770.8 967.3h13.5v13.5z"/><path class="st19" d="M694.5 1074.3v-45c0-2.7-2.2-4.9-4.9-4.9h-25.4c-2.7 0-4.9 2.2-4.9 4.9v45h-2v-45c0-3.8 3.1-6.9 6.9-6.9h25.4c3.8 0 6.9 3.1 6.9 6.9v45h-2z"/><path class="st19" d="M704.1 1074.3v-45c0-2.7-2.2-4.9-4.9-4.9h-25.4c-2.7 0-4.9 2.2-4.9 4.9v45h-2v-45c0-3.8 3.1-6.9 6.9-6.9h25.4c3.8 0 6.9 3.1 6.9 6.9v45h-2zm-25.3-56.5v-45.5c0-2.8-2.8-5.1-6.2-5.1h-5.2c-3.4 0-6.2 2.3-6.2 5.1v45.5h-2.5v-45.5c0-3.9 3.9-7.1 8.6-7.1h5.2c4.8 0 8.6 3.2 8.6 7.1v45.5h-2.3z"/><path class="st19" d="M696.4 1061.4h7.7v1.8h-7.7zm-37.1 0h7.7v1.8h-7.7zm14.6-44.3v-45.5c0-2.1-1.7-3.8-3.8-3.8-2.1 0-3.8 1.7-3.8 3.8v45.5h-2v-45.5c0-3.2 2.6-5.8 5.8-5.8 3.2 0 5.8 2.6 5.8 5.8v45.5h-2z"/><path class="st9" d="M665.3 1017.1v-45.5c0-2.6 2.1-4.8 4.8-4.8 2.6 0 4.8 2.1 4.8 4.8v45.5h-9.6z"/><path class="st28" d="M656.5 1019.4c0 1.7 1.4 3 3 3H703c1.7 0 3-1.4 3-3 0-1.7-1.4-3-3-3h-43.5c-1.6 0-3 1.3-3 3z"/><path class="st19" d="M866.3 1074.3v-45c0-2.7 2.2-4.9 4.9-4.9h25.4c2.7 0 4.9 2.2 4.9 4.9v45h2v-45c0-3.8-3.1-6.9-6.9-6.9h-25.4c-3.8 0-6.9 3.1-6.9 6.9v45h2z"/><path class="st19" d="M856.7 1074.3v-45c0-2.7 2.2-4.9 4.9-4.9H887c2.7 0 4.9 2.2 4.9 4.9v45h2v-45c0-3.8-3.1-6.9-6.9-6.9h-25.4c-3.8 0-6.9 3.1-6.9 6.9v45h2zm25.2-56.5v-45.5c0-2.8 2.8-5.1 6.2-5.1h5.2c3.4 0 6.2 2.3 6.2 5.1v45.5h2.5v-45.5c0-3.9-3.9-7.1-8.6-7.1h-5.2c-4.8 0-8.6 3.2-8.6 7.1v45.5h2.3z"/><path class="st19" d="M856.7 1061.4h7.7v1.8h-7.7zm37.1 0h7.7v1.8h-7.7zm-6.9-44.3v-45.5c0-2.1 1.7-3.8 3.8-3.8 2.1 0 3.8 1.7 3.8 3.8v45.5h2v-45.5c0-3.2-2.6-5.8-5.8-5.8-3.2 0-5.8 2.6-5.8 5.8v45.5h2z"/><path class="st9" d="M895.5 1017.1v-45.5c0-2.6-2.1-4.8-4.8-4.8-2.6 0-4.8 2.1-4.8 4.8v45.5h9.6z"/><path class="st28" d="M904.2 1019.4c0 1.7-1.4 3-3 3h-43.5c-1.7 0-3-1.4-3-3 0-1.7 1.4-3 3-3h43.5c1.7 0 3 1.3 3 3z"/><path style="fill:#accbc4" d="M1338.4 809.1h423v266.1h-423z"/><path class="st8" d="M1761.3 800.9H1339V850h.7c9.3 0 16.9-4.4 16.9-9.8 0 5.4 7.5 9.8 16.9 9.8 9.3 0 16.9-4.4 16.9-9.8 0 5.4 7.6 9.8 16.9 9.8s16.9-4.4 16.9-9.8c0 5.4 7.6 9.8 16.9 9.8 9.3 0 16.9-4.4 16.9-9.8 0 5.4 7.6 9.8 16.9 9.8 9.3 0 16.9-4.4 16.9-9.8 0 5.4 7.6 9.8 16.9 9.8 9.3 0 16.9-4.4 16.9-9.8 0 5.4 7.6 9.8 16.9 9.8 9.3 0 16.9-4.4 16.9-9.8 0 5.4 7.6 9.8 16.9 9.8 9.3 0 16.9-4.4 16.9-9.8 0 5.4 7.6 9.8 16.9 9.8 9.3 0 16.9-4.4 16.9-9.8 0 5.4 7.5 9.8 16.9 9.8s16.9-4.4 16.9-9.8c0 5.4 7.5 9.8 16.9 9.8 9.3 0 16.9-4.4 16.9-9.8 0 5.4 7.6 9.8 16.9 9.8 9.3 0 16.9-4.4 16.9-9.8 0 5.4 7.5 9.8 16.9 9.8 9.3 0 16.9-4.4 16.9-9.8v-39.3z"/><path class="st30" d="M1322.8 759v67.5c0 9.2 7.6 16.7 16.9 16.7s16.9-7.5 16.9-16.7V759h-33.8z"/><path class="st10" d="M1356.6 759v67.5c0 9.2 7.5 16.7 16.9 16.7 9.3 0 16.9-7.5 16.9-16.7V759h-33.8z"/><path class="st30" d="M1390.3 759v67.5c0 9.2 7.6 16.7 16.9 16.7s16.9-7.5 16.9-16.7V759h-33.8z"/><path class="st10" d="M1424 759v67.5c0 9.2 7.6 16.7 16.9 16.7 9.3 0 16.9-7.5 16.9-16.7V759H1424z"/><path class="st30" d="M1457.8 759v67.5c0 9.2 7.6 16.7 16.9 16.7 9.3 0 16.9-7.5 16.9-16.7V759h-33.8z"/><path class="st10" d="M1491.5 759v67.5c0 9.2 7.6 16.7 16.9 16.7 9.3 0 16.9-7.5 16.9-16.7V759h-33.8z"/><path class="st30" d="M1525.2 759v67.5c0 9.2 7.6 16.7 16.9 16.7 9.3 0 16.9-7.5 16.9-16.7V759h-33.8z"/><path class="st10" d="M1558.9 759v67.5c0 9.2 7.6 16.7 16.9 16.7 9.3 0 16.9-7.5 16.9-16.7V759h-33.8z"/><path class="st30" d="M1592.7 759v67.5c0 9.2 7.6 16.7 16.9 16.7 9.3 0 16.9-7.5 16.9-16.7V759h-33.8z"/><path class="st10" d="M1626.4 759v67.5c0 9.2 7.5 16.7 16.9 16.7s16.9-7.5 16.9-16.7V759h-33.8z"/><path class="st30" d="M1660.1 759v67.5c0 9.2 7.5 16.7 16.9 16.7 9.3 0 16.9-7.5 16.9-16.7V759h-33.8z"/><path class="st10" d="M1693.8 759v67.5c0 9.2 7.6 16.7 16.9 16.7 9.3 0 16.9-7.5 16.9-16.7V759h-33.8z"/><path class="st30" d="M1727.6 759v67.5c0 9.2 7.5 16.7 16.9 16.7 9.3 0 16.9-7.5 16.9-16.7V759h-33.8zm-354.2 113.9h84.3v201.8h-84.3z"/><path class="st15" d="M1377.6 877.8h76.7v93.6h-76.7zm0 99h76.7v93.6h-76.7z"/><path class="st16" d="M1373.4 953.5v-80.6h84.4z"/><path class="st30" d="M1477.5 873.3h230.4v140.2h-230.4z"/><path class="st15" d="M1480.2 879.1h223.2v128.4h-223.2z"/><path class="st30" d="M1594.2 986.3c-26.3 0-47.7-21.4-47.7-47.7 0-26.3 21.4-47.7 47.7-47.7s47.7 21.4 47.7 47.7c0 26.3-21.4 47.7-47.7 47.7zm0-94.5c-25.8 0-46.7 21-46.7 46.7 0 25.8 21 46.7 46.7 46.7s46.7-21 46.7-46.7c0-25.7-20.9-46.7-46.7-46.7z"/><circle class="st30" cx="1594.2" cy="938.6" r="41.7"/><path class="st18" d="m1529.8 1007.5 173.6-107.2v-10.6l-190.9 117.8zm138.7 0 34.9-21.5v-10.7l-52.2 32.2z"/><path class="st31" d="m1580.6 945.4-3.5 7.7c-.3 3.6-.7 6.5-1.4 8.6-.7 2.1-1.3 3.3-2 3.6-.4.2-.6 0-.8-.4-.4-.8-.5-2.1-.3-3.9.1-.7.2-1.4.4-2.1.2-.7.4-1.3.6-1.9.2-.6.5-1.3.9-2.1s.6-1.4.8-1.7c0-3 0-5.2-.1-6.7-.5 1.7-1 3.1-1.5 4.3-.5 1.2-.9 2.1-1.4 2.8-.5.7-1 1.2-1.6 1.5-.6.3-1.4.1-2.4-.6s-1.7-1.6-2.2-2.6c-.2-.5-.4-1-.4-1.6 0-.6 0-1.3.2-2.2.2-.8.5-1.7.9-2.7.4-1 1-2 1.6-3 1.3-2 2.4-3.3 3.4-3.8.8-.4 1.3-.3 1.5.3.4.8-.1 1.9-1.4 3.4-.8.9-1.5 2-2.1 3.2-.6 1.2-1.1 2.3-1.3 3.4-.2 1.1-.2 2 .1 2.6.2.3.4.5.6.6.2.1.5.1.7 0 .4-.2.8-.6 1.1-1.2.3-.6.8-1.7 1.4-3.1.3-.7.5-1.7.9-3 .3-1.3.6-2.4.9-3.2.3-.8.6-1.2 1-1.4.2-.1.5-.1.7-.1s.4.3.5.5c.3.5.4 1.4.5 2.7.1 1.2.1 3.3.1 6.2l2.8-5.2.8 1.1z"/><path class="st31" d="m1579.9 946-.6-1.1c.3-1.1.4-1.9.5-2.6-.4.1-.8 0-1.1-.1-.3-.1-.5-.3-.7-.7-.2-.4-.3-1-.3-1.9 0-.8.2-1.6.4-2.5.2-.8.5-1.4.9-1.8.1-.2.3-.3.4-.4.2-.1.4-.1.5.2.1.2.1.7 0 1.5 2.2-1.6 3.7-2.5 4.3-2.8.2-.1.4-.2.5-.2.3 0 .5.2.9.5.3.3.6.7.8 1.1.1.2.1.6.1 1-.1.4-.2 1-.5 1.8-.3 1-.5 2-.5 3s0 1.7.2 2.1c.3.6.7.7 1.4.3.7-.3 1.6-1.7 2.7-4l.6 1.2-1.2 3.6c-.4.9-.7 1.6-1.1 2.3-.4.6-.8 1-1.2 1.2-.5.2-1 .2-1.6-.1-.5-.3-1-.9-1.4-1.7-.2-.5-.4-1.1-.4-1.9-.1-.8 0-1.7.1-2.7.1-1 .3-2 .6-3.1-.3.2-.6.5-1 .8l-1.2.9c-.4.3-.7.5-1 .7.2 1.7-.3 3.5-1.1 5.4z"/><path class="st31" d="m1593.1 938.7.2.4c.3.7.8 1.2 1.3 1.4.5.2 1.1.2 1.6-.1.6-.3 1.1-.7 1.6-1.3.5-.6.9-1.2 1.3-2 .4-.7.9-1.7 1.4-2.9l.5 1.1c-.6 2.2-1.2 4.1-2 5.5-.8 1.4-1.7 2.4-2.9 3-1 .5-2.1.5-3.1 0s-1.8-1.5-2.5-2.9c-.6-1.2-.9-2.5-.8-3.8.1-1.3.5-2.8 1.3-4.6.5-1.2 1.1-2.2 1.8-3 .7-.8 1.4-1.4 2.1-1.7.6-.3 1.1-.4 1.5-.3.4.1.8.4 1 .9.4.7.4 1.6.2 2.6s-.7 2.1-1.5 3.4c-.6 1.4-1.6 2.8-3 4.3zm-.3-1.3c.9-.9 1.5-1.9 2-2.9s.7-1.8.8-2.6c.1-.7.1-1.2-.1-1.5-.1-.3-.3-.3-.6-.2-.2.1-.5.4-.8.9-.3.5-.7 1.1-.9 1.8-.3.7-.5 1.4-.6 2.2-.1.8-.1 1.6.2 2.3z"/><path class="st31" d="m1603.7 933.6.2.4c.3.7.8 1.2 1.3 1.4.5.2 1.1.2 1.6-.1.6-.3 1.1-.7 1.6-1.3.5-.6.9-1.2 1.3-2 .4-.7.9-1.7 1.4-2.9l.5 1.1c-.6 2.2-1.2 4.1-2 5.5-.8 1.4-1.7 2.4-2.9 3-1 .5-2.1.5-3.1 0s-1.8-1.5-2.5-2.9c-.6-1.2-.9-2.5-.8-3.8.1-1.3.5-2.8 1.3-4.6.5-1.2 1.1-2.2 1.8-3 .7-.8 1.4-1.4 2.1-1.7.6-.3 1.1-.4 1.5-.3.4.1.8.4 1 .9.4.7.4 1.6.2 2.6s-.7 2.1-1.5 3.4c-.6 1.4-1.7 2.8-3 4.3zm-.4-1.3c.9-.9 1.5-1.9 2-2.9s.7-1.8.8-2.6c.1-.7.1-1.2-.1-1.5-.1-.3-.3-.3-.6-.2-.2.1-.5.4-.8.9-.3.5-.7 1.1-.9 1.8-.3.7-.5 1.4-.6 2.2-.1.8 0 1.6.2 2.3z"/><path class="st31" d="M1621.5 920.2c-1 3.3-1.2 5.4-.8 6.3.2.5.6.7 1 .5.3-.2.7-.6 1.1-1.2.4-.6.9-1.7 1.6-3.2l.6 1.2c-.9 2.5-1.6 4.3-2.1 5.4-.5 1.2-1.1 1.9-1.7 2.2-1 .5-1.8.1-2.4-1.2-.2-.4-.3-.8-.4-1.2-.1-.4-.1-.9-.1-1.4s.1-1.2.1-2.2c.1-.9.2-2 .3-3.2-.5.7-1 1.8-1.5 3.3-.4 1-.6 1.8-.8 2.6-.2.8-.4 1.7-.5 2.6-.2 1-.3 1.6-.5 2-.1.4-.3.6-.6.7-.4.2-.9 0-1.6-.7-.7-.6-1.3-1.5-1.8-2.5-.3-.6-.5-1.2-.5-1.6 0-.4 0-1.1.1-2 .2-1.6.5-2.9.8-3.8.3-.9.7-1.4 1.3-1.7.4-.2.7-.3 1-.2.3 0 .5.2.6.4.1.1.1.3.1.4 0 .2 0 .3-.1.5 0 .1-.1.4-.3.9-.9 3-1.1 4.7-.8 5.4.2.3.4.5.6.3.1-.1.3-.4.5-1.1.2-.7.4-1.5.7-2.5.3-1 .7-2.2 1.2-3.4.5-1.2 1.1-2.5 1.9-3.8.4-.7.8-1.2 1.2-1.4.2-.1.5.1.9.5s.8.9 1 1.4c.2.4.1.9-.1 1.7zM924 861.9h332.5v190.7H924z"/><path class="st32" d="M1266.5 1066.5c0 4.6-3.7 8.3-8.3 8.3H920.1c-4.6 0-8.3-3.7-8.3-8.3v-5.6c0-4.6 3.7-8.3 8.3-8.3h338.1c4.6 0 8.3 3.7 8.3 8.3v5.6z"/><path style="fill:#f69220" d="M1138.6 870.3h91.2v182.4h-91.2z"/><path class="st15" d="M1150.3 880.3h67.8v77h-67.8z"/><path class="st34" d="M1150.3 957.3v-77h67.9z"/><path class="st35" d="M1150.3 880.3v2.5h65.8v74.5h2.1v-77z"/><path class="st34" d="M1150.3 967.3h67.8v77h-67.8z"/><path class="st15" d="M1218.2 967.3h-67.9v77z"/><path class="st35" d="M1150.3 1044.3v-2.5h65.8v-74.5h2.1v77z"/><path d="M1152.4 961.5c0 3.5-2.8 6.2-6.2 6.2-3.5 0-6.3-2.8-6.3-6.2 0-3.5 2.8-6.3 6.3-6.3 3.4 0 6.2 2.8 6.2 6.3z" style="fill:#b8babc"/><path class="st2" d="M1152 961.5c0 3.2-2.6 5.8-5.8 5.8-3.2 0-5.8-2.6-5.8-5.8 0-3.2 2.6-5.8 5.8-5.8 3.2-.1 5.8 2.5 5.8 5.8z"/><path d="M1089.2 986.5c0 2.9-2.6 5.3-5.8 5.3H963.2c-3.2 0-5.8-2.4-5.8-5.3s2.6-5.3 5.8-5.3h120.1c3.2 0 5.9 2.4 5.9 5.3zm-124-110.1h115.7v104.8H965.2z" style="fill:#e9bb62"/><path class="st15" d="M976.3 884.5h95.6v96.7h-95.6z"/><path class="st38" d="M976.3 981.2v-96.7h95.6z"/><path class="st35" d="M976.3 884.5v3.1h92.7v93.6h2.9v-96.7z"/><path d="M1089.2 880.3c0 2.9-2.6 5.3-5.8 5.3H963.2c-3.2 0-5.8-2.4-5.8-5.3s2.6-5.3 5.8-5.3h120.1c3.2 0 5.9 2.4 5.9 5.3z" style="fill:#e58925"/><path class="st32" d="M1226.5 783.3v-25.9c0-4.6-3.7-8.3-8.2-8.3h-264c-4.5 0-8.2 3.7-8.2 8.3v25.9h280.4z"/><path class="st40" d="M878.8 877c.6 12.2 10.7 21.9 23.1 21.9 12.4 0 22.5-9.7 23.1-21.9h-46.2z"/><path class="st41" d="M925.1 877c.6 12.2 10.7 21.9 23.1 21.9 12.4 0 22.5-9.7 23.1-21.9h-46.2z"/><path class="st40" d="M971.3 877c.6 12.2 10.7 21.9 23.1 21.9 12.4 0 22.5-9.7 23.1-21.9h-46.2z"/><path class="st41" d="M1016.8 877c.6 12.2 10.7 21.9 23.1 21.9 12.4 0 22.5-9.7 23.1-21.9h-46.2z"/><path d="M1063 877c.6 12.2 10.7 21.9 23.1 21.9 12.4 0 22.5-9.7 23.1-21.9H1063z" style="fill:#e55881"/><path class="st40" d="M1293.4 877c-.6 12.2-10.7 21.9-23.1 21.9-12.4 0-22.5-9.7-23.1-21.9h46.2z"/><path class="st41" d="M1247.2 877c-.7 12.2-10.7 21.9-23.1 21.9-12.4 0-22.5-9.7-23.1-21.9h46.2z"/><path class="st40" d="M1200.9 877c-.6 12.2-10.7 21.9-23.1 21.9-12.4 0-22.5-9.7-23.1-21.9h46.2z"/><path class="st41" d="M1155.5 877c-.6 12.2-10.7 21.9-23.1 21.9-12.4 0-22.5-9.7-23.1-21.9h46.2z"/><path class="st40" d="M1109.2 877c-.6 12.2-10.7 21.9-23.1 21.9-12.4 0-22.5-9.7-23.1-21.9h46.2z"/><path class="st32" d="M1079.7 877H878.8l66.7-88.4h134.2z"/><path class="st43" d="M1074.6 877H925.1l52.7-88.4h101.9z"/><path class="st32" d="M1074.6 877H971l38.8-88.4h69.9z"/><path class="st43" d="M1083.1 877h-66.3l24.9-88.4h40.1z"/><path class="st32" d="M1086.1 788.6h-12.2L1063 877h23.1z"/><path class="st40" d="M1092.6 877h200.9l-66.8-88.4h-134.1z"/><path class="st43" d="M1097.7 877h149.4l-52.7-88.4h-101.8z"/><path class="st32" d="M1097.7 877h103.5l-38.7-88.4h-69.9z"/><path class="st43" d="M1089.2 877h66.3l-24.9-88.4h-40.2z"/><path class="st32" d="M1086.1 788.6h12.3l10.8 88.4h-23.1z"/><path class="st32" d="M1081.8 788.6h7.3V877h-7.3z"/><path class="st44" d="M1266.5 755h3.8v319.9h-3.8zm3.8 7.7h97.2v3.5h-97.2z"/><path class="st44" d="M1293.4 764.4h4v35h-4zm51.5 0h4v35h-4z"/><path d="M1367.5 811.1c0 10-12.8 18-28.5 18h-36.9c-15.8 0-28.5-8.1-28.5-18v-23.3c0-10 12.8-18 28.5-18h36.9c15.8 0 28.5 8.1 28.5 18v23.3z" style="fill:#d1d2d4"/><path class="st31" d="M1364.4 810.3c0 9.3-11.9 16.8-26.6 16.8h-34.4c-14.7 0-26.6-7.5-26.6-16.8v-21.7c0-9.3 11.9-16.8 26.6-16.8h34.4c14.7 0 26.6 7.5 26.6 16.8v21.7z"/><path class="st46" d="M1297.1 786.6c.3-.1.5-.1.8-.2.3-.1.5-.1.8-.2.3 0 .5-.1.8-.1.6 0 1 .1 1.4.4.4.2.7.6.9 1 .2.4.3.9.3 1.4 0 .8-.1 1.7-.4 2.7-.3 1-.7 2-1.2 3s-1.1 2-1.8 2.9c-1 1.2-2.1 2.2-3.5 3-1.4.8-2.6 1.1-3.7 1.1-.8 0-1.6-.2-2.2-.7-.6-.5-1.1-1.1-1.5-2-.4-.9-.5-1.9-.5-3 0-1.6.4-3.1 1.3-4.7s1.9-3 3.2-4.3c1.3-1.3 2.6-2.3 3.9-3.1 1.3-.8 2.4-1.2 3.2-1.2.7 0 1.2.2 1.6.6.4.4.7 1.1 1 2-.9 0-1.7.1-2.3.3-.7.4-1.4.7-2.1 1.1zm-3.6 2.9c-.7.7-1.3 1.6-2 2.8-.7 1.1-1.2 2.2-1.7 3.3-.4 1.1-.6 1.9-.6 2.5 0 1.4.7 2.1 2 2.1.9 0 2.1-.6 3.6-1.9 1.5-1.3 2.7-2.8 3.8-4.5 1.1-1.8 1.6-3.4 1.6-4.8 0-1.1-.4-1.6-1.3-1.6-.6 0-1.4.3-2.4.8-.9.5-1.8 1.2-2.7 2.2-.3.3-.9 1.2-1.8 2.5.2-.9.7-2 1.5-3.4zm9.4 8.4v-.9c.5-.6.9-1.1 1.2-1.6-.3-.1-.5-.2-.7-.4-.1-.2-.2-.4-.2-.7 0-.3.1-.8.4-1.3.3-.5.6-1 1.1-1.5s.8-.8 1.1-.9c.1-.1.3-.1.4-.1.2 0 .3.1.3.3 0 .2-.1.5-.4 1 2-.3 3.2-.5 3.7-.5.2 0 .3 0 .4.1.2.1.3.3.4.6.1.3.2.6.2.9 0 .2-.1.4-.3.7-.2.2-.5.6-.9 1-.5.5-.9 1.1-1.3 1.8-.3.6-.5 1.1-.5 1.4 0 .4.3.7.8.7.6 0 1.6-.6 3-1.8v1c-.8.8-1.4 1.5-2 2-.5.5-1 .9-1.4 1.1-.4.3-.8.4-1.2.4-.4 0-.7-.2-1-.6-.3-.4-.4-.9-.4-1.6 0-.4.1-.9.3-1.4.2-.5.5-1.1.9-1.7.4-.6.9-1.2 1.4-1.8-.3.1-.6.1-.9.2-.3.1-.7.1-1.1.2-.4.1-.7.1-.9.2-.4 1.1-1.2 2.2-2.4 3.2z"/><path class="st46" d="M1313.3 794.2c1.5-1.3 2.9-2.3 4.2-2.9 1.4-.6 2.4-1 3.2-1 .2 0 .4.1.6.2.2.2.3.4.4.6.1.2.2.4.2.5 0 .2-.1.3-.2.4-.1.1-.4.2-.7.3.1.2.2.3.3.6.1.2.2.4.2.6.1.1.1.3.1.4 0 .2-.2.7-.7 1.3-.5.6-.8 1.1-1 1.4s-.3.7-.3 1.1c0 .7.3 1.1 1 1.1s1.7-.6 3.1-1.9v.9c-2.4 2.7-4.1 4-5.2 4-.4 0-.6-.1-.8-.4-.2-.2-.2-.6-.2-1.1 0-.8.3-1.8.8-3.3-1.4 1.5-2.4 2.6-3.1 3.3-.7.7-1.2 1-1.7 1-.2 0-.5-.2-.8-.5-.3-.4-.6-.8-.8-1.4-.2-.6-.4-1.2-.4-1.8 0-.4 0-.8.1-1.1.1-.3.3-.6.5-.9.3-.5.7-.9 1.2-1.4zm6.9-1.6c-2.5 1.1-4.3 2.1-5.3 2.9-1.1.8-1.6 1.6-1.6 2.5 0 .3.1.6.2.8.1.2.2.3.4.3.1 0 .3-.1.6-.2 1-.6 1.9-1.4 2.8-2.3.7-1.1 1.7-2.3 2.9-4z"/><path class="st46" d="M1333.2 794.2c-1.7 1.9-2.5 3.2-2.5 3.9 0 .4.2.6.5.6s.6-.1 1.1-.4c.4-.3 1.1-.8 2.1-1.6v1c-1.4 1.3-2.4 2.3-3.1 2.9-.7.6-1.3.9-1.8.9-.8 0-1.2-.5-1.2-1.5 0-.3 0-.6.1-.9.1-.3.2-.6.4-.9s.4-.8.8-1.4c.3-.6.7-1.3 1.2-2-.5.3-1.2.8-2 1.6-.5.5-1 1-1.4 1.5l-1.2 1.5c-.4.6-.7 1-.9 1.1-.2.2-.4.3-.6.3-.3 0-.6-.3-.8-1-.3-.6-.4-1.4-.4-2.2 0-.5.1-.9.2-1.2.1-.3.4-.7.7-1.3.7-1 1.2-1.8 1.7-2.2.5-.5.9-.7 1.4-.7.3 0 .6.1.7.2.2.1.3.3.3.5 0 .1 0 .2-.1.3-.1.1-.1.2-.2.3s-.2.3-.5.5c-1.5 1.7-2.3 2.8-2.3 3.3 0 .3.1.4.3.4.1 0 .3-.2.7-.6.3-.4.8-.9 1.3-1.4.5-.6 1.1-1.2 1.8-1.9s1.5-1.3 2.4-1.9c.5-.4.9-.5 1.3-.5.2 0 .3.2.5.6.1.4.2.8.2 1.3-.1.1-.3.4-.7.9z"/><path class="st46" d="m1345.7 797.7-4.8 3.9c-1.3 2.3-2.6 4-3.7 5.2-1.1 1.1-1.9 1.7-2.5 1.7-.3 0-.4-.2-.4-.5 0-.7.3-1.6 1-2.6.3-.4.6-.8 1-1.2l1-1c.3-.3.7-.7 1.3-1.1.5-.4.9-.7 1.1-.9 1-1.9 1.6-3.4 2.1-4.5-.9 1-1.7 1.7-2.3 2.3-.7.6-1.3 1.1-1.8 1.4-.6.3-1.1.5-1.5.5-.5 0-.9-.4-1.3-1.2-.4-.8-.6-1.6-.6-2.4 0-.4.1-.8.3-1.2.2-.4.5-.9.8-1.3.4-.5.9-1 1.4-1.5.6-.5 1.3-1 2-1.5 1.5-.9 2.6-1.4 3.5-1.4.6 0 .9.2.9.7 0 .6-.7 1.2-2 1.8-.8.4-1.6.8-2.4 1.4-.8.6-1.4 1.2-1.9 1.9s-.7 1.2-.7 1.8c0 .3.1.5.2.6.1.2.3.2.5.2.3 0 .7-.2 1.1-.5.4-.3 1.1-.8 1.9-1.6.4-.4.9-.9 1.5-1.7.6-.8 1.2-1.4 1.6-1.8.4-.4.8-.6 1.1-.6.2 0 .3.1.5.2s.2.3.2.5c0 .4-.2 1.1-.5 1.9-.3.8-1 2.2-1.9 4.1l3.5-2.5v.9z"/><path class="st46" d="M1347.9 797.3v.4c0 .6.1 1 .4 1.3.3.3.6.5 1.1.5.5 0 1-.1 1.5-.3.5-.2 1-.5 1.5-.9s1.1-.9 1.8-1.5v.9c-1.1 1.3-2.1 2.3-3 3-.9.7-1.9 1-2.9 1-.9 0-1.5-.3-2-1s-.7-1.6-.7-2.7c0-1 .2-1.9.7-2.7.5-.8 1.2-1.7 2.3-2.6.7-.6 1.4-1.1 2.2-1.4.7-.3 1.4-.5 1.9-.5.4 0 .8.1 1.1.3.3.2.4.5.4.9 0 .6-.2 1.2-.7 1.8-.4.6-1.1 1.2-2.1 1.8-1.1.6-2.2 1.1-3.5 1.7zm.1-1c.9-.3 1.6-.8 2.2-1.2.6-.5 1.1-1 1.4-1.4.3-.5.4-.8.4-1 0-.2-.1-.3-.3-.3-.2 0-.5.1-.8.3-.4.2-.8.5-1.2.9s-.8.8-1.1 1.2-.5 1-.6 1.5zm-51 16.1c-.1-.3-.4-.5-.7-.7-.3-.2-.6-.4-1-.5-.4-.1-.7-.2-1.1-.3-1.2-.2-2.3-.6-3.3-1.1-.1 0-.2-.1-.3-.3-.1-.2-.1-.3-.1-.4 0-.5.1-1 .3-1.5.2-.5.4-.9.7-1.2.4-.5 1.2-.9 2.3-1.3 1.1-.4 2.4-.5 3.8-.5.8 0 1.5.1 1.9.2.5.1.7.3.7.6 0 .4-.1.8-.2 1-.1.2-.2.4-.4.5-.1.1-.4.2-.7.3-.4.1-.7.3-1 .4-.3.1-.5.3-.7.4-.2.1-.3.2-.4.2-.1 0-.1 0-.1-.1s.1-.2.3-.4c.2-.2.5-.4.8-.5.3-.2.5-.3.5-.3 0-.1-.2-.1-.5-.1-1.1 0-2.1.1-3 .3-.9.2-1.6.4-2.2.8-.5.3-.8.6-.8 1 0 .2.1.3.3.4.2.1.7.2 1.4.4s1.4.4 2 .7c.8.4 1.5.7 1.9 1.1.4.4.6.8.6 1.3 0 .3-.1.7-.2 1-.2.3-.4.6-.7.9-.3.3-.7.5-1.1.7-.3.1-.8.3-1.3.4-.5.1-1.1.2-1.7.3-.6.1-1.2.1-1.7.1-1 0-1.8-.1-2.5-.3-.6-.2-.9-.5-.9-.9 0-.2.1-.4.3-.8.2-.4.5-.6.7-.7.2-.1.5-.2.7-.2.2 0 .3 0 .3.1v.1h-.2c-.1 0-.2.1-.3.1-.1 0-.1.1-.2.1l-.1.1c0 .1.6.2 1.8.2 1 0 1.9 0 2.6-.1.7-.1 1.3-.2 1.8-.4.8-.5 1.3-.7 1.7-1.1zm5.6-4.7h.4c.3-.6.6-.9.8-1.2.2-.2.5-.3.9-.3.3 0 .5.1.5.2s-.1.3-.4.6c-.3.3-.4.6-.6.8.2 0 .4 0 .5.1h.4c-.3.6-.7 1.2-1.2 1.9h-1.1c-.3.5-.6 1-.8 1.4-.2.4-.4.8-.5 1.1-.1.3-.2.6-.2.9 0 .4.2.6.5.6.2 0 .5-.1.9-.4.4-.2.8-.6 1.4-1.1v.6c-1.6 1.7-2.7 2.6-3.5 2.6-.3 0-.5-.1-.6-.3-.2-.2-.2-.5-.2-.8 0-.2 0-.5.1-.8.1-.3.3-.7.5-1.3-.1.1-.2.1-.2.2l-.2.2-.2.2-.2.2v-.6c.6-.5 1.3-1.4 2.2-2.7h-.5c-.3 0-.6 0-.8.1-.1 0-.1 0-.2.1h-.1v-.1c0-.2.1-.5.4-.9.2-.3.4-.6.5-.7.2-.2.4-.3.6-.3.1-.3.5-.3.9-.3z"/><path class="st46" d="M1309.6 812.2v.6c-.4.3-.7.6-.9.7s-.6.2-1 .1c-.8.9-1.4 1.3-2 1.3-.3 0-.6-.1-.9-.3-.3-.2-.5-.5-.6-.9-.2-.4-.2-.8-.2-1.2 0-.4.1-.8.4-1.2.2-.5.6-.9 1-1.3s.8-.7 1.3-1c.4-.2.9-.4 1.2-.4.3 0 .5 0 .6.1.2.1.2.2.2.4 0 .1-.1.3-.2.4.2 0 .4.1.5.2.1.1.1.3.1.6s-.1.6-.2 1.1c-.1.4-.3.8-.5 1.2l.2.2h.1c.1 0 .2 0 .3-.1s.2-.1.3-.2c-.1 0 .1-.1.3-.3zm-1.8-2.3c-.5.3-.9.6-1.2.8-.3.2-.6.5-.9.7-.2.2-.4.5-.5.7-.1.7-.2 1-.2 1.1 0 .4.3.6.8.6.3 0 .7-.2 1.3-.6-.1-.3-.1-.5-.1-.8 0-.4.1-.7.2-1.1.1-.5.3-.9.6-1.4z"/><path class="st46" d="M1309.5 812.9v-.6c.3-.4.6-.7.7-1-.2-.1-.3-.1-.4-.2-.1-.1-.1-.2-.1-.4s.1-.5.3-.8l.6-.9c.3-.3.5-.5.7-.5.1 0 .2-.1.2-.1.1 0 .2.1.2.2s-.1.3-.3.6c1.2-.2 2-.3 2.3-.3h.3c.1.1.2.2.2.4.1.2.1.4.1.6 0 .1-.1.3-.2.4-.1.1-.3.4-.6.6-.3.3-.6.7-.8 1.1-.2.4-.3.7-.3.9 0 .3.2.4.5.4.4 0 1-.4 1.8-1.1v.6l-1.2 1.2c-.3.3-.6.5-.9.7-.3.2-.5.3-.7.3-.2 0-.4-.1-.6-.3-.2-.2-.2-.5-.2-1 0-.3.1-.5.2-.9.1-.3.3-.7.6-1s.5-.7.8-1.1c-.2 0-.3.1-.5.1s-.4.1-.6.1c-.2 0-.4.1-.5.1-.4.6-.9 1.3-1.6 1.9zm6.7-.4v.2c0 .3.1.6.3.8.2.2.4.3.7.3.3 0 .6-.1.9-.2s.6-.3.9-.5c.3-.2.7-.5 1.1-.9v.5c-.7.8-1.3 1.4-1.8 1.8-.6.4-1.2.6-1.8.6-.5 0-.9-.2-1.2-.6-.3-.4-.5-1-.5-1.6 0-.6.1-1.2.4-1.7.3-.5.8-1 1.4-1.6.4-.4.9-.7 1.3-.9.4-.2.8-.3 1.2-.3.3 0 .5.1.6.2s.2.3.2.6c0 .4-.1.7-.4 1.1-.3.4-.7.7-1.3 1.1-.5.4-1.2.8-2 1.1zm.1-.6c.5-.2 1-.5 1.3-.8.4-.3.6-.6.8-.9.2-.3.3-.5.3-.6 0-.1-.1-.2-.2-.2s-.3.1-.5.2-.5.3-.7.5c-.2.2-.5.5-.7.8-.1.4-.3.7-.3 1z"/><path class="st38" d="m1715.8 772.9 35.8 302.4h-56.4V812l5-41z"/><path class="st47" d="M1715.8 829.4c0 1-.8 1.9-1.9 1.9h-37.4c-1 0-1.9-.8-1.9-1.9 0-1 .8-1.9 1.9-1.9h37.4c1 0 1.9.8 1.9 1.9zm0-56.5c0 1-.8 1.9-1.9 1.9h-37.4c-1 0-1.9-.8-1.9-1.9 0-1 .8-1.9 1.9-1.9h37.4c1 0 1.9.9 1.9 1.9z"/><path class="st47" d="M1711 778.1c0 7.8-7.1 14.1-15.8 14.1-8.7 0-15.8-6.3-15.8-14.1s7.1-14.1 15.8-14.1c8.7 0 15.8 6.3 15.8 14.1z"/><path class="st31" d="M1680.1 772.9c-5.4 6.8-8.9 17.1-8.9 28.6 0 10.1 2.6 19.2 6.9 25.9h34.1c4.3-6.7 6.9-15.8 6.9-25.9 0-11.6-3.5-21.9-8.9-28.6h-30.1z"/><path class="st47" d="m1707.3 829.4-10.2-1.4v-.5l-1.9.3-1.9-.3v.5l-10.2 1.4s8.2 7 7.2 19.4h9.8c-1-12.4 7.2-19.4 7.2-19.4z"/><path class="st47" d="M1693.1 844.6h4.1v186.6h-4.1z"/><path class="st47" d="M1685.7 1029.5h19v46h-19zm4.4-72.7h10.1v4.1h-10.1zm0-87.8h10.1v4.1h-10.1z"/><path class="st38" d="m950.4 772.9 35.9 302.4h-56.4V812l5-41z"/><path class="st47" d="M950.4 829.4c0 1-.8 1.9-1.9 1.9h-37.4c-1 0-1.9-.8-1.9-1.9 0-1 .8-1.9 1.9-1.9h37.4c1.1 0 1.9.8 1.9 1.9zm0-56.5c0 1-.8 1.9-1.9 1.9h-37.4c-1 0-1.9-.8-1.9-1.9 0-1 .8-1.9 1.9-1.9h37.4c1.1 0 1.9.9 1.9 1.9z"/><path class="st47" d="M945.6 778.1c0 7.8-7.1 14.1-15.8 14.1-8.7 0-15.8-6.3-15.8-14.1s7.1-14.1 15.8-14.1c8.8 0 15.8 6.3 15.8 14.1z"/><path class="st31" d="M914.8 772.9c-5.4 6.8-8.9 17.1-8.9 28.6 0 10.1 2.6 19.2 6.9 25.9h34.1c4.3-6.7 6.9-15.8 6.9-25.9 0-11.6-3.5-21.9-8.9-28.6h-30.1z"/><path class="st47" d="m942 829.4-10.2-1.4v-.5l-1.9.3-1.9-.3v.5l-10.2 1.4s8.2 7 7.2 19.4h9.8c-1-12.4 7.2-19.4 7.2-19.4z"/><path class="st47" d="M927.8 844.6h4.1v186.6h-4.1z"/><path class="st47" d="M920.4 1029.5h19v46h-19zm4.4-72.7h10.1v4.1h-10.1zm0-87.8h10.1v4.1h-10.1z"/><path class="st38" d="m185.1 772.9 35.9 302.4h-56.4V812l5-41z"/><path class="st47" d="M185.1 829.4c0 1-.8 1.9-1.9 1.9h-37.4c-1 0-1.9-.8-1.9-1.9 0-1 .8-1.9 1.9-1.9h37.4c1.1 0 1.9.8 1.9 1.9zm0-56.5c0 1-.8 1.9-1.9 1.9h-37.4c-1 0-1.9-.8-1.9-1.9 0-1 .8-1.9 1.9-1.9h37.4c1.1 0 1.9.9 1.9 1.9z"/><path class="st47" d="M180.3 778.1c0 7.8-7.1 14.1-15.8 14.1-8.7 0-15.8-6.3-15.8-14.1s7.1-14.1 15.8-14.1c8.8 0 15.8 6.3 15.8 14.1z"/><path class="st31" d="M149.5 772.9c-5.4 6.8-8.9 17.1-8.9 28.6 0 10.1 2.6 19.2 6.9 25.9h34.1c4.3-6.7 6.9-15.8 6.9-25.9 0-11.6-3.5-21.9-8.9-28.6h-30.1z"/><path class="st47" d="m176.7 829.4-10.2-1.4v-.5l-1.9.3-1.9-.3v.5l-10.2 1.4s8.2 7 7.2 19.4h9.8c-1-12.4 7.2-19.4 7.2-19.4z"/><path class="st47" d="M162.5 844.6h4.1v186.6h-4.1z"/><path class="st47" d="M155 1029.5h19v46h-19zm4.5-72.7h10.1v4.1h-10.1zm0-87.8h10.1v4.1h-10.1z"/></g></g></svg>