<svg version="1.1" id="Calque_1" xmlns="http://www.w3.org/2000/svg" xmlns:xlink="http://www.w3.org/1999/xlink" x="0" y="0" viewBox="240 212.5 1920 1076.5" style="enable-background:new 240 212.5 1920 1076.5" xml:space="preserve"><style>.st10{fill:#5ae584}.st11{fill:#54d375}.st12{fill:#87655c}.st13{fill:#7a5a54}.st14{fill:#2fe06a}.st15{fill:#25c155}.st16{fill:#f5f5f6}.st17{fill:#e1e1e0}</style><defs><path id="SVGID_1_" d="M240.2 212.5h1919.7V1289H240.2z"/></defs><clipPath id="SVGID_2_"><use xlink:href="#SVGID_1_" style="overflow:visible"/></clipPath><path style="clip-path:url(#SVGID_2_);fill:#fafafa" d="M240.1-10.4H2160v1298.3H240.1z"/><defs><path id="SVGID_3_" d="M240.2 212.5h1919.7V1289H240.2z"/></defs><clipPath id="SVGID_4_"><use xlink:href="#SVGID_3_" style="overflow:visible"/></clipPath><path d="M623 759.7h-.8c-2.5-12.2-13.2-21.3-26.1-21.3-7.6 0-14.5 3.2-19.3 8.3-13.3 2.4-23.9 12.6-26.9 25.7h-.8c-11.2 0-20.4 9.1-20.4 20.4 0 11.2 9.1 20.4 20.4 20.4 5.5 0 10.5-2.2 14.2-5.8 5.5 3.9 12.2 6.2 19.5 6.2 8.1 0 15.6-2.9 21.4-7.7 4.9 4.8 11.5 7.7 18.8 7.7 14.9 0 26.9-12 26.9-26.9s-12-27-26.9-27z" style="clip-path:url(#SVGID_4_);fill:#f3f2f2"/><defs><path id="SVGID_5_" d="M240.2 212.5h1919.7V1289H240.2z"/></defs><clipPath id="SVGID_6_"><use xlink:href="#SVGID_5_" style="overflow:visible"/></clipPath><path d="M389.8 517.3h-.8c-2.5-12.2-13.2-21.3-26.1-21.3-7.6 0-14.5 3.2-19.3 8.3-13.3 2.4-23.9 12.6-26.9 25.7h-.8c-11.2 0-20.4 9.1-20.4 20.4 0 11.2 9.1 20.4 20.4 20.4 5.5 0 10.5-2.2 14.2-5.8 5.5 3.9 12.2 6.2 19.5 6.2 8.1 0 15.6-2.9 21.4-7.7 4.9 4.8 11.5 7.7 18.8 7.7 14.9 0 26.9-12 26.9-26.9s-12.1-27-26.9-27z" style="clip-path:url(#SVGID_6_);fill:#f3f2f2"/><defs><path id="SVGID_7_" d="M240.2 212.5h1919.7V1289H240.2z"/></defs><clipPath id="SVGID_8_"><use xlink:href="#SVGID_7_" style="overflow:visible"/></clipPath><path d="M1184.7 706.9h-1c-3.2-15.6-17-27.4-33.5-27.4-9.8 0-18.6 4.1-24.8 10.7-17.1 3.1-30.7 16.2-34.5 33-.4 0-.7-.1-1.1-.1-14.4 0-26.1 11.7-26.1 26.1s11.7 26.1 26.1 26.1c7.1 0 13.5-2.8 18.2-7.4 7.1 5 15.7 8 25.1 8 10.4 0 20-3.7 27.5-9.9 6.2 6.1 14.8 9.9 24.2 9.9 19.1 0 34.5-15.5 34.5-34.5s-15.5-34.5-34.6-34.5z" style="clip-path:url(#SVGID_8_);fill:#f3f2f2"/><defs><path id="SVGID_9_" d="M240.2 212.5h1919.7V1289H240.2z"/></defs><clipPath id="SVGID_10_"><use xlink:href="#SVGID_9_" style="overflow:visible"/></clipPath><path d="M2055.1 470.4h-.9c-3-14.6-15.9-25.7-31.4-25.7-9.1 0-17.4 3.8-23.2 10-5.1.9-9.8 2.8-14.1 5.4-2.7-1-5.6-1.6-8.6-1.6-7 0-13.3 2.9-17.7 7.6-12.2 2.2-21.9 11.5-24.6 23.5h-.8c-10.3 0-18.7 8.4-18.7 18.7 0 10.3 8.4 18.7 18.7 18.7 4.4 0 8.4-1.5 11.6-4.1 4.3 7 12 11.6 20.8 11.6 6.6 0 12.6-2.6 17-6.9 6.6 4.7 14.7 7.5 23.5 7.5 9.8 0 18.7-3.5 25.7-9.2 5.8 5.7 13.8 9.2 22.6 9.2 17.9 0 32.3-14.5 32.3-32.3.1-17.9-14.4-32.4-32.2-32.4z" style="clip-path:url(#SVGID_10_);fill:#f3f2f2"/><defs><path id="SVGID_11_" d="M240.2 212.5h1919.7V1289H240.2z"/></defs><clipPath id="SVGID_12_"><use xlink:href="#SVGID_11_" style="overflow:visible"/></clipPath><path d="M2144.3 750.6v-.4c0-14.9-12-26.9-26.9-26.9h-.8c-2.5-12.2-13.2-21.3-26.1-21.3-7.6 0-14.5 3.2-19.3 8.3-13.3 2.4-23.9 12.6-26.9 25.7h-.8c-9.3 0-17.1 6.2-19.5 14.7l120.3-.1z" style="clip-path:url(#SVGID_12_);fill:#f3f2f2"/><defs><path id="SVGID_13_" d="M240.2 212.5h1919.7V1289H240.2z"/></defs><clipPath id="SVGID_14_"><use xlink:href="#SVGID_13_" style="overflow:visible"/></clipPath><path d="M839.1 494.9v-.4c0-14.9-12-26.9-26.9-26.9h-.8c-2.5-12.2-13.2-21.3-26.1-21.3-7.6 0-14.5 3.2-19.3 8.3-13.3 2.4-23.9 12.6-26.9 25.7h-.8c-9.3 0-17.1 6.2-19.5 14.7h120.3v-.1z" style="clip-path:url(#SVGID_14_);fill:#f3f2f2"/><defs><path id="SVGID_15_" d="M240.2 212.5h1919.7V1289H240.2z"/></defs><clipPath id="SVGID_16_"><use xlink:href="#SVGID_15_" style="overflow:visible"/></clipPath><path d="M1102.1 547.6v-.8c0-30.9-25.1-56-56-56h-1.6c-5.1-25.4-27.5-44.5-54.4-44.5-15.8 0-30.1 6.6-40.2 17.3-27.7 5-49.8 26.2-55.9 53.5-.6 0-1.2-.1-1.7-.1-19.3 0-35.6 12.9-40.7 30.6h250.5z" style="clip-path:url(#SVGID_16_);fill:#f3f2f2"/><defs><path id="SVGID_17_" d="M240.2 212.5h1919.7V1289H240.2z"/></defs><clipPath id="SVGID_18_"><use xlink:href="#SVGID_17_" style="overflow:visible"/></clipPath><g style="clip-path:url(#SVGID_18_)"><path d="M1822.7 1084.4v-12.2h6.6v-2.4h-103.2v2.4h6.3v12.2h-13.2v26.6H1699v-61.2h-82.4v-13.4h-6.3v13.4h-11.8v101h-22.3v-60.4h-14.5v-145l-50.7-23-50.7 23v70h-17.4v-17.8H1426v17.8h-13.9v-7h-11.7v7h-10.2V891.8H1370v-9.1h14.2v-6.1h-88v6.1h14.2v9.1H1290v198.5h-22.3V891.8h-10.1v-18.1h-30.9v18.1h-18.1v-18.1h-30.9v18.1h-10.1v194h-45.9V1069h-20.2v16.8h-6.7v37.3h-48.5v-55.9l-88.6-35.5v143.8h878.1v-91.2l-13.1.1zm-503.8-201.6h42.5v9.1h-42.5v-9.1zm419.8 201.6v-12.2h77.7v12.2h-77.7z" style="fill:#ffb03e"/><path class="st10" d="M240.1 1175.4h1919.7V1289H240.1zm530 0h-530v-72.1c40.7-26.5 85.5-50.2 165.7-50.2 182.2.1 182.2 122.3 364.3 122.3z"/><path class="st11" d="M405.8 1175.4h364.3c-182.2 0-182.2-122.2-364.3-122.2v122.2z"/><path class="st10" d="M1236 1175.4c-232.9 0-232.9-156.3-465.9-156.3-232.9 0-232.9 156.3-465.9 156.3H1236z"/><path class="st11" d="M770.1 1175.4H1236c-232.9 0-232.9-156.3-465.9-156.3v156.3z"/><path class="st10" d="M2159.8 1050.7v124.8h-440.6c192.2 0 192.2-129 384.4-129 20.7 0 39.3 1.5 56.2 4.2z"/><path class="st11" d="M2159.8 1050.7v124.8h-56.2v-129c20.7 0 39.3 1.5 56.2 4.2z"/><path class="st12" d="M634 1136.2v76.8c0 2.7 3.3 4.8 7.3 4.8s7.3-2.2 7.3-4.8v-76.8H634z"/><path class="st13" d="M648.6 1136.2v76.8c0 2.7-3.3 4.8-7.3 4.8v-81.6h7.3z"/><ellipse class="st14" cx="641.3" cy="1089.9" rx="48.4" ry="91.1"/><path class="st15" d="M641.3 998.8V1181c26.7 0 48.4-40.8 48.4-91.1s-21.7-91.1-48.4-91.1z"/><circle class="st15" cx="618.8" cy="1145.2" r="4.7"/><circle class="st15" cx="631.4" cy="1111.4" r="4.7"/><circle class="st15" cx="602" cy="1086.5" r="4.7"/><circle class="st15" cx="626.7" cy="1054.3" r="4.7"/><circle class="st14" cx="651.2" cy="1019" r="4.7"/><circle class="st14" cx="670.1" cy="1042" r="4.7"/><circle class="st14" cx="651.2" cy="1068.9" r="4.7"/><circle class="st14" cx="670.1" cy="1084.1" r="4.7"/><circle class="st14" cx="649.6" cy="1120.7" r="4.7"/><circle class="st14" cx="664.6" cy="1152.6" r="4.7"/><circle class="st15" cx="618.8" cy="1026.6" r="4.7"/><path class="st12" d="M455.8 1085.1V1190c0 3.6 4.5 6.6 10 6.6s10-2.9 10-6.6v-104.9h-20z"/><path class="st13" d="M475.7 1085.1V1190c0 3.6-4.5 6.6-10 6.6v-111.4l10-.1z"/><ellipse class="st14" cx="465.8" cy="1021.9" rx="66.1" ry="124.4"/><path class="st15" d="M465.8 897.4v248.9c36.5 0 66.1-55.7 66.1-124.4s-29.6-124.5-66.1-124.5z"/><circle class="st15" cx="435.1" cy="1097.4" r="6.4"/><circle class="st15" cx="452.2" cy="1051.1" r="6.4"/><circle class="st15" cx="412.2" cy="1017.2" r="6.4"/><circle class="st15" cx="445.9" cy="973.1" r="6.4"/><circle class="st14" cx="479.3" cy="924.9" r="6.4"/><circle class="st14" cx="505.2" cy="956.4" r="6.4"/><circle class="st14" cx="479.3" cy="993.1" r="6.4"/><circle class="st14" cx="505.2" cy="1013.9" r="6.4"/><circle class="st14" cx="477.1" cy="1063.9" r="6.4"/><circle class="st14" cx="497.6" cy="1107.4" r="6.4"/><circle class="st15" cx="435.1" cy="935.3" r="6.4"/><path class="st12" d="M1911.3 1115.2v89.9c0 3.1 3.8 5.6 8.6 5.6s8.6-2.5 8.6-5.6v-89.9h-17.2z"/><path class="st13" d="M1928.4 1115.2v89.9c0 3.1-3.8 5.6-8.6 5.6v-95.6l8.6.1z"/><ellipse class="st14" cx="1919.9" cy="1060.9" rx="56.7" ry="106.7"/><path class="st15" d="M1919.9 954.2v213.5c31.3 0 56.7-47.8 56.7-106.7 0-59-25.4-106.8-56.7-106.8z"/><circle class="st15" cx="1893.6" cy="1125.7" r="5.5"/><circle class="st15" cx="1908.3" cy="1086" r="5.5"/><circle class="st15" cx="1873.9" cy="1056.9" r="5.5"/><circle class="st15" cx="1902.8" cy="1019.1" r="5.5"/><circle class="st14" cx="1931.5" cy="977.8" r="5.5"/><circle class="st14" cx="1953.7" cy="1004.8" r="5.5"/><circle class="st14" cx="1931.5" cy="1036.3" r="5.5"/><circle class="st14" cx="1953.7" cy="1054.1" r="5.5"/><circle class="st14" cx="1929.6" cy="1096.9" r="5.5"/><circle class="st14" cx="1947.2" cy="1134.3" r="5.5"/><circle class="st15" cx="1893.6" cy="986.7" r="5.5"/><path class="st14" d="M1065.5 1207.6c-10.3 0-18.6 8.3-18.6 18.6h37.3c-.1-10.3-8.4-18.6-18.7-18.6z"/><path class="st15" d="M1082.7 1214c-6.8 0-12.2 5.5-12.2 12.2h24.5c-.1-6.7-5.6-12.2-12.3-12.2z"/><path class="st12" d="M2067.1 1118.1v128.1c0 4.4 5.5 8 12.2 8s12.2-3.6 12.2-8v-128.1h-24.4z"/><path class="st13" d="M2091.3 1118.1v128.1c0 4.4-5.5 8-12.2 8v-136.1h12.2z"/><ellipse class="st14" cx="2079.3" cy="1040.9" rx="80.7" ry="152"/><path class="st15" d="M2079.3 888.9v303.9c44.6 0 80.7-68 80.7-152-.1-83.9-36.2-151.9-80.7-151.9z"/><circle class="st15" cx="2041.8" cy="1133.1" r="7.8"/><circle class="st15" cx="2062.6" cy="1076.6" r="7.8"/><circle class="st15" cx="2013.8" cy="1035.2" r="7.8"/><circle class="st15" cx="2054.9" cy="981.4" r="7.8"/><circle class="st14" cx="2095.8" cy="922.5" r="7.8"/><circle class="st14" cx="2127.3" cy="961" r="7.8"/><circle class="st14" cx="2095.8" cy="1005.8" r="7.8"/><circle class="st14" cx="2127.3" cy="1031.2" r="7.8"/><circle class="st14" cx="2093.1" cy="1092.2" r="7.8"/><circle class="st14" cx="2118.1" cy="1145.3" r="7.8"/><circle class="st15" cx="2041.8" cy="935.2" r="7.8"/><path class="st14" d="M2091.4 1241.9c-6.8 0-12.2 5.5-12.2 12.2h24.5c-.1-6.7-5.4-12.2-12.3-12.2z"/><path class="st15" d="M2115.1 1233.5c-11.4 0-20.7 9.2-20.7 20.7h41.3c-.1-11.4-9.3-20.7-20.6-20.7z"/><path class="st16" d="M1520.4 1223.7c-10.8 0-19.6 8.8-19.6 19.6h39.2c.1-10.8-8.7-19.6-19.6-19.6z"/><path class="st17" d="M1540.1 1243.3c0-10.8-8.8-19.6-19.6-19.6v19.6h19.6z"/><path class="st16" d="M592.9 1209.2c-10.8 0-19.6 8.8-19.6 19.6h39.2c0-10.8-8.8-19.6-19.6-19.6z"/><path class="st17" d="M612.5 1228.8c0-10.8-8.8-19.6-19.6-19.6v19.6h19.6z"/><path class="st16" d="M1764.8 1180.5c-5.7 0-10.3 4.6-10.3 10.3h20.7c-.1-5.7-4.7-10.3-10.4-10.3z"/><path class="st17" d="M1775.1 1190.8c0-5.7-4.6-10.3-10.3-10.3v10.3h10.3z"/><path class="st16" d="M718.4 1194.4c-5.7 0-10.3 4.6-10.3 10.3h20.7c-.1-5.7-4.7-10.3-10.4-10.3z"/><path class="st17" d="M728.7 1204.7c0-5.7-4.6-10.3-10.3-10.3v10.3h10.3z"/><path class="st16" d="M1964.6 1201.1c-8.3 0-15 6.7-15 15h30.1c0-8.3-6.8-15-15.1-15z"/><path class="st17" d="M1979.7 1216.1c0-8.3-6.7-15-15-15v15h15z"/><path class="st12" d="M882.7 1024.5v22.5c0 .8 1 1.4 2.1 1.4 1.2 0 2.1-.6 2.1-1.4v-22.5h-4.2z"/><path class="st13" d="M887 1024.5v22.5c0 .8-1 1.4-2.1 1.4v-24l2.1.1z"/><path class="st14" d="m884.8 974.5-19.7 62h39.4z"/><path class="st15" d="m904.5 1036.5-19.7-62v62z"/><path class="st12" d="M716.8 1009v16.5c0 .6.7 1 1.6 1s1.6-.5 1.6-1V1009h-3.2z"/><path class="st13" d="M720 1009v16.5c0 .6-.7 1-1.6 1V1009h1.6z"/><path class="st14" d="m718.4 972.4-14.4 45.4h28.8z"/><path class="st15" d="m732.8 1017.8-14.4-45.4v45.4z"/><path class="st12" d="M1018.7 1123.6v22.5c0 .8 1 1.4 2.1 1.4s2.1-.6 2.1-1.4v-22.5h-4.2z"/><path class="st13" d="M1023 1123.6v22.5c0 .8-1 1.4-2.1 1.4v-24l2.1.1z"/><path class="st14" d="m1020.8 1073.6-19.7 62h39.4z"/><path class="st15" d="m1040.5 1135.6-19.7-62v62z"/><path class="st12" d="M1822.2 1150.6v22.5c0 .8 1 1.4 2.1 1.4 1.2 0 2.1-.6 2.1-1.4v-22.5h-4.2z"/><path class="st13" d="M1826.5 1150.6v22.5c0 .8-1 1.4-2.1 1.4v-24l2.1.1z"/><path class="st14" d="m1824.3 1100.5-19.7 62.1h39.4z"/><path class="st15" d="m1844 1162.6-19.7-62.1v62.1z"/><path class="st12" d="M551.4 1086.6v22.5c0 .8 1 1.4 2.1 1.4 1.2 0 2.1-.6 2.1-1.4v-22.5h-4.2z"/><path class="st13" d="M555.7 1086.6v22.5c0 .8-1 1.4-2.1 1.4v-24l2.1.1z"/><path class="st14" d="m553.6 1036.5-19.7 62.1h39.3z"/><path class="st15" d="m573.2 1098.6-19.6-62.1v62.1z"/><path class="st12" d="M270.1 1081.9v22.5c0 .8 1 1.4 2.1 1.4 1.2 0 2.1-.6 2.1-1.4v-22.5h-4.2z"/><path class="st13" d="M274.4 1081.9v22.5c0 .8-1 1.4-2.1 1.4v-24l2.1.1z"/><path class="st14" d="m272.2 1031.9-19.7 62h39.4z"/><path class="st15" d="m291.9 1093.9-19.7-62v62z"/><path class="st12" d="M797.5 1117.7v35.3c0 1.2 1.5 2.2 3.4 2.2s3.4-1 3.4-2.2v-35.3h-6.8z"/><path class="st13" d="M804.2 1117.7v35.3c0 1.2-1.5 2.2-3.4 2.2v-37.5h3.4z"/><path class="st14" d="m800.9 1039.4-30.8 97h61.6z"/><path class="st15" d="m831.7 1136.4-30.8-97v97z"/><path class="st12" d="M315.7 1129.1v67.1c0 2.3 2.9 4.2 6.4 4.2s6.4-1.9 6.4-4.2v-67.1h-12.8z"/><path class="st13" d="M328.5 1129.1v67.1c0 2.3-2.9 4.2-6.4 4.2v-71.3h6.4z"/><ellipse class="st14" cx="322.1" cy="1088.6" rx="42.3" ry="79.7"/><path class="st15" d="M322.1 1008.9v159.3c23.4 0 42.3-35.7 42.3-79.7s-18.9-79.6-42.3-79.6z"/><circle class="st15" cx="302.5" cy="1136.9" r="4.1"/><circle class="st15" cx="313.5" cy="1107.3" r="4.1"/><circle class="st15" cx="287.8" cy="1085.6" r="4.1"/><circle class="st15" cx="309.4" cy="1057.4" r="4.1"/><circle class="st14" cx="330.8" cy="1026.5" r="4.1"/><circle class="st14" cx="347.4" cy="1046.7" r="4.1"/><circle class="st14" cx="330.8" cy="1070.2" r="4.1"/><circle class="st14" cx="347.4" cy="1083.5" r="4.1"/><circle class="st14" cx="329.4" cy="1115.5" r="4.1"/><circle class="st14" cx="342.5" cy="1143.3" r="4.1"/><circle class="st15" cx="302.5" cy="1033.2" r="4.1"/><path class="st14" d="M312.5 1196.6c-6 0-10.9 4.9-10.9 10.9h21.8c0-6-4.9-10.9-10.9-10.9z"/><path class="st15" d="M333.5 1189.1c-10.2 0-18.4 8.2-18.4 18.4h36.8c0-10.2-8.3-18.4-18.4-18.4z"/></g></svg>