<svg xmlns="http://www.w3.org/2000/svg" viewBox="0 0 612 612" style="enable-background:new 0 0 612 612" xml:space="preserve"><path d="M89.7 139.2c-11.3-26.5.9-57.1 27.4-68.5 6.5-2.8 13.5-4.2 20.5-4.2h322.6V53.7H112c-28.8 0-52.2 23.4-52.1 52.2 0 25 17.7 46.5 42.3 51.2.1 0 .2 0 .3.1-5.6-5.1-9.9-11.2-12.8-18z" style="fill:#d4e1f4"/><path d="M489.7 98h-14V46c0-4.3-3.4-7.7-7.7-7.7H112c-37.3 0-67.6 30.2-67.6 67.5 0 32.4 23 60.2 54.8 66.3 3 .6 5.1 3.3 5.1 6.3v52.9c0 16.1 13.1 29.2 29.2 29.2s29.2-13.1 29.2-29.2v-32.9c0-7.6 6.2-13.8 13.8-13.8h.3c7.6 0 13.8 6.2 13.8 13.8v103.8c0 16.1 13.1 29.2 29.2 29.2h.2c16.1 0 29.2-13.1 29.2-29.2V179.9c0-3.6 2.9-6.5 6.5-6.5H468c4.3 0 7.7-3.4 7.7-7.7v-52.2h14c34.5 0 62.5 28 62.5 62.5s-28 62.5-62.5 62.5H310.1c-4.3 0-7.7 3.4-7.7 7.7v96.3c0 4.3 3.4 7.7 7.7 7.7 4.3 0 7.7-3.4 7.7-7.7v-88.6h171.9c43 0 77.9-34.9 77.9-77.9s-34.9-78-77.9-78zm-29.4 60H255.5c-12.1 0-21.9 9.8-21.9 21.9v122.5c0 7.6-6.2 13.8-13.8 13.8h-.2c-7.6 0-13.8-6.2-13.8-13.8V198.6c0-16.1-13.1-29.2-29.2-29.2h-.3c-16.1 0-29.2 13.1-29.2 29.2v32.9c0 7.6-6.2 13.8-13.8 13.8-7.6 0-13.8-6.2-13.8-13.8v-52.9c0-10.4-7.3-19.4-17.6-21.5-28.3-5.5-46.8-32.8-41.3-61.1 4.7-24.5 26.2-42.3 51.2-42.3h348.3V158h.2z" style="fill:#5596e6"/><path d="M273.4 573.7h73.3c4.3 0 7.7-3.4 7.7-7.7V343.8c0-4.3-3.4-7.7-7.7-7.7h-73.3c-4.3 0-7.7 3.4-7.7 7.7V566c0 4.3 3.5 7.7 7.7 7.7zm65.6-53.8h-57.9v-23.1H339v23.1zm0-38.5h-57.9v-23.1H339v23.1zm-57.9 76.9v-23.1H339v23.1h-57.9zM339 351.5v91.4h-57.9v-91.4H339z" style="fill:#41d6c3"/></svg>