<svg version="1.1" id="Layer_1" xmlns="http://www.w3.org/2000/svg" x="0" y="0" viewBox="-49 141 512 512" style="enable-background:new -49 141 512 512" xml:space="preserve"><style>.st1{fill:#7f00ff}.st2{fill:#1ce589}</style><path d="M20.5 581.3C12.3 575.7 4.6 566-.7 554.5c-4.1-8.7-6.3-17.7-6.3-25.2v-80.8l74.3-36.4-10-4.9-84.3 41.3v80.8c0 7.5 2.2 16.5 6.3 25.2 5.3 11.4 13 21.2 21.2 26.8L57.4 620l10-6.8-46.9-31.9z" style="fill:#d4e1f4"/><path class="st1" d="M114.7 304.2h192.8c3.3 0 6-2.7 6-6s-2.7-6-6-6H114.7c-3.3 0-6 2.7-6 6s2.7 6 6 6zm0 61.5h192.8c3.3 0 6-2.7 6-6s-2.7-6-6-6H114.7c-3.3 0-6 2.7-6 6s2.7 6 6 6zm0 51.3h192.8c3.3 0 6-2.7 6-6s-2.7-6-6-6H114.7c-3.3 0-6 2.7-6 6s2.7 6 6 6z"/><path class="st1" d="M453 500.1c0-17.5-14.2-31.6-31.6-31.6-17.5 0-31.6 14.2-31.6 31.6 0 15.2 10.8 28.2 25.6 31.1v58.4H371v-353c0-3.3-2.7-6-6-6h-55.5v-64c0-3.3-2.7-6-6-6H118.8c-3.3 0-6 2.7-6 6v64H57.3c-3.3 0-6 2.7-6 6v163.9h12V242.7H359v347h-59.8V561c0-3.3-2.7-6-6-6h-29.9v-91.1c0-3.3-2.7-6-6-6H165c-3.3 0-6 2.7-6 6V555h-20.7v12h148.9v22.7h-183c-3.3 0-6 2.7-6 6s2.7 6 6 6H447c3.3 0 6-2.7 6-6s-2.7-6-6-6h-19.6v-58.4c14.8-3 25.6-16 25.6-31.2zM124.8 172.7h172.6v58H124.8v-58zM171 469.9h34.1v84.7h12v-84.7h34.2V555H171v-85.1zm230.7 30.2c0-10.8 8.8-19.6 19.6-19.6s19.6 8.8 19.6 19.6-8.8 19.6-19.6 19.6c-10.8.1-19.6-8.7-19.6-19.6z"/><path class="st2" d="M150.4 439.5 60 395.2c-1.7-.8-3.6-.8-5.3 0l-90.4 44.2c-2.1 1-3.4 3.1-3.4 5.4v84.6c0 9.4 2.6 19.8 7.4 30.3 6.2 13.3 15.4 24.9 25.3 31.6l60.2 41c2 1.4 4.7 1.4 6.8 0l60.2-41c18.4-12.5 32.7-39.7 32.7-61.9v-84.5c.2-2.3-1.1-4.4-3.1-5.4zm-8.7 89.9c0 18-12.6 41.8-27.5 52l-56.9 38.7L.5 581.3c-8.2-5.6-15.9-15.3-21.2-26.8-4.1-8.7-6.3-17.7-6.3-25.2v-80.8l84.4-41.3 84.4 41.4v80.8z"/><path class="st2" d="M23.3 507c-2.4-2.3-6.2-2.2-8.5.2-2.3 2.4-2.2 6.1.1 8.4l27.3 26.6c2.3 2.3 6 2.3 8.4 0l49.2-48c2.4-2.3 2.4-6.1.1-8.5-2.3-2.3-6.1-2.4-8.4-.1l-45 43.9L23.3 507z"/></svg>